<?xml version="1.0" standalone="no"?>
<!DOCTYPE svg PUBLIC "-//W3C//DTD SVG 1.1//EN" "http://www.w3.org/Graphics/SVG/1.1/DTD/svg11.dtd" >
<svg xmlns="http://www.w3.org/2000/svg" xmlns:xlink="http://www.w3.org/1999/xlink" version="1.1">
<metadata>
Created by FontForge 20201107 at Tue Jun  3 09:13:13 2025
 By 
copyright missing
</metadata>
<defs>
<font id="Gik-Medium" horiz-adv-x="1329" >
  <font-face 
    font-family="Gik Medium"
    font-weight="400"
    font-stretch="normal"
    units-per-em="2048"
    panose-1="0 0 0 0 0 0 0 0 0 0"
    ascent="1638"
    descent="-410"
    x-height="1034"
    cap-height="1372"
    bbox="0 -434 2531 1790"
    underline-thickness="102"
    underline-position="-255"
    unicode-range="U+0020-2212"
  />
<missing-glyph horiz-adv-x="1935" 
d="M776 918l-268 454h127l262 -450q29 -47 71 -47t70 47l262 450h125l-266 -454q-46 -79 -119.5 -106.5t-146.5 1.5t-117 105zM174 645v109h551q61 0 108 -26t71 -66.5t23 -94.5t-32 -106l-270 -461h-125l309 526q28 47 6 83t-78 36h-563zM1042 461q-31 52 -32.5 105.5
t22 94.5t71 67t109.5 26h549v-109h-563q-56 0 -78 -36t6 -83l308 -526h-125z" />
    <glyph glyph-name=".notdef" horiz-adv-x="1935" 
d="M776 918l-268 454h127l262 -450q29 -47 71 -47t70 47l262 450h125l-266 -454q-46 -79 -119.5 -106.5t-146.5 1.5t-117 105zM174 645v109h551q61 0 108 -26t71 -66.5t23 -94.5t-32 -106l-270 -461h-125l309 526q28 47 6 83t-78 36h-563zM1042 461q-31 52 -32.5 105.5
t22 94.5t71 67t109.5 26h549v-109h-563q-56 0 -78 -36t6 -83l308 -526h-125z" />
    <glyph glyph-name=".null" horiz-adv-x="0" 
 />
    <glyph glyph-name="nonmarkingreturn" horiz-adv-x="682" 
 />
    <glyph glyph-name="space" unicode=" " horiz-adv-x="542" 
 />
    <glyph glyph-name="space" unicode="&#xa0;" horiz-adv-x="542" 
 />
    <glyph glyph-name="exclam" unicode="!" horiz-adv-x="522" 
d="M195 0v205h194v-205h-194zM231 440v932h123v-932h-123z" />
    <glyph glyph-name="quotedbl" unicode="&#x22;" horiz-adv-x="657" 
d="M248 1434v-549h-115v549h115zM412 885v549h112v-549h-112z" />
    <glyph glyph-name="numbersign" unicode="#" horiz-adv-x="1501" 
d="M623 0l372 649h-342l-374 -649h-125l374 649h-374v113h208l355 610h125l-355 -610h344l353 610h127l-355 -610h392v-113h-226l-374 -649h-125z" />
    <glyph glyph-name="dollar" unicode="$" horiz-adv-x="1347" 
d="M225 78v117h762q43 0 71.5 28.5t28.5 71.5v246q0 43 -28.5 71.5t-71.5 28.5h-530q-126 0 -211.5 79t-85.5 202v102q0 123 86.5 201t220.5 78h162v233h116v-233h392v-115h-760q-43 0 -72 -29t-29 -72v-229q0 -43 29 -71.5t72 -28.5h530q125 0 211 -80t86 -203v-117
q0 -122 -87 -201t-220 -79h-152v-242h-116v242h-404z" />
    <glyph glyph-name="percent" unicode="%" horiz-adv-x="1957" 
d="M526 0l725 1257h-438v-321q0 -131 -85.5 -216t-219.5 -85h-88q-133 0 -220 87t-87 218v127q0 132 87 218.5t220 86.5h1024l-793 -1372h-125zM236 852q0 -43 28.5 -71.5t71.5 -28.5h256q43 0 71.5 28.5t28.5 71.5v405h-356q-43 0 -71.5 -28.5t-28.5 -71.5v-305zM1143 299
v127q0 131 87 218t220 87h88q134 0 220.5 -87t86.5 -218v-127q0 -133 -86.5 -219t-220.5 -86h-88q-133 0 -220 86.5t-87 218.5zM1266 209q0 -43 28.5 -71.5t71.5 -28.5h256q43 0 71.5 28.5t28.5 71.5v305q0 43 -28.5 71.5t-71.5 28.5h-256q-43 0 -71.5 -28.5t-28.5 -71.5
v-305z" />
    <glyph glyph-name="ampersand" unicode="&#x26;" horiz-adv-x="1607" 
d="M367 1016q-37 65 -38 131.5t28.5 116.5t87.5 82t133 32h534v-116h-594q-64 0 -85.5 -44t11.5 -100l574 -1001h188q43 0 72 28.5t29 71.5v643h123v-555q0 -131 -87.5 -218t-220.5 -87h-739q-75 0 -133 32t-87.5 82t-28.5 116.5t38 131.5l285 498zM250 260
q-33 -56 -11.5 -99.5t85.5 -43.5h557l-357 622z" />
    <glyph glyph-name="quotesingle" unicode="'" horiz-adv-x="382" 
d="M250 1434v-549h-117v549h117z" />
    <glyph glyph-name="parenleft" unicode="(" horiz-adv-x="620" 
d="M252 -123q-33 58 -45 108t-12 113v830q0 63 12 112t45 109l162 285h145l-207 -363q-18 -31 -25.5 -54t-8.5 -36t-1 -51v-834q0 -38 1 -51t8.5 -36t25.5 -54l207 -365h-145z" />
    <glyph glyph-name="parenright" unicode=")" horiz-adv-x="620" 
d="M207 -410h-146l207 365q18 31 25.5 54t8.5 36t1 51v834q0 38 -1 51t-8.5 36t-25.5 54l-207 363h146l162 -285q33 -60 45 -109t12 -112v-830q0 -63 -12 -113t-45 -108z" />
    <glyph glyph-name="asterisk" unicode="*" horiz-adv-x="1327" 
d="M315 539l226 393h-387v108h387l-226 394h125l226 -390l223 390h125l-226 -394h386v-108h-386l226 -393h-125l-223 389l-226 -389h-125z" />
    <glyph glyph-name="plus" unicode="+" horiz-adv-x="1388" 
d="M184 764h453v450h115v-450h452v-115h-452v-450h-115v450h-453v115z" />
    <glyph glyph-name="comma" unicode="," horiz-adv-x="446" 
d="M446 139l-315 -549h-131l315 549h131z" />
    <glyph glyph-name="hyphen" unicode="-" horiz-adv-x="1101" 
d="M184 627h734v-117h-734v117z" />
    <glyph glyph-name="period" unicode="." horiz-adv-x="460" 
d="M133 0v205h195v-205h-195z" />
    <glyph glyph-name="slash" unicode="/" horiz-adv-x="1187" 
d="M0 -410l1061 1844h127l-1063 -1844h-125z" />
    <glyph glyph-name="zero" unicode="0" horiz-adv-x="1452" 
d="M1155 1104q0 69 -44.5 113.5t-113.5 44.5h-540q-69 0 -114.5 -44.5t-45.5 -113.5v-828q0 -69 45.5 -113t114.5 -44h540q69 0 113.5 44t44.5 113v828zM174 373v626q0 163 107.5 271t271.5 108h348q163 0 270 -108t107 -271v-626q0 -163 -107 -270t-270 -107h-348
q-164 0 -271.5 107t-107.5 270z" />
    <glyph glyph-name="one" unicode="1" horiz-adv-x="1253" 
d="M145 0v117h594v1075q0 62 -44.5 84t-98.5 -10l-453 -258v129l351 200q68 39 135.5 41.5t118.5 -26.5t82.5 -86.5t31.5 -132.5v-1016h330v-117h-1047z" />
    <glyph glyph-name="two" unicode="2" horiz-adv-x="1355" 
d="M1022 57q-60 -33 -109 -45t-112 -12h-699v123h217q39 0 62.5 14t42.5 47l528 928q33 57 13 101t-84 44h-723v115h663q75 0 133 -32t87 -82t27.5 -116.5t-38.5 -131.5l-418 -731q-56 -100 -118 -156h313q55 0 84.5 7.5t83.5 37.5l315 178v-137z" />
    <glyph glyph-name="three" unicode="3" horiz-adv-x="1372" 
d="M1061 1112q31 56 9 100.5t-83 44.5h-803v115h744q61 0 111 -20t82 -55.5t47.5 -81t8 -99t-37.5 -106.5l-150 -258q110 -31 172 -118.5t62 -215.5v-76q0 -158 -93.5 -252t-250.5 -94h-695v115h779q64 0 100.5 37.5t36.5 99.5v266q0 62 -36.5 98.5t-100.5 36.5h-703v117
h602z" />
    <glyph glyph-name="four" unicode="4" horiz-adv-x="1409" 
d="M1188 1372v-1372h-123v483h-692q-76 0 -134.5 32t-87.5 82.5t-27.5 117t38.5 131.5l301 526h135l-360 -629q-31 -54 -9.5 -98.5t82.5 -44.5h754v772h123z" />
    <glyph glyph-name="five" unicode="5" horiz-adv-x="1335" 
d="M174 0v121h789q76 0 106.5 34t30.5 107v72q0 71 -15.5 100.5t-66.5 57.5l-578 319q-262 145 -262 395v166h975v-115h-858v-139q0 -91 78 -135l567 -313q143 -80 210 -165t67 -204q0 -132 -88 -216.5t-255 -84.5h-700z" />
    <glyph glyph-name="six" unicode="6" horiz-adv-x="1466" 
d="M375 -4q-59 0 -108.5 20.5t-81 56.5t-46.5 81.5t-8.5 98.5t35.5 105l199 349q8 13 13.5 25t9.5 20t6.5 18.5t4 15.5t2 16.5t0.5 15v18.5v20v516h123v-506q0 -33 -2 -49h432q164 0 266.5 -101.5t102.5 -264.5v-89q0 -163 -102.5 -264.5t-266.5 -101.5h-579zM240 248
q-29 -52 -4.5 -94.5t83.5 -42.5h732q69 0 109 39.5t40 107.5v289q0 68 -40 107.5t-109 39.5h-559q-8 -22 -25 -49z" />
    <glyph glyph-name="seven" unicode="7" horiz-adv-x="1337" 
d="M1104 1112q33 57 11.5 101t-85.5 44h-870v115h811q75 0 133 -32t87.5 -82t28.5 -116.5t-38 -131.5l-576 -1010h-137l356 625h-665v116h733z" />
    <glyph glyph-name="eight" unicode="8" horiz-adv-x="1472" 
d="M414 -4q-61 0 -111 20.5t-82 56t-47 81t-7 99t38 105.5l188 326q-103 30 -162 113t-59 207v18q0 156 102.5 256t264.5 100h483q61 0 111 -20.5t82 -56t47 -81t7 -99t-38 -105.5l-156 -271q112 -28 176 -116t64 -219v-58q0 -156 -103 -256t-266 -100h-532zM281 256
q-32 -56 -10.5 -100.5t81.5 -44.5h690q69 0 109.5 39.5t40.5 107.5v256q0 62 -37 99.5t-100 37.5h-545zM295 905q0 -62 36.5 -99.5t100.5 -37.5h522l201 350q32 54 10 99t-82 45h-641q-69 0 -108 -40t-39 -108v-209z" />
    <glyph glyph-name="nine" unicode="9" horiz-adv-x="1460" 
d="M926 489q0 46 4 66h-418q-164 0 -266.5 102t-102.5 265v88q0 163 102.5 264.5t266.5 101.5h573q59 0 108.5 -20.5t81 -56.5t46.5 -81.5t8.5 -98.5t-35.5 -105l-209 -365q-8 -13 -13.5 -25t-9.5 -20t-6.5 -18.5t-4 -15.5t-2 -16.5t-0.5 -15v-18.5v-20v-500h-123v489z
M266 825q0 -68 40.5 -107.5t109.5 -39.5h549q9 15 18 33l238 413q29 52 4 95t-84 43h-725q-69 0 -109.5 -40t-40.5 -108v-289z" />
    <glyph glyph-name="colon" unicode=":" horiz-adv-x="460" 
d="M133 0v205h195v-205h-195zM133 829v205h195v-205h-195z" />
    <glyph glyph-name="semicolon" unicode=";" horiz-adv-x="446" 
d="M137 829v205h195v-205h-195zM0 -410l315 549h131l-315 -549h-131z" />
    <glyph glyph-name="equal" unicode="=" horiz-adv-x="1470" 
d="M225 559h1020v-115h-1020v115zM225 854v115h1020v-115h-1020z" />
    <glyph glyph-name="question" unicode="?" horiz-adv-x="694" 
d="M203 0v205h194v-205h-194zM119 1323v145l375 -213q79 -45 118.5 -115t36 -147.5t-44.5 -150.5l-229 -400h-135l301 521q23 40 12 78t-51 61z" />
    <glyph glyph-name="at" unicode="@" horiz-adv-x="1867" 
d="M528 -197q-133 0 -220 87.5t-87 218.5v827q0 132 87 218.5t220 86.5h811q133 0 220.5 -86.5t87.5 -218.5v-774h-123v209l-295 -168q-58 -33 -107.5 -44.5t-113.5 -11.5h-84q-131 0 -217 87t-86 219v77q0 131 89 218.5t224 87.5h590v190q0 43 -29 71.5t-72 28.5h-979
q-43 0 -71.5 -28.5t-28.5 -71.5v-1006q0 -43 28.5 -71.5t71.5 -28.5h912v-117h-828zM743 362q0 -43 29 -71.5t72 -28.5h182q38 0 51 1t36 8.5t54 25.5l357 203v219h-680q-43 0 -72 -29t-29 -72v-256z" />
    <glyph glyph-name="A" unicode="A" horiz-adv-x="1640" 
d="M494 1141q43 117 126.5 178t200.5 61q116 0 199.5 -61t126.5 -178l416 -1141h-142l-161 453h-879l-162 -453h-141zM426 578h788l-215 596q-22 61 -52.5 77.5t-106.5 16.5h-39q-77 0 -107.5 -16.5t-52.5 -77.5z" />
    <glyph glyph-name="B" unicode="B" horiz-adv-x="1613" 
d="M1247 1090q36 60 12 109.5t-92 49.5h-815v-489h705zM221 0v1372h877q82 0 145 -35t95 -90t31 -128t-42 -144l-129 -223q123 -27 194.5 -119t71.5 -232v-43q0 -167 -97.5 -262.5t-260.5 -95.5h-885zM352 123h834q66 0 106.5 39t40.5 108v219q0 69 -40.5 108.5t-106.5 39.5
h-834v-514z" />
    <glyph glyph-name="C" unicode="C" horiz-adv-x="1542" 
d="M553 1372h846v-123h-934q-69 0 -114.5 -44t-45.5 -113v-818q0 -69 45.5 -113t114.5 -44h385q56 0 85.5 7t80.5 36l383 217v-135l-336 -193q-57 -33 -106.5 -44t-114.5 -11h-289q-163 0 -271 107t-108 270v624q0 163 108 270t271 107z" />
    <glyph glyph-name="D" unicode="D" horiz-adv-x="1642" 
d="M1354 1092q0 69 -45.5 113t-114.5 44h-842v-1126h713q69 0 104 61l39 70l52 88l16 29l35 59q29 53 36 82.5t7 85.5v494zM221 0v1372h885q163 0 271 -107t108 -270v-391q0 -61 -13 -110.5t-47 -110.5l-73 -129l-2 -2q-72 -128 -164.5 -189.5t-218.5 -62.5h-746z" />
    <glyph glyph-name="E" unicode="E" horiz-adv-x="1521" 
d="M211 1067q0 133 86.5 219t220.5 86h819v-123h-897q-43 0 -70.5 -28.5t-27.5 -71.5v-363h995v-122h-995v-541h516q56 0 85.5 7t82.5 36l311 178v-137l-264 -150q-60 -33 -109 -45t-112 -12h-641v1067z" />
    <glyph glyph-name="F" unicode="F" horiz-adv-x="1476" 
d="M221 1067q0 133 86.5 219t220.5 86h815v-123h-892q-43 0 -71 -28.5t-28 -71.5v-692l991 565v-135l-991 -565v-322h-131v1067z" />
    <glyph glyph-name="G" unicode="G" horiz-adv-x="1677" 
d="M1421 1372v-123h-956q-69 0 -114.5 -44t-45.5 -113v-836q0 -77 36 -110t110 -33h98q74 0 104.5 16t59.5 70l61 108l139 246q154 270 424 270h136v-823h-130v705h-112q-90 0 -137 -80l-88 -154h2l-74 -129l-21 -35l-28 -49q-73 -131 -164.5 -199.5t-216.5 -68.5
q-159 0 -244.5 99t-85.5 290v616q0 163 108.5 270t274.5 107h864z" />
    <glyph glyph-name="H" unicode="H" horiz-adv-x="1693" 
d="M1343 0v645h-991v-645h-131v1372h131v-604h991v604h132v-1372h-132z" />
    <glyph glyph-name="I" unicode="I" horiz-adv-x="571" 
d="M221 0v1372h131v-1372h-131z" />
    <glyph glyph-name="J" unicode="J" horiz-adv-x="1288" 
d="M68 0v123h899q66 0 94 48.5t-4 107.5l-629 1093h147l560 -973q41 -70 41.5 -143t-31.5 -129t-95.5 -91.5t-144.5 -35.5h-837z" />
    <glyph glyph-name="K" unicode="K" horiz-adv-x="1595" 
d="M838 975q-41 71 -42 143.5t31.5 128t95.5 90.5t144 35h350v-123h-411q-66 0 -94.5 -47.5t3.5 -105.5l629 -1096h-147l-426 743l-619 -354v-389h-131v1372h131v-846l559 320z" />
    <glyph glyph-name="L" unicode="L" horiz-adv-x="1357" 
d="M221 1372h131v-1149q0 -43 28 -71.5t71 -28.5h839v-123h-762q-134 0 -220.5 87t-86.5 218v1067z" />
    <glyph glyph-name="M" unicode="M" horiz-adv-x="1933" 
d="M555 518l-203 117v-635h-131v1372h131v-592l365 -207q63 -36 127 -19t100 81l273 481q141 256 395 256h86v-2l16 2v-1372h-131v1257h-51q-49 0 -81.5 -19t-55.5 -62l-297 -523q-85 -148 -236.5 -186t-306.5 51z" />
    <glyph glyph-name="N" unicode="N" horiz-adv-x="1732" 
d="M1423 0q-247 0 -389 254l-520 922q-47 81 -137 81h-27v-1257h-129v1372h88q247 0 389 -254l521 -921q49 -82 137 -82h26v1257h129v-1372h-88z" />
    <glyph glyph-name="O" unicode="O" horiz-adv-x="1681" 
d="M553 1380h575q164 0 271.5 -108t107.5 -271v-630q0 -163 -107.5 -270t-271.5 -107h-575q-163 0 -271 107t-108 270v630q0 163 108 271t271 108zM305 274q0 -69 45.5 -113t114.5 -44h754q69 0 113 44t44 113v824q0 70 -44 114.5t-113 44.5h-754q-69 0 -114.5 -44.5
t-45.5 -114.5v-824z" />
    <glyph glyph-name="P" unicode="P" horiz-adv-x="1525" 
d="M1276 1092q0 69 -44.5 113t-113.5 44h-766v-645h766q69 0 113.5 45t44.5 115v328zM221 0v1372h807q164 0 271.5 -107t107.5 -270v-135q0 -163 -107.5 -271t-271.5 -108h-676v-481h-131z" />
    <glyph glyph-name="Q" unicode="Q" horiz-adv-x="1697" 
d="M1366 -205l-121 211q-49 -12 -100 -12h-592q-163 0 -271 107t-108 270v630q0 163 108 271t271 108h592q163 0 271 -108t108 -271v-630q0 -100 -43 -182t-119 -132l151 -262h-147zM305 274q0 -69 45.5 -113t114.5 -44h717l-656 1140h-61q-69 0 -114.5 -44.5t-45.5 -114.5
v-824zM674 1257l643 -1120q76 44 76 137v824q0 70 -45.5 114.5t-114.5 44.5h-559z" />
    <glyph glyph-name="R" unicode="R" horiz-adv-x="1622" 
d="M1337 496q0 43 -27.5 71.5t-70.5 28.5h-887v-596h-131v1372h879q65 0 120 -22.5t90 -61.5t52 -88.5t9.5 -108.5t-40.5 -116l-147 -256q125 -7 204.5 -93.5t79.5 -211.5v-414h-131v496zM352 719h684l213 371q36 62 11.5 110.5t-93.5 48.5h-815v-530z" />
    <glyph glyph-name="S" unicode="S" horiz-adv-x="1617" 
d="M217 0v123h936q69 0 114.5 45t45.5 115v458q0 65 -46.5 91.5t-103.5 -5.5l-315 -180l-260 -149q-71 -41 -143.5 -42.5t-128 30t-91 95t-35.5 144.5v270q0 163 107.5 270t271.5 107h803v-123h-893q-69 0 -113 -44t-44 -113v-435q0 -65 46 -91.5t101 5.5l317 181l258 149
q57 33 115.5 41t109 -8.5t90 -51t62.5 -89t23 -119.5v-295q0 -163 -108 -271t-271 -108h-848z" />
    <glyph glyph-name="T" unicode="T" horiz-adv-x="1378" 
d="M618 0v1249h-587v123h1317v-123h-598v-1249h-132z" />
    <glyph glyph-name="U" unicode="U" horiz-adv-x="1703" 
d="M594 -4q-163 0 -271 107t-108 270v999h131v-1096q0 -69 45.5 -113t114.5 -44h694q69 0 113.5 44t44.5 113v1096h131v-999q0 -163 -107.5 -270t-271.5 -107h-516z" />
    <glyph glyph-name="V" unicode="V" horiz-adv-x="1622" 
d="M221 0v1372h131v-1249h475q92 0 136 78l364 651q29 53 36 82.5t7 85.5v352h129v-346q0 -62 -11.5 -111.5t-43.5 -109.5l-301 -539q-147 -266 -400 -266h-522z" />
    <glyph glyph-name="W" unicode="W" horiz-adv-x="2140" 
d="M221 0v1372h131v-1249h310l407 729q29 53 36 82.5t7 85.5v352h131v-346q0 -63 -12 -113t-45 -108l-381 -682h541q88 0 135 78l364 651q29 53 36 82.5t7 85.5v352h129v-346q0 -62 -11.5 -111.5t-43.5 -109.5l-301 -539q-147 -266 -399 -266h-1041z" />
    <glyph glyph-name="X" unicode="X" horiz-adv-x="1679" 
d="M393 492q55 98 125 159q-135 25 -218 122.5t-83 238.5v360h131v-457q0 -69 44.5 -113t113.5 -44h270h6h201q89 0 135 78l299 536h146l-265 -473q-51 -92 -118 -156q141 -20 228 -119t87 -245v-379h-131v475q0 70 -44.5 115t-113.5 45h-495q-89 0 -136 -78l-309 -557h-147
z" />
    <glyph glyph-name="Y" unicode="Y" horiz-adv-x="1568" 
d="M662 0v608h-119q-163 0 -271 107t-108 270v387h131v-483q0 -69 45.5 -113.5t114.5 -44.5h510q89 0 135 78l315 563h144l-279 -500q-146 -264 -399 -264h-88v-608h-131z" />
    <glyph glyph-name="Z" unicode="Z" horiz-adv-x="1462" 
d="M119 -10v170l1020 1089h-1018v123h1175v-123l-678 -727q97 3 177 -45l602 -342v-145l-766 436q-31 18 -64 12.5t-57 -32.5l-203 -216z" />
    <glyph glyph-name="bracketleft" unicode="[" horiz-adv-x="681" 
d="M195 -410v1844h436v-115h-314v-1612h314v-117h-436z" />
    <glyph glyph-name="bracketright" unicode="]" horiz-adv-x="681" 
d="M51 -410v117h314v1612h-314v115h436v-1844h-436z" />
    <glyph glyph-name="underscore" unicode="_" horiz-adv-x="1323" 
d="M133 -246v111h1057v-111h-1057z" />
    <glyph glyph-name="a" unicode="a" horiz-adv-x="1312" 
d="M1010 819q0 43 -29 72t-72 29h-684v114h600q133 0 220.5 -86.5t87.5 -218.5v-729h-123v195l-260 -148q-60 -34 -110 -46.5t-112 -12.5h-92q-125 0 -211 84t-86 209v49q0 124 87 207.5t220 83.5h564v198zM262 205q0 -43 28.5 -72t71.5 -29h183q38 0 51 1t36 8t54 24
l324 185v186h-648q-43 0 -71.5 -28.5t-28.5 -71.5v-203z" />
    <glyph glyph-name="b" unicode="b" horiz-adv-x="1372" 
d="M195 0v1434h122v-588l246 139q60 33 109 45t112 12h138q126 0 211.5 -87.5t85.5 -217.5v-432q0 -131 -87.5 -218t-220.5 -87h-716zM317 117h678q43 0 72 28.5t29 71.5v608q0 43 -29 72t-72 29h-227q-38 0 -51 -1t-36 -8t-54 -24l-310 -176v-600z" />
    <glyph glyph-name="c" unicode="c" horiz-adv-x="1228" 
d="M461 1034h651v-114h-735q-43 0 -72 -29t-29 -72v-610q0 -43 29 -71.5t72 -28.5h225h12q43 0 65.5 5t63.5 29l369 209v-129l-307 -174q-57 -33 -106.5 -44t-114.5 -11h-127q-131 0 -217 86.5t-86 218.5v430q0 132 87 218.5t220 86.5z" />
    <glyph glyph-name="d" unicode="d" horiz-adv-x="1372" 
d="M451 -6q-127 0 -212 87t-85 218v430q0 132 87 218.5t220 86.5h594v400h123v-1434h-123v186l-244 -137q-57 -33 -106.5 -44t-114.5 -11h-139zM276 209q0 -43 29 -71.5t72 -28.5h231h12q30 0 44.5 1t36 8.5t49.5 24.5l305 172v605h-678q-43 0 -72 -29t-29 -72v-610z" />
    <glyph glyph-name="e" unicode="e" 
d="M461 -6q-133 0 -220 86.5t-87 218.5v438q0 131 87 218t220 87h407q134 0 221 -87t87 -218v-245h-900v-283q0 -43 29 -71.5t72 -28.5h350h12q43 0 65.5 5t63.5 29l306 174v-129l-242 -139q-59 -33 -108 -44t-113 -11h-250zM276 602h777v223q0 43 -29 72t-72 29h-575
q-43 0 -72 -29t-29 -72v-223z" />
    <glyph glyph-name="f" unicode="f" horiz-adv-x="1099" 
d="M190 723q0 256 224 383l600 342v-133l-643 -363q-58 -35 -58 -102v-209h701v-117h-701v-524h-123v723z" />
    <glyph glyph-name="g" unicode="g" horiz-adv-x="1402" 
d="M481 344q-80 0 -145 41l-78 -137q-29 -50 -4 -92.5t82 -42.5h442q62 0 111.5 -12t109.5 -46l306 -174v-129l-369 209q-31 18 -54 25.5t-36 8.5t-51 1h-398q-75 0 -133 32t-86.5 82t-27.5 116.5t38 131.5l60 105q-53 75 -53 172v106q0 127 88 210t219 83h813v-114h-172
q76 -76 76 -185v-100q0 -126 -88 -208.5t-220 -82.5h-430zM317 559q0 -43 29 -71.5t72 -28.5h577q43 0 72 28.5t29 71.5v260q0 43 -29 72t-72 29h-577q-43 0 -72 -29t-29 -72v-260z" />
    <glyph glyph-name="h" unicode="h" horiz-adv-x="1400" 
d="M1098 825q0 43 -29 72t-72 29h-223q-38 0 -51 -1t-36 -8t-54 -24l-316 -178v-715h-122v1434h122v-592l254 143q58 33 108.5 45t113.5 12h131q127 0 212 -87t85 -218v-737h-123v825z" />
    <glyph glyph-name="i" unicode="i" horiz-adv-x="1095" 
d="M82 0v117h604v702q0 43 -28.5 72t-71.5 29h-383v114h299q133 0 220 -86.5t87 -218.5v-612h215v-117h-942zM686 1034v400h123v-400h-123z" />
    <glyph glyph-name="j" unicode="j" horiz-adv-x="876" 
d="M559 819q0 43 -28.5 72t-71.5 29h-412v114h328q135 0 221 -86t86 -219v-1139h-123v1229zM559 1034v400h123v-400h-123z" />
    <glyph glyph-name="k" unicode="k" horiz-adv-x="1277" 
d="M195 0v1434h122v-482q85 82 215 82h615v-114h-483l522 -920h-135l-523 920h-110q-43 0 -72 -29t-29 -72v-819h-122z" />
    <glyph glyph-name="l" unicode="l" horiz-adv-x="632" 
d="M242 287q-34 59 -46 108.5t-12 112.5v926h123v-928q0 -38 1 -51t8.5 -36t25.5 -54l207 -365h-146z" />
    <glyph glyph-name="m" unicode="m" horiz-adv-x="1832" 
d="M1530 823q0 43 -28.5 72t-71.5 29h-431v-924h-122v924h-97q-38 0 -51 -1t-36 -8t-54 -24l-322 -182v-709h-122v1034h122v-198l258 147q60 33 109.5 45t112.5 12h559q127 0 212 -87t85 -218v-735h-123v823z" />
    <glyph glyph-name="n" unicode="n" horiz-adv-x="1400" 
d="M317 1034v-188l254 143q57 33 107 44t115 11h131q128 0 212.5 -86.5t84.5 -218.5v-739h-123v829q0 43 -29 72t-72 29h-223q-38 0 -51 -1t-36 -8.5t-54 -25.5l-316 -178v-717h-122v1034h122z" />
    <glyph glyph-name="o" unicode="o" horiz-adv-x="1363" 
d="M461 1042h442q133 0 220 -87t87 -218v-438q0 -132 -87 -218.5t-220 -86.5h-442q-133 0 -220 86.5t-87 218.5v438q0 131 87 218t220 87zM276 209q0 -43 29 -71.5t72 -28.5h610q43 0 71.5 28.5t28.5 71.5v616q0 43 -28.5 72t-71.5 29h-610q-43 0 -72 -29t-29 -72v-616z" />
    <glyph glyph-name="p" unicode="p" horiz-adv-x="1372" 
d="M195 1034h122v-190l246 139q60 33 109 45t112 12h138q126 0 211.5 -87.5t85.5 -217.5v-430q0 -131 -87.5 -218t-220.5 -87h-594v-410h-122v1444zM317 117h678q43 0 72 28.5t29 71.5v606q0 43 -29 72t-72 29h-227q-38 0 -51 -1t-36 -8t-54 -24l-310 -176v-598z" />
    <glyph glyph-name="q" unicode="q" horiz-adv-x="1380" 
d="M1090 -227l-129 225q-12 -2 -41 -2h-459q-133 0 -220 86.5t-87 218.5v434q0 131 87 218t220 87h459q133 0 220 -87t87 -218v-434q0 -88 -41.5 -158.5t-112.5 -109.5l150 -260h-133zM276 211q0 -43 29 -71.5t72 -28.5h520l-465 813h-55q-43 0 -72 -29t-29 -72v-612z
M565 924l463 -811q34 8 55 34.5t21 63.5v612q0 43 -28.5 72t-71.5 29h-439z" />
    <glyph glyph-name="r" unicode="r" horiz-adv-x="999" 
d="M180 729q0 133 86 219t221 86h467v-114h-551q-43 0 -71.5 -29t-28.5 -72v-819h-123v729z" />
    <glyph glyph-name="s" unicode="s" horiz-adv-x="1273" 
d="M948 117q57 0 82 42.5t-4 92.5l-381 668q-40 0 -63.5 -6t-63.5 -29l-379 -215v129l316 180q59 33 108 44t113 11h440v-114h-336l318 -558q37 -65 38 -131.5t-28.5 -116.5t-87.5 -82t-133 -32h-748v117h809z" />
    <glyph glyph-name="t" unicode="t" horiz-adv-x="1140" 
d="M487 0q-134 0 -220.5 87t-86.5 218v924h123v-557l719 409v-129l-719 -407v-328q0 -43 28.5 -71.5t71.5 -28.5h619v-117h-535z" />
    <glyph glyph-name="u" unicode="u" horiz-adv-x="1386" 
d="M487 -4q-135 0 -221 86t-86 219v733h123v-823q0 -43 28.5 -71.5t71.5 -28.5h582q43 0 71.5 28.5t28.5 71.5v823h123v-733q0 -132 -87 -218.5t-220 -86.5h-414z" />
    <glyph glyph-name="v" unicode="v" horiz-adv-x="1343" 
d="M195 0v1034h122v-917h285q67 0 103 59l487 858h137l-450 -786q-73 -127 -164 -187.5t-215 -60.5h-305z" />
    <glyph glyph-name="w" unicode="w" horiz-adv-x="1861" 
d="M195 0v1034h122v-917h285l232 409q5 9 9.5 17.5t7.5 15t5.5 14.5t4 12t2.5 13t1.5 12t1 13.5t0.5 12.5v15.5v16.5v366h123v-356q0 -63 -12 -113t-45 -108l-191 -340h377q70 0 103 59l487 858h137l-450 -786q-71 -127 -162.5 -187.5t-216.5 -60.5h-821z" />
    <glyph glyph-name="x" unicode="x" horiz-adv-x="1409" 
d="M309 344q59 101 123 156q-101 24 -164 104.5t-63 192.5v237h123v-342q0 -43 28.5 -71.5t71.5 -28.5h391q68 0 101 61l219 381h137l-178 -311q-54 -90 -111 -145q109 -15 180.5 -99.5t71.5 -202.5v-276h-123v375q0 43 -28.5 71.5t-71.5 28.5h-426q-37 0 -60.5 -14.5
t-40.5 -46.5l-237 -414h-139z" />
    <glyph glyph-name="y" unicode="y" horiz-adv-x="1300" 
d="M477 0q-127 0 -212 87t-85 218v729h123v-817q0 -43 28.5 -71.5t71.5 -28.5h226l524 917h131l-823 -1444h-133l233 410h-84z" />
    <glyph glyph-name="z" unicode="z" horiz-adv-x="1236" 
d="M141 1034h944v-114l-520 -512q86 0 168 -48l412 -235v-135l-570 329q-65 35 -116 -18l-64 -61h-2l-254 -250v153l789 777h-787v114z" />
    <glyph glyph-name="braceleft" unicode="{" horiz-adv-x="710" 
d="M539 1434h131v-115h-203q-43 0 -71.5 -28.5t-28.5 -71.5v-1412q0 -43 28.5 -71.5t71.5 -28.5h203v-117h-131q-125 0 -210 88t-85 218v565h-193v114h193v553q0 131 85 218.5t210 87.5z" />
    <glyph glyph-name="bar" unicode="|" horiz-adv-x="550" 
d="M221 -410v1844h111v-1844h-111z" />
    <glyph glyph-name="braceright" unicode="}" horiz-adv-x="741" 
d="M193 1434q126 0 210 -87t84 -219v-553h193v-114h-193v-565q0 -131 -84 -218.5t-210 -87.5h-132v117h203q43 0 72 28.5t29 71.5v1412q0 43 -29 71.5t-72 28.5h-203v115h132z" />
    <glyph glyph-name="exclamdown" unicode="&#xa1;" horiz-adv-x="522" 
d="M328 1034v-205h-195v205h195zM168 -338v932h123v-932h-123z" />
    <glyph glyph-name="cent" unicode="&#xa2;" horiz-adv-x="1249" 
d="M150 903q0 133 86 219t221 86h159v297h119v-297h346v-114h-708q-43 0 -72 -29t-29 -72v-612q0 -43 29 -71.5t72 -28.5h708v-117h-346v-297h-119v297h-163q-131 0 -217 87t-86 218v434z" />
    <glyph glyph-name="sterling" unicode="&#xa3;" horiz-adv-x="1304" 
d="M254 705q0 252 223 380l553 318v-133l-594 -338q-59 -32 -59 -103v-157h653v-117h-653v-233q0 -119 -76 -205h870v-117h-1093v117h76q43 0 71.5 28.5t28.5 71.5v488z" />
    <glyph glyph-name="yen" unicode="&#xa5;" horiz-adv-x="1470" 
d="M625 0v444h-482v111h1143v-111h-538v-444h-123zM143 719v110h191v543h123v-543h471l309 543h135l-311 -543h223v-110h-1141z" />
    <glyph glyph-name="section" unicode="&#xa7;" horiz-adv-x="1374" 
d="M334 -395v116h317q66 0 103 60l143 252q-115 -28 -225 35l-367 208q-78 45 -118 115.5t-37.5 148t43.5 150.5l260 455q68 119 158.5 176t213.5 57h217v-116h-317q-68 0 -102 -60l-144 -252q115 28 226 -35l366 -208q78 -45 118 -115.5t37.5 -148t-44.5 -150.5l-258 -455
q-69 -119 -160.5 -176t-212.5 -57h-217zM256 561q-22 -40 -10.5 -78t51.5 -61l530 -303q40 -23 79.5 -11.5t62.5 52.5l37 63l112 199q23 40 12 78t-51 61l-532 303q-35 22 -72.5 13.5t-62.5 -43.5l-45 -80l-84 -148z" />
    <glyph glyph-name="copyright" unicode="&#xa9;" horiz-adv-x="1734" 
d="M868 -6q-142 0 -270.5 54.5t-221.5 147t-147.5 220.5t-54.5 270q0 143 54.5 272t147.5 221.5t221.5 146.5t270.5 54q189 0 348 -91.5t252 -251.5t93 -351q0 -142 -55 -270t-147.5 -220.5t-221 -147t-269.5 -54.5zM268 686q0 -166 79.5 -304.5t217.5 -218t303 -79.5
t303 79.5t218.5 218t80.5 304.5q0 167 -80.5 306t-218.5 218.5t-303 79.5q-166 0 -303.5 -79.5t-217 -218.5t-79.5 -306zM494 553v240q0 115 76 190.5t192 75.5h424v-94h-494q-41 0 -68.5 -28t-27.5 -69v-389q0 -41 27.5 -68.5t68.5 -27.5h150q34 0 46 1t33 7.5t50 22.5
l215 123v-107l-164 -92q-52 -30 -95.5 -40.5t-99.5 -10.5h-67q-115 0 -190.5 76t-75.5 190z" />
    <glyph glyph-name="guillemotleft" unicode="&#xab;" horiz-adv-x="1110" 
d="M211 731l305 305l82 -82l-365 -364q-31 -31 -31 -72t31 -72l367 -364l-82 -82l-303 303q-95 93 -96.5 212.5t92.5 215.5zM639 731l305 305l82 -82l-364 -364q-31 -31 -31 -72t31 -72l366 -364l-82 -82l-303 303q-95 93 -96.5 212.5t92.5 215.5z" />
    <glyph glyph-name="registered" unicode="&#xae;" horiz-adv-x="833" 
d="M598 1067q0 13 -9.5 23t-23.5 10h-303v-205h-49v477h303q59 0 85.5 -44t-3.5 -97l-49 -84q44 -4 71 -35.5t27 -77.5v-139h-49v172zM20 1128q0 165 116.5 281.5t281.5 116.5q164 0 279.5 -116t115.5 -282q0 -165 -115 -280t-280 -115t-281.5 115t-116.5 280zM61 1128
q0 -150 103.5 -253t253.5 -103t253 103t103 253t-103 253.5t-253 103.5t-253.5 -103.5t-103.5 -253.5zM262 1147h236l69 127q12 20 5 36.5t-27 16.5h-283v-180z" />
    <glyph glyph-name="degree" unicode="&#xb0;" horiz-adv-x="729" 
d="M365 733q-136 0 -230 94.5t-94 229.5t94 229t230 94t229.5 -94t93.5 -229t-93.5 -229.5t-229.5 -94.5zM145 1057q0 -96 63 -159.5t157 -63.5t157.5 63.5t63.5 159.5t-63.5 159.5t-157.5 63.5t-157 -63.5t-63 -159.5z" />
    <glyph glyph-name="paragraph" unicode="&#xb6;" horiz-adv-x="1437" 
d="M154 1128q0 132 87 219t220 87h977v-115h-271v-1729h-123v1729h-667q-43 0 -72 -28.5t-29 -71.5v-478q0 -43 29 -71.5t72 -28.5h407v-1051h-122v936h-211q-127 0 -212 87t-85 218v297z" />
    <glyph glyph-name="guillemotright" unicode="&#xbb;" horiz-adv-x="1110" 
d="M899 731q94 -96 92.5 -215.5t-96.5 -212.5l-303 -303l-82 82l367 364q31 31 31 72t-31 72l-365 364l82 82zM82 82l367 364q31 31 31 72t-31 72l-365 364l82 82l305 -305q94 -96 92.5 -215.5t-96.5 -212.5l-303 -303z" />
    <glyph glyph-name="questiondown" unicode="&#xbf;" horiz-adv-x="694" 
d="M494 1034v-205h-195v205h195zM90 193l229 399h136l-301 -520q-23 -40 -12 -78.5t51 -61.5l382 -221v-145l-374 213q-79 45 -118.5 115.5t-36.5 148t44 150.5z" />
    <glyph glyph-name="Agrave" unicode="&#xc0;" horiz-adv-x="1640" 
d="M494 1141q38 105 111 165.5t173 71.5l-184 322h131l190 -332q163 -42 232 -227l416 -1141h-142l-161 453h-879l-162 -453h-141zM426 578h788l-215 596q-22 61 -52.5 77.5t-106.5 16.5h-39q-77 0 -107.5 -16.5t-52.5 -77.5z" />
    <glyph glyph-name="Aacute" unicode="&#xc1;" horiz-adv-x="1640" 
d="M494 1141q70 190 243 231l191 328h131l-187 -324q95 -12 166 -72t109 -163l416 -1141h-142l-161 453h-879l-162 -453h-141zM426 578h788l-215 596q-22 61 -52.5 77.5t-106.5 16.5h-39q-77 0 -107.5 -16.5t-52.5 -77.5z" />
    <glyph glyph-name="Acircumflex" unicode="&#xc2;" horiz-adv-x="1640" 
d="M494 1141q43 117 126.5 178t200.5 61q116 0 199.5 -61t126.5 -178l416 -1141h-142l-161 453h-879l-162 -453h-141zM356 1339v127l359 203h221l358 -203v-127l-469 267zM426 578h788l-215 596q-22 61 -52.5 77.5t-106.5 16.5h-39q-77 0 -107.5 -16.5t-52.5 -77.5z" />
    <glyph glyph-name="Atilde" unicode="&#xc3;" horiz-adv-x="1640" 
d="M494 1141q13 35 20 47v272q0 71 29 124.5t75 78.5t108 21.5t124 -39.5l209 -119q49 -31 88 -13.5t39 76.5v111h119v-64q0 -71 -29 -124t-75.5 -77.5t-108 -21t-123.5 38.5l-211 121q-47 30 -88 11t-41 -77v-182q79 55 192 55q116 0 199.5 -61t126.5 -178l416 -1141h-142
l-161 453h-879l-162 -453h-141zM426 578h788l-215 596q-22 61 -52.5 77.5t-106.5 16.5h-39q-77 0 -107.5 -16.5t-52.5 -77.5z" />
    <glyph glyph-name="Adieresis" unicode="&#xc4;" horiz-adv-x="1640" 
d="M494 1141q24 66 61 114v445h119v-350q64 30 147 30q87 0 150 -32v352h119v-451q37 -50 57 -108l416 -1141h-142l-161 453h-879l-162 -453h-141zM426 578h788l-215 596q-22 61 -52.5 77.5t-106.5 16.5h-39q-77 0 -107.5 -16.5t-52.5 -77.5z" />
    <glyph glyph-name="Aring" unicode="&#xc5;" horiz-adv-x="1640" 
d="M494 1141q50 131 145 190q-96 76 -96 199q0 109 77 184.5t187 75.5q109 0 186.5 -76t77.5 -184q0 -116 -86 -189q110 -59 162 -200l416 -1141h-142l-161 453h-879l-162 -453h-141zM426 578h788l-215 596q-22 61 -52.5 77.5t-106.5 16.5h-39q-77 0 -107.5 -16.5
t-52.5 -77.5zM659 1528q0 -63 43.5 -105.5t106.5 -42.5q62 0 103.5 42.5t41.5 105.5q0 66 -41.5 108.5t-103.5 42.5q-64 0 -107 -43t-43 -108z" />
    <glyph glyph-name="AE" unicode="&#xc6;" horiz-adv-x="2385" 
d="M154 371q0 63 12 112t45 109l289 516q146 264 399 264h1303v-123h-899v-731l899 514v-135l-899 -514v-160q0 -43 28.5 -71.5t71.5 -28.5h799v-123h-723q-133 0 -220.5 87t-87.5 218v219h-854q-22 -41 -27 -68t-5 -79v-377h-131v371zM385 647h786v602h-356q-92 0 -135 -78
z" />
    <glyph glyph-name="Ccedilla" unicode="&#xc7;" horiz-adv-x="1542" 
d="M553 1372h846v-123h-934q-69 0 -114.5 -44t-45.5 -113v-818q0 -69 45.5 -113t114.5 -44h385q56 0 85.5 7t80.5 36l383 217v-135l-328 -189v-176q0 -133 -77.5 -210t-211.5 -77h-108v117h188q43 0 66.5 23.5t23.5 66.5v207q-46 -10 -110 -10h-289q-163 0 -271 107
t-108 270v624q0 163 108 270t271 107z" />
    <glyph glyph-name="Egrave" unicode="&#xc8;" horiz-adv-x="1521" 
d="M211 1067q0 133 86.5 219t220.5 86h295l-190 328h131l190 -328h393v-123h-897q-43 0 -70.5 -28.5t-27.5 -71.5v-363h995v-122h-995v-541h516q56 0 85.5 7t82.5 36l311 178v-137l-264 -150q-60 -33 -109 -45t-112 -12h-641v1067z" />
    <glyph glyph-name="Eacute" unicode="&#xc9;" horiz-adv-x="1521" 
d="M211 1067q0 133 86.5 219t220.5 86h199l190 328h131l-190 -328h489v-123h-897q-43 0 -70.5 -28.5t-27.5 -71.5v-363h995v-122h-995v-541h516q56 0 85.5 7t82.5 36l311 178v-137l-264 -150q-60 -33 -109 -45t-112 -12h-641v1067z" />
    <glyph glyph-name="Ecircumflex" unicode="&#xca;" horiz-adv-x="1521" 
d="M211 1067q0 128 80 213t207 92l188 328h129l-188 -328h379l-191 328h129l191 -328h202v-123h-897q-43 0 -70.5 -28.5t-27.5 -71.5v-363h995v-122h-995v-541h516q56 0 85.5 7t82.5 36l311 178v-137l-264 -150q-60 -33 -109 -45t-112 -12h-641v1067z" />
    <glyph glyph-name="Edieresis" unicode="&#xcb;" horiz-adv-x="1521" 
d="M211 1067q0 133 86.5 219t220.5 86h31v328h119v-328h286v328h119v-328h264v-123h-897q-43 0 -70.5 -28.5t-27.5 -71.5v-363h995v-122h-995v-541h516q56 0 85.5 7t82.5 36l311 178v-137l-264 -150q-60 -33 -109 -45t-112 -12h-641v1067z" />
    <glyph glyph-name="Igrave" unicode="&#xcc;" horiz-adv-x="1124" 
d="M109 0v125h389v1124h-389v123h462l-190 328h131l190 -328h316v-123h-389v-1124h389v-125h-909z" />
    <glyph glyph-name="Iacute" unicode="&#xcd;" horiz-adv-x="1124" 
d="M109 0v125h389v1124h-389v123h337l191 328h131l-190 -328h440v-123h-389v-1124h389v-125h-909z" />
    <glyph glyph-name="Icircumflex" unicode="&#xce;" horiz-adv-x="1124" 
d="M109 0v125h389v1124h-389v123h135l190 328h129l-190 -328h379l-189 328h129l189 -328h137v-123h-389v-1124h389v-125h-909z" />
    <glyph glyph-name="Idieresis" unicode="&#xcf;" horiz-adv-x="1124" 
d="M109 0v125h389v1124h-389v123h194v328h119v-328h287v328h118v-328h191v-123h-389v-1124h389v-125h-909z" />
    <glyph glyph-name="Eth" unicode="&#xd0;" horiz-adv-x="1642" 
d="M1354 1092q0 69 -45.5 113t-114.5 44h-842v-491h389v-113h-389v-522h713q69 0 104 61l39 70l52 88l16 29l35 59q29 53 36 82.5t7 85.5v494zM16 645v113h205v614h885q163 0 271 -107t108 -270v-391q0 -61 -13 -110.5t-47 -110.5l-73 -129l-2 -2q-72 -128 -164.5 -189.5
t-218.5 -62.5h-746v645h-205z" />
    <glyph glyph-name="Ntilde" unicode="&#xd1;" horiz-adv-x="1732" 
d="M1423 0q-247 0 -389 254l-520 922q-47 81 -137 81h-27v-1257h-129v1372h88q44 0 92 -10l70 121q65 114 178 144t230 -36l168 -98q49 -30 89 -12.5t40 75.5v152h116v-106q0 -71 -29 -124t-75 -78t-108 -21.5t-124 38.5l-208 117q-37 22 -76.5 12t-61.5 -47l-102 -178
q113 -65 190 -203l521 -921q49 -82 137 -82h26v1257h129v-1372h-88z" />
    <glyph glyph-name="Ograve" unicode="&#xd2;" horiz-adv-x="1681" 
d="M553 1380h299l-184 320h131l184 -320h145q164 0 271.5 -108t107.5 -271v-630q0 -163 -107.5 -270t-271.5 -107h-575q-163 0 -271 107t-108 270v630q0 163 108 271t271 108zM305 274q0 -69 45.5 -113t114.5 -44h754q69 0 113 44t44 113v824q0 70 -44 114.5t-113 44.5h-754
q-69 0 -114.5 -44.5t-45.5 -114.5v-824z" />
    <glyph glyph-name="Oacute" unicode="&#xd3;" horiz-adv-x="1681" 
d="M553 1380h164l186 320h131l-186 -320h280q164 0 271.5 -108t107.5 -271v-630q0 -163 -107.5 -270t-271.5 -107h-575q-163 0 -271 107t-108 270v630q0 163 108 271t271 108zM305 274q0 -69 45.5 -113t114.5 -44h754q69 0 113 44t44 113v824q0 70 -44 114.5t-113 44.5h-754
q-69 0 -114.5 -44.5t-45.5 -114.5v-824z" />
    <glyph glyph-name="Ocircumflex" unicode="&#xd4;" horiz-adv-x="1681" 
d="M553 -6q-163 0 -271 107t-108 270v630q0 155 98.5 260.5t249.5 116.5l187 322h129l-187 -320h371l-184 320h129l184 -320q155 -7 255.5 -114.5t100.5 -264.5v-630q0 -163 -107.5 -270t-271.5 -107h-575zM305 274q0 -69 45.5 -113t114.5 -44h754q69 0 113 44t44 113v824
q0 70 -44 114.5t-113 44.5h-754q-69 0 -114.5 -44.5t-45.5 -114.5v-824z" />
    <glyph glyph-name="Otilde" unicode="&#xd5;" horiz-adv-x="1681" 
d="M553 -6q-163 0 -271 107t-108 270v630q0 134 75 233.5t197 131.5v135q0 71 29 124.5t75 78.5t108 21.5t124 -39.5l209 -119q49 -31 89 -13.5t40 76.5v142h117v-95q0 -71 -29 -124t-75 -78t-108 -21.5t-124 39.5l-209 119q-50 29 -89.5 11.5t-39.5 -75.5v-168h565
q164 0 271.5 -108t107.5 -271v-630q0 -163 -107.5 -270t-271.5 -107h-575zM305 274q0 -69 45.5 -113t114.5 -44h754q69 0 113 44t44 113v824q0 70 -44 114.5t-113 44.5h-754q-69 0 -114.5 -44.5t-45.5 -114.5v-824z" />
    <glyph glyph-name="Odieresis" unicode="&#xd6;" horiz-adv-x="1681" 
d="M553 1380h20v320h119v-320h287v320h119v-320h30q164 0 271.5 -108t107.5 -271v-630q0 -163 -107.5 -270t-271.5 -107h-575q-163 0 -271 107t-108 270v630q0 163 108 271t271 108zM305 274q0 -69 45.5 -113t114.5 -44h754q69 0 113 44t44 113v824q0 70 -44 114.5
t-113 44.5h-754q-69 0 -114.5 -44.5t-45.5 -114.5v-824z" />
    <glyph glyph-name="multiply" unicode="&#xd7;" horiz-adv-x="1409" 
d="M328 1165l379 -377l374 375l80 -80l-375 -374l377 -379l-82 -82l-376 379l-377 -377l-80 80l377 377l-379 376z" />
    <glyph glyph-name="Oslash" unicode="&#xd8;" horiz-adv-x="1681" 
d="M553 1380h575q164 0 271.5 -108t107.5 -271v-630q0 -163 -107.5 -270t-271.5 -107h-575q-163 0 -271 107t-108 270v630q0 163 108 271t271 108zM305 274q0 -69 45.5 -113t114.5 -44h754q69 0 113 44t44 113v652l-1071 -611v-41zM305 449l1071 612v37q0 70 -44 114.5
t-113 44.5h-754q-69 0 -114.5 -44.5t-45.5 -114.5v-649z" />
    <glyph glyph-name="Ugrave" unicode="&#xd9;" horiz-adv-x="1703" 
d="M594 -4q-163 0 -271 107t-108 270v999h131v-1096q0 -69 45.5 -113t114.5 -44h694q69 0 113.5 44t44.5 113v1096h131v-999q0 -163 -107.5 -270t-271.5 -107h-516zM649 1579h131l238 -410h-131z" />
    <glyph glyph-name="Uacute" unicode="&#xda;" horiz-adv-x="1703" 
d="M594 -4q-163 0 -271 107t-108 270v999h131v-1096q0 -69 45.5 -113t114.5 -44h694q69 0 113.5 44t44.5 113v1096h131v-999q0 -163 -107.5 -270t-271.5 -107h-516zM682 1169l236 410h131l-236 -410h-131z" />
    <glyph glyph-name="Ucircumflex" unicode="&#xdb;" horiz-adv-x="1703" 
d="M594 -4q-163 0 -271 107t-108 270v794l238 410h131l-238 -410v-891q0 -69 45.5 -113t114.5 -44h694q69 0 113.5 44t44.5 113v1096h131v-999q0 -163 -107.5 -270t-271.5 -107h-516zM584 1577h129l237 -410h-131z" />
    <glyph glyph-name="Udieresis" unicode="&#xdc;" horiz-adv-x="1703" 
d="M594 -4q-163 0 -271 107t-108 270v999h131v-1096q0 -69 45.5 -113t114.5 -44h694q69 0 113.5 44t44.5 113v1096h131v-999q0 -163 -107.5 -270t-271.5 -107h-516zM600 1163v420h117v-420h-117zM979 1163v420h117v-420h-117z" />
    <glyph glyph-name="Yacute" unicode="&#xdd;" horiz-adv-x="1568" 
d="M662 0v608h-119q-163 0 -271 107t-108 270v387h131v-483q0 -69 45.5 -113.5t114.5 -44.5h510q89 0 135 78l315 563h144l-279 -500q-146 -264 -399 -264h-88v-608h-131zM623 1169l235 410h131l-235 -410h-131z" />
    <glyph glyph-name="Thorn" unicode="&#xde;" horiz-adv-x="1540" 
d="M1276 969q0 69 -44.5 113t-113.5 44h-766v-645h766q69 0 113.5 45t44.5 115v328zM221 0v1434h131v-185h676q164 0 271.5 -107t107.5 -270v-135q0 -163 -107.5 -271t-271.5 -108h-676v-358h-131z" />
    <glyph glyph-name="germandbls" unicode="&#xdf;" horiz-adv-x="1361" 
d="M195 723q0 255 223 383l600 342v-133l-242 -137l465 -816q37 -65 38 -131.5t-28.5 -116.5t-87.5 -82t-133 -32h-336v117h396q57 0 81 42.5t-4 92.5l-495 868l-295 -168q-60 -35 -60 -102v-850h-122v723z" />
    <glyph glyph-name="agrave" unicode="&#xe0;" horiz-adv-x="1312" 
d="M1010 819q0 43 -29 72t-72 29h-684v114h418l-229 400h127l229 -400h55q133 0 220.5 -86.5t87.5 -218.5v-729h-123v195l-260 -148q-60 -34 -110 -46.5t-112 -12.5h-92q-125 0 -211 84t-86 209v49q0 124 87 207.5t220 83.5h564v198zM262 205q0 -43 28.5 -72t71.5 -29h183
q38 0 51 1t36 8t54 24l324 185v186h-648q-43 0 -71.5 -28.5t-28.5 -71.5v-203z" />
    <glyph glyph-name="aacute" unicode="&#xe1;" horiz-adv-x="1312" 
d="M1010 819q0 43 -29 72t-72 29h-684v114h295l230 400h127l-230 -400h178q133 0 220.5 -86.5t87.5 -218.5v-729h-123v195l-260 -148q-60 -34 -110 -46.5t-112 -12.5h-92q-125 0 -211 84t-86 209v49q0 124 87 207.5t220 83.5h564v198zM262 205q0 -43 28.5 -72t71.5 -29h183
q38 0 51 1t36 8t54 24l324 185v186h-648q-43 0 -71.5 -28.5t-28.5 -71.5v-203z" />
    <glyph glyph-name="acircumflex" unicode="&#xe2;" 
d="M154 729q0 93 45.5 166t122.5 109l247 430h123l-229 -400h461l-232 400h125l232 -400h102v-1034h-123v186l-244 -137q-57 -33 -106.5 -44t-114.5 -11h-106q-131 0 -217 86.5t-86 218.5v430zM276 209q0 -43 29 -71.5t72 -28.5h205h12q43 0 65.5 5t63.5 29l305 172v605
h-651q-43 0 -72 -29t-29 -72v-610z" />
    <glyph glyph-name="atilde" unicode="&#xe3;" horiz-adv-x="1312" 
d="M1010 819q0 43 -29 72t-72 29h-684v235q0 71 29 126t75 82t108 25t124 -38l209 -119q50 -31 88.5 -13.5t38.5 76.5v140h117v-76q0 -71 -29 -125.5t-75 -81.5t-107 -25t-123 37l-211 119q-47 30 -88 12.5t-41 -75.5v-185h485q133 0 220.5 -86.5t87.5 -218.5v-729h-123v195
l-260 -148q-60 -34 -110 -46.5t-112 -12.5h-92q-125 0 -211 84t-86 209v49q0 124 87 207.5t220 83.5h564v198zM262 205q0 -43 28.5 -72t71.5 -29h183q38 0 51 1t36 8t54 24l324 185v186h-648q-43 0 -71.5 -28.5t-28.5 -71.5v-203z" />
    <glyph glyph-name="adieresis" unicode="&#xe4;" horiz-adv-x="1312" 
d="M1010 819q0 43 -29 72t-72 29h-684v114h211v400h115v-400h194v400h117v-402q120 -12 195.5 -96t75.5 -207v-729h-123v195l-260 -148q-60 -34 -110 -46.5t-112 -12.5h-92q-125 0 -211 84t-86 209v49q0 124 87 207.5t220 83.5h564v198zM262 205q0 -43 28.5 -72t71.5 -29
h183q38 0 51 1t36 8t54 24l324 185v186h-648q-43 0 -71.5 -28.5t-28.5 -71.5v-203z" />
    <glyph glyph-name="aring" unicode="&#xe5;" horiz-adv-x="1312" 
d="M1010 819q0 43 -29 72t-72 29h-684v114h199q-49 65 -49 150q0 107 75.5 180.5t184.5 73.5q106 0 182 -73.5t76 -180.5q0 -87 -51 -150q127 -6 209 -91.5t82 -213.5v-729h-123v195l-260 -148q-60 -34 -110 -46.5t-112 -12.5h-92q-125 0 -211 84t-86 209v49q0 124 87 207.5
t220 83.5h564v198zM262 205q0 -43 28.5 -72t71.5 -29h183q38 0 51 1t36 8t54 24l324 185v186h-648q-43 0 -71.5 -28.5t-28.5 -71.5v-203zM485 1182q0 -63 43.5 -105.5t106.5 -42.5q62 0 103.5 42.5t41.5 105.5q0 66 -41.5 108.5t-103.5 42.5q-64 0 -107 -43t-43 -108z" />
    <glyph glyph-name="ae" unicode="&#xe6;" horiz-adv-x="2093" 
d="M436 -12q-125 0 -211 84t-86 209v45q0 124 87 207t220 83h543v310h-764v116h1407q134 0 220.5 -87t86.5 -218v-239h-827v-289q0 -43 28.5 -71.5t71.5 -28.5h279h12q43 0 65.5 5t63.5 29l305 174v-129l-241 -139q-59 -33 -108 -44t-113 -11h-179q-106 0 -185 57t-107 152
l-275 -156q-61 -34 -110.5 -46.5t-110.5 -12.5h-72zM262 205q0 -43 28.5 -72t71.5 -29h162q38 0 51.5 1t36.5 8t54 24l323 185v180h-627q-43 0 -71.5 -29t-28.5 -72v-196zM1112 608h705v217q0 43 -29 72t-72 29h-604v-318z" />
    <glyph glyph-name="ccedilla" unicode="&#xe7;" horiz-adv-x="1228" 
d="M461 1034h651v-114h-735q-43 0 -72 -29t-29 -72v-610q0 -43 29 -71.5t72 -28.5h225h12q43 0 65.5 5t63.5 29l369 209v-129l-297 -168v-178q0 -133 -77.5 -210t-211.5 -77h-75v117h157q43 0 66.5 23.5t23.5 66.5v209q-44 -12 -114 -12h-127q-131 0 -217 86.5t-86 218.5
v430q0 132 87 218.5t220 86.5z" />
    <glyph glyph-name="egrave" unicode="&#xe8;" 
d="M461 -6q-133 0 -220 86.5t-87 218.5v438q0 131 87 218t220 87h174l-225 392h127l225 -392h106q134 0 221 -87t87 -218v-245h-900v-283q0 -43 29 -71.5t72 -28.5h350h12q43 0 65.5 5t63.5 29l306 174v-129l-242 -139q-59 -33 -108 -44t-113 -11h-250zM276 602h777v223
q0 43 -29 72t-72 29h-575q-43 0 -72 -29t-29 -72v-223z" />
    <glyph glyph-name="eacute" unicode="&#xe9;" 
d="M461 -6q-133 0 -220 86.5t-87 218.5v438q0 131 87 218t220 87h110l226 392h127l-226 -392h170q134 0 221 -87t87 -218v-245h-900v-283q0 -43 29 -71.5t72 -28.5h350h12q43 0 65.5 5t63.5 29l306 174v-129l-242 -139q-59 -33 -108 -44t-113 -11h-250zM276 602h777v223
q0 43 -29 72t-72 29h-575q-43 0 -72 -29t-29 -72v-223z" />
    <glyph glyph-name="ecircumflex" unicode="&#xea;" 
d="M461 -6q-133 0 -220 86.5t-87 218.5v438q0 90 42.5 162t116.5 109l246 426h215l246 -428q72 -37 114 -108.5t42 -160.5v-245h-900v-283q0 -43 29 -71.5t72 -28.5h350h12q43 0 65.5 5t63.5 29l306 174v-129l-242 -139q-59 -33 -108 -44t-113 -11h-250zM276 602h777v223
q0 43 -29 72t-72 29h-575q-43 0 -72 -29t-29 -72v-223zM459 1042h2h407h6l-206 361z" />
    <glyph glyph-name="edieresis" unicode="&#xeb;" 
d="M461 -6q-133 0 -220 86.5t-87 218.5v438q0 130 86 217t217 88v392h114v-392h195v392h117v-392q128 -4 210.5 -90.5t82.5 -214.5v-245h-900v-283q0 -43 29 -71.5t72 -28.5h350h12q43 0 65.5 5t63.5 29l306 174v-129l-242 -139q-59 -33 -108 -44t-113 -11h-250zM276 602
h777v223q0 43 -29 72t-72 29h-575q-43 0 -72 -29t-29 -72v-223z" />
    <glyph glyph-name="igrave" unicode="&#xec;" horiz-adv-x="1095" 
d="M82 0v117h604v702q0 43 -28.5 72t-71.5 29h-383v114h299q133 0 220 -86.5t87 -218.5v-612h215v-117h-942zM446 1434h123l230 -400h-123z" />
    <glyph glyph-name="iacute" unicode="&#xed;" horiz-adv-x="1105" 
d="M82 0v117h604v702q0 43 -28.5 72t-71.5 29h-383v114h299q133 0 220 -86.5t87 -218.5v-612h215v-117h-942zM674 1034l229 400h123l-229 -400h-123z" />
    <glyph glyph-name="icircumflex" unicode="&#xee;" horiz-adv-x="1095" 
d="M840 1034l-230 400h121l230 -400h-121zM82 0v117h604v702q0 43 -28.5 72t-71.5 29h-383v114h55l229 400h123l-229 -400h121q133 0 220 -86.5t87 -218.5v-612h215v-117h-942z" />
    <glyph glyph-name="idieresis" unicode="&#xef;" horiz-adv-x="1095" 
d="M82 0v117h573v702q0 43 -28.5 72t-71.5 29h-352v114h268q133 0 220 -86.5t87 -218.5v-612h246v-117h-942zM655 1034v400h121v-400h-121zM903 1034v400h121v-400h-121z" />
    <glyph glyph-name="eth" unicode="&#xf0;" horiz-adv-x="1382" 
d="M522 811l559 -319v505q0 43 -28.5 72t-71.5 29h-238v-199h-116v199h-367v116h367v220h116v-220h154q133 0 220 -87t87 -218v-608q0 -132 -87 -218.5t-220 -86.5h-436q-133 0 -220 86.5t-87 218.5v305q0 75 31.5 133t82.5 86.5t118.5 26.5t135.5 -41zM276 211
q0 -43 29 -71.5t72 -28.5h604q43 0 71.5 28.5t28.5 71.5v154l-661 378q-54 32 -99 10t-45 -85v-457z" />
    <glyph glyph-name="ntilde" unicode="&#xf1;" horiz-adv-x="1384" 
d="M1083 819q0 43 -28.5 72t-71.5 29h-666v-920h-122v1034h221v121q0 57 18.5 104.5t51.5 77t75 43.5t92 6.5t99 -36.5l209 -119q51 -31 90 -13.5t39 76.5v140h116v-76q0 -71 -29 -125.5t-75.5 -81.5t-108 -25t-123.5 37l-208 119q-50 30 -90 12.5t-40 -75.5v-185h377
q127 0 212 -87t85 -218v-729h-123v819z" />
    <glyph glyph-name="ograve" unicode="&#xf2;" horiz-adv-x="1363" 
d="M461 1042h215l-225 392h127l225 -392h100q133 0 220 -87t87 -218v-438q0 -132 -87 -218.5t-220 -86.5h-442q-133 0 -220 86.5t-87 218.5v438q0 131 87 218t220 87zM276 209q0 -43 29 -71.5t72 -28.5h610q43 0 71.5 28.5t28.5 71.5v616q0 43 -28.5 72t-71.5 29h-610
q-43 0 -72 -29t-29 -72v-616z" />
    <glyph glyph-name="oacute" unicode="&#xf3;" horiz-adv-x="1363" 
d="M461 1042h131l225 392h127l-225 -392h184q133 0 220 -87t87 -218v-438q0 -132 -87 -218.5t-220 -86.5h-442q-133 0 -220 86.5t-87 218.5v438q0 131 87 218t220 87zM276 209q0 -43 29 -71.5t72 -28.5h610q43 0 71.5 28.5t28.5 71.5v616q0 43 -28.5 72t-71.5 29h-610
q-43 0 -72 -29t-29 -72v-616z" />
    <glyph glyph-name="ocircumflex" unicode="&#xf4;" horiz-adv-x="1363" 
d="M461 -6q-133 0 -220 86.5t-87 218.5v438q0 94 46.5 167.5t125.5 109.5l241 420h232l241 -420q78 -37 124 -111t46 -166v-438q0 -132 -87 -218.5t-220 -86.5h-442zM276 209q0 -43 29 -71.5t72 -28.5h610q43 0 71.5 28.5t28.5 71.5v616q0 43 -28.5 72t-71.5 29h-610
q-43 0 -72 -29t-29 -72v-616zM467 1042h434l-217 377z" />
    <glyph glyph-name="otilde" unicode="&#xf5;" horiz-adv-x="1363" 
d="M903 1042q133 0 220 -87t87 -218v-438q0 -132 -87 -218.5t-220 -86.5h-442q-133 0 -220 86.5t-87 218.5v438q0 120 74.5 204.5t191.5 98.5v115q0 57 18.5 104.5t51.5 77t75 43.5t92 6.5t99 -36.5l209 -119q51 -31 90 -13.5t39 76.5v140h116v-76q0 -71 -29 -125.5
t-75.5 -81.5t-108 -25t-123.5 37l-208 119q-50 30 -89.5 12.5t-39.5 -75.5v-177h366zM276 209q0 -43 29 -71.5t72 -28.5h610q43 0 71.5 28.5t28.5 71.5v616q0 43 -28.5 72t-71.5 29h-610q-43 0 -72 -29t-29 -72v-616z" />
    <glyph glyph-name="odieresis" unicode="&#xf6;" horiz-adv-x="1363" 
d="M461 1042h8v392h115v-392h194v392h117v-392h8q133 0 220 -87t87 -218v-438q0 -132 -87 -218.5t-220 -86.5h-442q-133 0 -220 86.5t-87 218.5v438q0 131 87 218t220 87zM276 209q0 -43 29 -71.5t72 -28.5h610q43 0 71.5 28.5t28.5 71.5v616q0 43 -28.5 72t-71.5 29h-610
q-43 0 -72 -29t-29 -72v-616z" />
    <glyph glyph-name="divide" unicode="&#xf7;" horiz-adv-x="1388" 
d="M184 764h1020v-115h-1020v115zM598 199v204h195v-204h-195zM598 1010v204h195v-204h-195z" />
    <glyph glyph-name="oslash" unicode="&#xf8;" horiz-adv-x="1363" 
d="M461 1042h442q133 0 220 -87t87 -218v-438q0 -132 -87 -218.5t-220 -86.5h-442q-133 0 -220 86.5t-87 218.5v438q0 131 87 218t220 87zM276 209q0 -43 29 -71.5t72 -28.5h610q43 0 71.5 28.5t28.5 71.5v479l-811 -461v-18zM276 350l811 461v14q0 43 -28.5 72t-71.5 29
h-610q-43 0 -72 -29t-29 -72v-475z" />
    <glyph glyph-name="ugrave" unicode="&#xf9;" horiz-adv-x="1386" 
d="M487 -4q-135 0 -221 86t-86 219v733h123v-823q0 -43 28.5 -71.5t71.5 -28.5h582q43 0 71.5 28.5t28.5 71.5v823h123v-733q0 -132 -87 -218.5t-220 -86.5h-414zM477 1434h127l232 -400h-127z" />
    <glyph glyph-name="uacute" unicode="&#xfa;" horiz-adv-x="1386" 
d="M487 -4q-135 0 -221 86t-86 219v733h123v-823q0 -43 28.5 -71.5t71.5 -28.5h582q43 0 71.5 28.5t28.5 71.5v823h123v-733q0 -132 -87 -218.5t-220 -86.5h-414zM588 1034l229 400h127l-229 -400h-127z" />
    <glyph glyph-name="ucircumflex" unicode="&#xfb;" horiz-adv-x="1386" 
d="M487 -4q-135 0 -221 86t-86 219v733l230 400h122l-229 -400v-823q0 -43 28.5 -71.5t71.5 -28.5h582q43 0 71.5 28.5t28.5 71.5v823h123v-733q0 -132 -87 -218.5t-220 -86.5h-414zM532 1434h123l230 -400h-123z" />
    <glyph glyph-name="udieresis" unicode="&#xfc;" horiz-adv-x="1386" 
d="M487 -4q-135 0 -221 86t-86 219v733h123v-823q0 -43 28.5 -71.5t71.5 -28.5h582q43 0 71.5 28.5t28.5 71.5v823h123v-733q0 -132 -87 -218.5t-220 -86.5h-414zM481 1034v400h115v-400h-115zM791 1034v400h116v-400h-116z" />
    <glyph glyph-name="yacute" unicode="&#xfd;" horiz-adv-x="1300" 
d="M477 0q-127 0 -212 87t-85 218v729h123v-817q0 -43 28.5 -71.5t71.5 -28.5h226l524 917h131l-823 -1444h-133l233 410h-84zM541 1034l229 400h127l-229 -400h-127z" />
    <glyph glyph-name="thorn" unicode="&#xfe;" horiz-adv-x="1372" 
d="M195 1434h122v-590l246 139q60 33 109 45t112 12h138q126 0 211.5 -87.5t85.5 -217.5v-430q0 -131 -87.5 -218t-220.5 -87h-594v-410h-122v1844zM317 117h678q43 0 72 28.5t29 71.5v606q0 43 -29 72t-72 29h-227q-38 0 -51 -1t-36 -8t-54 -24l-310 -176v-598z" />
    <glyph glyph-name="ydieresis" unicode="&#xff;" horiz-adv-x="1300" 
d="M477 0q-127 0 -212 87t-85 218v729h123v-817q0 -43 28.5 -71.5t71.5 -28.5h226l524 917h131l-823 -1444h-133l233 410h-84zM473 1034v400h115v-400h-115zM782 1034v400h117v-400h-117z" />
    <glyph glyph-name="Amacron" unicode="&#x100;" horiz-adv-x="1640" 
d="M494 1141q43 117 126.5 178t200.5 61q116 0 199.5 -61t126.5 -178l416 -1141h-142l-161 453h-879l-162 -453h-141zM426 578h788l-215 596q-22 61 -52.5 77.5t-106.5 16.5h-39q-77 0 -107.5 -16.5t-52.5 -77.5zM432 1481v108h772v-108h-772z" />
    <glyph glyph-name="amacron" unicode="&#x101;" horiz-adv-x="1312" 
d="M1010 819q0 43 -29 72t-72 29h-684v114h600q133 0 220.5 -86.5t87.5 -218.5v-729h-123v195l-260 -148q-60 -34 -110 -46.5t-112 -12.5h-92q-125 0 -211 84t-86 209v49q0 124 87 207.5t220 83.5h564v198zM225 1214v109h729v-109h-729zM262 205q0 -43 28.5 -72t71.5 -29
h183q38 0 51 1t36 8t54 24l324 185v186h-648q-43 0 -71.5 -28.5t-28.5 -71.5v-203z" />
    <glyph glyph-name="Abreve" unicode="&#x102;" horiz-adv-x="1640" 
d="M494 1141q35 93 96 151q-88 34 -138.5 110t-50.5 175v123h123v-215q0 -43 29 -72t70 -29h393q42 0 70 28.5t28 70.5v217h125v-123q0 -100 -50 -175.5t-138 -109.5q63 -60 96 -151l416 -1141h-142l-161 453h-879l-162 -453h-141zM426 578h788l-215 596q-22 61 -52.5 77.5
t-106.5 16.5h-39q-77 0 -107.5 -16.5t-52.5 -77.5z" />
    <glyph glyph-name="abreve" unicode="&#x103;" horiz-adv-x="1314" 
d="M584 989q-141 0 -230.5 86.5t-89.5 220.5v138h123v-230q0 -43 28.5 -71.5t69.5 -28.5h385q42 0 70.5 28t28.5 70v232h123v-138q0 -134 -89 -220.5t-229 -86.5h-190zM139 299v236q0 133 86.5 219t220.5 86h689v-840h-123v186l-242 -137q-59 -33 -108 -44t-113 -11h-107
q-132 0 -217.5 86.5t-85.5 218.5zM262 209q0 -43 28.5 -71.5t71.5 -28.5h203h12q30 0 44.5 1t36 8.5t49.5 24.5l305 172v410h-650q-43 0 -71.5 -28.5t-28.5 -71.5v-416z" />
    <glyph glyph-name="Aogonek" unicode="&#x104;" horiz-adv-x="1640" 
d="M494 1141q43 117 126.5 178t200.5 61q116 0 199.5 -61t126.5 -178l416 -1141h-338q-43 0 -66.5 -24t-23.5 -68v-123q0 -38 23 -61t65 -23h266v-117h-193q-130 0 -204 71.5t-74 194.5q0 122 74 192.5t204 70.5h84l-120 340h-879l-162 -453h-141zM426 578h788l-215 596
q-22 61 -52.5 77.5t-106.5 16.5h-39q-77 0 -107.5 -16.5t-52.5 -77.5z" />
    <glyph glyph-name="aogonek" unicode="&#x105;" horiz-adv-x="1300" 
d="M997 819q0 43 -28.5 72t-71.5 29h-672v114h588q133 0 220 -86.5t87 -218.5v-729h-211l-112 -197q-23 -43 -6.5 -74.5t57.5 -31.5h272v-107h-219q-84 0 -140.5 46t-65 115.5t33.5 152.5l55 96h-348q-125 0 -211 83t-86 204v47q0 122 87 204.5t220 82.5h551v198zM262 217
q0 -43 28.5 -71.5t71.5 -28.5h635v391h-635q-43 0 -71.5 -28.5t-28.5 -71.5v-191z" />
    <glyph glyph-name="Cacute" unicode="&#x106;" horiz-adv-x="1542" 
d="M553 1372h174l191 328h131l-191 -328h541v-123h-934q-69 0 -114.5 -44t-45.5 -113v-818q0 -69 45.5 -113t114.5 -44h385q56 0 85.5 7t80.5 36l383 217v-135l-336 -193q-57 -33 -106.5 -44t-114.5 -11h-289q-163 0 -271 107t-108 270v624q0 163 108 270t271 107z" />
    <glyph glyph-name="cacute" unicode="&#x107;" horiz-adv-x="1228" 
d="M461 1034h100l230 400h127l-230 -400h424v-114h-735q-43 0 -72 -29t-29 -72v-610q0 -43 29 -71.5t72 -28.5h225h12q43 0 65.5 5t63.5 29l369 209v-129l-307 -174q-57 -33 -106.5 -44t-114.5 -11h-127q-131 0 -217 86.5t-86 218.5v430q0 132 87 218.5t220 86.5z" />
    <glyph glyph-name="Cdotaccent" unicode="&#x10a;" horiz-adv-x="1542" 
d="M553 1372h233v328h117v-328h496v-123h-934q-69 0 -114.5 -44t-45.5 -113v-818q0 -69 45.5 -113t114.5 -44h385q56 0 85.5 7t80.5 36l383 217v-135l-336 -193q-57 -33 -106.5 -44t-114.5 -11h-289q-163 0 -271 107t-108 270v624q0 163 108 270t271 107z" />
    <glyph glyph-name="cdotaccent" unicode="&#x10b;" horiz-adv-x="1228" 
d="M461 1034h147v400h115v-400h389v-114h-735q-43 0 -72 -29t-29 -72v-610q0 -43 29 -71.5t72 -28.5h225h12q43 0 65.5 5t63.5 29l369 209v-129l-307 -174q-57 -33 -106.5 -44t-114.5 -11h-127q-131 0 -217 86.5t-86 218.5v430q0 132 87 218.5t220 86.5z" />
    <glyph glyph-name="Ccaron" unicode="&#x10c;" horiz-adv-x="1542" 
d="M553 1372h94l-188 328h129l188 -328h109l190 328h129l-190 -328h385v-123h-934q-69 0 -114.5 -44t-45.5 -113v-818q0 -69 45.5 -113t114.5 -44h385q56 0 85.5 7t80.5 36l383 217v-135l-336 -193q-57 -33 -106.5 -44t-114.5 -11h-289q-163 0 -271 107t-108 270v624
q0 163 108 270t271 107z" />
    <glyph glyph-name="ccaron" unicode="&#x10d;" horiz-adv-x="1228" 
d="M461 1034h45l-232 400h125l230 -400h98l229 400h123l-229 -400h262v-114h-735q-43 0 -72 -29t-29 -72v-610q0 -43 29 -71.5t72 -28.5h225h12q43 0 65.5 5t63.5 29l369 209v-129l-307 -174q-57 -33 -106.5 -44t-114.5 -11h-127q-131 0 -217 86.5t-86 218.5v430
q0 132 87 218.5t220 86.5z" />
    <glyph glyph-name="Dcaron" unicode="&#x10e;" horiz-adv-x="1642" 
d="M1354 1092q0 69 -45.5 113t-114.5 44h-842v-1126h713q69 0 104 61l39 70l52 88l16 29l35 59q29 53 36 82.5t7 85.5v494zM221 0v1372h389l-188 328h129l188 -328h109l190 328h129l-190 -328h129q163 0 271 -107t108 -270v-391q0 -61 -13 -110.5t-47 -110.5l-73 -129l-2 -2
q-72 -128 -164.5 -189.5t-218.5 -62.5h-746z" />
    <glyph glyph-name="dcaron" unicode="&#x10f;" horiz-adv-x="1511" 
d="M451 -6q-127 0 -212 87t-85 218v430q0 132 87 218.5t220 86.5h594v400h123v-1434h-123v186l-244 -137q-57 -33 -106.5 -44t-114.5 -11h-139zM276 209q0 -43 29 -71.5t72 -28.5h231h12q30 0 44.5 1t36 8.5t49.5 24.5l305 172v605h-678q-43 0 -72 -29t-29 -72v-610z
M1386 920v514h115v-514h-115z" />
    <glyph glyph-name="Dcroat" unicode="&#x110;" horiz-adv-x="1642" 
d="M1354 1092q0 69 -45.5 113t-114.5 44h-842v-491h389v-113h-389v-522h713q69 0 104 61l39 70l52 88l16 29l35 59q29 53 36 82.5t7 85.5v494zM16 645v113h205v614h885q163 0 271 -107t108 -270v-391q0 -61 -13 -110.5t-47 -110.5l-73 -129l-2 -2q-72 -128 -164.5 -189.5
t-218.5 -62.5h-746v645h-205z" />
    <glyph glyph-name="dcroat" unicode="&#x111;" horiz-adv-x="1372" 
d="M451 -6q-127 0 -212 87t-85 218v358q0 132 87 219t220 87h594v211h-420v108h420v152h123v-152h178v-108h-178v-1174h-123v186l-244 -137q-57 -33 -106.5 -44t-114.5 -11h-139zM276 209q0 -43 29 -71.5t72 -28.5h231h12q30 0 44.5 1t36 8.5t49.5 24.5l305 172v533h-678
q-43 0 -72 -28.5t-29 -71.5v-539z" />
    <glyph glyph-name="Emacron" unicode="&#x112;" horiz-adv-x="1521" 
d="M211 1067q0 133 86.5 219t220.5 86h819v-123h-897q-43 0 -70.5 -28.5t-27.5 -71.5v-363h995v-122h-995v-541h516q56 0 85.5 7t82.5 36l311 178v-137l-264 -150q-60 -33 -109 -45t-112 -12h-641v1067zM434 1540v111h729v-111h-729z" />
    <glyph glyph-name="emacron" unicode="&#x113;" 
d="M461 -6q-133 0 -220 86.5t-87 218.5v438q0 131 87 218t220 87h407q134 0 221 -87t87 -218v-245h-900v-283q0 -43 29 -71.5t72 -28.5h350h12q43 0 65.5 5t63.5 29l306 174v-129l-242 -139q-59 -33 -108 -44t-113 -11h-250zM276 602h777v223q0 43 -29 72t-72 29h-575
q-43 0 -72 -29t-29 -72v-223zM297 1214v109h729v-109h-729z" />
    <glyph glyph-name="Edotaccent" unicode="&#x116;" horiz-adv-x="1521" 
d="M211 1067q0 133 86.5 219t220.5 86h234v328h116v-328h469v-123h-897q-43 0 -70.5 -28.5t-27.5 -71.5v-363h995v-122h-995v-541h516q56 0 85.5 7t82.5 36l311 178v-137l-264 -150q-60 -33 -109 -45t-112 -12h-641v1067z" />
    <glyph glyph-name="edotaccent" unicode="&#x117;" 
d="M461 -6q-133 0 -220 86.5t-87 218.5v438q0 131 87 218t220 87h145v392h117v-392h145q134 0 221 -87t87 -218v-245h-900v-283q0 -43 29 -71.5t72 -28.5h350h12q43 0 65.5 5t63.5 29l306 174v-129l-242 -139q-59 -33 -108 -44t-113 -11h-250zM276 602h777v223q0 43 -29 72
t-72 29h-575q-43 0 -72 -29t-29 -72v-223z" />
    <glyph glyph-name="Eogonek" unicode="&#x118;" horiz-adv-x="1521" 
d="M211 1067q0 133 86.5 219t220.5 86h819v-123h-897q-43 0 -70.5 -28.5t-27.5 -71.5v-363h995v-122h-995v-541h516q56 0 85.5 7t82.5 36l311 178v-137l-264 -150q-1 -1 -4 -2t-4 -2v-254q0 -43 23.5 -66.5t66.5 -23.5h182v-119h-102q-135 0 -212 76.5t-77 208.5v133
q-41 -8 -94 -8h-641v1067z" />
    <glyph glyph-name="eogonek" unicode="&#x119;" 
d="M461 -6q-133 0 -220 86.5t-87 218.5v438q0 131 87 218t220 87h407q134 0 221 -87t87 -218v-245h-900v-283q0 -43 29 -71.5t72 -28.5h350h12q43 0 65.5 5t63.5 29l306 174v-129l-242 -139q-1 0 -2 -1t-2 -1v-250q0 -43 23.5 -66.5t66.5 -23.5h158v-117h-72
q-135 0 -213 77.5t-78 209.5v125q-44 -8 -102 -8h-250zM276 602h777v223q0 43 -29 72t-72 29h-575q-43 0 -72 -29t-29 -72v-223z" />
    <glyph glyph-name="Ecaron" unicode="&#x11a;" horiz-adv-x="1521" 
d="M211 1067q0 133 86.5 219t220.5 86h109l-189 328h129l189 -328h108l191 328h129l-191 -328h344v-123h-897q-43 0 -70.5 -28.5t-27.5 -71.5v-363h995v-122h-995v-541h516q56 0 85.5 7t82.5 36l311 178v-137l-264 -150q-60 -33 -109 -45t-112 -12h-641v1067z" />
    <glyph glyph-name="ecaron" unicode="&#x11b;" 
d="M461 -6q-133 0 -220 86.5t-87 218.5v438q0 131 87 218t220 87h53l-227 392h127l225 -392h90l225 392h123l-225 -392h16q134 0 221 -87t87 -218v-245h-900v-283q0 -43 29 -71.5t72 -28.5h350h12q43 0 65.5 5t63.5 29l306 174v-129l-242 -139q-59 -33 -108 -44t-113 -11
h-250zM276 602h777v223q0 43 -29 72t-72 29h-575q-43 0 -72 -29t-29 -72v-223z" />
    <glyph glyph-name="Gbreve" unicode="&#x11e;" horiz-adv-x="1677" 
d="M504 -10q-159 0 -244.5 99t-85.5 290v616q0 163 108.5 270t274.5 107h47q-57 79 -57 184v142h125v-225q0 -43 28 -72t70 -29h424q41 0 69.5 28.5t28.5 69.5v228h123v-142q0 -134 -87 -220.5t-230 -86.5h-633q-69 0 -114.5 -44t-45.5 -113v-836q0 -77 36 -110t110 -33h98
q74 0 104.5 16t59.5 70l61 108l139 246q154 270 424 270h136v-823h-130v705h-112q-90 0 -137 -80l-88 -154h2l-74 -129l-21 -35l-28 -49q-73 -131 -164.5 -199.5t-216.5 -68.5z" />
    <glyph glyph-name="gbreve" unicode="&#x11f;" 
d="M598 989q-140 0 -228.5 86.5t-88.5 220.5v138h122v-230q0 -43 28 -71.5t71 -28.5h385q41 0 69.5 28.5t28.5 69.5v232h123v-138q0 -134 -89.5 -220.5t-230.5 -86.5h-190zM154 299v236q0 132 87 218.5t220 86.5h688v-742q0 -65 -11 -114.5t-44 -106.5l-164 -287h-144
l199 349q28 51 34.5 79t6.5 78v90l-242 -137q-57 -33 -106.5 -44t-114.5 -11h-106q-131 0 -217 86.5t-86 218.5zM276 209q0 -43 29 -71.5t72 -28.5h205h12q43 0 65.5 5t63.5 29l303 172v410h-649q-43 0 -72 -28.5t-29 -71.5v-416z" />
    <glyph glyph-name="Gdotaccent" unicode="&#x120;" horiz-adv-x="1677" 
d="M1421 1372v-123h-956q-69 0 -114.5 -44t-45.5 -113v-836q0 -77 36 -110t110 -33h98q74 0 104.5 16t59.5 70l61 108l139 246q154 270 424 270h136v-823h-130v705h-112q-90 0 -137 -80l-88 -154h2l-74 -129l-21 -35l-28 -49q-73 -131 -164.5 -199.5t-216.5 -68.5
q-159 0 -244.5 99t-85.5 290v616q0 163 108.5 270t274.5 107h236v328h114v-328h514z" />
    <glyph glyph-name="gdotaccent" unicode="&#x121;" horiz-adv-x="1402" 
d="M481 344q-80 0 -145 41l-78 -137q-29 -50 -4 -92.5t82 -42.5h442q62 0 111.5 -12t109.5 -46l306 -174v-129l-369 209q-31 18 -54 25.5t-36 8.5t-51 1h-398q-75 0 -133 32t-86.5 82t-27.5 116.5t38 131.5l60 105q-53 75 -53 172v106q0 127 88 210t219 83h172v400h117v-400
h524v-114h-172q76 -76 76 -185v-100q0 -126 -88 -208.5t-220 -82.5h-430zM317 559q0 -43 29 -71.5t72 -28.5h577q43 0 72 28.5t29 71.5v260q0 43 -29 72t-72 29h-577q-43 0 -72 -29t-29 -72v-260z" />
    <glyph glyph-name="uni0122" unicode="&#x122;" horiz-adv-x="1677" 
d="M1421 1372v-123h-956q-69 0 -114.5 -44t-45.5 -113v-836q0 -77 36 -110t110 -33h98q74 0 104.5 16t59.5 70l61 108l139 246q154 270 424 270h136v-823h-130v705h-112q-90 0 -137 -80l-88 -154h2l-74 -129l-21 -35l-28 -49q-73 -131 -164.5 -199.5t-216.5 -68.5
q-159 0 -244.5 99t-85.5 290v616q0 163 108.5 270t274.5 107h864zM715 -410l237 410h129l-235 -410h-131z" />
    <glyph glyph-name="uni0123" unicode="&#x123;" horiz-adv-x="1402" 
d="M481 344q-80 0 -145 41l-78 -137q-29 -50 -4 -92.5t82 -42.5h442q62 0 111.5 -12t109.5 -46l306 -174v-129l-369 209q-31 18 -54 25.5t-36 8.5t-51 1h-398q-75 0 -133 32t-86.5 82t-27.5 116.5t38 131.5l60 105q-53 75 -53 172v106q0 127 88 210t219 83h137l229 400h127
l-229 -400h549v-114h-172q76 -76 76 -185v-100q0 -126 -88 -208.5t-220 -82.5h-430zM317 559q0 -43 29 -71.5t72 -28.5h577q43 0 72 28.5t29 71.5v260q0 43 -29 72t-72 29h-577q-43 0 -72 -29t-29 -72v-260z" />
    <glyph glyph-name="Hbar" unicode="&#x126;" horiz-adv-x="1673" 
d="M1323 0v588h-971v-588h-131v993h-205v119h205v260h131v-260h971v260h131v-260h205v-119h-205v-993h-131zM352 713h971v280h-971v-280z" />
    <glyph glyph-name="hbar" unicode="&#x127;" horiz-adv-x="1400" 
d="M1098 795q0 43 -29 71.5t-72 28.5h-223q-38 0 -51 -1t-36 -8t-54 -24l-316 -178v-684h-122v1174h-179v108h179v152h122v-152h420v-108h-420v-363l254 143q101 58 222 58h131q127 0 212 -87t85 -218v-707h-123v795z" />
    <glyph glyph-name="Imacron" unicode="&#x12a;" horiz-adv-x="1124" 
d="M109 0v125h389v1124h-389v123h909v-123h-389v-1124h389v-125h-909zM109 1530v110h909v-110h-909z" />
    <glyph glyph-name="imacron" unicode="&#x12b;" horiz-adv-x="1095" 
d="M82 0v117h604v702q0 43 -28.5 72t-71.5 29h-383v114h299q133 0 220 -86.5t87 -218.5v-612h215v-117h-942zM193 1214v109h616v-109h-616z" />
    <glyph glyph-name="Iogonek" unicode="&#x12e;" horiz-adv-x="1124" 
d="M109 0v125h389v1124h-389v123h909v-123h-389v-1124h389v-125h-334l-111 -195q-25 -43 -8 -73.5t60 -30.5h194v-111h-162q-80 0 -135.5 41t-65.5 107t31 149l66 113h-444z" />
    <glyph glyph-name="iogonek" unicode="&#x12f;" horiz-adv-x="1095" 
d="M82 0v117h604v702q0 43 -28.5 72t-71.5 29h-383v114h299q133 0 220 -86.5t87 -218.5v-612h215v-117h-248l-112 -197q-23 -43 -6.5 -74.5t57.5 -31.5h299v-107h-246q-84 0 -140.5 46t-64.5 115.5t35 152.5l55 96h-571zM686 1034v400h123v-400h-123z" />
    <glyph glyph-name="Idotaccent" unicode="&#x130;" horiz-adv-x="1124" 
d="M109 0v125h389v1124h-389v123h466v328h125v-328h318v-123h-389v-1124h389v-125h-909z" />
    <glyph glyph-name="dotlessi" unicode="&#x131;" horiz-adv-x="1095" 
d="M82 0v117h604v702q0 43 -28.5 72t-71.5 29h-383v114h299q133 0 220 -86.5t87 -218.5v-612h215v-117h-942z" />
    <glyph glyph-name="IJ" unicode="&#x132;" horiz-adv-x="1859" 
d="M221 0v1372h131v-1372h-131zM639 0v123h899q66 0 94 48.5t-4 107.5l-629 1093h148l559 -973q41 -71 42 -143.5t-31.5 -128.5t-95.5 -91.5t-144 -35.5h-838z" />
    <glyph glyph-name="ij" unicode="&#x133;" horiz-adv-x="1855" 
d="M82 0v117h604v702q0 43 -28.5 72t-71.5 29h-383v114h299q133 0 220 -86.5t87 -218.5v-612h215v-117h-942zM686 1034v400h123v-400h-123zM1026 920v114h328q134 0 220.5 -86t86.5 -219v-1139h-123v1229q0 43 -28.5 72t-71.5 29h-412zM1538 1034v400h123v-400h-123z" />
    <glyph glyph-name="uni0136" unicode="&#x136;" horiz-adv-x="1595" 
d="M838 975q-41 71 -42 143.5t31.5 128t95.5 90.5t144 35h350v-123h-411q-66 0 -94.5 -47.5t3.5 -105.5l629 -1096h-147l-426 743l-619 -354v-389h-131v1372h131v-846l559 320zM553 -410l235 410h132l-236 -410h-131z" />
    <glyph glyph-name="uni0137" unicode="&#x137;" horiz-adv-x="1277" 
d="M195 0v1434h122v-482q85 82 215 82h615v-114h-483l522 -920h-135l-523 920h-110q-43 0 -72 -29t-29 -72v-819h-122zM418 -410l235 410h127l-235 -410h-127z" />
    <glyph glyph-name="Lacute" unicode="&#x139;" horiz-adv-x="1357" 
d="M221 1372h131v-1149q0 -43 28 -71.5t71 -28.5h839v-123h-762q-134 0 -220.5 87t-86.5 218v1067zM647 1169l238 410h131l-238 -410h-131z" />
    <glyph glyph-name="lacute" unicode="&#x13a;" horiz-adv-x="632" 
d="M242 287q-34 59 -46 108.5t-12 112.5v926h123v-928q0 -38 1 -51t8.5 -36t25.5 -54l207 -365h-146zM406 1169l237 410h131l-237 -410h-131z" />
    <glyph glyph-name="uni013B" unicode="&#x13b;" horiz-adv-x="1357" 
d="M221 1372h131v-1149q0 -43 28 -71.5t71 -28.5h839v-123h-342l-237 -410h-129l235 410h-289q-134 0 -220.5 87t-86.5 218v1067z" />
    <glyph glyph-name="uni013C" unicode="&#x13c;" horiz-adv-x="632" 
d="M242 287q-34 59 -46 108.5t-12 112.5v926h123v-928q0 -38 1 -51t8.5 -36t25.5 -54l207 -365h-146zM184 -410v410h117v-410h-117z" />
    <glyph glyph-name="Lcaron" unicode="&#x13d;" horiz-adv-x="1357" 
d="M221 1372h131v-1149q0 -43 28 -71.5t71 -28.5h839v-123h-762q-134 0 -220.5 87t-86.5 218v1067zM680 952v420h117v-420h-117z" />
    <glyph glyph-name="lcaron" unicode="&#x13e;" horiz-adv-x="688" 
d="M242 287q-34 59 -46 108.5t-12 112.5v926h123v-928q0 -38 1 -51t8.5 -36t25.5 -54l207 -365h-146zM516 920v514h117v-514h-117z" />
    <glyph glyph-name="Lslash" unicode="&#x141;" horiz-adv-x="1357" 
d="M221 1372h131v-594l547 312v-134l-547 -311v-422q0 -43 28 -71.5t71 -28.5h839v-123h-762q-134 0 -220.5 87t-86.5 218v264l-205 -116v133l205 116v670z" />
    <glyph glyph-name="lslash" unicode="&#x142;" horiz-adv-x="696" 
d="M252 287q-33 58 -45 108t-12 113v172l-179 -100v133l179 100v621h122v-549l297 168v-133l-297 -168v-246q0 -38 1 -51t8.5 -36t25.5 -54l207 -365h-145z" />
    <glyph glyph-name="Nacute" unicode="&#x143;" horiz-adv-x="1732" 
d="M1423 0q-245 0 -389 254l-332 586q-46 82 -137 82l-215 -2v-920h-129v1372h129v-338l150 2q125 0 223.5 -67t165.5 -187l330 -585q49 -82 137 -82h26v1257h129v-1372h-88zM741 1169l236 410h131l-236 -410h-131z" />
    <glyph glyph-name="nacute" unicode="&#x144;" horiz-adv-x="1384" 
d="M1083 819q0 43 -28.5 72t-71.5 29h-666v-920h-122v1034h403l229 400h127l-229 -400h184q127 0 212 -87t85 -218v-729h-123v819z" />
    <glyph glyph-name="uni0145" unicode="&#x145;" horiz-adv-x="1732" 
d="M1423 0q-247 0 -389 254l-520 922q-47 81 -137 81h-27v-1257h-129v1372h88q247 0 389 -254l521 -921q49 -82 137 -82h26v1257h129v-1372h-88zM584 -410l235 410h131l-237 -410h-129z" />
    <glyph glyph-name="uni0146" unicode="&#x146;" horiz-adv-x="1400" 
d="M317 1034v-188l254 143q57 33 107 44t115 11h131q128 0 212.5 -86.5t84.5 -218.5v-739h-123v829q0 43 -29 72t-72 29h-223q-38 0 -51 -1t-36 -8.5t-54 -25.5l-316 -178v-717h-122v1034h122zM463 -410l235 410h127l-235 -410h-127z" />
    <glyph glyph-name="Ncaron" unicode="&#x147;" horiz-adv-x="1736" 
d="M1423 0q-245 0 -389 254l-332 586q-46 82 -137 82l-215 -2v-920h-129v1372h129v-338l150 2q125 0 223.5 -67t165.5 -187l330 -585q49 -82 137 -82h26v1257h129v-1372h-88zM508 1579h131l235 -410h-129zM874 1169l238 410h127l-235 -410h-130z" />
    <glyph glyph-name="ncaron" unicode="&#x148;" horiz-adv-x="1384" 
d="M508 1034l-232 400h127l230 -400h92l229 400h123l-229 -400h61q127 0 212 -87t85 -218v-729h-123v819q0 43 -28.5 72t-71.5 29h-666v-920h-122v1034h313z" />
    <glyph glyph-name="Omacron" unicode="&#x14c;" horiz-adv-x="1681" 
d="M553 1380h575q164 0 271.5 -108t107.5 -271v-630q0 -163 -107.5 -270t-271.5 -107h-575q-163 0 -271 107t-108 270v630q0 163 108 271t271 108zM305 274q0 -69 45.5 -113t114.5 -44h754q69 0 113 44t44 113v824q0 70 -44 114.5t-113 44.5h-754q-69 0 -114.5 -44.5
t-45.5 -114.5v-824zM477 1540v111h729v-111h-729z" />
    <glyph glyph-name="omacron" unicode="&#x14d;" horiz-adv-x="1363" 
d="M461 1042h442q133 0 220 -87t87 -218v-438q0 -132 -87 -218.5t-220 -86.5h-442q-133 0 -220 86.5t-87 218.5v438q0 131 87 218t220 87zM276 209q0 -43 29 -71.5t72 -28.5h610q43 0 71.5 28.5t28.5 71.5v616q0 43 -28.5 72t-71.5 29h-610q-43 0 -72 -29t-29 -72v-616z
M317 1214v109h730v-109h-730z" />
    <glyph glyph-name="Ohungarumlaut" unicode="&#x150;" horiz-adv-x="1681" 
d="M553 1380h10l185 320h126l-186 -320h262l185 320h127l-187 -320h53q164 0 271.5 -108t107.5 -271v-630q0 -163 -107.5 -270t-271.5 -107h-575q-163 0 -271 107t-108 270v630q0 163 108 271t271 108zM305 274q0 -69 45.5 -113t114.5 -44h754q69 0 113 44t44 113v824
q0 70 -44 114.5t-113 44.5h-754q-69 0 -114.5 -44.5t-45.5 -114.5v-824z" />
    <glyph glyph-name="ohungarumlaut" unicode="&#x151;" horiz-adv-x="1363" 
d="M461 -6q-133 0 -220 86.5t-87 218.5v438q0 131 86.5 218t218.5 87l225 392h123l-225 -392h200l226 392h122l-225 -392q132 0 218.5 -87t86.5 -218v-438q0 -132 -87 -218.5t-220 -86.5h-442zM276 209q0 -43 29 -71.5t72 -28.5h610q43 0 71.5 28.5t28.5 71.5v616
q0 43 -28.5 72t-71.5 29h-610q-43 0 -72 -29t-29 -72v-616z" />
    <glyph glyph-name="OE" unicode="&#x152;" horiz-adv-x="2541" 
d="M174 999q0 163 108 270t271 107h1804v-123h-934v-467h934v-122h-934v-541h457q56 0 85.5 7t80.5 36l311 178v-137l-264 -150q-58 -33 -108 -45t-113 -12h-580v229l-315 -178q-60 -33 -109 -45t-112 -12h-203q-163 0 -271 108t-108 271v626zM305 276q0 -70 45.5 -114.5
t114.5 -44.5h297q55 0 84.5 7.5t83.5 37.5l362 205v886h-827q-69 0 -114.5 -44t-45.5 -113v-820z" />
    <glyph glyph-name="oe" unicode="&#x153;" horiz-adv-x="2164" 
d="M461 1042h1243q134 0 220.5 -87t86.5 -218v-245h-848v-283q0 -43 29 -71.5t72 -28.5h299h12q43 0 65.5 5t63.5 29l305 174v-129l-242 -139q-59 -33 -108 -44t-113 -11h-198q-92 0 -165 43.5t-110 118.5l-188 -107q-57 -33 -106.5 -44t-114.5 -11h-203q-133 0 -220 86.5
t-87 218.5v438q0 131 87 218t220 87zM276 209q0 -43 29 -71.5t72 -28.5h305h12q43 0 65.5 5t63.5 29l219 125q-2 10 -2 31v627h-663q-43 0 -72 -29t-29 -72v-616zM1163 602h725v223q0 43 -28.5 72t-71.5 29h-625v-324z" />
    <glyph glyph-name="Racute" unicode="&#x154;" horiz-adv-x="1622" 
d="M1337 496q0 43 -27.5 71.5t-70.5 28.5h-887v-596h-131v1372h473l191 328h131l-191 -328h275q65 0 120 -22.5t90 -61.5t52 -88.5t9.5 -108.5t-40.5 -116l-147 -256q125 -7 204.5 -93.5t79.5 -211.5v-414h-131v496zM352 719h684l213 371q36 62 11.5 110.5t-93.5 48.5h-815
v-530z" />
    <glyph glyph-name="racute" unicode="&#x155;" horiz-adv-x="999" 
d="M180 729q0 133 86 219t221 86h35l230 400h122l-229 -400h309v-114h-551q-43 0 -71.5 -29t-28.5 -72v-819h-123v729z" />
    <glyph glyph-name="uni0156" unicode="&#x156;" horiz-adv-x="1622" 
d="M1337 496q0 43 -27.5 71.5t-70.5 28.5h-887v-596h-131v1372h879q65 0 120 -22.5t90 -61.5t52 -88.5t9.5 -108.5t-40.5 -116l-147 -256q125 -7 204.5 -93.5t79.5 -211.5v-414h-131v496zM352 719h684l213 371q36 62 11.5 110.5t-93.5 48.5h-815v-530zM571 -410l238 410h131
l-238 -410h-131z" />
    <glyph glyph-name="uni0157" unicode="&#x157;" horiz-adv-x="999" 
d="M180 729q0 133 86 219t221 86h467v-114h-551q-43 0 -71.5 -29t-28.5 -72v-819h-123v729zM350 -410l236 410h127l-236 -410h-127z" />
    <glyph glyph-name="Rcaron" unicode="&#x158;" horiz-adv-x="1622" 
d="M1337 496q0 43 -27.5 71.5t-70.5 28.5h-887v-596h-131v1372h361l-191 328h129l191 -328h108l189 328h129l-189 -328h152q65 0 120 -22.5t90 -61.5t52 -88.5t9.5 -108.5t-40.5 -116l-147 -256q125 -7 204.5 -93.5t79.5 -211.5v-414h-131v496zM352 719h684l213 371
q36 62 11.5 110.5t-93.5 48.5h-815v-530z" />
    <glyph glyph-name="rcaron" unicode="&#x159;" horiz-adv-x="999" 
d="M180 729q0 122 73 206t191 97l-233 402h125l229 -400h92l230 400h125l-230 -400h172v-114h-551q-43 0 -71.5 -29t-28.5 -72v-819h-123v729z" />
    <glyph glyph-name="Sacute" unicode="&#x15a;" horiz-adv-x="1617" 
d="M217 0v123h936q69 0 114.5 45t45.5 115v458q0 65 -46.5 91.5t-103.5 -5.5l-315 -180l-260 -149q-71 -41 -143.5 -42.5t-128 30t-91 95t-35.5 144.5v270q0 163 107.5 270t271.5 107h148l190 328h131l-190 -328h524v-123h-893q-69 0 -113 -44t-44 -113v-435q0 -65 46 -91.5
t101 5.5l317 181l258 149q57 33 115.5 41t109 -8.5t90 -51t62.5 -89t23 -119.5v-295q0 -163 -108 -271t-271 -108h-848z" />
    <glyph glyph-name="sacute" unicode="&#x15b;" horiz-adv-x="1273" 
d="M948 117q57 0 82 42.5t-4 92.5l-381 668q-40 0 -63.5 -6t-63.5 -29l-379 -215v129l316 180q60 34 110 45l236 410h123l-230 -400h422v-114h-336l318 -558q37 -65 38 -131.5t-28.5 -116.5t-87.5 -82t-133 -32h-748v117h809z" />
    <glyph glyph-name="Scedilla" unicode="&#x15e;" horiz-adv-x="1617" 
d="M217 0v123h936q69 0 114.5 45t45.5 115v458q0 65 -46.5 91.5t-103.5 -5.5l-315 -180l-260 -149q-71 -41 -143.5 -42.5t-128 30t-91 95t-35.5 144.5v270q0 163 107.5 270t271.5 107h803v-123h-893q-69 0 -113 -44t-44 -113v-435q0 -65 46 -91.5t101 5.5l317 181l258 149
q57 33 115.5 41t109 -8.5t90 -51t62.5 -89t23 -119.5v-295q0 -163 -108 -271t-271 -108h-76v-123q0 -133 -77.5 -210t-211.5 -77h-106v117h188q43 0 66.5 23.5t23.5 66.5v203h-655z" />
    <glyph glyph-name="scedilla" unicode="&#x15f;" horiz-adv-x="1273" 
d="M948 117q57 0 82 42.5t-4 92.5l-381 668q-40 0 -63.5 -6t-63.5 -29l-379 -215v129l316 180q59 33 108 44t113 11h440v-114h-336l318 -558q37 -65 38 -131.5t-28.5 -116.5t-87.5 -82t-133 -32h-51v-123q0 -133 -77 -210t-212 -77h-76v117h158q43 0 66.5 23.5t23.5 66.5
v203h-580v117h809z" />
    <glyph glyph-name="Scaron" unicode="&#x160;" horiz-adv-x="1617" 
d="M217 0v123h936q69 0 114.5 45t45.5 115v458q0 65 -46.5 91.5t-103.5 -5.5l-315 -180l-260 -149q-71 -41 -143.5 -42.5t-128 30t-91 95t-35.5 144.5v270q0 163 107.5 270t271.5 107h78l-188 328h129l188 -328h109l190 328h129l-190 -328h358v-123h-893q-69 0 -113 -44
t-44 -113v-435q0 -65 46 -91.5t101 5.5l317 181l258 149q57 33 115.5 41t109 -8.5t90 -51t62.5 -89t23 -119.5v-295q0 -163 -108 -271t-271 -108h-848z" />
    <glyph glyph-name="scaron" unicode="&#x161;" horiz-adv-x="1273" 
d="M948 117q57 0 82 42.5t-4 92.5l-381 668q-40 0 -63.5 -6t-63.5 -29l-379 -215v129l316 180q48 28 86 39l-242 416h127l229 -400h21h61l230 400h123l-230 -400h256v-114h-336l318 -558q37 -65 38 -131.5t-28.5 -116.5t-87.5 -82t-133 -32h-748v117h809z" />
    <glyph glyph-name="uni0162" unicode="&#x162;" horiz-adv-x="1378" 
d="M618 0v1249h-587v123h1317v-123h-598v-1138q115 -9 180 -78t65 -183q0 -123 -74 -194.5t-204 -71.5h-277v117h348q42 0 66.5 23.5t24.5 60.5v123q0 44 -24 68t-67 24h-170z" />
    <glyph glyph-name="uni0163" unicode="&#x163;" horiz-adv-x="1140" 
d="M487 0q-134 0 -220.5 87t-86.5 218v924h123v-557l719 409v-129l-719 -407v-328q0 -43 28.5 -71.5t71.5 -28.5h619v-117h-197v-123q0 -133 -77 -210t-211 -77h-76v117h157q43 0 67 23.5t24 66.5v203h-222z" />
    <glyph glyph-name="Tcaron" unicode="&#x164;" horiz-adv-x="1378" 
d="M618 0v1249h-587v123h471l-191 328h129l191 -328h108l189 328h129l-189 -328h480v-123h-598v-1249h-132z" />
    <glyph glyph-name="tcaron" unicode="&#x165;" horiz-adv-x="1302" 
d="M487 0q-134 0 -220.5 87t-86.5 218v924h123v-557l719 409v-129l-719 -407v-328q0 -43 28.5 -71.5t71.5 -28.5h619v-117h-535zM1176 920v514h116v-514h-116z" />
    <glyph glyph-name="Umacron" unicode="&#x16a;" horiz-adv-x="1703" 
d="M594 -4q-163 0 -271 107t-108 270v999h131v-1096q0 -69 45.5 -113t114.5 -44h694q69 0 113.5 44t44.5 113v1096h131v-999q0 -163 -107.5 -270t-271.5 -107h-516zM508 1372v113h680v-113h-680z" />
    <glyph glyph-name="umacron" unicode="&#x16b;" horiz-adv-x="1386" 
d="M487 -4q-135 0 -221 86t-86 219v733h123v-823q0 -43 28.5 -71.5t71.5 -28.5h582q43 0 71.5 28.5t28.5 71.5v823h123v-733q0 -132 -87 -218.5t-220 -86.5h-414zM350 1214v109h688v-109h-688z" />
    <glyph glyph-name="Uring" unicode="&#x16e;" horiz-adv-x="1703" 
d="M594 -4q-163 0 -271 107t-108 270v999h131v-1096q0 -69 45.5 -113t114.5 -44h694q69 0 113.5 44t44.5 113v1096h131v-999q0 -163 -107.5 -270t-271.5 -107h-516zM563 1372q0 122 81.5 201.5t205.5 79.5q121 0 200.5 -79.5t79.5 -201.5q0 -124 -79.5 -204.5t-200.5 -80.5
q-124 0 -205.5 80.5t-81.5 204.5zM674 1372q0 -78 50 -128t126 -50q73 0 122.5 50.5t49.5 127.5q0 76 -49.5 125t-122.5 49q-76 0 -126 -49t-50 -125z" />
    <glyph glyph-name="uring" unicode="&#x16f;" horiz-adv-x="1386" 
d="M842 1208q0 64 -42.5 107t-105.5 43t-106 -43t-43 -107q0 -66 42.5 -108.5t106.5 -42.5q63 0 105.5 42.5t42.5 108.5zM180 301v733h123v-823q0 -43 28.5 -71.5t71.5 -28.5h582q43 0 71.5 28.5t28.5 71.5v823h123v-733q0 -132 -87 -218.5t-220 -86.5h-414q-135 0 -221 86
t-86 219zM432 1208q0 107 76.5 181.5t185.5 74.5t184.5 -74.5t75.5 -181.5q0 -108 -75.5 -182t-184.5 -74t-185.5 74t-76.5 182z" />
    <glyph glyph-name="Uhungarumlaut" unicode="&#x170;" horiz-adv-x="1703" 
d="M594 -4q-163 0 -271 107t-108 270v999h131v-1096q0 -69 45.5 -113t114.5 -44h694q69 0 113.5 44t44.5 113v1096h131v-999q0 -163 -107.5 -270t-271.5 -107h-516zM465 1579h131l235 -410h-129zM834 1579h131l235 -410h-129z" />
    <glyph glyph-name="uhungarumlaut" unicode="&#x171;" horiz-adv-x="1386" 
d="M487 -4q-135 0 -221 86t-86 219v733h123v-823q0 -43 28.5 -71.5t71.5 -28.5h582q43 0 71.5 28.5t28.5 71.5v823h123v-733q0 -132 -87 -218.5t-220 -86.5h-414zM440 1034l230 400h123l-230 -400h-123zM762 1034l231 400h123l-231 -400h-123z" />
    <glyph glyph-name="Uogonek" unicode="&#x172;" horiz-adv-x="1703" 
d="M594 -4q-163 0 -271 107t-108 270v999h131v-1096q0 -69 45.5 -113t114.5 -44h694q69 0 113.5 44t44.5 113v1096h131v-999q0 -163 -107.5 -270t-271.5 -107h-195v-197q0 -43 24 -66.5t67 -23.5h182v-119h-103q-135 0 -211.5 76.5t-76.5 208.5v121h-203z" />
    <glyph glyph-name="uogonek" unicode="&#x173;" horiz-adv-x="1386" 
d="M487 -4q-135 0 -221 86t-86 219v733h123v-823q0 -43 28.5 -71.5t71.5 -28.5h582q43 0 71.5 28.5t28.5 71.5v823h123v-733q0 -132 -87 -218.5t-220 -86.5h-123v-199q0 -43 23.5 -66.5t66.5 -23.5h168v-117h-82q-135 0 -212.5 77.5t-77.5 209.5v119h-177z" />
    <glyph glyph-name="Wcircumflex" unicode="&#x174;" horiz-adv-x="2140" 
d="M221 0v1372h131v-1249h332l324 577q29 53 36 82.5t7 85.5v299h129v-293q0 -119 -56 -221l-295 -530h517q88 0 135 78l364 651q29 53 36 82.5t7 85.5v352h129v-346q0 -62 -11.5 -111.5t-43.5 -109.5l-301 -539q-147 -266 -399 -266h-1041zM750 1167l235 410h131l-237 -410
h-129zM1116 1577h129l238 -410h-131z" />
    <glyph glyph-name="wcircumflex" unicode="&#x175;" horiz-adv-x="1861" 
d="M195 0v1034h122v-917h285l232 409q5 9 9.5 17.5t7.5 15t5.5 14.5t4 12t2.5 13t1.5 12t1 13.5t0.5 12.5v15.5v16.5v366h123v-356q0 -63 -12 -113t-45 -108l-191 -340h377q70 0 103 59l487 858h137l-450 -786q-71 -127 -162.5 -187.5t-216.5 -60.5h-821zM575 1034l230 400
h123l-230 -400h-123zM928 1434h123l229 -400h-123z" />
    <glyph glyph-name="Ycircumflex" unicode="&#x176;" horiz-adv-x="1568" 
d="M662 0v608h-119q-163 0 -271 107t-108 270v182l237 410h131l-237 -410v-278q0 -69 45.5 -113.5t114.5 -44.5h510q89 0 135 78l315 563h144l-279 -500q-146 -264 -399 -264h-88v-608h-131zM532 1577h130l237 -410h-131z" />
    <glyph glyph-name="ycircumflex" unicode="&#x177;" horiz-adv-x="1300" 
d="M477 0q-127 0 -212 87t-85 218v729l230 400h122l-229 -400v-817q0 -43 28.5 -71.5t71.5 -28.5h226l524 917h131l-823 -1444h-133l233 410h-84zM532 1434h123l230 -400h-123z" />
    <glyph glyph-name="Ydieresis" unicode="&#x178;" horiz-adv-x="1568" 
d="M662 0v608h-119q-163 0 -271 107t-108 270v387h131v-483q0 -69 45.5 -113.5t114.5 -44.5h510q89 0 135 78l315 563h144l-279 -500q-146 -264 -399 -264h-88v-608h-131zM524 1163v420h117v-420h-117zM903 1163v420h117v-420h-117z" />
    <glyph glyph-name="Zacute" unicode="&#x179;" horiz-adv-x="1462" 
d="M119 -10v170l1020 1089h-1018v123h448l191 328h131l-191 -328h596v-123l-678 -727q97 3 177 -45l602 -342v-145l-766 436q-31 18 -64 12.5t-57 -32.5l-203 -216z" />
    <glyph glyph-name="zacute" unicode="&#x17a;" horiz-adv-x="1236" 
d="M141 1034h338l230 400h127l-230 -400h479v-114l-520 -512q86 0 168 -48l412 -235v-135l-570 329q-65 35 -116 -18l-64 -61h-2l-254 -250v153l789 777h-787v114z" />
    <glyph glyph-name="Zdotaccent" unicode="&#x17b;" horiz-adv-x="1462" 
d="M119 -10v170l1020 1089h-1018v123h489v328h117v-328h569v-123l-678 -727q97 3 177 -45l602 -342v-145l-766 436q-31 18 -64 12.5t-57 -32.5l-203 -216z" />
    <glyph glyph-name="zdotaccent" unicode="&#x17c;" horiz-adv-x="1236" 
d="M141 1034h391v400h115v-400h438v-114l-520 -512q86 0 168 -48l412 -235v-135l-570 329q-65 35 -116 -18l-64 -61h-2l-254 -250v153l789 777h-787v114z" />
    <glyph glyph-name="Zcaron" unicode="&#x17d;" horiz-adv-x="1462" 
d="M119 -10v170l1020 1089h-1018v123h389l-191 328h130l190 -328h109l188 328h129l-188 -328h419v-123l-678 -727q97 3 177 -45l602 -342v-145l-766 436q-31 18 -64 12.5t-57 -32.5l-203 -216z" />
    <glyph glyph-name="zcaron" unicode="&#x17e;" horiz-adv-x="1236" 
d="M141 1034h285l-231 400h124l230 -400h92l229 400h125l-229 -400h319v-114l-520 -512q86 0 168 -48l412 -235v-135l-570 329q-65 35 -116 -18l-64 -61h-2l-254 -250v153l789 777h-787v114z" />
    <glyph glyph-name="uni018F" unicode="&#x18f;" horiz-adv-x="1583" 
d="M1030 0h-477q-163 0 -271 108t-108 271v393h1104v320q0 69 -44.5 113t-113.5 44h-899v123h809q164 0 271.5 -107t107.5 -270v-616q0 -163 -107.5 -271t-271.5 -108zM305 283q0 -70 45.5 -115t114.5 -45h655q69 0 113.5 45t44.5 115v366h-973v-366z" />
    <glyph glyph-name="uni0218" unicode="&#x218;" horiz-adv-x="1617" 
d="M217 0v123h936q69 0 114.5 45t45.5 115v458q0 65 -46.5 91.5t-103.5 -5.5l-315 -180l-260 -149q-71 -41 -143.5 -42.5t-128 30t-91 95t-35.5 144.5v270q0 163 107.5 270t271.5 107h803v-123h-893q-69 0 -113 -44t-44 -113v-435q0 -65 46 -91.5t101 5.5l317 181l258 149
q57 33 115.5 41t109 -8.5t90 -51t62.5 -89t23 -119.5v-295q0 -163 -108 -271t-271 -108h-111l-235 -410h-131l235 410h-606z" />
    <glyph glyph-name="uni0219" unicode="&#x219;" horiz-adv-x="1273" 
d="M948 117q57 0 82 42.5t-4 92.5l-381 668q-40 0 -63.5 -6t-63.5 -29l-379 -215v129l316 180q59 33 108 44t113 11h440v-114h-336l318 -558q37 -65 38 -131.5t-28.5 -116.5t-87.5 -82t-133 -32h-76l-236 -410h-126l235 410h-545v117h809z" />
    <glyph glyph-name="uni021A" unicode="&#x21a;" horiz-adv-x="1378" 
d="M618 0v1249h-587v123h1317v-123h-598v-1249h-132zM516 -410l238 410h131l-238 -410h-131z" />
    <glyph glyph-name="uni021B" unicode="&#x21b;" horiz-adv-x="1140" 
d="M487 0q-134 0 -220.5 87t-86.5 218v924h123v-557l719 409v-129l-719 -407v-328q0 -43 28.5 -71.5t71.5 -28.5h619v-117h-229l-236 -410h-127l236 410h-179z" />
    <glyph glyph-name="uni0237" unicode="&#x237;" horiz-adv-x="876" 
d="M559 819q0 43 -28.5 72t-71.5 29h-412v114h328q135 0 221 -86t86 -219v-1139h-123v1229z" />
    <glyph glyph-name="uni0259" unicode="&#x259;" horiz-adv-x="1320" 
d="M1167 299q0 -132 -87 -218.5t-220 -86.5h-399q-133 0 -220 86.5t-87 218.5v287h890v233q0 43 -28.5 72t-71.5 29h-743v114h659q133 0 220 -86.5t87 -218.5v-430zM276 209q0 -43 29 -71.5t72 -28.5h567q43 0 71.5 28.5t28.5 71.5v266h-768v-266z" />
    <glyph glyph-name="uni0401" unicode="&#x401;" horiz-adv-x="1521" 
d="M211 1067q0 133 86.5 219t220.5 86h31v328h119v-328h286v328h119v-328h264v-123h-897q-43 0 -70.5 -28.5t-27.5 -71.5v-363h995v-122h-995v-541h516q56 0 85.5 7t82.5 36l311 178v-137l-264 -150q-60 -33 -109 -45t-112 -12h-641v1067z" />
    <glyph glyph-name="uni0404" unicode="&#x404;" horiz-adv-x="1548" 
d="M553 0q-164 0 -271.5 108t-107.5 271v616q0 163 107.5 270t271.5 107h805v-123h-895q-69 0 -113.5 -44t-44.5 -113v-650l1053 602v-135l-1053 -602v-24q0 -70 44.5 -115t113.5 -45h895v-123h-805z" />
    <glyph glyph-name="uni0406" unicode="&#x406;" horiz-adv-x="571" 
d="M221 0v1372h131v-1372h-131z" />
    <glyph glyph-name="uni0407" unicode="&#x407;" horiz-adv-x="1124" 
d="M109 0v125h389v1124h-389v123h194v328h119v-328h287v328h118v-328h191v-123h-389v-1124h389v-125h-909z" />
    <glyph glyph-name="uni040E" unicode="&#x40e;" horiz-adv-x="1622" 
d="M170 0v123h719l-703 1249h148l700 -1249h78q69 0 114.5 45t45.5 115v1089h131v-993q0 -163 -108 -271t-271 -108h-854zM440 1577v123h125v-215q0 -43 28 -72t71 -29h321q41 0 69.5 29t28.5 70v217h123v-123q0 -135 -87 -221t-230 -86h-129q-143 0 -231.5 86t-88.5 221z
" />
    <glyph glyph-name="uni0410" unicode="&#x410;" horiz-adv-x="1640" 
d="M494 1141q43 117 126.5 178t200.5 61q116 0 199.5 -61t126.5 -178l416 -1141h-142l-161 453h-879l-162 -453h-141zM426 578h788l-215 596q-22 61 -52.5 77.5t-106.5 16.5h-39q-77 0 -107.5 -16.5t-52.5 -77.5z" />
    <glyph glyph-name="uni0411" unicode="&#x411;" horiz-adv-x="1581" 
d="M221 0v1372h1088v-123h-957v-581l307 174q58 33 108.5 45t113.5 12h184q156 0 262.5 -108.5t106.5 -270.5v-141q0 -162 -106.5 -270.5t-262.5 -108.5h-844zM352 123h791q69 0 114.5 45t45.5 115v333q0 70 -45.5 115t-114.5 45h-269q-56 0 -85 -7t-82 -36l-355 -203v-407z
" />
    <glyph glyph-name="uni0412" unicode="&#x412;" horiz-adv-x="1613" 
d="M1247 1090q36 60 12 109.5t-92 49.5h-815v-489h705zM221 0v1372h877q82 0 145 -35t95 -90t31 -128t-42 -144l-129 -223q123 -27 194.5 -119t71.5 -232v-43q0 -167 -97.5 -262.5t-260.5 -95.5h-885zM352 123h834q66 0 106.5 39t40.5 108v219q0 69 -40.5 108.5t-106.5 39.5
h-834v-514z" />
    <glyph glyph-name="uni0413" unicode="&#x413;" horiz-adv-x="1343" 
d="M221 1067q0 133 86.5 219t220.5 86h744v-123h-821q-43 0 -71 -28.5t-28 -71.5v-1149h-131v1067z" />
    <glyph glyph-name="uni0414" unicode="&#x414;" horiz-adv-x="1742" 
d="M102 0v123l553 985q146 264 400 264h415v-1249h191v-533h-129v410h-1430zM248 123h1091v1126h-368q-92 0 -135 -78z" />
    <glyph glyph-name="uni0415" unicode="&#x415;" horiz-adv-x="1521" 
d="M211 1067q0 133 86.5 219t220.5 86h819v-123h-897q-43 0 -70.5 -28.5t-27.5 -71.5v-363h995v-122h-995v-541h516q56 0 85.5 7t82.5 36l311 178v-137l-264 -150q-60 -33 -109 -45t-112 -12h-641v1067z" />
    <glyph glyph-name="uni0416" unicode="&#x416;" horiz-adv-x="2359" 
d="M2064 535q0 43 -27.5 71.5t-70.5 28.5h-659v-635h-131v635h-562l-364 -635h-148l629 1096q33 58 4.5 105.5t-94.5 47.5h-410v123h349q81 0 144.5 -35t95.5 -90.5t31 -128t-42 -143.5l-125 -217h504q10 44 47 110l176 310q113 194 367 194h284l-2 -123h-395
q-68 0 -104 -59l-211 -369q-28 -54 -31 -63h569q134 0 220.5 -87t86.5 -218v-453h-131v535z" />
    <glyph glyph-name="uni0417" unicode="&#x417;" horiz-adv-x="1548" 
d="M1227 1090q35 60 12 109.5t-92 49.5h-957v123h887q66 0 121 -22.5t89.5 -61.5t51 -88.5t8 -108.5t-41.5 -116l-119 -209q100 -36 156.5 -124.5t56.5 -219.5v-60q0 -174 -97.5 -270t-261.5 -96h-323q-65 0 -114.5 11t-106.5 44l-306 174v137l353 -200q51 -29 80.5 -36
t85.5 -7h411q66 0 107 38.5t41 108.5v254q0 69 -41 108.5t-107 39.5h-717v123h637h15z" />
    <glyph glyph-name="uni0418" unicode="&#x418;" horiz-adv-x="1708" 
d="M221 0v1372h131v-901l1004 573v328h131v-1372h-131v905l-1004 -571v-334h-131z" />
    <glyph glyph-name="uni0419" unicode="&#x419;" horiz-adv-x="1708" 
d="M221 0v1372h131v-901l1004 573v328h131v-1372h-131v905l-1004 -571v-334h-131zM449 1577v123h124v-215q0 -43 28 -72t71 -29h366q41 0 70 29t29 70v217h123v-123q0 -135 -87.5 -221t-230.5 -86h-174q-143 0 -231 86t-88 221z" />
    <glyph glyph-name="uni041A" unicode="&#x41a;" horiz-adv-x="1595" 
d="M838 975q-41 71 -42 143.5t31.5 128t95.5 90.5t144 35h350v-123h-411q-66 0 -94.5 -47.5t3.5 -105.5l629 -1096h-147l-426 743l-619 -354v-389h-131v1372h131v-846l559 320z" />
    <glyph glyph-name="uni041B" unicode="&#x41b;" horiz-adv-x="1669" 
d="M170 346q0 63 11.5 113t43.5 108l301 541q146 264 400 264h524v-1372h-131v1249h-477q-92 0 -135 -78l-365 -651q-29 -51 -36 -80.5t-7 -85.5v-354h-129v346z" />
    <glyph glyph-name="uni041C" unicode="&#x41c;" horiz-adv-x="1933" 
d="M555 518l-203 117v-635h-131v1372h131v-592l365 -207q63 -36 127 -19t100 81l273 481q141 256 395 256h86v-2l16 2v-1372h-131v1257h-51q-49 0 -81.5 -19t-55.5 -62l-297 -523q-85 -148 -236.5 -186t-306.5 51z" />
    <glyph glyph-name="uni041D" unicode="&#x41d;" horiz-adv-x="1693" 
d="M1343 0v645h-991v-645h-131v1372h131v-604h991v604h132v-1372h-132z" />
    <glyph glyph-name="uni041E" unicode="&#x41e;" horiz-adv-x="1681" 
d="M553 1380h575q164 0 271.5 -108t107.5 -271v-630q0 -163 -107.5 -270t-271.5 -107h-575q-163 0 -271 107t-108 270v630q0 163 108 271t271 108zM305 274q0 -69 45.5 -113t114.5 -44h754q69 0 113 44t44 113v824q0 70 -44 114.5t-113 44.5h-754q-69 0 -114.5 -44.5
t-45.5 -114.5v-824z" />
    <glyph glyph-name="uni041F" unicode="&#x41f;" horiz-adv-x="1691" 
d="M221 0v1372h944q133 0 220.5 -86.5t87.5 -218.5v-1067h-132v1149q0 43 -28.5 71.5t-71.5 28.5h-889v-1249h-131z" />
    <glyph glyph-name="uni0420" unicode="&#x420;" horiz-adv-x="1525" 
d="M1276 1092q0 69 -44.5 113t-113.5 44h-766v-645h766q69 0 113.5 45t44.5 115v328zM221 0v1372h807q164 0 271.5 -107t107.5 -270v-135q0 -163 -107.5 -271t-271.5 -108h-676v-481h-131z" />
    <glyph glyph-name="uni0421" unicode="&#x421;" horiz-adv-x="1542" 
d="M553 1372h846v-123h-934q-69 0 -114.5 -44t-45.5 -113v-818q0 -69 45.5 -113t114.5 -44h385q56 0 85.5 7t80.5 36l383 217v-135l-336 -193q-57 -33 -106.5 -44t-114.5 -11h-289q-163 0 -271 107t-108 270v624q0 163 108 270t271 107z" />
    <glyph glyph-name="uni0422" unicode="&#x422;" horiz-adv-x="1378" 
d="M618 0v1249h-587v123h1317v-123h-598v-1249h-132z" />
    <glyph glyph-name="uni0423" unicode="&#x423;" horiz-adv-x="1622" 
d="M170 0v123h719l-703 1249h148l700 -1249h78q69 0 114.5 45t45.5 115v1089h131v-993q0 -163 -108 -271t-271 -108h-854z" />
    <glyph glyph-name="uni0424" unicode="&#x424;" horiz-adv-x="2007" 
d="M477 258q-142 0 -229.5 87.5t-87.5 227.5v484q0 140 87.5 227.5t229.5 87.5h461v150h131v-396l361 207q74 43 150.5 46t135.5 -27.5t96 -93.5t37 -144v-541q0 -140 -88 -227.5t-229 -87.5h-463v-258h-131v258h-461zM291 492q0 -51 28.5 -81t79.5 -30h539v868h-539
q-51 0 -79.5 -29.5t-28.5 -80.5v-647zM1069 381h539q51 0 80.5 30t29.5 81v673q0 75 -52 105.5t-126 -10.5l-471 -271v-608z" />
    <glyph glyph-name="uni0425" unicode="&#x425;" horiz-adv-x="1679" 
d="M393 492q55 98 125 159q-135 25 -218 122.5t-83 238.5v360h131v-457q0 -69 44.5 -113t113.5 -44h270h6h201q89 0 135 78l299 536h146l-265 -473q-51 -92 -118 -156q141 -20 228 -119t87 -245v-379h-131v475q0 70 -44.5 115t-113.5 45h-495q-89 0 -136 -78l-309 -557h-147
z" />
    <glyph glyph-name="uni0426" unicode="&#x426;" horiz-adv-x="1744" 
d="M221 0v1372h131v-1249h832q69 0 113 45t44 115v1089h132v-979q0 -161 -109 -270h299v-533h-129v410h-1313z" />
    <glyph glyph-name="uni0427" unicode="&#x427;" horiz-adv-x="1558" 
d="M528 571q-164 0 -271 108t-107 271v422h131v-518q0 -70 44 -115t113 -45h555q8 24 33 68l348 612l144 -2l-375 -657q-29 -51 -36 -80.5t-7 -85.5v-549h-131v541v30h-441z" />
    <glyph glyph-name="uni0428" unicode="&#x428;" horiz-adv-x="2199" 
d="M221 0v1372h131v-1249h713v680q0 56 -7 85.5t-36 80.5l-231 403h145l203 -356q33 -58 45 -108t12 -113v-672h494q69 0 113 45t44 115v1089h131v-993q0 -163 -107.5 -271t-271.5 -108h-1378z" />
    <glyph glyph-name="uni0429" unicode="&#x429;" horiz-adv-x="2250" 
d="M221 0v1372h131v-1249h713v680q0 56 -7 85.5t-36 80.5l-231 403h145l203 -356q33 -58 45 -108t12 -113v-672h494q69 0 113 45t44 115v1089h131v-979q0 -162 -108 -270h299v-533h-129v410h-1819z" />
    <glyph glyph-name="uni042A" unicode="&#x42a;" horiz-adv-x="1675" 
d="M758 879v-15h389q164 0 271.5 -107t107.5 -270v-108q0 -163 -107.5 -271t-271.5 -108h-893v123l330 582q29 53 36 82t7 85v377h-576v123h707v-493zM397 123h840q69 0 113.5 45t44.5 115v301q0 69 -44.5 113t-113.5 44h-498q-9 -29 -37 -84z" />
    <glyph glyph-name="uni042B" unicode="&#x42b;" horiz-adv-x="1867" 
d="M1516 1165q0 75 -52.5 105.5t-124.5 -10.5l-444 -254l338 -588q43 -75 44 -151.5t-32 -134.5t-99 -95t-151 -37h-774v1372h131v-541l875 502q75 43 152 46t135.5 -27.5t95.5 -93t37 -144.5v-1114h-131v1165zM352 123h705q74 0 105 54t-7 120l-369 645l-434 -248v-571z
" />
    <glyph glyph-name="uni042C" unicode="&#x42c;" horiz-adv-x="1550" 
d="M221 0v1372h131v-627l277 160q58 33 107.5 44.5t113.5 11.5h174q163 0 271 -107t108 -270v-205q0 -163 -108 -271t-271 -108h-803zM352 123h760q69 0 114.5 45t45.5 115v397q0 69 -45.5 113.5t-114.5 44.5h-268q-56 0 -85.5 -7t-82.5 -36l-324 -185v-487z" />
    <glyph glyph-name="uni042D" unicode="&#x42d;" horiz-adv-x="1548" 
d="M190 0v123h895q69 0 113.5 45t44.5 115v24l-1053 602v135l1053 -602v650q0 69 -44.5 113t-113.5 44h-895v123h805q164 0 271.5 -107t107.5 -270v-616q0 -163 -107.5 -271t-271.5 -108h-805z" />
    <glyph glyph-name="uni042E" unicode="&#x42e;" horiz-adv-x="1974" 
d="M1405 -10q-261 0 -416 278l-102 183l-70 124q-44 80 -137 80h-328v-655h-131v1372h131v-594h248v221q0 163 108 271t271 108h442q163 0 271 -108t108 -271v-645q0 -168 -94 -266t-242 -98h-59zM731 760q157 -47 268 -246l127 -225h-2l54 -94q28 -50 60.5 -66t113.5 -16
h157q86 0 123 33t37 116v834q0 70 -45.5 114.5t-114.5 44.5h-618q-69 0 -114.5 -44.5t-45.5 -114.5v-336z" />
    <glyph glyph-name="uni042F" unicode="&#x42f;" horiz-adv-x="1652" 
d="M311 0h-131v414q0 125 78 209.5t201 93.5l-146 258q-33 57 -41 116t9 108.5t52.5 88.5t90.5 61.5t121 22.5h889v-1372h-131v596h-893q-43 0 -71 -28.5t-28 -71.5v-496zM393 1090l213 -371h697v530h-826q-70 0 -95 -48.5t11 -110.5z" />
    <glyph glyph-name="uni0430" unicode="&#x430;" horiz-adv-x="1312" 
d="M1010 819q0 43 -29 72t-72 29h-684v114h600q133 0 220.5 -86.5t87.5 -218.5v-729h-123v195l-260 -148q-60 -34 -110 -46.5t-112 -12.5h-92q-125 0 -211 84t-86 209v49q0 124 87 207.5t220 83.5h564v198zM262 205q0 -43 28.5 -72t71.5 -29h183q38 0 51 1t36 8t54 24
l324 185v186h-648q-43 0 -71.5 -28.5t-28.5 -71.5v-203z" />
    <glyph glyph-name="uni0431" unicode="&#x431;" horiz-adv-x="1382" 
d="M862 868q68 39 135.5 41.5t118 -26.5t82 -86.5t31.5 -132.5v-363q0 -133 -86.5 -219t-220.5 -86h-435q-135 0 -221 86t-86 219v590q0 131 86.5 218t220.5 87h218q38 0 51 1t36 8t54 24l328 186v-129l-265 -149q-60 -34 -109.5 -46t-111.5 -12h-285q-43 0 -71.5 -28.5
t-28.5 -71.5v-430zM303 211q0 -43 28.5 -71.5t71.5 -28.5h603q43 0 71.5 28.5t28.5 71.5v514q0 62 -43.5 84t-97.5 -10l-662 -377v-211z" />
    <glyph glyph-name="uni0432" unicode="&#x432;" horiz-adv-x="1353" 
d="M993 774q33 57 12.5 101.5t-83.5 44.5h-605v-328h574zM195 0v1034h665q61 0 111 -20.5t81.5 -56.5t46.5 -81.5t7.5 -98.5t-37.5 -105l-51 -90q94 -28 153.5 -104t59.5 -171v-22q0 -117 -86 -201t-211 -84h-739zM317 117h691q43 0 71.5 28.5t28.5 71.5v160
q0 43 -28.5 71.5t-71.5 28.5h-691v-360z" />
    <glyph glyph-name="uni0433" unicode="&#x433;" horiz-adv-x="999" 
d="M180 729q0 133 86 219t221 86h467v-114h-551q-43 0 -71.5 -29t-28.5 -72v-819h-123v729z" />
    <glyph glyph-name="uni0434" unicode="&#x434;" horiz-adv-x="1427" 
d="M98 0v117l385 671q71 126 162.5 186t216.5 60h318v-917h170v-527h-119v410h-1133zM233 117h824v803h-297q-67 0 -103 -62z" />
    <glyph glyph-name="uni0435" unicode="&#x435;" 
d="M461 -6q-133 0 -220 86.5t-87 218.5v438q0 131 87 218t220 87h407q134 0 221 -87t87 -218v-245h-900v-283q0 -43 29 -71.5t72 -28.5h350h12q43 0 65.5 5t63.5 29l306 174v-129l-242 -139q-59 -33 -108 -44t-113 -11h-250zM276 602h777v223q0 43 -29 72t-72 29h-575
q-43 0 -72 -29t-29 -72v-223z" />
    <glyph glyph-name="uni0436" unicode="&#x436;" horiz-adv-x="1841" 
d="M1538 2v473h-526v-45v-428h-123v410q0 43 2 63h-414l-270 -475h-135l442 774q33 57 12.5 101.5t-84.5 44.5h-278v114h217q75 0 133 -32t87 -82t27.5 -116.5t-38.5 -131.5l-47 -84h379q3 7 22 45l86 155q69 126 161 186t218 60h164v-114h-266q-70 0 -103 -62l-151 -270
h608v-586h-123z" />
    <glyph glyph-name="uni0437" unicode="&#x437;" horiz-adv-x="1288" 
d="M989 774q33 57 12.5 101.5t-83.5 44.5h-758v114h696q75 0 133 -32t87 -82.5t27.5 -117t-38.5 -130.5l-57 -101q73 -37 115 -104.5t42 -149.5v-32q0 -121 -87.5 -205t-219.5 -84h-213q-64 0 -113 11t-108 44l-264 152v129l327 -187q28 -17 50 -24.5t35.5 -8.5t44.5 -1h12
h313q43 0 71.5 28.5t28.5 71.5v182q0 43 -28.5 72t-71.5 29h-506v112h422q25 0 35 -2z" />
    <glyph glyph-name="uni0438" unicode="&#x438;" horiz-adv-x="1402" 
d="M195 0v1034h122v-667l768 436v231h123v-1034h-123v676l-768 -438v-238h-122z" />
    <glyph glyph-name="uni0439" unicode="&#x439;" horiz-adv-x="1402" 
d="M195 0v1034h122v-667l768 436v231h123v-1034h-123v676l-768 -438v-238h-122zM311 1296v138h123v-230q0 -43 28.5 -71.5t69.5 -28.5h338q42 0 70.5 28t28.5 70v232h123v-138q0 -134 -89 -220.5t-229 -86.5h-143q-141 0 -230.5 86.5t-89.5 220.5z" />
    <glyph glyph-name="uni043A" unicode="&#x43a;" horiz-adv-x="1312" 
d="M727 672q-37 65 -38 131.5t28.5 116.5t87.5 82t133 32h221v-114h-282q-64 0 -85.5 -44.5t11.5 -101.5l442 -774h-135l-258 453h-535v-453h-122v1034h122v-465h469z" />
    <glyph glyph-name="uni043B" unicode="&#x43b;" horiz-adv-x="1333" 
d="M831 1042q134 0 221 -87t87 -218v-737h-123v825q0 43 -29 72t-72 29h-174l-526 -926h-137l528 926h-330v116h555z" />
    <glyph glyph-name="uni043C" unicode="&#x43c;" horiz-adv-x="1650" 
d="M541 358l-224 129v-487h-122v1034h122v-411l363 -211q38 -21 76.5 -10.5t60.5 47.5l144 247l63 111q64 111 146.5 169t199.5 58h86v-1034h-123v926h-39q-66 0 -102 -64l-182 -321l-41 -72q-68 -119 -187 -150t-241 39z" />
    <glyph glyph-name="uni043D" unicode="&#x43d;" horiz-adv-x="1388" 
d="M1071 0v475h-754v-475h-122v1034h122v-444h754v444h123v-1034h-123z" />
    <glyph glyph-name="uni043E" unicode="&#x43e;" horiz-adv-x="1363" 
d="M461 1042h442q133 0 220 -87t87 -218v-438q0 -132 -87 -218.5t-220 -86.5h-442q-133 0 -220 86.5t-87 218.5v438q0 131 87 218t220 87zM276 209q0 -43 29 -71.5t72 -28.5h610q43 0 71.5 28.5t28.5 71.5v616q0 43 -28.5 72t-71.5 29h-610q-43 0 -72 -29t-29 -72v-616z" />
    <glyph glyph-name="uni043F" unicode="&#x43f;" horiz-adv-x="1394" 
d="M1092 819q0 43 -29 72t-72 29h-674v-920h-122v1034h712q135 0 221 -86t86 -219v-729h-122v819z" />
    <glyph glyph-name="uni0440" unicode="&#x440;" horiz-adv-x="1372" 
d="M195 1034h122v-190l246 139q60 33 109 45t112 12h138q126 0 211.5 -87.5t85.5 -217.5v-430q0 -131 -87.5 -218t-220.5 -87h-594v-410h-122v1444zM317 117h678q43 0 72 28.5t29 71.5v606q0 43 -29 72t-72 29h-227q-38 0 -51 -1t-36 -8t-54 -24l-310 -176v-598z" />
    <glyph glyph-name="uni0441" unicode="&#x441;" horiz-adv-x="1228" 
d="M461 1034h651v-114h-735q-43 0 -72 -29t-29 -72v-610q0 -43 29 -71.5t72 -28.5h225h12q43 0 65.5 5t63.5 29l369 209v-129l-307 -174q-57 -33 -106.5 -44t-114.5 -11h-127q-131 0 -217 86.5t-86 218.5v430q0 132 87 218.5t220 86.5z" />
    <glyph glyph-name="uni0442" unicode="&#x442;" horiz-adv-x="1134" 
d="M506 0v920h-459v114h1043v-114h-461v-920h-123z" />
    <glyph glyph-name="uni0443" unicode="&#x443;" horiz-adv-x="1300" 
d="M477 0q-127 0 -212 87t-85 218v729h123v-817q0 -43 28.5 -71.5t71.5 -28.5h226l524 917h131l-823 -1444h-133l233 410h-84z" />
    <glyph glyph-name="uni0444" unicode="&#x444;" horiz-adv-x="1888" 
d="M532 35q-68 -39 -135.5 -41t-118.5 26.5t-82.5 86.5t-31.5 133v489q0 132 87 218.5t220 86.5h412v338h123v-573l352 200q68 39 135.5 41.5t117.5 -26.5t81.5 -86.5t31.5 -132.5v-490q0 -131 -86.5 -218t-220.5 -87h-411v-205h-123v441zM287 178q0 -62 44.5 -84t98.5 10
l453 258v558h-496q-43 0 -71.5 -29t-28.5 -72v-641zM1006 117h495q43 0 72 28.5t29 71.5v639q0 63 -44 85.5t-98 -9.5l-454 -260v-555z" />
    <glyph glyph-name="uni0445" unicode="&#x445;" horiz-adv-x="1409" 
d="M309 344q59 101 123 156q-101 24 -164 104.5t-63 192.5v237h123v-342q0 -43 28.5 -71.5t71.5 -28.5h391q68 0 101 61l219 381h137l-178 -311q-54 -90 -111 -145q109 -15 180.5 -99.5t71.5 -202.5v-276h-123v375q0 43 -28.5 71.5t-71.5 28.5h-426q-37 0 -60.5 -14.5
t-40.5 -46.5l-237 -414h-139z" />
    <glyph glyph-name="uni0446" unicode="&#x446;" horiz-adv-x="1449" 
d="M195 0v1034h122v-917h664q43 0 71.5 28.5t28.5 71.5v817h123v-719q0 -117 -69 -198h239v-527h-119v410h-1060z" />
    <glyph glyph-name="uni0447" unicode="&#x447;" horiz-adv-x="1267" 
d="M782 358v41h-342q-133 0 -220 87.5t-87 218.5v329h123v-418q0 -43 28.5 -71.5t71.5 -28.5h451q8 20 31 64l256 454h139l-291 -516q-7 -12 -12 -21.5t-9 -19t-7 -15.5t-4.5 -16t-2.5 -13.5t-1.5 -14.5t-0.5 -14v-17v-18v-369h-123v358z" />
    <glyph glyph-name="uni0448" unicode="&#x448;" horiz-adv-x="1798" 
d="M195 0v1034h122v-917h586v387q0 49 -6 74.5t-33 74.5l-215 381h137l183 -319q33 -57 44 -106.5t11 -114.5v-377h373q43 0 71.5 28.5t28.5 71.5v817h123v-729q0 -131 -87 -218t-220 -87h-1118z" />
    <glyph glyph-name="uni0449" unicode="&#x449;" horiz-adv-x="1865" 
d="M195 0v1034h122v-917h582v387q0 49 -6 74.5t-33 74.5l-215 381h137l183 -319q33 -57 44 -106.5t11 -114.5v-377h377q43 0 71.5 28.5t28.5 71.5v817h123v-719q0 -116 -70 -198h240v-527h-119v410h-1476z" />
    <glyph glyph-name="uni044A" unicode="&#x44a;" horiz-adv-x="1376" 
d="M229 0v117l248 442q27 49 33 75t6 75v211h-465v114h584v-315v-31h315q134 0 220.5 -86t86.5 -219v-78q0 -131 -86.5 -218t-220.5 -87h-721zM365 117h669q43 0 72 28.5t29 71.5v256q0 43 -29 71.5t-72 28.5h-420q-8 -25 -34 -75z" />
    <glyph glyph-name="uni044B" unicode="&#x44b;" horiz-adv-x="1564" 
d="M1264 819q0 43 -29 72t-72 29h-491l321 -562q37 -65 38 -131.5t-28.5 -116.5t-87.5 -82t-133 -32h-295q-135 0 -221 86t-86 219v733h899q133 0 220 -86.5t87 -218.5v-729h-122v819zM303 211q0 -43 28.5 -71.5t71.5 -28.5h441q64 0 85.5 44t-11.5 101l-381 664h-234v-709z
" />
    <glyph glyph-name="uni044C" unicode="&#x44c;" horiz-adv-x="1273" 
d="M195 0v1034h122v-336h531q134 0 220.5 -86t86.5 -219v-88q0 -131 -86.5 -218t-220.5 -87h-653zM317 117h615q43 0 71.5 28.5t28.5 71.5v266q0 43 -28.5 72t-71.5 29h-615v-467z" />
    <glyph glyph-name="uni044D" unicode="&#x44d;" horiz-adv-x="1243" 
d="M150 0v117h458l-286 508h131l288 -508h125q43 0 72 28.5t29 71.5v602q0 43 -29 72t-72 29h-716v114h632q135 0 221.5 -86.5t86.5 -218.5v-424q0 -131 -86 -218t-218 -87h-636z" />
    <glyph glyph-name="uni044E" unicode="&#x44e;" horiz-adv-x="1624" 
d="M1135 -10q-121 0 -208 60t-157 188l-65 112h2l-37 66q-36 59 -103 59h-250v-475h-122v1034h122v-442h175h22v143q0 131 86.5 218t220.5 87h342q133 0 220 -87t87 -218v-444q0 -133 -86 -217t-227 -84h-22zM637 561q115 -53 207 -217l63 -113l37 -65q34 -60 103 -60h198
q43 0 73 29t30 72v616q0 43 -29 72t-72 29h-510q-43 0 -71.5 -29t-28.5 -72v-262z" />
    <glyph glyph-name="uni044F" unicode="&#x44f;" 
d="M219 672q-37 65 -38 131.5t28 116.5t87 82t134 32h705v-1034h-123v487l-873 -497v129l299 170zM295 776l244 -430l473 268v306h-643q-63 0 -84.5 -44t10.5 -100z" />
    <glyph glyph-name="uni0451" unicode="&#x451;" 
d="M461 -6q-133 0 -220 86.5t-87 218.5v438q0 130 86 217t217 88v392h114v-392h195v392h117v-392q128 -4 210.5 -90.5t82.5 -214.5v-245h-900v-283q0 -43 29 -71.5t72 -28.5h350h12q43 0 65.5 5t63.5 29l306 174v-129l-242 -139q-59 -33 -108 -44t-113 -11h-250zM276 602
h777v223q0 43 -29 72t-72 29h-575q-43 0 -72 -29t-29 -72v-223z" />
    <glyph glyph-name="uni0454" unicode="&#x454;" horiz-adv-x="1243" 
d="M457 0q-130 0 -216.5 87t-86.5 218v424q0 132 87 218.5t220 86.5h635v-114h-719q-43 0 -72 -29t-29 -72v-602q0 -43 29 -71.5t72 -28.5h125l289 508h133l-289 -508h461v-117h-639z" />
    <glyph glyph-name="uni0456" unicode="&#x456;" horiz-adv-x="1095" 
d="M82 0v117h604v702q0 43 -28.5 72t-71.5 29h-383v114h299q133 0 220 -86.5t87 -218.5v-612h215v-117h-942zM686 1034v400h123v-400h-123z" />
    <glyph glyph-name="uni0457" unicode="&#x457;" horiz-adv-x="1081" 
d="M72 0v117h573v702q0 43 -28.5 72t-71.5 29h-352v114h268q133 0 220 -86.5t87 -218.5v-612h246v-117h-942zM645 1034v400h123v-400h-123zM856 1034v400h123v-400h-123z" />
    <glyph glyph-name="uni045E" unicode="&#x45e;" horiz-adv-x="1300" 
d="M477 0q-127 0 -212 87t-85 218v729h123v-817q0 -43 28.5 -71.5t71.5 -28.5h226l524 917h131l-823 -1444h-133l233 410h-84zM297 1296v138h123v-230q0 -43 28.5 -71.5t69.5 -28.5h338q42 0 70 28t28 70v232h123v-138q0 -134 -88.5 -220.5t-228.5 -86.5h-144
q-140 0 -229.5 86.5t-89.5 220.5z" />
    <glyph glyph-name="uni0490" unicode="&#x490;" horiz-adv-x="1333" 
d="M217 1067q0 133 86.5 219t220.5 86h613v410h129v-410h2v-123h-822q-43 0 -70.5 -28.5t-27.5 -71.5v-1149h-131v1067z" />
    <glyph glyph-name="uni0491" unicode="&#x491;" horiz-adv-x="999" 
d="M180 729q0 133 86 219t221 86h349v338h118v-452h-551q-43 0 -71.5 -29t-28.5 -72v-819h-123v729z" />
    <glyph glyph-name="Wgrave" unicode="&#x1e80;" horiz-adv-x="2140" 
d="M221 0v1372h131v-1249h310l407 729q29 53 36 82.5t7 85.5v352h131v-346q0 -63 -12 -113t-45 -108l-381 -682h541q88 0 135 78l364 651q29 53 36 82.5t7 85.5v352h129v-346q0 -62 -11.5 -111.5t-43.5 -109.5l-301 -539q-147 -266 -399 -266h-1041zM535 1579h131l237 -410
h-131z" />
    <glyph glyph-name="wgrave" unicode="&#x1e81;" horiz-adv-x="1861" 
d="M195 0v1034h122v-917h285l232 409q5 9 9.5 17.5t7.5 15t5.5 14.5t4 12t2.5 13t1.5 12t1 13.5t0.5 12.5v15.5v16.5v366h123v-356q0 -63 -12 -113t-45 -108l-191 -340h377q70 0 103 59l487 858h137l-450 -786q-71 -127 -162.5 -187.5t-216.5 -60.5h-821zM1030 1434h127
l232 -400h-127z" />
    <glyph glyph-name="Wacute" unicode="&#x1e82;" horiz-adv-x="2140" 
d="M221 0v1372h131v-1249h310l407 729q29 53 36 82.5t7 85.5v352h131v-346q0 -63 -12 -113t-45 -108l-381 -682h541q88 0 135 78l364 651q29 53 36 82.5t7 85.5v352h129v-346q0 -62 -11.5 -111.5t-43.5 -109.5l-301 -539q-147 -266 -399 -266h-1041zM598 1169l236 410h131
l-236 -410h-131z" />
    <glyph glyph-name="wacute" unicode="&#x1e83;" horiz-adv-x="1861" 
d="M195 0v1034h122v-917h285l232 409q5 9 9.5 17.5t7.5 15t5.5 14.5t4 12t2.5 13t1.5 12t1 13.5t0.5 12.5v15.5v16.5v366h123v-356q0 -63 -12 -113t-45 -108l-191 -340h377q70 0 103 59l487 858h137l-450 -786q-71 -127 -162.5 -187.5t-216.5 -60.5h-821zM508 1034l231 400
h127l-231 -400h-127z" />
    <glyph glyph-name="Wdieresis" unicode="&#x1e84;" horiz-adv-x="2140" 
d="M221 0v1372h131v-1249h295l410 729q29 53 36 82.5t7 85.5v352h129v-346q0 -63 -11.5 -113t-43.5 -108l-381 -682h553q88 0 135 78l364 651q29 53 36 82.5t7 85.5v352h129v-346q0 -62 -11.5 -111.5t-43.5 -109.5l-301 -539q-147 -266 -399 -266h-1041zM670 1163v420h116
v-420h-116zM1501 1163v420h117v-420h-117z" />
    <glyph glyph-name="wdieresis" unicode="&#x1e85;" horiz-adv-x="1861" 
d="M195 0v1034h122v-917h285l232 409q5 9 9.5 17.5t7.5 15t5.5 14.5t4 12t2.5 13t1.5 12t1 13.5t0.5 12.5v15.5v16.5v366h123v-356q0 -63 -12 -113t-45 -108l-191 -340h377q70 0 103 59l487 858h137l-450 -786q-71 -127 -162.5 -187.5t-216.5 -60.5h-821zM659 1034v400h117
v-400h-117zM1079 1034v400h117v-400h-117z" />
    <glyph glyph-name="uni1E9E" unicode="&#x1e9e;" horiz-adv-x="1603" 
d="M221 1067q0 133 86.5 219t220.5 86h639v-352q0 -58 6.5 -87t36.5 -81l250 -434q43 -74 44.5 -150.5t-31 -135t-98.5 -95.5t-150 -37h-516v123h579q75 0 104.5 53t-8.5 119l-292 510q-33 58 -44.5 107.5t-11.5 113.5v223h-585q-43 0 -71 -28.5t-28 -71.5v-1149h-131v1067z
" />
    <glyph glyph-name="Ygrave" unicode="&#x1ef2;" horiz-adv-x="1568" 
d="M662 0v608h-119q-163 0 -271 107t-108 270v387h131v-483q0 -69 45.5 -113.5t114.5 -44.5h510q89 0 135 78l315 563h144l-279 -500q-146 -264 -399 -264h-88v-608h-131zM559 1579h131l238 -410h-131z" />
    <glyph glyph-name="ygrave" unicode="&#x1ef3;" horiz-adv-x="1300" 
d="M477 0q-127 0 -212 87t-85 218v729h123v-817q0 -43 28.5 -71.5t71.5 -28.5h226l524 917h131l-823 -1444h-133l233 410h-84zM426 1434h127l231 -400h-127z" />
    <glyph glyph-name="endash" unicode="&#x2013;" horiz-adv-x="1439" 
d="M184 662h1071v-115h-1071v115z" />
    <glyph glyph-name="emdash" unicode="&#x2014;" horiz-adv-x="2115" 
d="M184 662h1747v-115h-1747v115z" />
    <glyph glyph-name="quoteleft" unicode="&#x2018;" horiz-adv-x="569" 
d="M240 1094q-24 -41 -11 -72t58 -31h129v-106h-90q-62 0 -107.5 26t-66 67.5t-17.5 94.5t33 105l145 256h123z" />
    <glyph glyph-name="quoteright" unicode="&#x2019;" horiz-adv-x="569" 
d="M330 1227q24 41 11 70.5t-58 29.5h-129v107h90q62 0 107 -26t65.5 -67t17.5 -94t-33 -104l-145 -258h-123z" />
    <glyph glyph-name="quotesinglbase" unicode="&#x201a;" horiz-adv-x="569" 
d="M330 -68q24 41 11 71t-58 30h-129v106h90q62 0 107 -26t65.5 -67t17.5 -94t-33 -104l-145 -258h-123z" />
    <glyph glyph-name="quotedblleft" unicode="&#x201c;" horiz-adv-x="903" 
d="M575 1094q-24 -41 -11.5 -72t57.5 -31h98v-106h-57q-62 0 -107 26t-65 67.5t-17 94.5t33 105l145 256h119zM168 1178l145 256h119l-194 -340q-24 -41 -12 -72t57 -31h98v-106h-57q-62 0 -107 26t-65 67.5t-17 94.5t33 105z" />
    <glyph glyph-name="quotedblright" unicode="&#x201d;" horiz-adv-x="903" 
d="M330 1227q24 41 11 70.5t-58 29.5h-99v107h58q62 0 107 -26t65.5 -67t17.5 -94t-33 -104l-147 -258h-119zM471 885l197 342q24 41 11 70.5t-58 29.5h-99v107h58q62 0 107 -26t65.5 -67t17.5 -94t-33 -104l-147 -258h-119z" />
    <glyph glyph-name="quotedblbase" unicode="&#x201e;" horiz-adv-x="903" 
d="M330 -68q24 41 11 71t-58 30h-99v106h58q62 0 107 -26t65.5 -67t17.5 -94t-33 -104l-147 -258h-119zM471 -410l197 342q24 41 11 71t-58 30h-99v106h58q62 0 107 -26t65.5 -67t17.5 -94t-33 -104l-147 -258h-119z" />
    <glyph glyph-name="dagger" unicode="&#x2020;" horiz-adv-x="1062" 
d="M909 934h-323v-627h-107v627h-325v106h325v394h107v-394h323v-106z" />
    <glyph glyph-name="bullet" unicode="&#x2022;" horiz-adv-x="894" 
d="M166 633q-12 -12 -12 -29t12 -29l254 -253q12 -12 28.5 -12t28.5 12l254 253q11 12 11 29t-11 29l-254 254q-12 11 -28.5 11t-28.5 -11z" />
    <glyph glyph-name="ellipsis" unicode="&#x2026;" horiz-adv-x="1341" 
d="M573 0v205h195v-205h-195zM133 0v205h195v-205h-195zM1014 0v205h194v-205h-194z" />
    <glyph glyph-name="Euro" unicode="&#x20ac;" horiz-adv-x="1486" 
d="M317 1069q0 132 87.5 218.5t220.5 86.5h649v-114h-733q-43 0 -72 -29t-29 -72v-248h834v-110h-1131v110h174v158zM143 526v111h1131v-111h-834v-317q0 -43 29 -71.5t72 -28.5h276h12q43 0 65.5 5t63.5 29l318 181v-129l-256 -146q-57 -33 -106.5 -44t-114.5 -11h-178
q-131 0 -217.5 86.5t-86.5 218.5v227h-174z" />
    <glyph glyph-name="uni20B4" unicode="&#x20b4;" horiz-adv-x="1431" 
d="M520 0q-75 0 -133 32t-87.5 82t-28.5 116.5t38 131.5l82 144h-231v110h1118v-110h-752l-145 -254q-29 -50 -4 -92.5t82 -42.5h704v-117h-643zM160 780v111h764l131 229q28 51 3.5 94t-81.5 43h-701v115h639q75 0 133 -32t87 -82t27.5 -116.5t-38.5 -131.5l-67 -119h221
v-111h-1118z" />
    <glyph glyph-name="uni20BD" unicode="&#x20bd;" horiz-adv-x="1468" 
d="M1012 1372q134 0 220.5 -86t86.5 -219v-102q0 -132 -86 -216.5t-221 -84.5h-869v110h193v598h676zM143 389v111h1151v-111h-835v-389h-123v389h-193zM459 774h637q43 0 71.5 28.5t28.5 71.5v283q0 43 -28.5 71.5t-71.5 28.5h-637v-483z" />
    <glyph glyph-name="uni20BF" unicode="&#x20bf;" horiz-adv-x="1400" 
d="M221 70v1233h418v233h117v-233h188q75 0 133 -32t87 -82.5t27.5 -117t-38.5 -131.5l-104 -184q88 -9 145.5 -63t66 -129.5t-31.5 -160.5l-66 -118q-116 -215 -360 -215h-47v-234h-117v234h-418zM344 186h559q69 0 103 60l143 252q32 56 10 100.5t-84 44.5h-731v-457z
M344 758h571l162 284q33 56 11.5 101t-82.5 45h-662v-430z" />
    <glyph glyph-name="uni2116" unicode="&#x2116;" horiz-adv-x="2648" 
d="M778 1157q0 43 -28.5 71.5t-71.5 28.5h-334v-1257h-123v1372h381q133 0 220 -86.5t87 -218.5v-850q0 -43 29 -71.5t72 -28.5h331v1255h123v-1372h-379q-134 0 -220.5 87t-86.5 218v852zM1694 803v272q0 131 87 218t220 87h223q133 0 220 -87t87 -218v-272
q0 -132 -87 -218.5t-220 -86.5h-223q-133 0 -220 86.5t-87 218.5zM1817 713q0 -43 28.5 -72t71.5 -29h391q43 0 71.5 29t28.5 72v450q0 43 -28.5 72t-71.5 29h-391q-43 0 -71.5 -29t-28.5 -72v-450z" />
    <glyph glyph-name="trademark" unicode="&#x2122;" horiz-adv-x="1067" 
d="M203 895v430h-203v47h457v-47h-205v-430h-49zM545 895v477h49v-201l129 -73q22 -12 43 -7t31 25l92 166q53 90 139 90h33h6v-477h-49v436h-17q-31 0 -45 -28l-102 -179q-31 -54 -84 -67t-108 18l-68 41v-221h-49z" />
    <glyph glyph-name="arrowleft" unicode="&#x2190;" horiz-adv-x="1507" 
d="M307 174l-246 430l246 432h135l-219 -374h1223v-115h-1223l219 -373h-135z" />
    <glyph glyph-name="arrowup" unicode="&#x2191;" horiz-adv-x="985" 
d="M61 1008v131l433 245l430 -245v-131l-371 215v-1223h-119v1223z" />
    <glyph glyph-name="arrowright" unicode="&#x2192;" horiz-adv-x="1507" 
d="M1065 174l219 373h-1223v115h1223l-219 374h135l246 -432l-246 -430h-135z" />
    <glyph glyph-name="arrowdown" unicode="&#x2193;" horiz-adv-x="985" 
d="M494 -10l-433 243v134l373 -217v1222h119v-1222l371 217v-134z" />
    <glyph glyph-name="arrowboth" unicode="&#x2194;" horiz-adv-x="1667" 
d="M1229 174l217 371h-1223l215 -371h-131l-246 430l246 432h131l-215 -372h1223l-217 372h133l244 -432l-244 -430h-133z" />
    <glyph glyph-name="arrowupdn" unicode="&#x2195;" horiz-adv-x="985" 
d="M61 1008v131l433 245l430 -245v-131l-371 215v-1073l371 217v-134l-430 -243l-433 243v134l373 -217v1073z" />
    <glyph glyph-name="minus" unicode="&#x2212;" horiz-adv-x="1388" 
d="M184 764h1020v-115h-1020v115z" />
    <glyph glyph-name="uni004A0301" horiz-adv-x="1351" 
d="M1137 305q0 -131 -87 -218t-221 -87h-761v123h839q43 0 71 28.5t28 71.5v1149h131v-1067zM455 1169l235 410h131l-235 -410h-131z" />
    <glyph glyph-name="I.alt" horiz-adv-x="1124" 
d="M109 0v125h389v1124h-389v123h909v-123h-389v-1124h389v-125h-909z" />
    <glyph glyph-name="I.alt2" horiz-adv-x="1099" 
d="M109 0v125h430v678q0 56 -7 85.5t-36 80.5l-232 403h146l204 -356q33 -58 44.5 -107.5t11.5 -113.5v-670h348v-125h-909z" />
    <glyph glyph-name="i.loclTRK" horiz-adv-x="1095" 
d="M82 0v117h604v702q0 43 -28.5 72t-71.5 29h-383v114h299q133 0 220 -86.5t87 -218.5v-612h215v-117h-942zM686 1034v400h123v-400h-123z" />
    <glyph glyph-name="uni006A0301" horiz-adv-x="876" 
d="M559 819q0 43 -28.5 72t-71.5 29h-412v114h328q135 0 221 -86t86 -219v-1139h-123v1229zM559 1034l229 400h123l-229 -400h-123z" />
    <glyph glyph-name="uni0410.alt" horiz-adv-x="1779" 
d="M1427 0v477h-913l-266 -477h-146l621 1108q149 264 399 264h437v-1372h-132zM584 602h843v647h-389q-89 0 -135 -78z" />
    <glyph glyph-name="uni0406.alt" horiz-adv-x="1124" 
d="M109 0v125h389v1124h-389v123h909v-123h-389v-1124h389v-125h-909z" />
    <glyph glyph-name="uni0406.alt2" horiz-adv-x="1099" 
d="M109 0v125h430v678q0 56 -7 85.5t-36 80.5l-232 403h146l204 -356q33 -58 44.5 -107.5t11.5 -113.5v-670h348v-125h-909z" />
    <glyph glyph-name="zero.osf" horiz-adv-x="1361" 
d="M901 -4h-440q-133 0 -220 86.5t-87 218.5v483q0 131 87 218.5t220 87.5h440q133 0 220 -87.5t87 -218.5v-483q0 -132 -87 -218.5t-220 -86.5zM276 211q0 -43 29 -71.5t72 -28.5h608q43 0 71.5 28.5t28.5 71.5v661q0 43 -28.5 72t-71.5 29h-608q-43 0 -72 -29t-29 -72
v-661z" />
    <glyph glyph-name="one.osf" horiz-adv-x="1181" 
d="M170 0v117h500v735q-85 -72 -205 -72h-295v117h399q43 0 72 28.5t29 71.5v103h123v-983h333v-117h-956z" />
    <glyph glyph-name="two.osf" horiz-adv-x="1361" 
d="M891 829q32 54 10 99t-82 45h-639v117h578q60 0 110.5 -20t82 -56t47 -81.5t8.5 -99t-37 -106.5l-348 -610h247q38 0 51.5 1t36.5 8t54 24l270 153v-129l-209 -117q-58 -33 -108 -45t-113 -12h-700v117h335z" />
    <glyph glyph-name="three.osf" horiz-adv-x="1265" 
d="M948 829q32 54 10.5 99t-81.5 45h-707v117h645q75 0 133 -32t87 -82.5t27.5 -117t-38.5 -131.5l-133 -235q74 -1 131.5 -33t86.5 -82.5t27.5 -116.5t-38.5 -131l-307 -539h-138l367 641q32 55 10 100.5t-82 45.5h-778v115h586z" />
    <glyph glyph-name="four.osf" horiz-adv-x="1374" 
d="M395 193q-75 0 -133.5 32t-88.5 82t-29 116.5t38 131.5l305 532h138l-365 -634q-31 -54 -9 -99t83 -45h723v778h123v-1497h-123v603h-662z" />
    <glyph glyph-name="five.osf" horiz-adv-x="1187" 
d="M932 102q22 40 10.5 78.5t-51.5 61.5l-551 315q-110 62 -168.5 145.5t-58.5 200.5v199h979v-117h-865v-160q0 -66 64 -102l592 -336q78 -44 118.5 -114.5t38 -148.5t-44.5 -151l-217 -383h-141z" />
    <glyph glyph-name="six.osf" horiz-adv-x="1398" 
d="M387 -4q-60 0 -110 20.5t-81 56.5t-46.5 81.5t-8 98.5t36.5 105l613 1076h137l-346 -609h336q138 0 232.5 -94.5t94.5 -230.5v-181q0 -135 -94.5 -229t-232.5 -94h-531zM256 256q-33 -57 -12.5 -101t84.5 -44h682q50 0 81 31.5t31 80.5v367q0 50 -31 81t-81 31h-500z" />
    <glyph glyph-name="seven.osf" horiz-adv-x="1261" 
d="M1053 829q33 57 12.5 100.5t-84.5 43.5h-831v117h772q75 0 133 -32t86.5 -82.5t27 -117t-38.5 -131.5l-647 -1137h-137l322 566l-518 295v129l573 -326v-2z" />
    <glyph glyph-name="eight.osf" horiz-adv-x="1374" 
d="M403 -6q-75 0 -133 32t-86.5 82t-27 116.5t38.5 131.5l202 351q-96 25 -154.5 101t-58.5 183v135q0 129 95.5 222.5t232.5 93.5h436q75 0 133 -32t87 -82.5t27.5 -117t-38.5 -131.5l-170 -297q108 -19 176 -102t68 -199v-174q0 -129 -94.5 -221t-231.5 -92h-502zM270 254
q-33 -57 -12.5 -101t84.5 -44h655q48 0 79.5 31.5t31.5 80.5v359q0 43 -28.5 71.5t-71.5 28.5h-492zM307 897q0 -43 29 -71.5t72 -28.5h454l219 385q33 56 12.5 99.5t-83.5 43.5h-590q-50 0 -81.5 -31t-31.5 -80v-317z" />
    <glyph glyph-name="nine.osf" horiz-adv-x="1394" 
d="M1169 829q33 55 12.5 99.5t-83.5 44.5h-709q-50 0 -81.5 -31t-31.5 -80v-368q0 -49 31.5 -80t81.5 -31h526zM154 584v180q0 136 95 231t232 95h557q60 0 110 -20.5t81 -56.5t46.5 -81.5t8 -99t-36.5 -105.5l-647 -1137h-137l381 670h-363q-138 0 -232.5 94.5t-94.5 229.5
z" />
    <glyph glyph-name="asterisk.alt" horiz-adv-x="1935" 
d="M776 918l-268 454h127l262 -450q29 -47 71 -47t70 47l262 450h125l-266 -454q-46 -79 -119.5 -106.5t-146.5 1.5t-117 105zM174 645v109h551q61 0 108 -26t71 -66.5t23 -94.5t-32 -106l-270 -461h-125l309 526q28 47 6 83t-78 36h-563zM1042 461q-31 52 -32.5 105.5
t22 94.5t71 67t109.5 26h549v-109h-563q-56 0 -78 -36t6 -83l308 -526h-125z" />
    <glyph glyph-name="bullet.caps" horiz-adv-x="894" 
d="M166 735q-12 -12 -12 -28.5t12 -28.5l254 -254q12 -12 28.5 -12t28.5 12l254 254q11 12 11 28.5t-11 28.5l-254 254q-12 11 -28.5 11t-28.5 -11z" />
    <glyph glyph-name="slash.caps" horiz-adv-x="987" 
d="M0 -59l860 1493h127l-862 -1493h-125z" />
    <glyph glyph-name="hyphen.caps" horiz-adv-x="1101" 
d="M184 764h734v-115h-734v115z" />
    <glyph glyph-name="endash.caps" horiz-adv-x="1439" 
d="M184 764h1071v-115h-1071v115z" />
    <glyph glyph-name="emdash.caps" horiz-adv-x="2115" 
d="M184 764h1747v-115h-1747v115z" />
    <glyph glyph-name="parenleft.caps" horiz-adv-x="620" 
d="M252 143q-33 58 -45 108.5t-12 113.5v645q0 63 12 112t45 109l162 285h145l-207 -363q-18 -31 -25.5 -54t-8.5 -36t-1 -51v-650q0 -38 1 -51t8.5 -36t25.5 -54l207 -364h-145z" />
    <glyph glyph-name="parenright.caps" horiz-adv-x="620" 
d="M207 -143h-146l207 364q18 31 25.5 54t8.5 36t1 51v650q0 38 -1 51t-8.5 36t-25.5 54l-207 363h146l162 -285q33 -60 45 -109t12 -112v-645q0 -63 -12 -113.5t-45 -108.5z" />
    <glyph glyph-name="braceleft.caps" horiz-adv-x="710" 
d="M539 1524h131v-117h-203q-43 0 -71.5 -28.5t-28.5 -71.5v-1241q0 -43 28.5 -72t71.5 -29h203v-115h-131q-125 0 -210 87.5t-85 218.5v481h-193v117h193v465q0 130 85 217.5t210 87.5z" />
    <glyph glyph-name="braceright.caps" horiz-adv-x="741" 
d="M193 1524q126 0 210 -87t84 -218v-465h193v-117h-193v-481q0 -132 -84 -219t-210 -87h-132v115h203q43 0 72 29t29 72v1241q0 43 -29 71.5t-72 28.5h-203v117h132z" />
    <glyph glyph-name="bracketleft.caps" horiz-adv-x="681" 
d="M195 -143v1659h436v-115h-314v-1428h314v-116h-436z" />
    <glyph glyph-name="bracketright.caps" horiz-adv-x="681" 
d="M51 -143v116h314v1428h-314v115h436v-1659h-436z" />
    <glyph glyph-name="guillemotleft.caps" horiz-adv-x="1110" 
d="M211 885l305 305l82 -82l-365 -365q-31 -31 -31 -71.5t31 -71.5l367 -364l-82 -82l-303 303q-95 93 -96.5 212.5t92.5 215.5zM639 885l305 305l82 -82l-364 -365q-31 -31 -31 -71.5t31 -71.5l366 -364l-82 -82l-303 303q-95 93 -96.5 212.5t92.5 215.5z" />
    <glyph glyph-name="guillemotright.caps" horiz-adv-x="1110" 
d="M899 895q94 -96 92.5 -215.5t-96.5 -212.5l-303 -303l-82 82l367 364q31 31 31 72t-31 72l-365 364l82 82zM82 246l367 364q31 31 31 72t-31 72l-365 364l82 82l305 -305q94 -96 92.5 -215.5t-96.5 -212.5l-303 -303z" />
    <glyph glyph-name="uni20BF.osf" horiz-adv-x="1396" 
d="M1067 829q33 55 11 99.5t-83 44.5h-651v-357h602zM221 0v1090h410v282h119v-282h184q75 0 133 -32t87 -83t27.5 -117.5t-38.5 -130.5l-74 -131q87 -31 139 -104t52 -166v-33q0 -126 -86.5 -209.5t-210.5 -83.5h-213v-291h-119v291h-410zM344 117h692q43 0 72 28.5
t29 71.5v184q0 43 -29 72t-72 29h-692v-385z" />
    <glyph glyph-name="cent.osf" horiz-adv-x="1202" 
d="M461 55q-133 0 -220 86.5t-87 218.5v363q0 131 87 218t220 87h145v344h119v-344h338v-117h-686q-43 0 -72 -28.5t-29 -71.5v-541q0 -43 29 -71.5t72 -28.5h686v-115h-338v-346h-119v346h-145z" />
    <glyph glyph-name="dollar.osf" horiz-adv-x="1337" 
d="M215 -6v112h752q43 0 71.5 29t28.5 72v186q0 43 -28.5 72t-71.5 29h-521q-127 0 -211.5 78.5t-84.5 203.5v33q0 124 86.5 202.5t220.5 78.5h151v282h117v-282h391v-115h-749q-43 0 -72 -29t-29 -72v-165q0 -43 29 -72t72 -29h520q125 0 211 -79.5t86 -204.5v-48
q0 -123 -86.5 -202.5t-220.5 -79.5h-152v-285h-117v285h-393z" />
    <glyph glyph-name="Euro.osf" horiz-adv-x="1384" 
d="M123 350v107h1079v-107h-803v-141q0 -43 29 -71.5t72 -28.5h704v-115h-620q-135 0 -221.5 86.5t-86.5 218.5v51h-153zM123 625v106h153v53q0 131 87 218.5t221 87.5h620v-117h-704q-43 0 -72 -29t-29 -72v-141h803v-106h-1079z" />
    <glyph glyph-name="uni20B4.osf" horiz-adv-x="1355" 
d="M999 838q28 50 4 92.5t-81 42.5h-691v117h629q59 0 108.5 -20t80.5 -55.5t46.5 -80.5t9.5 -98t-34 -105h172v-106h-1120v106h815zM123 350v107h1120v-107h-829l-58 -98q-29 -50 -4 -92.5t82 -42.5h694v-117h-632q-74 0 -132 30t-86.5 79.5t-31.5 112.5t33 128h-156z" />
    <glyph glyph-name="uni20BD.osf" horiz-adv-x="1411" 
d="M956 1090q125 0 211 -80.5t86 -204.5v-139q0 -123 -87 -203t-220 -80h-837v113h184v594h663zM109 102v113h1144v-113h-837v-393h-123v393h-184zM416 496h620q43 0 72 28.5t29 71.5v276q0 43 -29 72t-72 29h-620v-477z" />
    <glyph glyph-name="sterling.osf" horiz-adv-x="1308" 
d="M170 117q43 0 71.5 28.5t28.5 71.5v567q0 131 87 218.5t221 87.5h507v-117h-591q-43 0 -72 -29t-29 -72v-450l692 395v-129l-694 -393q-6 -100 -74 -178h885v-117h-1110v117h78z" />
    <glyph glyph-name="yen.osf" horiz-adv-x="1388" 
d="M102 209v115h1127v-115h-533v-500h-123v500h-471zM102 489v115h185v486h123v-486h483l276 486h138l-277 -486h199v-115h-1127z" />
    <glyph glyph-name="arrowright.caps" horiz-adv-x="1507" 
d="M1065 225l219 373h-1223v115h1223l-219 374h135l246 -432l-246 -430h-135z" />
    <glyph glyph-name="arrowleft.caps" horiz-adv-x="1507" 
d="M307 225l-246 430l246 432h135l-219 -374h1223v-115h-1223l219 -373h-135z" />
    <glyph glyph-name="arrowboth.caps" horiz-adv-x="1667" 
d="M1229 225l217 371h-1223l215 -371h-131l-246 430l246 432h131l-215 -372h1223l-217 372h133l244 -432l-244 -430h-133z" />
    </font>
</defs>
</svg>
