<svg width="339" height="278" viewBox="0 0 339 278" fill="none" xmlns="http://www.w3.org/2000/svg">
<rect y="1" width="339" height="277" fill="white"/>
<rect x="4" y="179" width="116" height="99" rx="26" fill="#0029FF"/>
<path d="M15.2 36L24.3 20.15H15.95L6.8 36H3.75L12.9 20.15H3.75V17.4H8.85L17.5 2.5H20.55L11.9 17.4H20.3L28.9 2.5H32L23.35 17.4H32.9V20.15H27.4L18.25 36H15.2ZM40.2199 36V33.15H54.7199V6.9C54.7199 4.85 52.9699 4.1 51.2199 5.1L40.1699 11.4V8.25L48.7199 3.35C53.2699 0.749998 57.7199 3.35 57.7199 8.35V33.15H65.7699V36H40.2199Z" fill="#0029FF"/>
<path d="M264.64 22.392L305.936 3.59999H325.656V166H300.136V30.976L264.64 47.216V22.392Z" fill="#0029FF"/>
<rect x="183" y="222" width="155" height="56" rx="20" fill="black"/>
<path d="M206.4 237.2H207.9V247H206.4V243.1C205.707 243.433 204.92 243.6 204.04 243.6C202.813 243.6 201.847 243.26 201.14 242.58C200.447 241.9 200.1 240.94 200.1 239.7V237.2H201.6V239.7C201.6 240.5 201.793 241.12 202.18 241.56C202.567 241.987 203.22 242.2 204.14 242.2C204.873 242.2 205.627 242.033 206.4 241.7V237.2ZM218.811 237.2H220.311V247H218.811V245.5C218.397 246.02 217.877 246.433 217.251 246.74C216.624 247.047 215.944 247.2 215.211 247.2C214.317 247.2 213.484 246.98 212.711 246.54C211.937 246.087 211.324 245.473 210.871 244.7C210.417 243.913 210.191 243.047 210.191 242.1C210.191 241.153 210.417 240.293 210.871 239.52C211.324 238.733 211.937 238.12 212.711 237.68C213.484 237.227 214.317 237 215.211 237C215.944 237 216.624 237.153 217.251 237.46C217.877 237.767 218.397 238.18 218.811 238.7V237.2ZM215.331 245.8C215.984 245.8 216.584 245.64 217.131 245.32C217.677 244.987 218.111 244.54 218.431 243.98C218.751 243.42 218.911 242.793 218.911 242.1C218.911 241.407 218.751 240.78 218.431 240.22C218.111 239.66 217.677 239.22 217.131 238.9C216.584 238.567 215.984 238.4 215.331 238.4C214.677 238.4 214.077 238.567 213.531 238.9C212.984 239.22 212.551 239.66 212.231 240.22C211.911 240.78 211.751 241.407 211.751 242.1C211.751 242.793 211.911 243.42 212.231 243.98C212.551 244.54 212.984 244.987 213.531 245.32C214.077 245.64 214.677 245.8 215.331 245.8ZM227.633 247.2C226.726 247.2 225.886 246.98 225.113 246.54C224.353 246.087 223.746 245.473 223.293 244.7C222.839 243.913 222.613 243.047 222.613 242.1C222.613 241.153 222.839 240.293 223.293 239.52C223.746 238.733 224.353 238.12 225.113 237.68C225.886 237.227 226.726 237 227.633 237C228.699 237 229.659 237.293 230.513 237.88C231.379 238.467 231.986 239.273 232.333 240.3H230.733C230.439 239.7 230.013 239.233 229.453 238.9C228.893 238.567 228.286 238.4 227.633 238.4C227.006 238.4 226.426 238.567 225.893 238.9C225.359 239.22 224.939 239.66 224.633 240.22C224.326 240.78 224.173 241.407 224.173 242.1C224.173 242.793 224.326 243.42 224.633 243.98C224.939 244.54 225.359 244.987 225.893 245.32C226.426 245.64 227.006 245.8 227.633 245.8C228.286 245.8 228.893 245.633 229.453 245.3C230.013 244.967 230.439 244.5 230.733 243.9H232.333C231.986 244.927 231.379 245.733 230.513 246.32C229.659 246.907 228.699 247.2 227.633 247.2ZM235.026 249.66H233.626L234.726 245.06H236.526L235.026 249.66ZM251.034 241.78C251.567 241.967 251.98 242.273 252.274 242.7C252.567 243.127 252.714 243.627 252.714 244.2C252.714 245.027 252.4 245.7 251.774 246.22C251.147 246.74 250.3 247 249.234 247H244.934V237.2H248.934C249.947 237.2 250.747 237.44 251.334 237.92C251.92 238.4 252.214 239.027 252.214 239.8C252.214 240.2 252.1 240.58 251.874 240.94C251.66 241.3 251.38 241.58 251.034 241.78ZM246.434 238.6V241.22H248.874C249.447 241.22 249.887 241.1 250.194 240.86C250.5 240.607 250.654 240.287 250.654 239.9C250.654 239.527 250.5 239.22 250.194 238.98C249.9 238.727 249.48 238.6 248.934 238.6H246.434ZM249.234 245.6C249.834 245.6 250.3 245.467 250.634 245.2C250.98 244.933 251.154 244.567 251.154 244.1C251.154 243.62 250.98 243.247 250.634 242.98C250.287 242.713 249.8 242.58 249.174 242.58H246.434V245.6H249.234ZM260.112 237C261.005 237 261.838 237.227 262.612 237.68C263.385 238.12 263.998 238.733 264.452 239.52C264.905 240.293 265.132 241.153 265.132 242.1C265.132 243.047 264.905 243.913 264.452 244.7C263.998 245.473 263.385 246.087 262.612 246.54C261.838 246.98 261.005 247.2 260.112 247.2C259.378 247.2 258.698 247.047 258.072 246.74C257.445 246.433 256.925 246.02 256.512 245.5V251H255.012V237.2H256.512V238.7C256.925 238.18 257.445 237.767 258.072 237.46C258.698 237.153 259.378 237 260.112 237ZM260.012 245.8C260.665 245.8 261.258 245.64 261.792 245.32C262.338 244.987 262.772 244.54 263.092 243.98C263.412 243.42 263.572 242.793 263.572 242.1C263.572 241.407 263.412 240.78 263.092 240.22C262.772 239.66 262.338 239.22 261.792 238.9C261.258 238.567 260.665 238.4 260.012 238.4C259.358 238.4 258.752 238.567 258.192 238.9C257.645 239.22 257.212 239.66 256.892 240.22C256.572 240.78 256.412 241.407 256.412 242.1C256.412 242.793 256.572 243.42 256.892 243.98C257.212 244.54 257.645 244.987 258.192 245.32C258.752 245.64 259.358 245.8 260.012 245.8ZM271.654 237C272.547 237 273.36 237.207 274.094 237.62C274.84 238.02 275.427 238.593 275.854 239.34C276.28 240.073 276.494 240.913 276.494 241.86C276.494 242.18 276.48 242.427 276.454 242.6H268.314C268.407 243.573 268.747 244.353 269.334 244.94C269.934 245.513 270.707 245.8 271.654 245.8C273.04 245.8 274.04 245.233 274.654 244.1H276.254C275.854 245.1 275.26 245.867 274.474 246.4C273.687 246.933 272.747 247.2 271.654 247.2C270.734 247.2 269.894 246.98 269.134 246.54C268.387 246.087 267.8 245.473 267.374 244.7C266.947 243.927 266.734 243.06 266.734 242.1C266.734 241.14 266.947 240.273 267.374 239.5C267.8 238.727 268.387 238.12 269.134 237.68C269.894 237.227 270.734 237 271.654 237ZM271.654 238.4C270.774 238.4 270.04 238.653 269.454 239.16C268.88 239.667 268.52 240.36 268.374 241.24H274.914C274.82 240.387 274.467 239.7 273.854 239.18C273.254 238.66 272.52 238.4 271.654 238.4ZM289.303 237.2L290.103 247H288.603L288.163 239.92L284.663 247H283.943L280.423 239.86L279.963 247H278.503L279.303 237.2H280.583L284.323 244.82L288.063 237.2H289.303ZM300.202 237.18V247H298.702V243.34H296.922L293.902 247H292.102L295.202 243.28C294.416 243.133 293.776 242.787 293.282 242.24C292.802 241.693 292.562 241.033 292.562 240.26C292.562 239.673 292.702 239.147 292.982 238.68C293.276 238.213 293.676 237.847 294.182 237.58C294.702 237.313 295.276 237.18 295.902 237.18H300.202ZM298.702 241.94V238.58H296.002C295.442 238.58 294.989 238.733 294.642 239.04C294.296 239.333 294.122 239.74 294.122 240.26C294.122 240.78 294.296 241.193 294.642 241.5C294.989 241.793 295.442 241.94 296.002 241.94H298.702ZM206.6 261.78C207.133 261.967 207.547 262.273 207.84 262.7C208.133 263.127 208.28 263.627 208.28 264.2C208.28 265.027 207.967 265.7 207.34 266.22C206.713 266.74 205.867 267 204.8 267H200.5V257.2H204.5C205.513 257.2 206.313 257.44 206.9 257.92C207.487 258.4 207.78 259.027 207.78 259.8C207.78 260.2 207.667 260.58 207.44 260.94C207.227 261.3 206.947 261.58 206.6 261.78ZM202 258.6V261.22H204.44C205.013 261.22 205.453 261.1 205.76 260.86C206.067 260.607 206.22 260.287 206.22 259.9C206.22 259.527 206.067 259.22 205.76 258.98C205.467 258.727 205.047 258.6 204.5 258.6H202ZM204.8 265.6C205.4 265.6 205.867 265.467 206.2 265.2C206.547 264.933 206.72 264.567 206.72 264.1C206.72 263.62 206.547 263.247 206.2 262.98C205.853 262.713 205.367 262.58 204.74 262.58H202V265.6H204.8ZM219.284 262.02L224.264 267H222.224L217.684 262.4V267H216.184V257.2H217.684V261.74L222.004 257.2H223.924L219.284 262.02ZM229.783 267.2C228.85 267.2 227.99 266.98 227.203 266.54C226.43 266.087 225.81 265.473 225.343 264.7C224.89 263.913 224.663 263.047 224.663 262.1C224.663 261.153 224.89 260.293 225.343 259.52C225.81 258.733 226.43 258.12 227.203 257.68C227.99 257.227 228.85 257 229.783 257C230.717 257 231.57 257.227 232.343 257.68C233.13 258.12 233.75 258.733 234.203 259.52C234.67 260.293 234.903 261.153 234.903 262.1C234.903 263.047 234.67 263.913 234.203 264.7C233.75 265.473 233.13 266.087 232.343 266.54C231.57 266.98 230.717 267.2 229.783 267.2ZM229.783 265.8C230.437 265.8 231.03 265.64 231.563 265.32C232.11 264.987 232.543 264.54 232.863 263.98C233.183 263.42 233.343 262.793 233.343 262.1C233.343 261.407 233.183 260.78 232.863 260.22C232.543 259.66 232.11 259.22 231.563 258.9C231.03 258.567 230.437 258.4 229.783 258.4C229.13 258.4 228.53 258.567 227.983 258.9C227.45 259.22 227.023 259.66 226.703 260.22C226.383 260.78 226.223 261.407 226.223 262.1C226.223 262.793 226.383 263.42 226.703 263.98C227.023 264.54 227.45 264.987 227.983 265.32C228.53 265.64 229.13 265.8 229.783 265.8ZM243.299 261.78C243.833 261.967 244.246 262.273 244.539 262.7C244.833 263.127 244.979 263.627 244.979 264.2C244.979 265.027 244.666 265.7 244.039 266.22C243.413 266.74 242.566 267 241.499 267H237.199V257.2H241.199C242.213 257.2 243.013 257.44 243.599 257.92C244.186 258.4 244.479 259.027 244.479 259.8C244.479 260.2 244.366 260.58 244.139 260.94C243.926 261.3 243.646 261.58 243.299 261.78ZM238.699 258.6V261.22H241.139C241.713 261.22 242.153 261.1 242.459 260.86C242.766 260.607 242.919 260.287 242.919 259.9C242.919 259.527 242.766 259.22 242.459 258.98C242.166 258.727 241.746 258.6 241.199 258.6H238.699ZM241.499 265.6C242.099 265.6 242.566 265.467 242.899 265.2C243.246 264.933 243.419 264.567 243.419 264.1C243.419 263.62 243.246 263.247 242.899 262.98C242.553 262.713 242.066 262.58 241.439 262.58H238.699V265.6H241.499ZM251.697 267.2C250.764 267.2 249.904 266.98 249.117 266.54C248.344 266.087 247.724 265.473 247.257 264.7C246.804 263.913 246.577 263.047 246.577 262.1C246.577 261.153 246.804 260.293 247.257 259.52C247.724 258.733 248.344 258.12 249.117 257.68C249.904 257.227 250.764 257 251.697 257C252.631 257 253.484 257.227 254.257 257.68C255.044 258.12 255.664 258.733 256.117 259.52C256.584 260.293 256.817 261.153 256.817 262.1C256.817 263.047 256.584 263.913 256.117 264.7C255.664 265.473 255.044 266.087 254.257 266.54C253.484 266.98 252.631 267.2 251.697 267.2ZM251.697 265.8C252.351 265.8 252.944 265.64 253.477 265.32C254.024 264.987 254.457 264.54 254.777 263.98C255.097 263.42 255.257 262.793 255.257 262.1C255.257 261.407 255.097 260.78 254.777 260.22C254.457 259.66 254.024 259.22 253.477 258.9C252.944 258.567 252.351 258.4 251.697 258.4C251.044 258.4 250.444 258.567 249.897 258.9C249.364 259.22 248.937 259.66 248.617 260.22C248.297 260.78 248.137 261.407 248.137 262.1C248.137 262.793 248.297 263.42 248.617 263.98C248.937 264.54 249.364 264.987 249.897 265.32C250.444 265.64 251.044 265.8 251.697 265.8ZM264.213 257C265.107 257 265.94 257.227 266.713 257.68C267.487 258.12 268.1 258.733 268.553 259.52C269.007 260.293 269.233 261.153 269.233 262.1C269.233 263.047 269.007 263.913 268.553 264.7C268.1 265.473 267.487 266.087 266.713 266.54C265.94 266.98 265.107 267.2 264.213 267.2C263.48 267.2 262.8 267.047 262.173 266.74C261.547 266.433 261.027 266.02 260.613 265.5V271H259.113V257.2H260.613V258.7C261.027 258.18 261.547 257.767 262.173 257.46C262.8 257.153 263.48 257 264.213 257ZM264.113 265.8C264.767 265.8 265.36 265.64 265.893 265.32C266.44 264.987 266.873 264.54 267.193 263.98C267.513 263.42 267.673 262.793 267.673 262.1C267.673 261.407 267.513 260.78 267.193 260.22C266.873 259.66 266.44 259.22 265.893 258.9C265.36 258.567 264.767 258.4 264.113 258.4C263.46 258.4 262.853 258.567 262.293 258.9C261.747 259.22 261.313 259.66 260.993 260.22C260.673 260.78 260.513 261.407 260.513 262.1C260.513 262.793 260.673 263.42 260.993 263.98C261.313 264.54 261.747 264.987 262.293 265.32C262.853 265.64 263.46 265.8 264.113 265.8ZM274.635 262.02L279.615 267H277.575L273.035 262.4V267H271.535V257.2H273.035V261.74L277.355 257.2H279.275L274.635 262.02ZM282.723 264.58L288.623 257.2H289.823V267H288.323V259.62L282.423 267H281.223V257.2H282.723V264.58ZM299.824 261.3V257.2H301.324V267H299.824V262.7H294.324V267H292.824V257.2H294.324V261.3H299.824ZM305.828 267H304.328V257.2H310.528V258.6H305.828V267ZM316.243 257C317.137 257 317.95 257.207 318.683 257.62C319.43 258.02 320.017 258.593 320.443 259.34C320.87 260.073 321.083 260.913 321.083 261.86C321.083 262.18 321.07 262.427 321.043 262.6H312.903C312.997 263.573 313.337 264.353 313.923 264.94C314.523 265.513 315.297 265.8 316.243 265.8C317.63 265.8 318.63 265.233 319.243 264.1H320.843C320.443 265.1 319.85 265.867 319.063 266.4C318.277 266.933 317.337 267.2 316.243 267.2C315.323 267.2 314.483 266.98 313.723 266.54C312.977 266.087 312.39 265.473 311.963 264.7C311.537 263.927 311.323 263.06 311.323 262.1C311.323 261.14 311.537 260.273 311.963 259.5C312.39 258.727 312.977 258.12 313.723 257.68C314.483 257.227 315.323 257 316.243 257ZM316.243 258.4C315.363 258.4 314.63 258.653 314.043 259.16C313.47 259.667 313.11 260.36 312.963 261.24H319.503C319.41 260.387 319.057 259.7 318.443 259.18C317.843 258.66 317.11 258.4 316.243 258.4Z" fill="white"/>
</svg>
