<svg width="339" height="277" viewBox="0 0 339 277" fill="none" xmlns="http://www.w3.org/2000/svg">
<rect width="339" height="277" fill="white"/>
<rect x="4" y="178" width="116" height="99" rx="26" fill="#0029FF"/>
<rect x="183" y="221" width="155" height="56" rx="20" fill="black"/>
<path d="M206.4 236.2H207.9V246H206.4V242.1C205.707 242.433 204.92 242.6 204.04 242.6C202.813 242.6 201.847 242.26 201.14 241.58C200.447 240.9 200.1 239.94 200.1 238.7V236.2H201.6V238.7C201.6 239.5 201.793 240.12 202.18 240.56C202.567 240.987 203.22 241.2 204.14 241.2C204.873 241.2 205.627 241.033 206.4 240.7V236.2ZM218.811 236.2H220.311V246H218.811V244.5C218.397 245.02 217.877 245.433 217.251 245.74C216.624 246.047 215.944 246.2 215.211 246.2C214.317 246.2 213.484 245.98 212.711 245.54C211.937 245.087 211.324 244.473 210.871 243.7C210.417 242.913 210.191 242.047 210.191 241.1C210.191 240.153 210.417 239.293 210.871 238.52C211.324 237.733 211.937 237.12 212.711 236.68C213.484 236.227 214.317 236 215.211 236C215.944 236 216.624 236.153 217.251 236.46C217.877 236.767 218.397 237.18 218.811 237.7V236.2ZM215.331 244.8C215.984 244.8 216.584 244.64 217.131 244.32C217.677 243.987 218.111 243.54 218.431 242.98C218.751 242.42 218.911 241.793 218.911 241.1C218.911 240.407 218.751 239.78 218.431 239.22C218.111 238.66 217.677 238.22 217.131 237.9C216.584 237.567 215.984 237.4 215.331 237.4C214.677 237.4 214.077 237.567 213.531 237.9C212.984 238.22 212.551 238.66 212.231 239.22C211.911 239.78 211.751 240.407 211.751 241.1C211.751 241.793 211.911 242.42 212.231 242.98C212.551 243.54 212.984 243.987 213.531 244.32C214.077 244.64 214.677 244.8 215.331 244.8ZM227.633 246.2C226.726 246.2 225.886 245.98 225.113 245.54C224.353 245.087 223.746 244.473 223.293 243.7C222.839 242.913 222.613 242.047 222.613 241.1C222.613 240.153 222.839 239.293 223.293 238.52C223.746 237.733 224.353 237.12 225.113 236.68C225.886 236.227 226.726 236 227.633 236C228.699 236 229.659 236.293 230.513 236.88C231.379 237.467 231.986 238.273 232.333 239.3H230.733C230.439 238.7 230.013 238.233 229.453 237.9C228.893 237.567 228.286 237.4 227.633 237.4C227.006 237.4 226.426 237.567 225.893 237.9C225.359 238.22 224.939 238.66 224.633 239.22C224.326 239.78 224.173 240.407 224.173 241.1C224.173 241.793 224.326 242.42 224.633 242.98C224.939 243.54 225.359 243.987 225.893 244.32C226.426 244.64 227.006 244.8 227.633 244.8C228.286 244.8 228.893 244.633 229.453 244.3C230.013 243.967 230.439 243.5 230.733 242.9H232.333C231.986 243.927 231.379 244.733 230.513 245.32C229.659 245.907 228.699 246.2 227.633 246.2ZM242.346 236.2H243.846V246H242.346V244.5C241.932 245.02 241.412 245.433 240.786 245.74C240.159 246.047 239.479 246.2 238.746 246.2C237.852 246.2 237.019 245.98 236.246 245.54C235.472 245.087 234.859 244.473 234.406 243.7C233.952 242.913 233.726 242.047 233.726 241.1C233.726 240.153 233.952 239.293 234.406 238.52C234.859 237.733 235.472 237.12 236.246 236.68C237.019 236.227 237.852 236 238.746 236C239.479 236 240.159 236.153 240.786 236.46C241.412 236.767 241.932 237.18 242.346 237.7V236.2ZM238.866 244.8C239.519 244.8 240.119 244.64 240.666 244.32C241.212 243.987 241.646 243.54 241.966 242.98C242.286 242.42 242.446 241.793 242.446 241.1C242.446 240.407 242.286 239.78 241.966 239.22C241.646 238.66 241.212 238.22 240.666 237.9C240.119 237.567 239.519 237.4 238.866 237.4C238.212 237.4 237.612 237.567 237.066 237.9C236.519 238.22 236.086 238.66 235.766 239.22C235.446 239.78 235.286 240.407 235.286 241.1C235.286 241.793 235.446 242.42 235.766 242.98C236.086 243.54 236.519 243.987 237.066 244.32C237.612 244.64 238.212 244.8 238.866 244.8ZM247.448 248.66H246.048L247.148 244.06H248.948L247.448 248.66ZM263.455 240.78C263.989 240.967 264.402 241.273 264.695 241.7C264.989 242.127 265.135 242.627 265.135 243.2C265.135 244.027 264.822 244.7 264.195 245.22C263.569 245.74 262.722 246 261.655 246H257.355V236.2H261.355C262.369 236.2 263.169 236.44 263.755 236.92C264.342 237.4 264.635 238.027 264.635 238.8C264.635 239.2 264.522 239.58 264.295 239.94C264.082 240.3 263.802 240.58 263.455 240.78ZM258.855 237.6V240.22H261.295C261.869 240.22 262.309 240.1 262.615 239.86C262.922 239.607 263.075 239.287 263.075 238.9C263.075 238.527 262.922 238.22 262.615 237.98C262.322 237.727 261.902 237.6 261.355 237.6H258.855ZM261.655 244.6C262.255 244.6 262.722 244.467 263.055 244.2C263.402 243.933 263.575 243.567 263.575 243.1C263.575 242.62 263.402 242.247 263.055 241.98C262.709 241.713 262.222 241.58 261.595 241.58H258.855V244.6H261.655ZM272.534 236C273.427 236 274.26 236.227 275.034 236.68C275.807 237.12 276.42 237.733 276.874 238.52C277.327 239.293 277.554 240.153 277.554 241.1C277.554 242.047 277.327 242.913 276.874 243.7C276.42 244.473 275.807 245.087 275.034 245.54C274.26 245.98 273.427 246.2 272.534 246.2C271.8 246.2 271.12 246.047 270.494 245.74C269.867 245.433 269.347 245.02 268.934 244.5V250H267.434V236.2H268.934V237.7C269.347 237.18 269.867 236.767 270.494 236.46C271.12 236.153 271.8 236 272.534 236ZM272.434 244.8C273.087 244.8 273.68 244.64 274.214 244.32C274.76 243.987 275.194 243.54 275.514 242.98C275.834 242.42 275.994 241.793 275.994 241.1C275.994 240.407 275.834 239.78 275.514 239.22C275.194 238.66 274.76 238.22 274.214 237.9C273.68 237.567 273.087 237.4 272.434 237.4C271.78 237.4 271.174 237.567 270.614 237.9C270.067 238.22 269.634 238.66 269.314 239.22C268.994 239.78 268.834 240.407 268.834 241.1C268.834 241.793 268.994 242.42 269.314 242.98C269.634 243.54 270.067 243.987 270.614 244.32C271.174 244.64 271.78 244.8 272.434 244.8ZM284.075 236C284.969 236 285.782 236.207 286.515 236.62C287.262 237.02 287.849 237.593 288.275 238.34C288.702 239.073 288.915 239.913 288.915 240.86C288.915 241.18 288.902 241.427 288.875 241.6H280.735C280.829 242.573 281.169 243.353 281.755 243.94C282.355 244.513 283.129 244.8 284.075 244.8C285.462 244.8 286.462 244.233 287.075 243.1H288.675C288.275 244.1 287.682 244.867 286.895 245.4C286.109 245.933 285.169 246.2 284.075 246.2C283.155 246.2 282.315 245.98 281.555 245.54C280.809 245.087 280.222 244.473 279.795 243.7C279.369 242.927 279.155 242.06 279.155 241.1C279.155 240.14 279.369 239.273 279.795 238.5C280.222 237.727 280.809 237.12 281.555 236.68C282.315 236.227 283.155 236 284.075 236ZM284.075 237.4C283.195 237.4 282.462 237.653 281.875 238.16C281.302 238.667 280.942 239.36 280.795 240.24H287.335C287.242 239.387 286.889 238.7 286.275 238.18C285.675 237.66 284.942 237.4 284.075 237.4ZM301.725 236.2L302.525 246H301.025L300.585 238.92L297.085 246H296.365L292.845 238.86L292.385 246H290.925L291.725 236.2H293.005L296.745 243.82L300.485 236.2H301.725ZM312.624 236.18V246H311.124V242.34H309.344L306.324 246H304.524L307.624 242.28C306.838 242.133 306.198 241.787 305.704 241.24C305.224 240.693 304.984 240.033 304.984 239.26C304.984 238.673 305.124 238.147 305.404 237.68C305.698 237.213 306.098 236.847 306.604 236.58C307.124 236.313 307.698 236.18 308.324 236.18H312.624ZM311.124 240.94V237.58H308.424C307.864 237.58 307.411 237.733 307.064 238.04C306.718 238.333 306.544 238.74 306.544 239.26C306.544 239.78 306.718 240.193 307.064 240.5C307.411 240.793 307.864 240.94 308.424 240.94H311.124ZM206.6 260.78C207.133 260.967 207.547 261.273 207.84 261.7C208.133 262.127 208.28 262.627 208.28 263.2C208.28 264.027 207.967 264.7 207.34 265.22C206.713 265.74 205.867 266 204.8 266H200.5V256.2H204.5C205.513 256.2 206.313 256.44 206.9 256.92C207.487 257.4 207.78 258.027 207.78 258.8C207.78 259.2 207.667 259.58 207.44 259.94C207.227 260.3 206.947 260.58 206.6 260.78ZM202 257.6V260.22H204.44C205.013 260.22 205.453 260.1 205.76 259.86C206.067 259.607 206.22 259.287 206.22 258.9C206.22 258.527 206.067 258.22 205.76 257.98C205.467 257.727 205.047 257.6 204.5 257.6H202ZM204.8 264.6C205.4 264.6 205.867 264.467 206.2 264.2C206.547 263.933 206.72 263.567 206.72 263.1C206.72 262.62 206.547 262.247 206.2 261.98C205.853 261.713 205.367 261.58 204.74 261.58H202V264.6H204.8ZM219.284 261.02L224.264 266H222.224L217.684 261.4V266H216.184V256.2H217.684V260.74L222.004 256.2H223.924L219.284 261.02ZM229.783 266.2C228.85 266.2 227.99 265.98 227.203 265.54C226.43 265.087 225.81 264.473 225.343 263.7C224.89 262.913 224.663 262.047 224.663 261.1C224.663 260.153 224.89 259.293 225.343 258.52C225.81 257.733 226.43 257.12 227.203 256.68C227.99 256.227 228.85 256 229.783 256C230.717 256 231.57 256.227 232.343 256.68C233.13 257.12 233.75 257.733 234.203 258.52C234.67 259.293 234.903 260.153 234.903 261.1C234.903 262.047 234.67 262.913 234.203 263.7C233.75 264.473 233.13 265.087 232.343 265.54C231.57 265.98 230.717 266.2 229.783 266.2ZM229.783 264.8C230.437 264.8 231.03 264.64 231.563 264.32C232.11 263.987 232.543 263.54 232.863 262.98C233.183 262.42 233.343 261.793 233.343 261.1C233.343 260.407 233.183 259.78 232.863 259.22C232.543 258.66 232.11 258.22 231.563 257.9C231.03 257.567 230.437 257.4 229.783 257.4C229.13 257.4 228.53 257.567 227.983 257.9C227.45 258.22 227.023 258.66 226.703 259.22C226.383 259.78 226.223 260.407 226.223 261.1C226.223 261.793 226.383 262.42 226.703 262.98C227.023 263.54 227.45 263.987 227.983 264.32C228.53 264.64 229.13 264.8 229.783 264.8ZM243.299 260.78C243.833 260.967 244.246 261.273 244.539 261.7C244.833 262.127 244.979 262.627 244.979 263.2C244.979 264.027 244.666 264.7 244.039 265.22C243.413 265.74 242.566 266 241.499 266H237.199V256.2H241.199C242.213 256.2 243.013 256.44 243.599 256.92C244.186 257.4 244.479 258.027 244.479 258.8C244.479 259.2 244.366 259.58 244.139 259.94C243.926 260.3 243.646 260.58 243.299 260.78ZM238.699 257.6V260.22H241.139C241.713 260.22 242.153 260.1 242.459 259.86C242.766 259.607 242.919 259.287 242.919 258.9C242.919 258.527 242.766 258.22 242.459 257.98C242.166 257.727 241.746 257.6 241.199 257.6H238.699ZM241.499 264.6C242.099 264.6 242.566 264.467 242.899 264.2C243.246 263.933 243.419 263.567 243.419 263.1C243.419 262.62 243.246 262.247 242.899 261.98C242.553 261.713 242.066 261.58 241.439 261.58H238.699V264.6H241.499ZM251.697 266.2C250.764 266.2 249.904 265.98 249.117 265.54C248.344 265.087 247.724 264.473 247.257 263.7C246.804 262.913 246.577 262.047 246.577 261.1C246.577 260.153 246.804 259.293 247.257 258.52C247.724 257.733 248.344 257.12 249.117 256.68C249.904 256.227 250.764 256 251.697 256C252.631 256 253.484 256.227 254.257 256.68C255.044 257.12 255.664 257.733 256.117 258.52C256.584 259.293 256.817 260.153 256.817 261.1C256.817 262.047 256.584 262.913 256.117 263.7C255.664 264.473 255.044 265.087 254.257 265.54C253.484 265.98 252.631 266.2 251.697 266.2ZM251.697 264.8C252.351 264.8 252.944 264.64 253.477 264.32C254.024 263.987 254.457 263.54 254.777 262.98C255.097 262.42 255.257 261.793 255.257 261.1C255.257 260.407 255.097 259.78 254.777 259.22C254.457 258.66 254.024 258.22 253.477 257.9C252.944 257.567 252.351 257.4 251.697 257.4C251.044 257.4 250.444 257.567 249.897 257.9C249.364 258.22 248.937 258.66 248.617 259.22C248.297 259.78 248.137 260.407 248.137 261.1C248.137 261.793 248.297 262.42 248.617 262.98C248.937 263.54 249.364 263.987 249.897 264.32C250.444 264.64 251.044 264.8 251.697 264.8ZM264.213 256C265.107 256 265.94 256.227 266.713 256.68C267.487 257.12 268.1 257.733 268.553 258.52C269.007 259.293 269.233 260.153 269.233 261.1C269.233 262.047 269.007 262.913 268.553 263.7C268.1 264.473 267.487 265.087 266.713 265.54C265.94 265.98 265.107 266.2 264.213 266.2C263.48 266.2 262.8 266.047 262.173 265.74C261.547 265.433 261.027 265.02 260.613 264.5V270H259.113V256.2H260.613V257.7C261.027 257.18 261.547 256.767 262.173 256.46C262.8 256.153 263.48 256 264.213 256ZM264.113 264.8C264.767 264.8 265.36 264.64 265.893 264.32C266.44 263.987 266.873 263.54 267.193 262.98C267.513 262.42 267.673 261.793 267.673 261.1C267.673 260.407 267.513 259.78 267.193 259.22C266.873 258.66 266.44 258.22 265.893 257.9C265.36 257.567 264.767 257.4 264.113 257.4C263.46 257.4 262.853 257.567 262.293 257.9C261.747 258.22 261.313 258.66 260.993 259.22C260.673 259.78 260.513 260.407 260.513 261.1C260.513 261.793 260.673 262.42 260.993 262.98C261.313 263.54 261.747 263.987 262.293 264.32C262.853 264.64 263.46 264.8 264.113 264.8ZM274.635 261.02L279.615 266H277.575L273.035 261.4V266H271.535V256.2H273.035V260.74L277.355 256.2H279.275L274.635 261.02ZM282.723 263.58L288.623 256.2H289.823V266H288.323V258.62L282.423 266H281.223V256.2H282.723V263.58ZM299.824 260.3V256.2H301.324V266H299.824V261.7H294.324V266H292.824V256.2H294.324V260.3H299.824ZM305.828 266H304.328V256.2H310.528V257.6H305.828V266ZM316.243 256C317.137 256 317.95 256.207 318.683 256.62C319.43 257.02 320.017 257.593 320.443 258.34C320.87 259.073 321.083 259.913 321.083 260.86C321.083 261.18 321.07 261.427 321.043 261.6H312.903C312.997 262.573 313.337 263.353 313.923 263.94C314.523 264.513 315.297 264.8 316.243 264.8C317.63 264.8 318.63 264.233 319.243 263.1H320.843C320.443 264.1 319.85 264.867 319.063 265.4C318.277 265.933 317.337 266.2 316.243 266.2C315.323 266.2 314.483 265.98 313.723 265.54C312.977 265.087 312.39 264.473 311.963 263.7C311.537 262.927 311.323 262.06 311.323 261.1C311.323 260.14 311.537 259.273 311.963 258.5C312.39 257.727 312.977 257.12 313.723 256.68C314.483 256.227 315.323 256 316.243 256ZM316.243 257.4C315.363 257.4 314.63 257.653 314.043 258.16C313.47 258.667 313.11 259.36 312.963 260.24H319.503C319.41 259.387 319.057 258.7 318.443 258.18C317.843 257.66 317.11 257.4 316.243 257.4Z" fill="white"/>
<path d="M15.2 35L24.3 19.15H15.95L6.8 35H3.75L12.9 19.15H3.75V16.4H8.85L17.5 1.5H20.55L11.9 16.4H20.3L28.9 1.5H32L23.35 16.4H32.9V19.15H27.4L18.25 35H15.2ZM61.6199 33.6C59.5699 34.75 58.1199 35 56.2199 35H39.1699V32H44.4699C45.7699 32 46.4199 31.55 47.0199 30.5L59.9199 7.85C60.9699 6 60.2699 4.3 58.1699 4.3H40.5199V1.5H56.7199C61.7199 1.5 64.3199 6 61.8199 10.35L51.6199 28.2C50.7199 29.8 49.7699 31.05 48.7199 32H56.3699C58.0699 32 58.6699 31.9 60.4699 30.9L68.1699 26.55V29.9L61.6199 33.6Z" fill="#0029FF"/>
<path d="M268.72 139.944H338.552V165H227.656V148.76L289.832 82.176C296.947 74.752 301.741 68.488 304.216 63.384C306.845 58.28 308.16 53.3307 308.16 48.536C308.16 41.2667 305.685 35.312 300.736 30.672C295.787 26.032 289.291 23.712 281.248 23.712C273.051 23.712 266.323 26.1867 261.064 31.136C255.96 35.9307 253.253 42.1947 252.944 49.928H226.96C227.424 39.8747 230.053 31.136 234.848 23.712C239.797 16.1333 246.293 10.3333 254.336 6.312C262.379 2.13599 271.349 0.0479941 281.248 0.0479941C291.147 0.0479941 300.117 1.98133 308.16 5.84799C316.203 9.71466 322.544 15.2827 327.184 22.552C331.979 29.8213 334.376 38.328 334.376 48.072C334.376 55.8053 332.597 63.3067 329.04 70.576C325.483 77.6907 319.219 85.9653 310.248 95.4L268.72 139.944Z" fill="#0029FF"/>
</svg>
