<svg width="339" height="277" viewBox="0 0 339 277" fill="none" xmlns="http://www.w3.org/2000/svg">
<rect width="339" height="277" fill="#0029FF"/>
<rect x="4" y="178" width="116" height="99" rx="26" fill="white"/>
<path d="M15.2 35L24.3 19.15H15.95L6.8 35H3.75L12.9 19.15H3.75V16.4H8.85L17.5 1.5H20.55L11.9 16.4H20.3L28.9 1.5H32L23.35 16.4H32.9V19.15H27.4L18.25 35H15.2ZM65.6699 1.5V35H62.6699V23.2H45.7699C40.7199 23.2 38.1199 18.7 40.6199 14.35L47.9699 1.5H51.2699L42.4699 16.85C41.4699 18.6 42.2699 20.35 44.2699 20.35H62.6699V1.5H65.6699Z" fill="white"/>
<rect x="183" y="221" width="155" height="56" rx="20" fill="black"/>
<path d="M202.4 236.2H203.9V246H202.4V242.1C201.707 242.433 200.92 242.6 200.04 242.6C198.813 242.6 197.847 242.26 197.14 241.58C196.447 240.9 196.1 239.94 196.1 238.7V236.2H197.6V238.7C197.6 239.5 197.793 240.12 198.18 240.56C198.567 240.987 199.22 241.2 200.14 241.2C200.873 241.2 201.627 241.033 202.4 240.7V236.2ZM214.811 236.2H216.311V246H214.811V244.5C214.397 245.02 213.877 245.433 213.251 245.74C212.624 246.047 211.944 246.2 211.211 246.2C210.317 246.2 209.484 245.98 208.711 245.54C207.937 245.087 207.324 244.473 206.871 243.7C206.417 242.913 206.191 242.047 206.191 241.1C206.191 240.153 206.417 239.293 206.871 238.52C207.324 237.733 207.937 237.12 208.711 236.68C209.484 236.227 210.317 236 211.211 236C211.944 236 212.624 236.153 213.251 236.46C213.877 236.767 214.397 237.18 214.811 237.7V236.2ZM211.331 244.8C211.984 244.8 212.584 244.64 213.131 244.32C213.677 243.987 214.111 243.54 214.431 242.98C214.751 242.42 214.911 241.793 214.911 241.1C214.911 240.407 214.751 239.78 214.431 239.22C214.111 238.66 213.677 238.22 213.131 237.9C212.584 237.567 211.984 237.4 211.331 237.4C210.677 237.4 210.077 237.567 209.531 237.9C208.984 238.22 208.551 238.66 208.231 239.22C207.911 239.78 207.751 240.407 207.751 241.1C207.751 241.793 207.911 242.42 208.231 242.98C208.551 243.54 208.984 243.987 209.531 244.32C210.077 244.64 210.677 244.8 211.331 244.8ZM223.633 246.2C222.726 246.2 221.886 245.98 221.113 245.54C220.353 245.087 219.746 244.473 219.293 243.7C218.839 242.913 218.613 242.047 218.613 241.1C218.613 240.153 218.839 239.293 219.293 238.52C219.746 237.733 220.353 237.12 221.113 236.68C221.886 236.227 222.726 236 223.633 236C224.699 236 225.659 236.293 226.513 236.88C227.379 237.467 227.986 238.273 228.333 239.3H226.733C226.439 238.7 226.013 238.233 225.453 237.9C224.893 237.567 224.286 237.4 223.633 237.4C223.006 237.4 222.426 237.567 221.893 237.9C221.359 238.22 220.939 238.66 220.633 239.22C220.326 239.78 220.173 240.407 220.173 241.1C220.173 241.793 220.326 242.42 220.633 242.98C220.939 243.54 221.359 243.987 221.893 244.32C222.426 244.64 223.006 244.8 223.633 244.8C224.286 244.8 224.893 244.633 225.453 244.3C226.013 243.967 226.439 243.5 226.733 242.9H228.333C227.986 243.927 227.379 244.733 226.513 245.32C225.659 245.907 224.699 246.2 223.633 246.2ZM234.846 246.2C233.912 246.2 233.052 245.98 232.266 245.54C231.492 245.087 230.872 244.473 230.406 243.7C229.952 242.913 229.726 242.047 229.726 241.1C229.726 240.153 229.952 239.293 230.406 238.52C230.872 237.733 231.492 237.12 232.266 236.68C233.052 236.227 233.912 236 234.846 236C235.779 236 236.632 236.227 237.406 236.68C238.192 237.12 238.812 237.733 239.266 238.52C239.732 239.293 239.966 240.153 239.966 241.1C239.966 242.047 239.732 242.913 239.266 243.7C238.812 244.473 238.192 245.087 237.406 245.54C236.632 245.98 235.779 246.2 234.846 246.2ZM234.846 244.8C235.499 244.8 236.092 244.64 236.626 244.32C237.172 243.987 237.606 243.54 237.926 242.98C238.246 242.42 238.406 241.793 238.406 241.1C238.406 240.407 238.246 239.78 237.926 239.22C237.606 238.66 237.172 238.22 236.626 237.9C236.092 237.567 235.499 237.4 234.846 237.4C234.192 237.4 233.592 237.567 233.046 237.9C232.512 238.22 232.086 238.66 231.766 239.22C231.446 239.78 231.286 240.407 231.286 241.1C231.286 241.793 231.446 242.42 231.766 242.98C232.086 243.54 232.512 243.987 233.046 244.32C233.592 244.64 234.192 244.8 234.846 244.8ZM248.362 240.78C248.895 240.967 249.308 241.273 249.602 241.7C249.895 242.127 250.042 242.627 250.042 243.2C250.042 244.027 249.728 244.7 249.102 245.22C248.475 245.74 247.628 246 246.562 246H242.262V236.2H246.262C247.275 236.2 248.075 236.44 248.662 236.92C249.248 237.4 249.542 238.027 249.542 238.8C249.542 239.2 249.428 239.58 249.202 239.94C248.988 240.3 248.708 240.58 248.362 240.78ZM243.762 237.6V240.22H246.202C246.775 240.22 247.215 240.1 247.522 239.86C247.828 239.607 247.982 239.287 247.982 238.9C247.982 238.527 247.828 238.22 247.522 237.98C247.228 237.727 246.808 237.6 246.262 237.6H243.762ZM246.562 244.6C247.162 244.6 247.628 244.467 247.962 244.2C248.308 243.933 248.482 243.567 248.482 243.1C248.482 242.62 248.308 242.247 247.962 241.98C247.615 241.713 247.128 241.58 246.502 241.58H243.762V244.6H246.562ZM252.94 248.66H251.54L252.64 244.06H254.44L252.94 248.66ZM268.948 240.78C269.481 240.967 269.894 241.273 270.188 241.7C270.481 242.127 270.628 242.627 270.628 243.2C270.628 244.027 270.314 244.7 269.688 245.22C269.061 245.74 268.214 246 267.148 246H262.848V236.2H266.848C267.861 236.2 268.661 236.44 269.248 236.92C269.834 237.4 270.128 238.027 270.128 238.8C270.128 239.2 270.014 239.58 269.788 239.94C269.574 240.3 269.294 240.58 268.948 240.78ZM264.348 237.6V240.22H266.788C267.361 240.22 267.801 240.1 268.108 239.86C268.414 239.607 268.568 239.287 268.568 238.9C268.568 238.527 268.414 238.22 268.108 237.98C267.814 237.727 267.394 237.6 266.848 237.6H264.348ZM267.148 244.6C267.748 244.6 268.214 244.467 268.548 244.2C268.894 243.933 269.068 243.567 269.068 243.1C269.068 242.62 268.894 242.247 268.548 241.98C268.201 241.713 267.714 241.58 267.088 241.58H264.348V244.6H267.148ZM278.026 236C278.919 236 279.752 236.227 280.526 236.68C281.299 237.12 281.912 237.733 282.366 238.52C282.819 239.293 283.046 240.153 283.046 241.1C283.046 242.047 282.819 242.913 282.366 243.7C281.912 244.473 281.299 245.087 280.526 245.54C279.752 245.98 278.919 246.2 278.026 246.2C277.292 246.2 276.612 246.047 275.986 245.74C275.359 245.433 274.839 245.02 274.426 244.5V250H272.926V236.2H274.426V237.7C274.839 237.18 275.359 236.767 275.986 236.46C276.612 236.153 277.292 236 278.026 236ZM277.926 244.8C278.579 244.8 279.172 244.64 279.706 244.32C280.252 243.987 280.686 243.54 281.006 242.98C281.326 242.42 281.486 241.793 281.486 241.1C281.486 240.407 281.326 239.78 281.006 239.22C280.686 238.66 280.252 238.22 279.706 237.9C279.172 237.567 278.579 237.4 277.926 237.4C277.272 237.4 276.666 237.567 276.106 237.9C275.559 238.22 275.126 238.66 274.806 239.22C274.486 239.78 274.326 240.407 274.326 241.1C274.326 241.793 274.486 242.42 274.806 242.98C275.126 243.54 275.559 243.987 276.106 244.32C276.666 244.64 277.272 244.8 277.926 244.8ZM289.568 236C290.461 236 291.274 236.207 292.008 236.62C292.754 237.02 293.341 237.593 293.768 238.34C294.194 239.073 294.408 239.913 294.408 240.86C294.408 241.18 294.394 241.427 294.368 241.6H286.228C286.321 242.573 286.661 243.353 287.248 243.94C287.848 244.513 288.621 244.8 289.568 244.8C290.954 244.8 291.954 244.233 292.568 243.1H294.168C293.768 244.1 293.174 244.867 292.388 245.4C291.601 245.933 290.661 246.2 289.568 246.2C288.648 246.2 287.808 245.98 287.048 245.54C286.301 245.087 285.714 244.473 285.288 243.7C284.861 242.927 284.648 242.06 284.648 241.1C284.648 240.14 284.861 239.273 285.288 238.5C285.714 237.727 286.301 237.12 287.048 236.68C287.808 236.227 288.648 236 289.568 236ZM289.568 237.4C288.688 237.4 287.954 237.653 287.368 238.16C286.794 238.667 286.434 239.36 286.288 240.24H292.828C292.734 239.387 292.381 238.7 291.768 238.18C291.168 237.66 290.434 237.4 289.568 237.4ZM307.217 236.2L308.017 246H306.517L306.077 238.92L302.577 246H301.857L298.337 238.86L297.877 246H296.417L297.217 236.2H298.497L302.237 243.82L305.977 236.2H307.217ZM318.116 236.18V246H316.616V242.34H314.836L311.816 246H310.016L313.116 242.28C312.33 242.133 311.69 241.787 311.196 241.24C310.716 240.693 310.476 240.033 310.476 239.26C310.476 238.673 310.616 238.147 310.896 237.68C311.19 237.213 311.59 236.847 312.096 236.58C312.616 236.313 313.19 236.18 313.816 236.18H318.116ZM316.616 240.94V237.58H313.916C313.356 237.58 312.903 237.733 312.556 238.04C312.21 238.333 312.036 238.74 312.036 239.26C312.036 239.78 312.21 240.193 312.556 240.5C312.903 240.793 313.356 240.94 313.916 240.94H316.616ZM202.6 260.78C203.133 260.967 203.547 261.273 203.84 261.7C204.133 262.127 204.28 262.627 204.28 263.2C204.28 264.027 203.967 264.7 203.34 265.22C202.713 265.74 201.867 266 200.8 266H196.5V256.2H200.5C201.513 256.2 202.313 256.44 202.9 256.92C203.487 257.4 203.78 258.027 203.78 258.8C203.78 259.2 203.667 259.58 203.44 259.94C203.227 260.3 202.947 260.58 202.6 260.78ZM198 257.6V260.22H200.44C201.013 260.22 201.453 260.1 201.76 259.86C202.067 259.607 202.22 259.287 202.22 258.9C202.22 258.527 202.067 258.22 201.76 257.98C201.467 257.727 201.047 257.6 200.5 257.6H198ZM200.8 264.6C201.4 264.6 201.867 264.467 202.2 264.2C202.547 263.933 202.72 263.567 202.72 263.1C202.72 262.62 202.547 262.247 202.2 261.98C201.853 261.713 201.367 261.58 200.74 261.58H198V264.6H200.8ZM215.284 261.02L220.264 266H218.224L213.684 261.4V266H212.184V256.2H213.684V260.74L218.004 256.2H219.924L215.284 261.02ZM225.783 266.2C224.85 266.2 223.99 265.98 223.203 265.54C222.43 265.087 221.81 264.473 221.343 263.7C220.89 262.913 220.663 262.047 220.663 261.1C220.663 260.153 220.89 259.293 221.343 258.52C221.81 257.733 222.43 257.12 223.203 256.68C223.99 256.227 224.85 256 225.783 256C226.717 256 227.57 256.227 228.343 256.68C229.13 257.12 229.75 257.733 230.203 258.52C230.67 259.293 230.903 260.153 230.903 261.1C230.903 262.047 230.67 262.913 230.203 263.7C229.75 264.473 229.13 265.087 228.343 265.54C227.57 265.98 226.717 266.2 225.783 266.2ZM225.783 264.8C226.437 264.8 227.03 264.64 227.563 264.32C228.11 263.987 228.543 263.54 228.863 262.98C229.183 262.42 229.343 261.793 229.343 261.1C229.343 260.407 229.183 259.78 228.863 259.22C228.543 258.66 228.11 258.22 227.563 257.9C227.03 257.567 226.437 257.4 225.783 257.4C225.13 257.4 224.53 257.567 223.983 257.9C223.45 258.22 223.023 258.66 222.703 259.22C222.383 259.78 222.223 260.407 222.223 261.1C222.223 261.793 222.383 262.42 222.703 262.98C223.023 263.54 223.45 263.987 223.983 264.32C224.53 264.64 225.13 264.8 225.783 264.8ZM239.299 260.78C239.833 260.967 240.246 261.273 240.539 261.7C240.833 262.127 240.979 262.627 240.979 263.2C240.979 264.027 240.666 264.7 240.039 265.22C239.413 265.74 238.566 266 237.499 266H233.199V256.2H237.199C238.213 256.2 239.013 256.44 239.599 256.92C240.186 257.4 240.479 258.027 240.479 258.8C240.479 259.2 240.366 259.58 240.139 259.94C239.926 260.3 239.646 260.58 239.299 260.78ZM234.699 257.6V260.22H237.139C237.713 260.22 238.153 260.1 238.459 259.86C238.766 259.607 238.919 259.287 238.919 258.9C238.919 258.527 238.766 258.22 238.459 257.98C238.166 257.727 237.746 257.6 237.199 257.6H234.699ZM237.499 264.6C238.099 264.6 238.566 264.467 238.899 264.2C239.246 263.933 239.419 263.567 239.419 263.1C239.419 262.62 239.246 262.247 238.899 261.98C238.553 261.713 238.066 261.58 237.439 261.58H234.699V264.6H237.499ZM247.697 266.2C246.764 266.2 245.904 265.98 245.117 265.54C244.344 265.087 243.724 264.473 243.257 263.7C242.804 262.913 242.577 262.047 242.577 261.1C242.577 260.153 242.804 259.293 243.257 258.52C243.724 257.733 244.344 257.12 245.117 256.68C245.904 256.227 246.764 256 247.697 256C248.631 256 249.484 256.227 250.257 256.68C251.044 257.12 251.664 257.733 252.117 258.52C252.584 259.293 252.817 260.153 252.817 261.1C252.817 262.047 252.584 262.913 252.117 263.7C251.664 264.473 251.044 265.087 250.257 265.54C249.484 265.98 248.631 266.2 247.697 266.2ZM247.697 264.8C248.351 264.8 248.944 264.64 249.477 264.32C250.024 263.987 250.457 263.54 250.777 262.98C251.097 262.42 251.257 261.793 251.257 261.1C251.257 260.407 251.097 259.78 250.777 259.22C250.457 258.66 250.024 258.22 249.477 257.9C248.944 257.567 248.351 257.4 247.697 257.4C247.044 257.4 246.444 257.567 245.897 257.9C245.364 258.22 244.937 258.66 244.617 259.22C244.297 259.78 244.137 260.407 244.137 261.1C244.137 261.793 244.297 262.42 244.617 262.98C244.937 263.54 245.364 263.987 245.897 264.32C246.444 264.64 247.044 264.8 247.697 264.8ZM260.213 256C261.107 256 261.94 256.227 262.713 256.68C263.487 257.12 264.1 257.733 264.553 258.52C265.007 259.293 265.233 260.153 265.233 261.1C265.233 262.047 265.007 262.913 264.553 263.7C264.1 264.473 263.487 265.087 262.713 265.54C261.94 265.98 261.107 266.2 260.213 266.2C259.48 266.2 258.8 266.047 258.173 265.74C257.547 265.433 257.027 265.02 256.613 264.5V270H255.113V256.2H256.613V257.7C257.027 257.18 257.547 256.767 258.173 256.46C258.8 256.153 259.48 256 260.213 256ZM260.113 264.8C260.767 264.8 261.36 264.64 261.893 264.32C262.44 263.987 262.873 263.54 263.193 262.98C263.513 262.42 263.673 261.793 263.673 261.1C263.673 260.407 263.513 259.78 263.193 259.22C262.873 258.66 262.44 258.22 261.893 257.9C261.36 257.567 260.767 257.4 260.113 257.4C259.46 257.4 258.853 257.567 258.293 257.9C257.747 258.22 257.313 258.66 256.993 259.22C256.673 259.78 256.513 260.407 256.513 261.1C256.513 261.793 256.673 262.42 256.993 262.98C257.313 263.54 257.747 263.987 258.293 264.32C258.853 264.64 259.46 264.8 260.113 264.8ZM270.635 261.02L275.615 266H273.575L269.035 261.4V266H267.535V256.2H269.035V260.74L273.355 256.2H275.275L270.635 261.02ZM278.723 263.58L284.623 256.2H285.823V266H284.323V258.62L278.423 266H277.223V256.2H278.723V263.58ZM295.824 260.3V256.2H297.324V266H295.824V261.7H290.324V266H288.824V256.2H290.324V260.3H295.824ZM301.828 266H300.328V256.2H306.528V257.6H301.828V266ZM312.243 256C313.137 256 313.95 256.207 314.683 256.62C315.43 257.02 316.017 257.593 316.443 258.34C316.87 259.073 317.083 259.913 317.083 260.86C317.083 261.18 317.07 261.427 317.043 261.6H308.903C308.997 262.573 309.337 263.353 309.923 263.94C310.523 264.513 311.297 264.8 312.243 264.8C313.63 264.8 314.63 264.233 315.243 263.1H316.843C316.443 264.1 315.85 264.867 315.063 265.4C314.277 265.933 313.337 266.2 312.243 266.2C311.323 266.2 310.483 265.98 309.723 265.54C308.977 265.087 308.39 264.473 307.963 263.7C307.537 262.927 307.323 262.06 307.323 261.1C307.323 260.14 307.537 259.273 307.963 258.5C308.39 257.727 308.977 257.12 309.723 256.68C310.483 256.227 311.323 256 312.243 256ZM312.243 257.4C311.363 257.4 310.63 257.653 310.043 258.16C309.47 258.667 309.11 259.36 308.963 260.24H315.503C315.41 259.387 315.057 258.7 314.443 258.18C313.843 257.66 313.11 257.4 312.243 257.4Z" fill="white"/>
<path d="M284.76 57.584C294.349 57.584 303.243 59.9813 311.44 64.776C319.792 69.5707 326.443 76.144 331.392 84.496C336.341 92.848 338.816 102.051 338.816 112.104C338.816 122.312 336.264 131.669 331.16 140.176C326.056 148.528 319.019 155.179 310.048 160.128C301.077 165.077 291.179 167.552 280.352 167.552C269.525 167.552 259.627 165.077 250.656 160.128C241.84 155.179 234.88 148.528 229.776 140.176C224.672 131.669 222.12 122.312 222.12 112.104C222.12 105.763 223.203 99.576 225.368 93.544C227.533 87.3573 231.323 80.088 236.736 71.736L281.512 2.59999H310.744L273.392 58.976C276.795 58.048 280.584 57.584 284.76 57.584ZM280.352 144.352C286.384 144.352 291.797 142.96 296.592 140.176C301.541 137.237 305.408 133.293 308.192 128.344C311.131 123.395 312.6 117.981 312.6 112.104C312.6 102.979 309.507 95.3227 303.32 89.136C297.133 82.7947 289.477 79.624 280.352 79.624C274.475 79.624 269.061 81.0933 264.112 84.032C259.163 86.816 255.296 90.6827 252.512 95.632C249.728 100.581 248.336 106.072 248.336 112.104C248.336 117.981 249.728 123.395 252.512 128.344C255.296 133.293 259.163 137.237 264.112 140.176C269.061 142.96 274.475 144.352 280.352 144.352Z" fill="white"/>
</svg>
