<svg width="30" height="29" viewBox="0 0 30 29" fill="none" xmlns="http://www.w3.org/2000/svg">
<path d="M29.7176 14.0349C29.7262 21.7748 23.1941 28.0029 15.0463 28.0228C6.96747 28.0427 0.344189 21.7431 0.342957 14.0384C0.341724 6.25975 6.87997 0.0105694 15.0303 1.33462e-05C23.1658 -0.0105427 29.709 6.24216 29.7176 14.0337V14.0349ZM17.9771 11.1883C18.0461 11.2586 18.1151 11.3302 18.1842 11.4005C17.982 11.6715 17.8181 11.9811 17.5716 12.2087C16.1432 13.5282 14.695 14.8266 13.2568 16.1367C12.6578 16.6821 12.6627 17.109 13.3233 17.5887C14.0899 18.1447 14.8738 18.6807 15.6786 19.1839C16.6189 19.7727 17.5531 20.3896 18.5576 20.8611C19.6397 21.369 20.2658 20.969 20.4519 19.836C20.8808 17.2146 21.3307 14.5967 21.7546 11.9741C21.9259 10.9138 22.0837 9.84998 22.1848 8.78265C22.2439 8.16218 21.942 7.91705 21.29 7.98742C20.9523 8.02378 20.6171 8.14694 20.2978 8.27244C15.9398 9.98017 11.5855 11.6938 7.23122 13.4097C6.81588 13.5739 6.38698 13.7287 6.01108 13.9563C5.81635 14.0736 5.59574 14.3586 5.62039 14.5392C5.6438 14.7198 5.9322 14.9357 6.15158 15.0119C6.99705 15.3063 7.85855 15.5632 8.72128 15.8118C9.57168 16.0558 10.3494 15.9596 11.111 15.4529C12.9597 14.2214 14.8417 13.0356 16.72 11.8451C17.1168 11.5941 17.5568 11.4064 17.9771 11.1894V11.1883Z" fill="white"/>
<path d="M17.9789 11.1895C17.5587 11.4065 17.1174 11.5942 16.7218 11.8452C14.8435 13.0345 12.9616 14.2215 11.1129 15.453C10.3512 15.9597 9.5735 16.0559 8.7231 15.8119C7.86037 15.5644 6.99888 15.3076 6.1534 15.012C5.93402 14.9357 5.64563 14.7188 5.62221 14.5393C5.59879 14.3587 5.81817 14.0737 6.0129 13.9564C6.38881 13.7288 6.8177 13.574 7.23305 13.4098C11.5874 11.6939 15.9417 9.98027 20.2997 8.27253C20.6189 8.14821 20.9529 8.02505 21.2918 7.98752C21.9438 7.91597 22.2457 8.16228 22.1866 8.78274C22.0855 9.85008 21.9278 10.9139 21.7565 11.9742C21.3325 14.5968 20.8839 17.2147 20.4537 19.8361C20.2676 20.9703 19.6415 21.3702 18.5594 20.8612C17.5537 20.3897 16.6208 19.7728 15.6804 19.184C14.8756 18.6796 14.0917 18.1436 13.3251 17.5888C12.6645 17.1103 12.6596 16.6822 13.2586 16.1368C14.6969 14.8278 16.1463 13.5283 17.5735 12.2088C17.8199 11.9812 17.9839 11.6728 18.186 11.4006C18.117 11.3303 18.048 11.2587 17.9789 11.1883V11.1895Z" fill="#0029FF"/>
</svg>
