<svg width="31" height="29" viewBox="0 0 31 29" fill="none" xmlns="http://www.w3.org/2000/svg">
<path d="M15.6024 0.117897C23.9659 0.279756 30.4031 6.85735 30.0518 14.7533C29.7154 22.3231 22.8431 28.3577 15.0342 28.0774C6.98495 27.7877 0.463955 21.5479 0.725239 13.6425C0.98036 5.93311 7.6135 0.0428317 15.6011 0.117897H15.6024ZM7.82426 21.3004C9.05303 20.9896 10.1659 20.6811 11.2937 20.4383C11.6387 20.3644 12.0652 20.3843 12.3893 20.511C13.8732 21.0904 15.3879 21.2898 16.9605 20.9755C21.2606 20.1157 23.8562 16.0341 22.6619 12.0275C21.4985 8.1229 17.032 5.91669 13.0092 7.25965C8.87432 8.64015 6.86047 13.001 8.61304 16.8387C8.82502 17.302 8.8583 17.6961 8.7067 18.1723C8.38996 19.1704 8.13361 20.1849 7.82302 21.3004H7.82426Z" fill="white"/>
<path d="M7.82426 21.3004C8.13484 20.1861 8.39155 19.1712 8.70829 18.1731C8.85865 17.6969 8.82538 17.3028 8.61462 16.8395C6.86205 13.0018 8.87591 8.64095 13.0108 7.26046C17.0336 5.91749 21.5001 8.12371 22.6635 12.0283C23.8578 16.0361 21.2622 20.1165 16.9621 20.9763C15.3895 21.2906 13.8748 21.0912 12.3909 20.5118C12.0668 20.3851 11.6403 20.364 11.2952 20.4391C10.1663 20.6819 9.05338 20.9904 7.82585 21.3012L7.82426 21.3004ZM9.8816 19.3495C10.3549 19.2298 10.7 19.1735 11.0204 19.0563C11.7081 18.8064 12.2985 18.8827 12.9837 19.204C15.1726 20.2338 17.8335 19.7788 19.5935 18.1789C21.4261 16.5111 22.0017 14.0281 21.0601 11.843C19.7401 8.77935 15.9823 7.38244 12.8839 8.80516C9.7029 10.2654 8.50494 13.8463 10.1799 16.7996C10.3327 17.0682 10.3401 17.4553 10.2945 17.7719C10.223 18.2634 10.048 18.7407 9.88284 19.3483L9.8816 19.3495Z" fill="#0029FF"/>
<path d="M9.8816 19.3495C10.0468 18.7431 10.2213 18.264 10.2928 17.7726C10.3384 17.4559 10.331 17.0688 10.1782 16.8002C8.50325 13.8457 9.70121 10.266 12.8822 8.80577C15.9806 7.38305 19.7397 8.77997 21.0584 11.8436C22 14.0287 21.4244 16.5117 19.5918 18.1795C17.833 19.7794 15.1721 20.2345 12.982 19.2047C12.2968 18.8821 11.7052 18.807 11.0187 19.0569C10.6983 19.173 10.3532 19.2305 9.87992 19.3501L9.8816 19.3495ZM11.8026 12.3878C11.8802 12.6752 11.911 12.9965 12.0491 13.2686C13.0424 15.2321 14.5916 16.602 16.8569 17.0958C17.3253 17.1978 17.9045 17.043 18.3753 16.8682C18.8461 16.6935 19.1986 16.256 19.0815 15.7493C18.9299 15.096 18.2459 14.9459 17.6876 14.7394C17.2156 14.5647 16.9087 14.852 16.7029 15.2239C16.502 15.5863 16.2468 15.5921 15.8944 15.4232C15.0698 15.0292 14.3871 14.4849 13.9089 13.7354C13.8177 13.5924 13.7918 13.2804 13.8879 13.183C14.4265 12.6364 14.2983 12.0922 13.9791 11.5187C13.7782 11.1574 13.6229 10.7364 13.0905 10.7457C12.5236 10.7551 12.208 11.1199 12.0096 11.5703C11.9012 11.8154 11.8753 12.0922 11.8038 12.389L11.8026 12.3878Z" fill="white"/>
<path d="M11.8038 12.389C11.8753 12.0934 11.9012 11.8154 12.0096 11.5703C12.208 11.1211 12.5248 10.7563 13.0905 10.7457C13.6229 10.7364 13.7782 11.1574 13.9791 11.5187C14.2983 12.0922 14.4265 12.6364 13.8879 13.183C13.7918 13.2815 13.8177 13.5935 13.9089 13.7354C14.3883 14.4838 15.0698 15.0292 15.8944 15.4232C16.2481 15.5921 16.502 15.5863 16.7029 15.2239C16.9087 14.852 17.2168 14.5647 17.6876 14.7394C18.2471 14.9459 18.9299 15.096 19.0815 15.7493C19.1986 16.2548 18.8449 16.6923 18.3753 16.8682C17.9045 17.043 17.3253 17.1978 16.8569 17.0958C14.5929 16.6032 13.0424 15.2321 12.0491 13.2686C11.911 12.9965 11.8802 12.6752 11.8026 12.3878L11.8038 12.389Z" fill="#0029FF"/>
</svg>
