<svg width="30" height="28" viewBox="0 0 30 28" fill="none" xmlns="http://www.w3.org/2000/svg">
<path d="M14.6653 0.00017914C22.5901 -0.0385264 29.3046 6.2001 29.3428 13.6386C29.3847 21.6694 22.9968 27.9033 14.6973 27.9291C6.68261 27.9538 0.0371417 21.7116 0.00016763 14.123C-0.0380389 6.29745 6.45953 0.0400576 14.6641 0.00017914H14.6653ZM14.6961 6.69858C13.6313 6.69858 12.5664 6.68568 11.5016 6.70093C9.08715 6.73729 7.08686 8.61274 7.04865 10.9151C7.01538 12.9419 7.01661 14.9687 7.04865 16.9954C7.08439 19.3248 9.1118 21.2073 11.5533 21.2167C13.6424 21.2249 15.7314 21.2261 17.8204 21.2167C20.0709 21.2049 22.0971 19.5699 22.2388 17.4376C22.3843 15.2455 22.42 13.031 22.2844 10.8401C22.1254 8.26088 20.188 6.70093 17.4618 6.69975C16.5399 6.69975 15.618 6.69975 14.6973 6.69975L14.6961 6.69858Z" fill="white"/>
<path d="M14.6961 6.69858C15.618 6.69858 16.5392 6.69823 17.4598 6.69823C20.1861 6.69941 22.1235 8.25936 22.2825 10.8386C22.4181 13.0307 22.3823 15.2439 22.2369 17.4361C22.0951 19.5684 20.0702 21.2034 17.8185 21.2151C15.7295 21.2257 13.6404 21.2234 11.5514 21.2151C9.10986 21.2058 7.08122 19.3233 7.04671 16.9939C7.0159 14.9671 7.01467 12.9404 7.04671 10.9136C7.08492 8.61123 9.08522 6.73577 11.4996 6.69941C12.5645 6.68299 13.6293 6.69706 14.6942 6.69706L14.6961 6.69858ZM14.6819 8.10219C13.7193 8.10219 12.7567 8.10219 11.7942 8.10219C9.90234 8.10454 8.53677 9.30558 8.49609 11.0896C8.45296 12.999 8.45419 14.9097 8.49486 16.8191C8.53307 18.6102 9.89125 19.8135 11.7819 19.8147C13.7476 19.8147 15.7147 19.8182 17.6804 19.8147C19.4379 19.8112 20.8183 18.5703 20.8504 16.8895C20.8886 14.9413 20.8861 12.9908 20.8504 11.0426C20.8195 9.33725 19.4392 8.10688 17.6324 8.10219C16.6489 8.09984 15.6666 8.10219 14.6831 8.10219H14.6819Z" fill="#0029FF"/>
<path d="M14.6819 8.10219C15.6654 8.10219 16.6476 8.0996 17.6311 8.10195C19.4379 8.10664 20.8183 9.33584 20.8491 11.0424C20.8848 12.9906 20.8873 14.9411 20.8491 16.8893C20.817 18.57 19.4367 19.811 17.6792 19.8145C15.7134 19.818 13.7464 19.8156 11.7806 19.8145C9.88996 19.8145 8.53178 18.6099 8.49357 16.8189C8.4529 14.9094 8.45167 12.9988 8.49481 11.0893C8.53548 9.30534 9.90105 8.1043 11.7929 8.10195C12.7554 8.10195 13.718 8.10195 14.6806 8.10195L14.6819 8.10219ZM10.9745 13.9477C10.9708 15.9557 12.6445 17.5531 14.741 17.5461C16.8349 17.5391 18.5394 15.9146 18.5222 13.943C18.5061 11.9924 16.8177 10.3844 14.7656 10.3633C12.6852 10.3422 10.9782 11.9561 10.9745 13.9477ZM18.6787 9.28775C18.1771 9.30182 17.8073 9.67597 17.8135 10.1651C17.8197 10.6354 18.2288 11.0248 18.7132 11.0213C19.1926 11.0178 19.624 10.6108 19.6277 10.1616C19.6314 9.67011 19.2013 9.27367 18.6787 9.28892V9.28775Z" fill="white"/>
<path d="M10.9742 13.9492C10.9779 11.9577 12.6848 10.3438 14.7652 10.3649C16.8185 10.386 18.5058 11.9928 18.5218 13.9445C18.5378 15.9162 16.8333 17.5406 14.7406 17.5477C12.6442 17.5547 10.9705 15.9572 10.9742 13.9492ZM14.7283 16.2141C16.063 16.2141 17.1156 15.2289 17.1205 13.9715C17.1254 12.7212 16.0692 11.709 14.748 11.7008C13.4292 11.6926 12.373 12.6872 12.3595 13.9516C12.3459 15.2054 13.4009 16.2141 14.7283 16.2141Z" fill="#0029FF"/>
<path d="M18.6778 9.28665C19.2004 9.27257 19.6293 9.66799 19.6268 10.1596C19.6231 10.609 19.1918 11.0162 18.7123 11.0197C18.228 11.0232 17.8176 10.6337 17.8126 10.1631C17.8065 9.67386 18.1762 9.29956 18.6778 9.28548V9.28665Z" fill="#0029FF"/>
<path d="M14.729 16.2114C13.4016 16.2114 12.3466 15.2027 12.3602 13.9489C12.3738 12.6833 13.43 11.6887 14.7487 11.6981C16.0699 11.7063 17.1262 12.7185 17.1212 13.9688C17.1163 15.2261 16.0638 16.2125 14.729 16.2114Z" fill="white"/>
</svg>
