<svg width="426" height="367" viewBox="0 0 426 367" fill="none" xmlns="http://www.w3.org/2000/svg">
<rect x="30" width="396" height="337" rx="38" fill="white"/>
<g filter="url(#filter0_f_10_566)">
<rect x="61" y="207" width="116" height="99" rx="26" fill="#0029FF"/>
</g>
<rect x="240" y="250" width="155" height="56" rx="20" fill="black"/>
<path d="M263.4 265.2H264.9V275H263.4V271.1C262.707 271.433 261.92 271.6 261.04 271.6C259.813 271.6 258.847 271.26 258.14 270.58C257.447 269.9 257.1 268.94 257.1 267.7V265.2H258.6V267.7C258.6 268.5 258.793 269.12 259.18 269.56C259.567 269.987 260.22 270.2 261.14 270.2C261.873 270.2 262.627 270.033 263.4 269.7V265.2ZM275.811 265.2H277.311V275H275.811V273.5C275.397 274.02 274.877 274.433 274.251 274.74C273.624 275.047 272.944 275.2 272.211 275.2C271.317 275.2 270.484 274.98 269.711 274.54C268.937 274.087 268.324 273.473 267.871 272.7C267.417 271.913 267.191 271.047 267.191 270.1C267.191 269.153 267.417 268.293 267.871 267.52C268.324 266.733 268.937 266.12 269.711 265.68C270.484 265.227 271.317 265 272.211 265C272.944 265 273.624 265.153 274.251 265.46C274.877 265.767 275.397 266.18 275.811 266.7V265.2ZM272.331 273.8C272.984 273.8 273.584 273.64 274.131 273.32C274.677 272.987 275.111 272.54 275.431 271.98C275.751 271.42 275.911 270.793 275.911 270.1C275.911 269.407 275.751 268.78 275.431 268.22C275.111 267.66 274.677 267.22 274.131 266.9C273.584 266.567 272.984 266.4 272.331 266.4C271.677 266.4 271.077 266.567 270.531 266.9C269.984 267.22 269.551 267.66 269.231 268.22C268.911 268.78 268.751 269.407 268.751 270.1C268.751 270.793 268.911 271.42 269.231 271.98C269.551 272.54 269.984 272.987 270.531 273.32C271.077 273.64 271.677 273.8 272.331 273.8ZM284.633 275.2C283.726 275.2 282.886 274.98 282.113 274.54C281.353 274.087 280.746 273.473 280.293 272.7C279.839 271.913 279.613 271.047 279.613 270.1C279.613 269.153 279.839 268.293 280.293 267.52C280.746 266.733 281.353 266.12 282.113 265.68C282.886 265.227 283.726 265 284.633 265C285.699 265 286.659 265.293 287.513 265.88C288.379 266.467 288.986 267.273 289.333 268.3H287.733C287.439 267.7 287.013 267.233 286.453 266.9C285.893 266.567 285.286 266.4 284.633 266.4C284.006 266.4 283.426 266.567 282.893 266.9C282.359 267.22 281.939 267.66 281.633 268.22C281.326 268.78 281.173 269.407 281.173 270.1C281.173 270.793 281.326 271.42 281.633 271.98C281.939 272.54 282.359 272.987 282.893 273.32C283.426 273.64 284.006 273.8 284.633 273.8C285.286 273.8 285.893 273.633 286.453 273.3C287.013 272.967 287.439 272.5 287.733 271.9H289.333C288.986 272.927 288.379 273.733 287.513 274.32C286.659 274.907 285.699 275.2 284.633 275.2ZM299.346 265.2H300.846V275H299.346V273.5C298.932 274.02 298.412 274.433 297.786 274.74C297.159 275.047 296.479 275.2 295.746 275.2C294.852 275.2 294.019 274.98 293.246 274.54C292.472 274.087 291.859 273.473 291.406 272.7C290.952 271.913 290.726 271.047 290.726 270.1C290.726 269.153 290.952 268.293 291.406 267.52C291.859 266.733 292.472 266.12 293.246 265.68C294.019 265.227 294.852 265 295.746 265C296.479 265 297.159 265.153 297.786 265.46C298.412 265.767 298.932 266.18 299.346 266.7V265.2ZM295.866 273.8C296.519 273.8 297.119 273.64 297.666 273.32C298.212 272.987 298.646 272.54 298.966 271.98C299.286 271.42 299.446 270.793 299.446 270.1C299.446 269.407 299.286 268.78 298.966 268.22C298.646 267.66 298.212 267.22 297.666 266.9C297.119 266.567 296.519 266.4 295.866 266.4C295.212 266.4 294.612 266.567 294.066 266.9C293.519 267.22 293.086 267.66 292.766 268.22C292.446 268.78 292.286 269.407 292.286 270.1C292.286 270.793 292.446 271.42 292.766 271.98C293.086 272.54 293.519 272.987 294.066 273.32C294.612 273.64 295.212 273.8 295.866 273.8ZM304.448 277.66H303.048L304.148 273.06H305.948L304.448 277.66ZM320.455 269.78C320.989 269.967 321.402 270.273 321.695 270.7C321.989 271.127 322.135 271.627 322.135 272.2C322.135 273.027 321.822 273.7 321.195 274.22C320.569 274.74 319.722 275 318.655 275H314.355V265.2H318.355C319.369 265.2 320.169 265.44 320.755 265.92C321.342 266.4 321.635 267.027 321.635 267.8C321.635 268.2 321.522 268.58 321.295 268.94C321.082 269.3 320.802 269.58 320.455 269.78ZM315.855 266.6V269.22H318.295C318.869 269.22 319.309 269.1 319.615 268.86C319.922 268.607 320.075 268.287 320.075 267.9C320.075 267.527 319.922 267.22 319.615 266.98C319.322 266.727 318.902 266.6 318.355 266.6H315.855ZM318.655 273.6C319.255 273.6 319.722 273.467 320.055 273.2C320.402 272.933 320.575 272.567 320.575 272.1C320.575 271.62 320.402 271.247 320.055 270.98C319.709 270.713 319.222 270.58 318.595 270.58H315.855V273.6H318.655ZM329.534 265C330.427 265 331.26 265.227 332.034 265.68C332.807 266.12 333.42 266.733 333.874 267.52C334.327 268.293 334.554 269.153 334.554 270.1C334.554 271.047 334.327 271.913 333.874 272.7C333.42 273.473 332.807 274.087 332.034 274.54C331.26 274.98 330.427 275.2 329.534 275.2C328.8 275.2 328.12 275.047 327.494 274.74C326.867 274.433 326.347 274.02 325.934 273.5V279H324.434V265.2H325.934V266.7C326.347 266.18 326.867 265.767 327.494 265.46C328.12 265.153 328.8 265 329.534 265ZM329.434 273.8C330.087 273.8 330.68 273.64 331.214 273.32C331.76 272.987 332.194 272.54 332.514 271.98C332.834 271.42 332.994 270.793 332.994 270.1C332.994 269.407 332.834 268.78 332.514 268.22C332.194 267.66 331.76 267.22 331.214 266.9C330.68 266.567 330.087 266.4 329.434 266.4C328.78 266.4 328.174 266.567 327.614 266.9C327.067 267.22 326.634 267.66 326.314 268.22C325.994 268.78 325.834 269.407 325.834 270.1C325.834 270.793 325.994 271.42 326.314 271.98C326.634 272.54 327.067 272.987 327.614 273.32C328.174 273.64 328.78 273.8 329.434 273.8ZM341.075 265C341.969 265 342.782 265.207 343.515 265.62C344.262 266.02 344.849 266.593 345.275 267.34C345.702 268.073 345.915 268.913 345.915 269.86C345.915 270.18 345.902 270.427 345.875 270.6H337.735C337.829 271.573 338.169 272.353 338.755 272.94C339.355 273.513 340.129 273.8 341.075 273.8C342.462 273.8 343.462 273.233 344.075 272.1H345.675C345.275 273.1 344.682 273.867 343.895 274.4C343.109 274.933 342.169 275.2 341.075 275.2C340.155 275.2 339.315 274.98 338.555 274.54C337.809 274.087 337.222 273.473 336.795 272.7C336.369 271.927 336.155 271.06 336.155 270.1C336.155 269.14 336.369 268.273 336.795 267.5C337.222 266.727 337.809 266.12 338.555 265.68C339.315 265.227 340.155 265 341.075 265ZM341.075 266.4C340.195 266.4 339.462 266.653 338.875 267.16C338.302 267.667 337.942 268.36 337.795 269.24H344.335C344.242 268.387 343.889 267.7 343.275 267.18C342.675 266.66 341.942 266.4 341.075 266.4ZM358.725 265.2L359.525 275H358.025L357.585 267.92L354.085 275H353.365L349.845 267.86L349.385 275H347.925L348.725 265.2H350.005L353.745 272.82L357.485 265.2H358.725ZM369.624 265.18V275H368.124V271.34H366.344L363.324 275H361.524L364.624 271.28C363.838 271.133 363.198 270.787 362.704 270.24C362.224 269.693 361.984 269.033 361.984 268.26C361.984 267.673 362.124 267.147 362.404 266.68C362.698 266.213 363.098 265.847 363.604 265.58C364.124 265.313 364.698 265.18 365.324 265.18H369.624ZM368.124 269.94V266.58H365.424C364.864 266.58 364.411 266.733 364.064 267.04C363.718 267.333 363.544 267.74 363.544 268.26C363.544 268.78 363.718 269.193 364.064 269.5C364.411 269.793 364.864 269.94 365.424 269.94H368.124ZM263.6 289.78C264.133 289.967 264.547 290.273 264.84 290.7C265.133 291.127 265.28 291.627 265.28 292.2C265.28 293.027 264.967 293.7 264.34 294.22C263.713 294.74 262.867 295 261.8 295H257.5V285.2H261.5C262.513 285.2 263.313 285.44 263.9 285.92C264.487 286.4 264.78 287.027 264.78 287.8C264.78 288.2 264.667 288.58 264.44 288.94C264.227 289.3 263.947 289.58 263.6 289.78ZM259 286.6V289.22H261.44C262.013 289.22 262.453 289.1 262.76 288.86C263.067 288.607 263.22 288.287 263.22 287.9C263.22 287.527 263.067 287.22 262.76 286.98C262.467 286.727 262.047 286.6 261.5 286.6H259ZM261.8 293.6C262.4 293.6 262.867 293.467 263.2 293.2C263.547 292.933 263.72 292.567 263.72 292.1C263.72 291.62 263.547 291.247 263.2 290.98C262.853 290.713 262.367 290.58 261.74 290.58H259V293.6H261.8ZM276.284 290.02L281.264 295H279.224L274.684 290.4V295H273.184V285.2H274.684V289.74L279.004 285.2H280.924L276.284 290.02ZM286.783 295.2C285.85 295.2 284.99 294.98 284.203 294.54C283.43 294.087 282.81 293.473 282.343 292.7C281.89 291.913 281.663 291.047 281.663 290.1C281.663 289.153 281.89 288.293 282.343 287.52C282.81 286.733 283.43 286.12 284.203 285.68C284.99 285.227 285.85 285 286.783 285C287.717 285 288.57 285.227 289.343 285.68C290.13 286.12 290.75 286.733 291.203 287.52C291.67 288.293 291.903 289.153 291.903 290.1C291.903 291.047 291.67 291.913 291.203 292.7C290.75 293.473 290.13 294.087 289.343 294.54C288.57 294.98 287.717 295.2 286.783 295.2ZM286.783 293.8C287.437 293.8 288.03 293.64 288.563 293.32C289.11 292.987 289.543 292.54 289.863 291.98C290.183 291.42 290.343 290.793 290.343 290.1C290.343 289.407 290.183 288.78 289.863 288.22C289.543 287.66 289.11 287.22 288.563 286.9C288.03 286.567 287.437 286.4 286.783 286.4C286.13 286.4 285.53 286.567 284.983 286.9C284.45 287.22 284.023 287.66 283.703 288.22C283.383 288.78 283.223 289.407 283.223 290.1C283.223 290.793 283.383 291.42 283.703 291.98C284.023 292.54 284.45 292.987 284.983 293.32C285.53 293.64 286.13 293.8 286.783 293.8ZM300.299 289.78C300.833 289.967 301.246 290.273 301.539 290.7C301.833 291.127 301.979 291.627 301.979 292.2C301.979 293.027 301.666 293.7 301.039 294.22C300.413 294.74 299.566 295 298.499 295H294.199V285.2H298.199C299.213 285.2 300.013 285.44 300.599 285.92C301.186 286.4 301.479 287.027 301.479 287.8C301.479 288.2 301.366 288.58 301.139 288.94C300.926 289.3 300.646 289.58 300.299 289.78ZM295.699 286.6V289.22H298.139C298.713 289.22 299.153 289.1 299.459 288.86C299.766 288.607 299.919 288.287 299.919 287.9C299.919 287.527 299.766 287.22 299.459 286.98C299.166 286.727 298.746 286.6 298.199 286.6H295.699ZM298.499 293.6C299.099 293.6 299.566 293.467 299.899 293.2C300.246 292.933 300.419 292.567 300.419 292.1C300.419 291.62 300.246 291.247 299.899 290.98C299.553 290.713 299.066 290.58 298.439 290.58H295.699V293.6H298.499ZM308.697 295.2C307.764 295.2 306.904 294.98 306.117 294.54C305.344 294.087 304.724 293.473 304.257 292.7C303.804 291.913 303.577 291.047 303.577 290.1C303.577 289.153 303.804 288.293 304.257 287.52C304.724 286.733 305.344 286.12 306.117 285.68C306.904 285.227 307.764 285 308.697 285C309.631 285 310.484 285.227 311.257 285.68C312.044 286.12 312.664 286.733 313.117 287.52C313.584 288.293 313.817 289.153 313.817 290.1C313.817 291.047 313.584 291.913 313.117 292.7C312.664 293.473 312.044 294.087 311.257 294.54C310.484 294.98 309.631 295.2 308.697 295.2ZM308.697 293.8C309.351 293.8 309.944 293.64 310.477 293.32C311.024 292.987 311.457 292.54 311.777 291.98C312.097 291.42 312.257 290.793 312.257 290.1C312.257 289.407 312.097 288.78 311.777 288.22C311.457 287.66 311.024 287.22 310.477 286.9C309.944 286.567 309.351 286.4 308.697 286.4C308.044 286.4 307.444 286.567 306.897 286.9C306.364 287.22 305.937 287.66 305.617 288.22C305.297 288.78 305.137 289.407 305.137 290.1C305.137 290.793 305.297 291.42 305.617 291.98C305.937 292.54 306.364 292.987 306.897 293.32C307.444 293.64 308.044 293.8 308.697 293.8ZM321.213 285C322.107 285 322.94 285.227 323.713 285.68C324.487 286.12 325.1 286.733 325.553 287.52C326.007 288.293 326.233 289.153 326.233 290.1C326.233 291.047 326.007 291.913 325.553 292.7C325.1 293.473 324.487 294.087 323.713 294.54C322.94 294.98 322.107 295.2 321.213 295.2C320.48 295.2 319.8 295.047 319.173 294.74C318.547 294.433 318.027 294.02 317.613 293.5V299H316.113V285.2H317.613V286.7C318.027 286.18 318.547 285.767 319.173 285.46C319.8 285.153 320.48 285 321.213 285ZM321.113 293.8C321.767 293.8 322.36 293.64 322.893 293.32C323.44 292.987 323.873 292.54 324.193 291.98C324.513 291.42 324.673 290.793 324.673 290.1C324.673 289.407 324.513 288.78 324.193 288.22C323.873 287.66 323.44 287.22 322.893 286.9C322.36 286.567 321.767 286.4 321.113 286.4C320.46 286.4 319.853 286.567 319.293 286.9C318.747 287.22 318.313 287.66 317.993 288.22C317.673 288.78 317.513 289.407 317.513 290.1C317.513 290.793 317.673 291.42 317.993 291.98C318.313 292.54 318.747 292.987 319.293 293.32C319.853 293.64 320.46 293.8 321.113 293.8ZM331.635 290.02L336.615 295H334.575L330.035 290.4V295H328.535V285.2H330.035V289.74L334.355 285.2H336.275L331.635 290.02ZM339.723 292.58L345.623 285.2H346.823V295H345.323V287.62L339.423 295H338.223V285.2H339.723V292.58ZM356.824 289.3V285.2H358.324V295H356.824V290.7H351.324V295H349.824V285.2H351.324V289.3H356.824ZM362.828 295H361.328V285.2H367.528V286.6H362.828V295ZM373.243 285C374.137 285 374.95 285.207 375.683 285.62C376.43 286.02 377.017 286.593 377.443 287.34C377.87 288.073 378.083 288.913 378.083 289.86C378.083 290.18 378.07 290.427 378.043 290.6H369.903C369.997 291.573 370.337 292.353 370.923 292.94C371.523 293.513 372.297 293.8 373.243 293.8C374.63 293.8 375.63 293.233 376.243 292.1H377.843C377.443 293.1 376.85 293.867 376.063 294.4C375.277 294.933 374.337 295.2 373.243 295.2C372.323 295.2 371.483 294.98 370.723 294.54C369.977 294.087 369.39 293.473 368.963 292.7C368.537 291.927 368.323 291.06 368.323 290.1C368.323 289.14 368.537 288.273 368.963 287.5C369.39 286.727 369.977 286.12 370.723 285.68C371.483 285.227 372.323 285 373.243 285ZM373.243 286.4C372.363 286.4 371.63 286.653 371.043 287.16C370.47 287.667 370.11 288.36 369.963 289.24H376.503C376.41 288.387 376.057 287.7 375.443 287.18C374.843 286.66 374.11 286.4 373.243 286.4Z" fill="white"/>
<path d="M72.2 64L81.3 48.15H72.95L63.8 64H60.75L69.9 48.15H60.75V45.4H65.85L74.5 30.5H77.55L68.9 45.4H77.3L85.9 30.5H89L80.35 45.4H89.9V48.15H84.4L75.25 64H72.2ZM118.62 62.6C116.57 63.75 115.12 64 113.22 64H96.1699V61H101.47C102.77 61 103.42 60.55 104.02 59.5L116.92 36.85C117.97 35 117.27 33.3 115.17 33.3H97.5199V30.5H113.72C118.72 30.5 121.32 35 118.82 39.35L108.62 57.2C107.72 58.8 106.77 60.05 105.72 61H113.37C115.07 61 115.67 60.9 117.47 59.9L125.17 55.55V58.9L118.62 62.6Z" fill="#0029FF"/>
<path d="M325.72 168.944H395.552V194H284.656V177.76L346.832 111.176C353.947 103.752 358.741 97.488 361.216 92.384C363.845 87.28 365.16 82.3307 365.16 77.536C365.16 70.2667 362.685 64.312 357.736 59.672C352.787 55.032 346.291 52.712 338.248 52.712C330.051 52.712 323.323 55.1867 318.064 60.136C312.96 64.9307 310.253 71.1947 309.944 78.928H283.96C284.424 68.8747 287.053 60.136 291.848 52.712C296.797 45.1333 303.293 39.3333 311.336 35.312C319.379 31.136 328.349 29.048 338.248 29.048C348.147 29.048 357.117 30.9813 365.16 34.848C373.203 38.7147 379.544 44.2827 384.184 51.552C388.979 58.8213 391.376 67.328 391.376 77.072C391.376 84.8053 389.597 92.3067 386.04 99.576C382.483 106.691 376.219 114.965 367.248 124.4L325.72 168.944Z" fill="#0029FF"/>
<defs>
<filter id="filter0_f_10_566" x="0" y="146" width="238" height="221" filterUnits="userSpaceOnUse" color-interpolation-filters="sRGB">
<feFlood flood-opacity="0" result="BackgroundImageFix"/>
<feBlend mode="normal" in="SourceGraphic" in2="BackgroundImageFix" result="shape"/>
<feGaussianBlur stdDeviation="0" result="effect1_foregroundBlur_10_566"/>
</filter>
</defs>
</svg>
