<svg width="283" height="413" viewBox="0 0 283 413" fill="none" xmlns="http://www.w3.org/2000/svg">
<path d="M13.944 224V205.988C13.944 194.892 15.844 185.772 19.644 178.628C23.444 171.484 28.84 165.708 35.832 161.3C42.976 156.74 51.564 152.94 61.596 149.9L75.504 145.568C81.736 143.592 87.056 141.16 91.464 138.272C96.024 135.384 99.52 131.812 101.952 127.556C104.384 123.148 105.6 118.056 105.6 112.28V111.368C105.6 102.4 102.56 95.408 96.48 90.392C90.4 85.224 82.42 82.64 72.54 82.64C62.356 82.64 54.072 85.376 47.688 90.848C41.456 96.32 38.34 104.376 38.34 115.016V118.664H14.628V115.244C14.628 103.692 17.136 93.964 22.152 86.06C27.168 78.004 34.084 71.848 42.9 67.592C51.716 63.336 61.596 61.208 72.54 61.208C83.484 61.208 93.212 63.26 101.724 67.364C110.388 71.468 117.152 77.244 122.016 84.692C127.032 92.14 129.54 100.88 129.54 110.912V112.964C129.54 123.3 127.488 131.888 123.384 138.728C119.28 145.568 113.58 151.192 106.284 155.6C99.14 160.008 90.856 163.732 81.432 166.772L67.98 170.876C60.836 173.004 55.06 175.36 50.652 177.944C46.396 180.376 43.204 183.34 41.076 186.836C39.1 190.332 38.112 194.816 38.112 200.288V202.568H128.172V224H13.944ZM203.562 227.192C185.018 227.192 170.198 221.948 159.102 211.46C148.158 200.82 142.686 184.86 142.686 163.58V124.82C142.686 103.996 148.158 88.188 159.102 77.396C170.198 66.604 185.018 61.208 203.562 61.208C222.258 61.208 237.078 66.604 248.022 77.396C259.118 88.188 264.666 103.996 264.666 124.82V163.58C264.666 184.86 259.118 200.82 248.022 211.46C237.078 221.948 222.258 227.192 203.562 227.192ZM203.562 205.76C216.178 205.76 225.526 202.188 231.606 195.044C237.686 187.748 240.726 177.564 240.726 164.492V123.452C240.726 110.38 237.458 100.348 230.922 93.356C224.386 86.212 215.266 82.64 203.562 82.64C191.706 82.64 182.586 86.288 176.202 93.584C169.818 100.728 166.626 110.684 166.626 123.452V164.492C166.626 177.868 169.666 188.128 175.746 195.272C181.978 202.264 191.25 205.76 203.562 205.76Z" fill="black"/>
<path d="M87.324 406V373.396H6.612V345.58L67.716 246.4H111.264V352.192H138.168V373.396H111.264V406H87.324ZM29.868 352.192H87.324V261.448H83.676L29.868 349V352.192ZM205.173 409.192C193.317 409.192 183.133 407.216 174.621 403.264C166.109 399.16 159.573 393.46 155.013 386.164C150.453 378.716 148.173 370.052 148.173 360.172H172.569C172.569 368.076 175.153 374.688 180.321 380.008C185.641 385.176 193.925 387.76 205.173 387.76C216.573 387.76 225.313 384.72 231.393 378.64C237.473 372.56 240.513 364.276 240.513 353.788V334.636H236.865C234.281 338.284 230.101 341.78 224.325 345.124C218.549 348.468 210.189 350.14 199.245 350.14C189.973 350.14 181.385 348.088 173.481 343.984C165.577 339.88 159.193 334.028 154.329 326.428C149.617 318.676 147.261 309.48 147.261 298.84V296.104C147.261 285.464 149.693 276.192 154.557 268.288C159.573 260.384 166.489 254.228 175.305 249.82C184.273 245.412 194.533 243.208 206.085 243.208C217.789 243.208 227.973 245.488 236.637 250.048C245.453 254.456 252.293 260.688 257.157 268.744C262.021 276.648 264.453 285.996 264.453 296.788V351.964C264.453 364.428 261.945 374.916 256.929 383.428C252.065 391.94 245.149 398.4 236.181 402.808C227.365 407.064 217.029 409.192 205.173 409.192ZM205.857 330.76C212.849 330.76 218.929 329.392 224.097 326.656C229.265 323.92 233.293 320.196 236.181 315.484C239.069 310.62 240.513 304.92 240.513 298.384V296.56C240.513 286.68 237.321 278.928 230.937 273.304C224.705 267.528 216.345 264.64 205.857 264.64C195.369 264.64 186.933 267.528 180.549 273.304C174.317 278.928 171.201 286.68 171.201 296.56V298.384C171.201 304.92 172.569 310.62 175.305 315.484C178.193 320.196 182.221 323.92 187.389 326.656C192.709 329.392 198.865 330.76 205.857 330.76Z" fill="black"/>
</svg>
