<svg width="426" height="417" viewBox="0 0 426 417" fill="none" xmlns="http://www.w3.org/2000/svg">
<rect x="31" y="51" width="394" height="335" rx="37" fill="white" stroke="black" stroke-width="2"/>
<g filter="url(#filter0_f_25_786)">
<rect x="61" y="257" width="116" height="99" rx="26" fill="#0029FF"/>
</g>
<rect x="240" y="300" width="155" height="56" rx="20" fill="black"/>
<path d="M263.4 315.2H264.9V325H263.4V321.1C262.707 321.433 261.92 321.6 261.04 321.6C259.813 321.6 258.847 321.26 258.14 320.58C257.447 319.9 257.1 318.94 257.1 317.7V315.2H258.6V317.7C258.6 318.5 258.793 319.12 259.18 319.56C259.567 319.987 260.22 320.2 261.14 320.2C261.873 320.2 262.627 320.033 263.4 319.7V315.2ZM275.811 315.2H277.311V325H275.811V323.5C275.397 324.02 274.877 324.433 274.251 324.74C273.624 325.047 272.944 325.2 272.211 325.2C271.317 325.2 270.484 324.98 269.711 324.54C268.937 324.087 268.324 323.473 267.871 322.7C267.417 321.913 267.191 321.047 267.191 320.1C267.191 319.153 267.417 318.293 267.871 317.52C268.324 316.733 268.937 316.12 269.711 315.68C270.484 315.227 271.317 315 272.211 315C272.944 315 273.624 315.153 274.251 315.46C274.877 315.767 275.397 316.18 275.811 316.7V315.2ZM272.331 323.8C272.984 323.8 273.584 323.64 274.131 323.32C274.677 322.987 275.111 322.54 275.431 321.98C275.751 321.42 275.911 320.793 275.911 320.1C275.911 319.407 275.751 318.78 275.431 318.22C275.111 317.66 274.677 317.22 274.131 316.9C273.584 316.567 272.984 316.4 272.331 316.4C271.677 316.4 271.077 316.567 270.531 316.9C269.984 317.22 269.551 317.66 269.231 318.22C268.911 318.78 268.751 319.407 268.751 320.1C268.751 320.793 268.911 321.42 269.231 321.98C269.551 322.54 269.984 322.987 270.531 323.32C271.077 323.64 271.677 323.8 272.331 323.8ZM284.633 325.2C283.726 325.2 282.886 324.98 282.113 324.54C281.353 324.087 280.746 323.473 280.293 322.7C279.839 321.913 279.613 321.047 279.613 320.1C279.613 319.153 279.839 318.293 280.293 317.52C280.746 316.733 281.353 316.12 282.113 315.68C282.886 315.227 283.726 315 284.633 315C285.699 315 286.659 315.293 287.513 315.88C288.379 316.467 288.986 317.273 289.333 318.3H287.733C287.439 317.7 287.013 317.233 286.453 316.9C285.893 316.567 285.286 316.4 284.633 316.4C284.006 316.4 283.426 316.567 282.893 316.9C282.359 317.22 281.939 317.66 281.633 318.22C281.326 318.78 281.173 319.407 281.173 320.1C281.173 320.793 281.326 321.42 281.633 321.98C281.939 322.54 282.359 322.987 282.893 323.32C283.426 323.64 284.006 323.8 284.633 323.8C285.286 323.8 285.893 323.633 286.453 323.3C287.013 322.967 287.439 322.5 287.733 321.9H289.333C288.986 322.927 288.379 323.733 287.513 324.32C286.659 324.907 285.699 325.2 284.633 325.2ZM299.346 315.2H300.846V325H299.346V323.5C298.932 324.02 298.412 324.433 297.786 324.74C297.159 325.047 296.479 325.2 295.746 325.2C294.852 325.2 294.019 324.98 293.246 324.54C292.472 324.087 291.859 323.473 291.406 322.7C290.952 321.913 290.726 321.047 290.726 320.1C290.726 319.153 290.952 318.293 291.406 317.52C291.859 316.733 292.472 316.12 293.246 315.68C294.019 315.227 294.852 315 295.746 315C296.479 315 297.159 315.153 297.786 315.46C298.412 315.767 298.932 316.18 299.346 316.7V315.2ZM295.866 323.8C296.519 323.8 297.119 323.64 297.666 323.32C298.212 322.987 298.646 322.54 298.966 321.98C299.286 321.42 299.446 320.793 299.446 320.1C299.446 319.407 299.286 318.78 298.966 318.22C298.646 317.66 298.212 317.22 297.666 316.9C297.119 316.567 296.519 316.4 295.866 316.4C295.212 316.4 294.612 316.567 294.066 316.9C293.519 317.22 293.086 317.66 292.766 318.22C292.446 318.78 292.286 319.407 292.286 320.1C292.286 320.793 292.446 321.42 292.766 321.98C293.086 322.54 293.519 322.987 294.066 323.32C294.612 323.64 295.212 323.8 295.866 323.8ZM304.448 327.66H303.048L304.148 323.06H305.948L304.448 327.66ZM320.455 319.78C320.989 319.967 321.402 320.273 321.695 320.7C321.989 321.127 322.135 321.627 322.135 322.2C322.135 323.027 321.822 323.7 321.195 324.22C320.569 324.74 319.722 325 318.655 325H314.355V315.2H318.355C319.369 315.2 320.169 315.44 320.755 315.92C321.342 316.4 321.635 317.027 321.635 317.8C321.635 318.2 321.522 318.58 321.295 318.94C321.082 319.3 320.802 319.58 320.455 319.78ZM315.855 316.6V319.22H318.295C318.869 319.22 319.309 319.1 319.615 318.86C319.922 318.607 320.075 318.287 320.075 317.9C320.075 317.527 319.922 317.22 319.615 316.98C319.322 316.727 318.902 316.6 318.355 316.6H315.855ZM318.655 323.6C319.255 323.6 319.722 323.467 320.055 323.2C320.402 322.933 320.575 322.567 320.575 322.1C320.575 321.62 320.402 321.247 320.055 320.98C319.709 320.713 319.222 320.58 318.595 320.58H315.855V323.6H318.655ZM329.534 315C330.427 315 331.26 315.227 332.034 315.68C332.807 316.12 333.42 316.733 333.874 317.52C334.327 318.293 334.554 319.153 334.554 320.1C334.554 321.047 334.327 321.913 333.874 322.7C333.42 323.473 332.807 324.087 332.034 324.54C331.26 324.98 330.427 325.2 329.534 325.2C328.8 325.2 328.12 325.047 327.494 324.74C326.867 324.433 326.347 324.02 325.934 323.5V329H324.434V315.2H325.934V316.7C326.347 316.18 326.867 315.767 327.494 315.46C328.12 315.153 328.8 315 329.534 315ZM329.434 323.8C330.087 323.8 330.68 323.64 331.214 323.32C331.76 322.987 332.194 322.54 332.514 321.98C332.834 321.42 332.994 320.793 332.994 320.1C332.994 319.407 332.834 318.78 332.514 318.22C332.194 317.66 331.76 317.22 331.214 316.9C330.68 316.567 330.087 316.4 329.434 316.4C328.78 316.4 328.174 316.567 327.614 316.9C327.067 317.22 326.634 317.66 326.314 318.22C325.994 318.78 325.834 319.407 325.834 320.1C325.834 320.793 325.994 321.42 326.314 321.98C326.634 322.54 327.067 322.987 327.614 323.32C328.174 323.64 328.78 323.8 329.434 323.8ZM341.075 315C341.969 315 342.782 315.207 343.515 315.62C344.262 316.02 344.849 316.593 345.275 317.34C345.702 318.073 345.915 318.913 345.915 319.86C345.915 320.18 345.902 320.427 345.875 320.6H337.735C337.829 321.573 338.169 322.353 338.755 322.94C339.355 323.513 340.129 323.8 341.075 323.8C342.462 323.8 343.462 323.233 344.075 322.1H345.675C345.275 323.1 344.682 323.867 343.895 324.4C343.109 324.933 342.169 325.2 341.075 325.2C340.155 325.2 339.315 324.98 338.555 324.54C337.809 324.087 337.222 323.473 336.795 322.7C336.369 321.927 336.155 321.06 336.155 320.1C336.155 319.14 336.369 318.273 336.795 317.5C337.222 316.727 337.809 316.12 338.555 315.68C339.315 315.227 340.155 315 341.075 315ZM341.075 316.4C340.195 316.4 339.462 316.653 338.875 317.16C338.302 317.667 337.942 318.36 337.795 319.24H344.335C344.242 318.387 343.889 317.7 343.275 317.18C342.675 316.66 341.942 316.4 341.075 316.4ZM358.725 315.2L359.525 325H358.025L357.585 317.92L354.085 325H353.365L349.845 317.86L349.385 325H347.925L348.725 315.2H350.005L353.745 322.82L357.485 315.2H358.725ZM369.624 315.18V325H368.124V321.34H366.344L363.324 325H361.524L364.624 321.28C363.838 321.133 363.198 320.787 362.704 320.24C362.224 319.693 361.984 319.033 361.984 318.26C361.984 317.673 362.124 317.147 362.404 316.68C362.698 316.213 363.098 315.847 363.604 315.58C364.124 315.313 364.698 315.18 365.324 315.18H369.624ZM368.124 319.94V316.58H365.424C364.864 316.58 364.411 316.733 364.064 317.04C363.718 317.333 363.544 317.74 363.544 318.26C363.544 318.78 363.718 319.193 364.064 319.5C364.411 319.793 364.864 319.94 365.424 319.94H368.124ZM263.6 339.78C264.133 339.967 264.547 340.273 264.84 340.7C265.133 341.127 265.28 341.627 265.28 342.2C265.28 343.027 264.967 343.7 264.34 344.22C263.713 344.74 262.867 345 261.8 345H257.5V335.2H261.5C262.513 335.2 263.313 335.44 263.9 335.92C264.487 336.4 264.78 337.027 264.78 337.8C264.78 338.2 264.667 338.58 264.44 338.94C264.227 339.3 263.947 339.58 263.6 339.78ZM259 336.6V339.22H261.44C262.013 339.22 262.453 339.1 262.76 338.86C263.067 338.607 263.22 338.287 263.22 337.9C263.22 337.527 263.067 337.22 262.76 336.98C262.467 336.727 262.047 336.6 261.5 336.6H259ZM261.8 343.6C262.4 343.6 262.867 343.467 263.2 343.2C263.547 342.933 263.72 342.567 263.72 342.1C263.72 341.62 263.547 341.247 263.2 340.98C262.853 340.713 262.367 340.58 261.74 340.58H259V343.6H261.8ZM276.284 340.02L281.264 345H279.224L274.684 340.4V345H273.184V335.2H274.684V339.74L279.004 335.2H280.924L276.284 340.02ZM286.783 345.2C285.85 345.2 284.99 344.98 284.203 344.54C283.43 344.087 282.81 343.473 282.343 342.7C281.89 341.913 281.663 341.047 281.663 340.1C281.663 339.153 281.89 338.293 282.343 337.52C282.81 336.733 283.43 336.12 284.203 335.68C284.99 335.227 285.85 335 286.783 335C287.717 335 288.57 335.227 289.343 335.68C290.13 336.12 290.75 336.733 291.203 337.52C291.67 338.293 291.903 339.153 291.903 340.1C291.903 341.047 291.67 341.913 291.203 342.7C290.75 343.473 290.13 344.087 289.343 344.54C288.57 344.98 287.717 345.2 286.783 345.2ZM286.783 343.8C287.437 343.8 288.03 343.64 288.563 343.32C289.11 342.987 289.543 342.54 289.863 341.98C290.183 341.42 290.343 340.793 290.343 340.1C290.343 339.407 290.183 338.78 289.863 338.22C289.543 337.66 289.11 337.22 288.563 336.9C288.03 336.567 287.437 336.4 286.783 336.4C286.13 336.4 285.53 336.567 284.983 336.9C284.45 337.22 284.023 337.66 283.703 338.22C283.383 338.78 283.223 339.407 283.223 340.1C283.223 340.793 283.383 341.42 283.703 341.98C284.023 342.54 284.45 342.987 284.983 343.32C285.53 343.64 286.13 343.8 286.783 343.8ZM300.299 339.78C300.833 339.967 301.246 340.273 301.539 340.7C301.833 341.127 301.979 341.627 301.979 342.2C301.979 343.027 301.666 343.7 301.039 344.22C300.413 344.74 299.566 345 298.499 345H294.199V335.2H298.199C299.213 335.2 300.013 335.44 300.599 335.92C301.186 336.4 301.479 337.027 301.479 337.8C301.479 338.2 301.366 338.58 301.139 338.94C300.926 339.3 300.646 339.58 300.299 339.78ZM295.699 336.6V339.22H298.139C298.713 339.22 299.153 339.1 299.459 338.86C299.766 338.607 299.919 338.287 299.919 337.9C299.919 337.527 299.766 337.22 299.459 336.98C299.166 336.727 298.746 336.6 298.199 336.6H295.699ZM298.499 343.6C299.099 343.6 299.566 343.467 299.899 343.2C300.246 342.933 300.419 342.567 300.419 342.1C300.419 341.62 300.246 341.247 299.899 340.98C299.553 340.713 299.066 340.58 298.439 340.58H295.699V343.6H298.499ZM308.697 345.2C307.764 345.2 306.904 344.98 306.117 344.54C305.344 344.087 304.724 343.473 304.257 342.7C303.804 341.913 303.577 341.047 303.577 340.1C303.577 339.153 303.804 338.293 304.257 337.52C304.724 336.733 305.344 336.12 306.117 335.68C306.904 335.227 307.764 335 308.697 335C309.631 335 310.484 335.227 311.257 335.68C312.044 336.12 312.664 336.733 313.117 337.52C313.584 338.293 313.817 339.153 313.817 340.1C313.817 341.047 313.584 341.913 313.117 342.7C312.664 343.473 312.044 344.087 311.257 344.54C310.484 344.98 309.631 345.2 308.697 345.2ZM308.697 343.8C309.351 343.8 309.944 343.64 310.477 343.32C311.024 342.987 311.457 342.54 311.777 341.98C312.097 341.42 312.257 340.793 312.257 340.1C312.257 339.407 312.097 338.78 311.777 338.22C311.457 337.66 311.024 337.22 310.477 336.9C309.944 336.567 309.351 336.4 308.697 336.4C308.044 336.4 307.444 336.567 306.897 336.9C306.364 337.22 305.937 337.66 305.617 338.22C305.297 338.78 305.137 339.407 305.137 340.1C305.137 340.793 305.297 341.42 305.617 341.98C305.937 342.54 306.364 342.987 306.897 343.32C307.444 343.64 308.044 343.8 308.697 343.8ZM321.213 335C322.107 335 322.94 335.227 323.713 335.68C324.487 336.12 325.1 336.733 325.553 337.52C326.007 338.293 326.233 339.153 326.233 340.1C326.233 341.047 326.007 341.913 325.553 342.7C325.1 343.473 324.487 344.087 323.713 344.54C322.94 344.98 322.107 345.2 321.213 345.2C320.48 345.2 319.8 345.047 319.173 344.74C318.547 344.433 318.027 344.02 317.613 343.5V349H316.113V335.2H317.613V336.7C318.027 336.18 318.547 335.767 319.173 335.46C319.8 335.153 320.48 335 321.213 335ZM321.113 343.8C321.767 343.8 322.36 343.64 322.893 343.32C323.44 342.987 323.873 342.54 324.193 341.98C324.513 341.42 324.673 340.793 324.673 340.1C324.673 339.407 324.513 338.78 324.193 338.22C323.873 337.66 323.44 337.22 322.893 336.9C322.36 336.567 321.767 336.4 321.113 336.4C320.46 336.4 319.853 336.567 319.293 336.9C318.747 337.22 318.313 337.66 317.993 338.22C317.673 338.78 317.513 339.407 317.513 340.1C317.513 340.793 317.673 341.42 317.993 341.98C318.313 342.54 318.747 342.987 319.293 343.32C319.853 343.64 320.46 343.8 321.113 343.8ZM331.635 340.02L336.615 345H334.575L330.035 340.4V345H328.535V335.2H330.035V339.74L334.355 335.2H336.275L331.635 340.02ZM339.723 342.58L345.623 335.2H346.823V345H345.323V337.62L339.423 345H338.223V335.2H339.723V342.58ZM356.824 339.3V335.2H358.324V345H356.824V340.7H351.324V345H349.824V335.2H351.324V339.3H356.824ZM362.828 345H361.328V335.2H367.528V336.6H362.828V345ZM373.243 335C374.137 335 374.95 335.207 375.683 335.62C376.43 336.02 377.017 336.593 377.443 337.34C377.87 338.073 378.083 338.913 378.083 339.86C378.083 340.18 378.07 340.427 378.043 340.6H369.903C369.997 341.573 370.337 342.353 370.923 342.94C371.523 343.513 372.297 343.8 373.243 343.8C374.63 343.8 375.63 343.233 376.243 342.1H377.843C377.443 343.1 376.85 343.867 376.063 344.4C375.277 344.933 374.337 345.2 373.243 345.2C372.323 345.2 371.483 344.98 370.723 344.54C369.977 344.087 369.39 343.473 368.963 342.7C368.537 341.927 368.323 341.06 368.323 340.1C368.323 339.14 368.537 338.273 368.963 337.5C369.39 336.727 369.977 336.12 370.723 335.68C371.483 335.227 372.323 335 373.243 335ZM373.243 336.4C372.363 336.4 371.63 336.653 371.043 337.16C370.47 337.667 370.11 338.36 369.963 339.24H376.503C376.41 338.387 376.057 337.7 375.443 337.18C374.843 336.66 374.11 336.4 373.243 336.4Z" fill="white"/>
<path d="M72.2 114L81.3 98.15H72.95L63.8 114H60.75L69.9 98.15H60.75V95.4H65.85L74.5 80.5H77.55L68.9 95.4H77.3L85.9 80.5H89L80.35 95.4H89.9V98.15H84.4L75.25 114H72.2ZM118.62 112.6C116.57 113.75 115.12 114 113.22 114H96.1699V111H101.47C102.77 111 103.42 110.55 104.02 109.5L116.92 86.85C117.97 85 117.27 83.3 115.17 83.3H97.5199V80.5H113.72C118.72 80.5 121.32 85 118.82 89.35L108.62 107.2C107.72 108.8 106.77 110.05 105.72 111H113.37C115.07 111 115.67 110.9 117.47 109.9L125.17 105.55V108.9L118.62 112.6Z" fill="#0029FF"/>
<path d="M325.72 218.944H395.552V244H284.656V227.76L346.832 161.176C353.947 153.752 358.741 147.488 361.216 142.384C363.845 137.28 365.16 132.331 365.16 127.536C365.16 120.267 362.685 114.312 357.736 109.672C352.787 105.032 346.291 102.712 338.248 102.712C330.051 102.712 323.323 105.187 318.064 110.136C312.96 114.931 310.253 121.195 309.944 128.928H283.96C284.424 118.875 287.053 110.136 291.848 102.712C296.797 95.1333 303.293 89.3333 311.336 85.312C319.379 81.136 328.349 79.048 338.248 79.048C348.147 79.048 357.117 80.9813 365.16 84.848C373.203 88.7147 379.544 94.2827 384.184 101.552C388.979 108.821 391.376 117.328 391.376 127.072C391.376 134.805 389.597 142.307 386.04 149.576C382.483 156.691 376.219 164.965 367.248 174.4L325.72 218.944Z" fill="#0029FF"/>
<defs>
<filter id="filter0_f_25_786" x="0" y="196" width="238" height="221" filterUnits="userSpaceOnUse" color-interpolation-filters="sRGB">
<feFlood flood-opacity="0" result="BackgroundImageFix"/>
<feBlend mode="normal" in="SourceGraphic" in2="BackgroundImageFix" result="shape"/>
<feGaussianBlur stdDeviation="0" result="effect1_foregroundBlur_25_786"/>
</filter>
</defs>
</svg>
