<svg width="426" height="367" viewBox="0 0 426 367" fill="none" xmlns="http://www.w3.org/2000/svg">
<rect x="30" width="396" height="337" rx="38" fill="#0029FF"/>
<g filter="url(#filter0_f_24_648)">
<rect x="177" y="306" width="116" height="99" rx="26" transform="rotate(180 177 306)" fill="white"/>
</g>
<path d="M94.48 282.44L107.68 259.4H85V253.04H107.68L94.48 230H101.8L115 252.8L128.08 230H135.4L122.2 253.04H144.76V259.4H122.2L135.4 282.44H128.08L115 259.64L101.8 282.44H94.48Z" fill="#0029FF"/>
<rect x="240" y="250" width="155" height="56" rx="20" fill="black"/>
<path d="M259.4 265.2H260.9V275H259.4V271.1C258.707 271.433 257.92 271.6 257.04 271.6C255.813 271.6 254.847 271.26 254.14 270.58C253.447 269.9 253.1 268.94 253.1 267.7V265.2H254.6V267.7C254.6 268.5 254.793 269.12 255.18 269.56C255.567 269.987 256.22 270.2 257.14 270.2C257.873 270.2 258.627 270.033 259.4 269.7V265.2ZM271.811 265.2H273.311V275H271.811V273.5C271.397 274.02 270.877 274.433 270.251 274.74C269.624 275.047 268.944 275.2 268.211 275.2C267.317 275.2 266.484 274.98 265.711 274.54C264.937 274.087 264.324 273.473 263.871 272.7C263.417 271.913 263.191 271.047 263.191 270.1C263.191 269.153 263.417 268.293 263.871 267.52C264.324 266.733 264.937 266.12 265.711 265.68C266.484 265.227 267.317 265 268.211 265C268.944 265 269.624 265.153 270.251 265.46C270.877 265.767 271.397 266.18 271.811 266.7V265.2ZM268.331 273.8C268.984 273.8 269.584 273.64 270.131 273.32C270.677 272.987 271.111 272.54 271.431 271.98C271.751 271.42 271.911 270.793 271.911 270.1C271.911 269.407 271.751 268.78 271.431 268.22C271.111 267.66 270.677 267.22 270.131 266.9C269.584 266.567 268.984 266.4 268.331 266.4C267.677 266.4 267.077 266.567 266.531 266.9C265.984 267.22 265.551 267.66 265.231 268.22C264.911 268.78 264.751 269.407 264.751 270.1C264.751 270.793 264.911 271.42 265.231 271.98C265.551 272.54 265.984 272.987 266.531 273.32C267.077 273.64 267.677 273.8 268.331 273.8ZM280.633 275.2C279.726 275.2 278.886 274.98 278.113 274.54C277.353 274.087 276.746 273.473 276.293 272.7C275.839 271.913 275.613 271.047 275.613 270.1C275.613 269.153 275.839 268.293 276.293 267.52C276.746 266.733 277.353 266.12 278.113 265.68C278.886 265.227 279.726 265 280.633 265C281.699 265 282.659 265.293 283.513 265.88C284.379 266.467 284.986 267.273 285.333 268.3H283.733C283.439 267.7 283.013 267.233 282.453 266.9C281.893 266.567 281.286 266.4 280.633 266.4C280.006 266.4 279.426 266.567 278.893 266.9C278.359 267.22 277.939 267.66 277.633 268.22C277.326 268.78 277.173 269.407 277.173 270.1C277.173 270.793 277.326 271.42 277.633 271.98C277.939 272.54 278.359 272.987 278.893 273.32C279.426 273.64 280.006 273.8 280.633 273.8C281.286 273.8 281.893 273.633 282.453 273.3C283.013 272.967 283.439 272.5 283.733 271.9H285.333C284.986 272.927 284.379 273.733 283.513 274.32C282.659 274.907 281.699 275.2 280.633 275.2ZM291.846 275.2C290.912 275.2 290.052 274.98 289.266 274.54C288.492 274.087 287.872 273.473 287.406 272.7C286.952 271.913 286.726 271.047 286.726 270.1C286.726 269.153 286.952 268.293 287.406 267.52C287.872 266.733 288.492 266.12 289.266 265.68C290.052 265.227 290.912 265 291.846 265C292.779 265 293.632 265.227 294.406 265.68C295.192 266.12 295.812 266.733 296.266 267.52C296.732 268.293 296.966 269.153 296.966 270.1C296.966 271.047 296.732 271.913 296.266 272.7C295.812 273.473 295.192 274.087 294.406 274.54C293.632 274.98 292.779 275.2 291.846 275.2ZM291.846 273.8C292.499 273.8 293.092 273.64 293.626 273.32C294.172 272.987 294.606 272.54 294.926 271.98C295.246 271.42 295.406 270.793 295.406 270.1C295.406 269.407 295.246 268.78 294.926 268.22C294.606 267.66 294.172 267.22 293.626 266.9C293.092 266.567 292.499 266.4 291.846 266.4C291.192 266.4 290.592 266.567 290.046 266.9C289.512 267.22 289.086 267.66 288.766 268.22C288.446 268.78 288.286 269.407 288.286 270.1C288.286 270.793 288.446 271.42 288.766 271.98C289.086 272.54 289.512 272.987 290.046 273.32C290.592 273.64 291.192 273.8 291.846 273.8ZM305.362 269.78C305.895 269.967 306.308 270.273 306.602 270.7C306.895 271.127 307.042 271.627 307.042 272.2C307.042 273.027 306.728 273.7 306.102 274.22C305.475 274.74 304.628 275 303.562 275H299.262V265.2H303.262C304.275 265.2 305.075 265.44 305.662 265.92C306.248 266.4 306.542 267.027 306.542 267.8C306.542 268.2 306.428 268.58 306.202 268.94C305.988 269.3 305.708 269.58 305.362 269.78ZM300.762 266.6V269.22H303.202C303.775 269.22 304.215 269.1 304.522 268.86C304.828 268.607 304.982 268.287 304.982 267.9C304.982 267.527 304.828 267.22 304.522 266.98C304.228 266.727 303.808 266.6 303.262 266.6H300.762ZM303.562 273.6C304.162 273.6 304.628 273.467 304.962 273.2C305.308 272.933 305.482 272.567 305.482 272.1C305.482 271.62 305.308 271.247 304.962 270.98C304.615 270.713 304.128 270.58 303.502 270.58H300.762V273.6H303.562ZM309.94 277.66H308.54L309.64 273.06H311.44L309.94 277.66ZM325.948 269.78C326.481 269.967 326.894 270.273 327.188 270.7C327.481 271.127 327.628 271.627 327.628 272.2C327.628 273.027 327.314 273.7 326.688 274.22C326.061 274.74 325.214 275 324.148 275H319.848V265.2H323.848C324.861 265.2 325.661 265.44 326.248 265.92C326.834 266.4 327.128 267.027 327.128 267.8C327.128 268.2 327.014 268.58 326.788 268.94C326.574 269.3 326.294 269.58 325.948 269.78ZM321.348 266.6V269.22H323.788C324.361 269.22 324.801 269.1 325.108 268.86C325.414 268.607 325.568 268.287 325.568 267.9C325.568 267.527 325.414 267.22 325.108 266.98C324.814 266.727 324.394 266.6 323.848 266.6H321.348ZM324.148 273.6C324.748 273.6 325.214 273.467 325.548 273.2C325.894 272.933 326.068 272.567 326.068 272.1C326.068 271.62 325.894 271.247 325.548 270.98C325.201 270.713 324.714 270.58 324.088 270.58H321.348V273.6H324.148ZM335.026 265C335.919 265 336.752 265.227 337.526 265.68C338.299 266.12 338.912 266.733 339.366 267.52C339.819 268.293 340.046 269.153 340.046 270.1C340.046 271.047 339.819 271.913 339.366 272.7C338.912 273.473 338.299 274.087 337.526 274.54C336.752 274.98 335.919 275.2 335.026 275.2C334.292 275.2 333.612 275.047 332.986 274.74C332.359 274.433 331.839 274.02 331.426 273.5V279H329.926V265.2H331.426V266.7C331.839 266.18 332.359 265.767 332.986 265.46C333.612 265.153 334.292 265 335.026 265ZM334.926 273.8C335.579 273.8 336.172 273.64 336.706 273.32C337.252 272.987 337.686 272.54 338.006 271.98C338.326 271.42 338.486 270.793 338.486 270.1C338.486 269.407 338.326 268.78 338.006 268.22C337.686 267.66 337.252 267.22 336.706 266.9C336.172 266.567 335.579 266.4 334.926 266.4C334.272 266.4 333.666 266.567 333.106 266.9C332.559 267.22 332.126 267.66 331.806 268.22C331.486 268.78 331.326 269.407 331.326 270.1C331.326 270.793 331.486 271.42 331.806 271.98C332.126 272.54 332.559 272.987 333.106 273.32C333.666 273.64 334.272 273.8 334.926 273.8ZM346.568 265C347.461 265 348.274 265.207 349.008 265.62C349.754 266.02 350.341 266.593 350.768 267.34C351.194 268.073 351.408 268.913 351.408 269.86C351.408 270.18 351.394 270.427 351.368 270.6H343.228C343.321 271.573 343.661 272.353 344.248 272.94C344.848 273.513 345.621 273.8 346.568 273.8C347.954 273.8 348.954 273.233 349.568 272.1H351.168C350.768 273.1 350.174 273.867 349.388 274.4C348.601 274.933 347.661 275.2 346.568 275.2C345.648 275.2 344.808 274.98 344.048 274.54C343.301 274.087 342.714 273.473 342.288 272.7C341.861 271.927 341.648 271.06 341.648 270.1C341.648 269.14 341.861 268.273 342.288 267.5C342.714 266.727 343.301 266.12 344.048 265.68C344.808 265.227 345.648 265 346.568 265ZM346.568 266.4C345.688 266.4 344.954 266.653 344.368 267.16C343.794 267.667 343.434 268.36 343.288 269.24H349.828C349.734 268.387 349.381 267.7 348.768 267.18C348.168 266.66 347.434 266.4 346.568 266.4ZM364.217 265.2L365.017 275H363.517L363.077 267.92L359.577 275H358.857L355.337 267.86L354.877 275H353.417L354.217 265.2H355.497L359.237 272.82L362.977 265.2H364.217ZM375.116 265.18V275H373.616V271.34H371.836L368.816 275H367.016L370.116 271.28C369.33 271.133 368.69 270.787 368.196 270.24C367.716 269.693 367.476 269.033 367.476 268.26C367.476 267.673 367.616 267.147 367.896 266.68C368.19 266.213 368.59 265.847 369.096 265.58C369.616 265.313 370.19 265.18 370.816 265.18H375.116ZM373.616 269.94V266.58H370.916C370.356 266.58 369.903 266.733 369.556 267.04C369.21 267.333 369.036 267.74 369.036 268.26C369.036 268.78 369.21 269.193 369.556 269.5C369.903 269.793 370.356 269.94 370.916 269.94H373.616ZM259.6 289.78C260.133 289.967 260.547 290.273 260.84 290.7C261.133 291.127 261.28 291.627 261.28 292.2C261.28 293.027 260.967 293.7 260.34 294.22C259.713 294.74 258.867 295 257.8 295H253.5V285.2H257.5C258.513 285.2 259.313 285.44 259.9 285.92C260.487 286.4 260.78 287.027 260.78 287.8C260.78 288.2 260.667 288.58 260.44 288.94C260.227 289.3 259.947 289.58 259.6 289.78ZM255 286.6V289.22H257.44C258.013 289.22 258.453 289.1 258.76 288.86C259.067 288.607 259.22 288.287 259.22 287.9C259.22 287.527 259.067 287.22 258.76 286.98C258.467 286.727 258.047 286.6 257.5 286.6H255ZM257.8 293.6C258.4 293.6 258.867 293.467 259.2 293.2C259.547 292.933 259.72 292.567 259.72 292.1C259.72 291.62 259.547 291.247 259.2 290.98C258.853 290.713 258.367 290.58 257.74 290.58H255V293.6H257.8ZM272.284 290.02L277.264 295H275.224L270.684 290.4V295H269.184V285.2H270.684V289.74L275.004 285.2H276.924L272.284 290.02ZM282.783 295.2C281.85 295.2 280.99 294.98 280.203 294.54C279.43 294.087 278.81 293.473 278.343 292.7C277.89 291.913 277.663 291.047 277.663 290.1C277.663 289.153 277.89 288.293 278.343 287.52C278.81 286.733 279.43 286.12 280.203 285.68C280.99 285.227 281.85 285 282.783 285C283.717 285 284.57 285.227 285.343 285.68C286.13 286.12 286.75 286.733 287.203 287.52C287.67 288.293 287.903 289.153 287.903 290.1C287.903 291.047 287.67 291.913 287.203 292.7C286.75 293.473 286.13 294.087 285.343 294.54C284.57 294.98 283.717 295.2 282.783 295.2ZM282.783 293.8C283.437 293.8 284.03 293.64 284.563 293.32C285.11 292.987 285.543 292.54 285.863 291.98C286.183 291.42 286.343 290.793 286.343 290.1C286.343 289.407 286.183 288.78 285.863 288.22C285.543 287.66 285.11 287.22 284.563 286.9C284.03 286.567 283.437 286.4 282.783 286.4C282.13 286.4 281.53 286.567 280.983 286.9C280.45 287.22 280.023 287.66 279.703 288.22C279.383 288.78 279.223 289.407 279.223 290.1C279.223 290.793 279.383 291.42 279.703 291.98C280.023 292.54 280.45 292.987 280.983 293.32C281.53 293.64 282.13 293.8 282.783 293.8ZM296.299 289.78C296.833 289.967 297.246 290.273 297.539 290.7C297.833 291.127 297.979 291.627 297.979 292.2C297.979 293.027 297.666 293.7 297.039 294.22C296.413 294.74 295.566 295 294.499 295H290.199V285.2H294.199C295.213 285.2 296.013 285.44 296.599 285.92C297.186 286.4 297.479 287.027 297.479 287.8C297.479 288.2 297.366 288.58 297.139 288.94C296.926 289.3 296.646 289.58 296.299 289.78ZM291.699 286.6V289.22H294.139C294.713 289.22 295.153 289.1 295.459 288.86C295.766 288.607 295.919 288.287 295.919 287.9C295.919 287.527 295.766 287.22 295.459 286.98C295.166 286.727 294.746 286.6 294.199 286.6H291.699ZM294.499 293.6C295.099 293.6 295.566 293.467 295.899 293.2C296.246 292.933 296.419 292.567 296.419 292.1C296.419 291.62 296.246 291.247 295.899 290.98C295.553 290.713 295.066 290.58 294.439 290.58H291.699V293.6H294.499ZM304.697 295.2C303.764 295.2 302.904 294.98 302.117 294.54C301.344 294.087 300.724 293.473 300.257 292.7C299.804 291.913 299.577 291.047 299.577 290.1C299.577 289.153 299.804 288.293 300.257 287.52C300.724 286.733 301.344 286.12 302.117 285.68C302.904 285.227 303.764 285 304.697 285C305.631 285 306.484 285.227 307.257 285.68C308.044 286.12 308.664 286.733 309.117 287.52C309.584 288.293 309.817 289.153 309.817 290.1C309.817 291.047 309.584 291.913 309.117 292.7C308.664 293.473 308.044 294.087 307.257 294.54C306.484 294.98 305.631 295.2 304.697 295.2ZM304.697 293.8C305.351 293.8 305.944 293.64 306.477 293.32C307.024 292.987 307.457 292.54 307.777 291.98C308.097 291.42 308.257 290.793 308.257 290.1C308.257 289.407 308.097 288.78 307.777 288.22C307.457 287.66 307.024 287.22 306.477 286.9C305.944 286.567 305.351 286.4 304.697 286.4C304.044 286.4 303.444 286.567 302.897 286.9C302.364 287.22 301.937 287.66 301.617 288.22C301.297 288.78 301.137 289.407 301.137 290.1C301.137 290.793 301.297 291.42 301.617 291.98C301.937 292.54 302.364 292.987 302.897 293.32C303.444 293.64 304.044 293.8 304.697 293.8ZM317.213 285C318.107 285 318.94 285.227 319.713 285.68C320.487 286.12 321.1 286.733 321.553 287.52C322.007 288.293 322.233 289.153 322.233 290.1C322.233 291.047 322.007 291.913 321.553 292.7C321.1 293.473 320.487 294.087 319.713 294.54C318.94 294.98 318.107 295.2 317.213 295.2C316.48 295.2 315.8 295.047 315.173 294.74C314.547 294.433 314.027 294.02 313.613 293.5V299H312.113V285.2H313.613V286.7C314.027 286.18 314.547 285.767 315.173 285.46C315.8 285.153 316.48 285 317.213 285ZM317.113 293.8C317.767 293.8 318.36 293.64 318.893 293.32C319.44 292.987 319.873 292.54 320.193 291.98C320.513 291.42 320.673 290.793 320.673 290.1C320.673 289.407 320.513 288.78 320.193 288.22C319.873 287.66 319.44 287.22 318.893 286.9C318.36 286.567 317.767 286.4 317.113 286.4C316.46 286.4 315.853 286.567 315.293 286.9C314.747 287.22 314.313 287.66 313.993 288.22C313.673 288.78 313.513 289.407 313.513 290.1C313.513 290.793 313.673 291.42 313.993 291.98C314.313 292.54 314.747 292.987 315.293 293.32C315.853 293.64 316.46 293.8 317.113 293.8ZM327.635 290.02L332.615 295H330.575L326.035 290.4V295H324.535V285.2H326.035V289.74L330.355 285.2H332.275L327.635 290.02ZM335.723 292.58L341.623 285.2H342.823V295H341.323V287.62L335.423 295H334.223V285.2H335.723V292.58ZM352.824 289.3V285.2H354.324V295H352.824V290.7H347.324V295H345.824V285.2H347.324V289.3H352.824ZM358.828 295H357.328V285.2H363.528V286.6H358.828V295ZM369.243 285C370.137 285 370.95 285.207 371.683 285.62C372.43 286.02 373.017 286.593 373.443 287.34C373.87 288.073 374.083 288.913 374.083 289.86C374.083 290.18 374.07 290.427 374.043 290.6H365.903C365.997 291.573 366.337 292.353 366.923 292.94C367.523 293.513 368.297 293.8 369.243 293.8C370.63 293.8 371.63 293.233 372.243 292.1H373.843C373.443 293.1 372.85 293.867 372.063 294.4C371.277 294.933 370.337 295.2 369.243 295.2C368.323 295.2 367.483 294.98 366.723 294.54C365.977 294.087 365.39 293.473 364.963 292.7C364.537 291.927 364.323 291.06 364.323 290.1C364.323 289.14 364.537 288.273 364.963 287.5C365.39 286.727 365.977 286.12 366.723 285.68C367.483 285.227 368.323 285 369.243 285ZM369.243 286.4C368.363 286.4 367.63 286.653 367.043 287.16C366.47 287.667 366.11 288.36 365.963 289.24H372.503C372.41 288.387 372.057 287.7 371.443 287.18C370.843 286.66 370.11 286.4 369.243 286.4Z" fill="white"/>
<path d="M72.2 64L81.3 48.15H72.95L63.8 64H60.75L69.9 48.15H60.75V45.4H65.85L74.5 30.5H77.55L68.9 45.4H77.3L85.9 30.5H89L80.35 45.4H89.9V48.15H84.4L75.25 64H72.2ZM122.67 30.5V64H119.67V52.2H102.77C97.7199 52.2 95.1199 47.7 97.6199 43.35L104.97 30.5H108.27L99.4699 45.85C98.4699 47.6 99.2699 49.35 101.27 49.35H119.67V30.5H122.67Z" fill="white"/>
<path d="M342.76 85.584C352.349 85.584 361.243 87.9813 369.44 92.776C377.792 97.5707 384.443 104.144 389.392 112.496C394.341 120.848 396.816 130.051 396.816 140.104C396.816 150.312 394.264 159.669 389.16 168.176C384.056 176.528 377.019 183.179 368.048 188.128C359.077 193.077 349.179 195.552 338.352 195.552C327.525 195.552 317.627 193.077 308.656 188.128C299.84 183.179 292.88 176.528 287.776 168.176C282.672 159.669 280.12 150.312 280.12 140.104C280.12 133.763 281.203 127.576 283.368 121.544C285.533 115.357 289.323 108.088 294.736 99.736L339.512 30.6H368.744L331.392 86.976C334.795 86.048 338.584 85.584 342.76 85.584ZM338.352 172.352C344.384 172.352 349.797 170.96 354.592 168.176C359.541 165.237 363.408 161.293 366.192 156.344C369.131 151.395 370.6 145.981 370.6 140.104C370.6 130.979 367.507 123.323 361.32 117.136C355.133 110.795 347.477 107.624 338.352 107.624C332.475 107.624 327.061 109.093 322.112 112.032C317.163 114.816 313.296 118.683 310.512 123.632C307.728 128.581 306.336 134.072 306.336 140.104C306.336 145.981 307.728 151.395 310.512 156.344C313.296 161.293 317.163 165.237 322.112 168.176C327.061 170.96 332.475 172.352 338.352 172.352Z" fill="white"/>
<defs>
<filter id="filter0_f_24_648" x="0" y="146" width="238" height="221" filterUnits="userSpaceOnUse" color-interpolation-filters="sRGB">
<feFlood flood-opacity="0" result="BackgroundImageFix"/>
<feBlend mode="normal" in="SourceGraphic" in2="BackgroundImageFix" result="shape"/>
<feGaussianBlur stdDeviation="0" result="effect1_foregroundBlur_24_648"/>
</filter>
</defs>
</svg>
