<svg width="426" height="418" viewBox="0 0 426 418" fill="none" xmlns="http://www.w3.org/2000/svg">
<rect x="31" y="52" width="394" height="335" rx="37" fill="white" stroke="black" stroke-width="2"/>
<g filter="url(#filter0_f_25_799)">
<rect x="177" y="357" width="116" height="99" rx="26" transform="rotate(180 177 357)" fill="#0029FF"/>
</g>
<rect x="240" y="301" width="155" height="56" rx="20" fill="black"/>
<path d="M263.4 316.2H264.9V326H263.4V322.1C262.707 322.433 261.92 322.6 261.04 322.6C259.813 322.6 258.847 322.26 258.14 321.58C257.447 320.9 257.1 319.94 257.1 318.7V316.2H258.6V318.7C258.6 319.5 258.793 320.12 259.18 320.56C259.567 320.987 260.22 321.2 261.14 321.2C261.873 321.2 262.627 321.033 263.4 320.7V316.2ZM275.811 316.2H277.311V326H275.811V324.5C275.397 325.02 274.877 325.433 274.251 325.74C273.624 326.047 272.944 326.2 272.211 326.2C271.317 326.2 270.484 325.98 269.711 325.54C268.937 325.087 268.324 324.473 267.871 323.7C267.417 322.913 267.191 322.047 267.191 321.1C267.191 320.153 267.417 319.293 267.871 318.52C268.324 317.733 268.937 317.12 269.711 316.68C270.484 316.227 271.317 316 272.211 316C272.944 316 273.624 316.153 274.251 316.46C274.877 316.767 275.397 317.18 275.811 317.7V316.2ZM272.331 324.8C272.984 324.8 273.584 324.64 274.131 324.32C274.677 323.987 275.111 323.54 275.431 322.98C275.751 322.42 275.911 321.793 275.911 321.1C275.911 320.407 275.751 319.78 275.431 319.22C275.111 318.66 274.677 318.22 274.131 317.9C273.584 317.567 272.984 317.4 272.331 317.4C271.677 317.4 271.077 317.567 270.531 317.9C269.984 318.22 269.551 318.66 269.231 319.22C268.911 319.78 268.751 320.407 268.751 321.1C268.751 321.793 268.911 322.42 269.231 322.98C269.551 323.54 269.984 323.987 270.531 324.32C271.077 324.64 271.677 324.8 272.331 324.8ZM284.633 326.2C283.726 326.2 282.886 325.98 282.113 325.54C281.353 325.087 280.746 324.473 280.293 323.7C279.839 322.913 279.613 322.047 279.613 321.1C279.613 320.153 279.839 319.293 280.293 318.52C280.746 317.733 281.353 317.12 282.113 316.68C282.886 316.227 283.726 316 284.633 316C285.699 316 286.659 316.293 287.513 316.88C288.379 317.467 288.986 318.273 289.333 319.3H287.733C287.439 318.7 287.013 318.233 286.453 317.9C285.893 317.567 285.286 317.4 284.633 317.4C284.006 317.4 283.426 317.567 282.893 317.9C282.359 318.22 281.939 318.66 281.633 319.22C281.326 319.78 281.173 320.407 281.173 321.1C281.173 321.793 281.326 322.42 281.633 322.98C281.939 323.54 282.359 323.987 282.893 324.32C283.426 324.64 284.006 324.8 284.633 324.8C285.286 324.8 285.893 324.633 286.453 324.3C287.013 323.967 287.439 323.5 287.733 322.9H289.333C288.986 323.927 288.379 324.733 287.513 325.32C286.659 325.907 285.699 326.2 284.633 326.2ZM292.026 328.66H290.626L291.726 324.06H293.526L292.026 328.66ZM308.034 320.78C308.567 320.967 308.98 321.273 309.274 321.7C309.567 322.127 309.714 322.627 309.714 323.2C309.714 324.027 309.4 324.7 308.774 325.22C308.147 325.74 307.3 326 306.234 326H301.934V316.2H305.934C306.947 316.2 307.747 316.44 308.334 316.92C308.92 317.4 309.214 318.027 309.214 318.8C309.214 319.2 309.1 319.58 308.874 319.94C308.66 320.3 308.38 320.58 308.034 320.78ZM303.434 317.6V320.22H305.874C306.447 320.22 306.887 320.1 307.194 319.86C307.5 319.607 307.654 319.287 307.654 318.9C307.654 318.527 307.5 318.22 307.194 317.98C306.9 317.727 306.48 317.6 305.934 317.6H303.434ZM306.234 324.6C306.834 324.6 307.3 324.467 307.634 324.2C307.98 323.933 308.154 323.567 308.154 323.1C308.154 322.62 307.98 322.247 307.634 321.98C307.287 321.713 306.8 321.58 306.174 321.58H303.434V324.6H306.234ZM317.112 316C318.005 316 318.838 316.227 319.612 316.68C320.385 317.12 320.998 317.733 321.452 318.52C321.905 319.293 322.132 320.153 322.132 321.1C322.132 322.047 321.905 322.913 321.452 323.7C320.998 324.473 320.385 325.087 319.612 325.54C318.838 325.98 318.005 326.2 317.112 326.2C316.378 326.2 315.698 326.047 315.072 325.74C314.445 325.433 313.925 325.02 313.512 324.5V330H312.012V316.2H313.512V317.7C313.925 317.18 314.445 316.767 315.072 316.46C315.698 316.153 316.378 316 317.112 316ZM317.012 324.8C317.665 324.8 318.258 324.64 318.792 324.32C319.338 323.987 319.772 323.54 320.092 322.98C320.412 322.42 320.572 321.793 320.572 321.1C320.572 320.407 320.412 319.78 320.092 319.22C319.772 318.66 319.338 318.22 318.792 317.9C318.258 317.567 317.665 317.4 317.012 317.4C316.358 317.4 315.752 317.567 315.192 317.9C314.645 318.22 314.212 318.66 313.892 319.22C313.572 319.78 313.412 320.407 313.412 321.1C313.412 321.793 313.572 322.42 313.892 322.98C314.212 323.54 314.645 323.987 315.192 324.32C315.752 324.64 316.358 324.8 317.012 324.8ZM328.654 316C329.547 316 330.36 316.207 331.094 316.62C331.84 317.02 332.427 317.593 332.854 318.34C333.28 319.073 333.494 319.913 333.494 320.86C333.494 321.18 333.48 321.427 333.454 321.6H325.314C325.407 322.573 325.747 323.353 326.334 323.94C326.934 324.513 327.707 324.8 328.654 324.8C330.04 324.8 331.04 324.233 331.654 323.1H333.254C332.854 324.1 332.26 324.867 331.474 325.4C330.687 325.933 329.747 326.2 328.654 326.2C327.734 326.2 326.894 325.98 326.134 325.54C325.387 325.087 324.8 324.473 324.374 323.7C323.947 322.927 323.734 322.06 323.734 321.1C323.734 320.14 323.947 319.273 324.374 318.5C324.8 317.727 325.387 317.12 326.134 316.68C326.894 316.227 327.734 316 328.654 316ZM328.654 317.4C327.774 317.4 327.04 317.653 326.454 318.16C325.88 318.667 325.52 319.36 325.374 320.24H331.914C331.82 319.387 331.467 318.7 330.854 318.18C330.254 317.66 329.52 317.4 328.654 317.4ZM346.303 316.2L347.103 326H345.603L345.163 318.92L341.663 326H340.943L337.423 318.86L336.963 326H335.503L336.303 316.2H337.583L341.323 323.82L345.063 316.2H346.303ZM357.202 316.18V326H355.702V322.34H353.922L350.902 326H349.102L352.202 322.28C351.416 322.133 350.776 321.787 350.282 321.24C349.802 320.693 349.562 320.033 349.562 319.26C349.562 318.673 349.702 318.147 349.982 317.68C350.276 317.213 350.676 316.847 351.182 316.58C351.702 316.313 352.276 316.18 352.902 316.18H357.202ZM355.702 320.94V317.58H353.002C352.442 317.58 351.989 317.733 351.642 318.04C351.296 318.333 351.122 318.74 351.122 319.26C351.122 319.78 351.296 320.193 351.642 320.5C351.989 320.793 352.442 320.94 353.002 320.94H355.702ZM263.6 340.78C264.133 340.967 264.547 341.273 264.84 341.7C265.133 342.127 265.28 342.627 265.28 343.2C265.28 344.027 264.967 344.7 264.34 345.22C263.713 345.74 262.867 346 261.8 346H257.5V336.2H261.5C262.513 336.2 263.313 336.44 263.9 336.92C264.487 337.4 264.78 338.027 264.78 338.8C264.78 339.2 264.667 339.58 264.44 339.94C264.227 340.3 263.947 340.58 263.6 340.78ZM259 337.6V340.22H261.44C262.013 340.22 262.453 340.1 262.76 339.86C263.067 339.607 263.22 339.287 263.22 338.9C263.22 338.527 263.067 338.22 262.76 337.98C262.467 337.727 262.047 337.6 261.5 337.6H259ZM261.8 344.6C262.4 344.6 262.867 344.467 263.2 344.2C263.547 343.933 263.72 343.567 263.72 343.1C263.72 342.62 263.547 342.247 263.2 341.98C262.853 341.713 262.367 341.58 261.74 341.58H259V344.6H261.8ZM276.284 341.02L281.264 346H279.224L274.684 341.4V346H273.184V336.2H274.684V340.74L279.004 336.2H280.924L276.284 341.02ZM286.783 346.2C285.85 346.2 284.99 345.98 284.203 345.54C283.43 345.087 282.81 344.473 282.343 343.7C281.89 342.913 281.663 342.047 281.663 341.1C281.663 340.153 281.89 339.293 282.343 338.52C282.81 337.733 283.43 337.12 284.203 336.68C284.99 336.227 285.85 336 286.783 336C287.717 336 288.57 336.227 289.343 336.68C290.13 337.12 290.75 337.733 291.203 338.52C291.67 339.293 291.903 340.153 291.903 341.1C291.903 342.047 291.67 342.913 291.203 343.7C290.75 344.473 290.13 345.087 289.343 345.54C288.57 345.98 287.717 346.2 286.783 346.2ZM286.783 344.8C287.437 344.8 288.03 344.64 288.563 344.32C289.11 343.987 289.543 343.54 289.863 342.98C290.183 342.42 290.343 341.793 290.343 341.1C290.343 340.407 290.183 339.78 289.863 339.22C289.543 338.66 289.11 338.22 288.563 337.9C288.03 337.567 287.437 337.4 286.783 337.4C286.13 337.4 285.53 337.567 284.983 337.9C284.45 338.22 284.023 338.66 283.703 339.22C283.383 339.78 283.223 340.407 283.223 341.1C283.223 341.793 283.383 342.42 283.703 342.98C284.023 343.54 284.45 343.987 284.983 344.32C285.53 344.64 286.13 344.8 286.783 344.8ZM300.299 340.78C300.833 340.967 301.246 341.273 301.539 341.7C301.833 342.127 301.979 342.627 301.979 343.2C301.979 344.027 301.666 344.7 301.039 345.22C300.413 345.74 299.566 346 298.499 346H294.199V336.2H298.199C299.213 336.2 300.013 336.44 300.599 336.92C301.186 337.4 301.479 338.027 301.479 338.8C301.479 339.2 301.366 339.58 301.139 339.94C300.926 340.3 300.646 340.58 300.299 340.78ZM295.699 337.6V340.22H298.139C298.713 340.22 299.153 340.1 299.459 339.86C299.766 339.607 299.919 339.287 299.919 338.9C299.919 338.527 299.766 338.22 299.459 337.98C299.166 337.727 298.746 337.6 298.199 337.6H295.699ZM298.499 344.6C299.099 344.6 299.566 344.467 299.899 344.2C300.246 343.933 300.419 343.567 300.419 343.1C300.419 342.62 300.246 342.247 299.899 341.98C299.553 341.713 299.066 341.58 298.439 341.58H295.699V344.6H298.499ZM308.697 346.2C307.764 346.2 306.904 345.98 306.117 345.54C305.344 345.087 304.724 344.473 304.257 343.7C303.804 342.913 303.577 342.047 303.577 341.1C303.577 340.153 303.804 339.293 304.257 338.52C304.724 337.733 305.344 337.12 306.117 336.68C306.904 336.227 307.764 336 308.697 336C309.631 336 310.484 336.227 311.257 336.68C312.044 337.12 312.664 337.733 313.117 338.52C313.584 339.293 313.817 340.153 313.817 341.1C313.817 342.047 313.584 342.913 313.117 343.7C312.664 344.473 312.044 345.087 311.257 345.54C310.484 345.98 309.631 346.2 308.697 346.2ZM308.697 344.8C309.351 344.8 309.944 344.64 310.477 344.32C311.024 343.987 311.457 343.54 311.777 342.98C312.097 342.42 312.257 341.793 312.257 341.1C312.257 340.407 312.097 339.78 311.777 339.22C311.457 338.66 311.024 338.22 310.477 337.9C309.944 337.567 309.351 337.4 308.697 337.4C308.044 337.4 307.444 337.567 306.897 337.9C306.364 338.22 305.937 338.66 305.617 339.22C305.297 339.78 305.137 340.407 305.137 341.1C305.137 341.793 305.297 342.42 305.617 342.98C305.937 343.54 306.364 343.987 306.897 344.32C307.444 344.64 308.044 344.8 308.697 344.8ZM321.213 336C322.107 336 322.94 336.227 323.713 336.68C324.487 337.12 325.1 337.733 325.553 338.52C326.007 339.293 326.233 340.153 326.233 341.1C326.233 342.047 326.007 342.913 325.553 343.7C325.1 344.473 324.487 345.087 323.713 345.54C322.94 345.98 322.107 346.2 321.213 346.2C320.48 346.2 319.8 346.047 319.173 345.74C318.547 345.433 318.027 345.02 317.613 344.5V350H316.113V336.2H317.613V337.7C318.027 337.18 318.547 336.767 319.173 336.46C319.8 336.153 320.48 336 321.213 336ZM321.113 344.8C321.767 344.8 322.36 344.64 322.893 344.32C323.44 343.987 323.873 343.54 324.193 342.98C324.513 342.42 324.673 341.793 324.673 341.1C324.673 340.407 324.513 339.78 324.193 339.22C323.873 338.66 323.44 338.22 322.893 337.9C322.36 337.567 321.767 337.4 321.113 337.4C320.46 337.4 319.853 337.567 319.293 337.9C318.747 338.22 318.313 338.66 317.993 339.22C317.673 339.78 317.513 340.407 317.513 341.1C317.513 341.793 317.673 342.42 317.993 342.98C318.313 343.54 318.747 343.987 319.293 344.32C319.853 344.64 320.46 344.8 321.113 344.8ZM331.635 341.02L336.615 346H334.575L330.035 341.4V346H328.535V336.2H330.035V340.74L334.355 336.2H336.275L331.635 341.02ZM339.723 343.58L345.623 336.2H346.823V346H345.323V338.62L339.423 346H338.223V336.2H339.723V343.58ZM356.824 340.3V336.2H358.324V346H356.824V341.7H351.324V346H349.824V336.2H351.324V340.3H356.824ZM362.828 346H361.328V336.2H367.528V337.6H362.828V346ZM373.243 336C374.137 336 374.95 336.207 375.683 336.62C376.43 337.02 377.017 337.593 377.443 338.34C377.87 339.073 378.083 339.913 378.083 340.86C378.083 341.18 378.07 341.427 378.043 341.6H369.903C369.997 342.573 370.337 343.353 370.923 343.94C371.523 344.513 372.297 344.8 373.243 344.8C374.63 344.8 375.63 344.233 376.243 343.1H377.843C377.443 344.1 376.85 344.867 376.063 345.4C375.277 345.933 374.337 346.2 373.243 346.2C372.323 346.2 371.483 345.98 370.723 345.54C369.977 345.087 369.39 344.473 368.963 343.7C368.537 342.927 368.323 342.06 368.323 341.1C368.323 340.14 368.537 339.273 368.963 338.5C369.39 337.727 369.977 337.12 370.723 336.68C371.483 336.227 372.323 336 373.243 336ZM373.243 337.4C372.363 337.4 371.63 337.653 371.043 338.16C370.47 338.667 370.11 339.36 369.963 340.24H376.503C376.41 339.387 376.057 338.7 375.443 338.18C374.843 337.66 374.11 337.4 373.243 337.4Z" fill="white"/>
<path d="M72.2 115L81.3 99.15H72.95L63.8 115H60.75L69.9 99.15H60.75V96.4H65.85L74.5 81.5H77.55L68.9 96.4H77.3L85.9 81.5H89L80.35 96.4H89.9V99.15H84.4L75.25 115H72.2ZM97.2199 115V112.15H111.72V85.9C111.72 83.85 109.97 83.1 108.22 84.1L97.1699 90.4V87.25L105.72 82.35C110.27 79.75 114.72 82.35 114.72 87.35V112.15H122.77V115H97.2199Z" fill="#0029FF"/>
<path d="M333.64 100.392L374.936 81.6H394.656V244H369.136V108.976L333.64 125.216V100.392Z" fill="#0029FF"/>
<defs>
<filter id="filter0_f_25_799" x="0" y="197" width="238" height="221" filterUnits="userSpaceOnUse" color-interpolation-filters="sRGB">
<feFlood flood-opacity="0" result="BackgroundImageFix"/>
<feBlend mode="normal" in="SourceGraphic" in2="BackgroundImageFix" result="shape"/>
<feGaussianBlur stdDeviation="0" result="effect1_foregroundBlur_25_799"/>
</filter>
</defs>
</svg>
