<svg width="426" height="418" viewBox="0 0 426 418" fill="none" xmlns="http://www.w3.org/2000/svg">
<rect x="31" y="52" width="394" height="335" rx="39" fill="white" stroke="black" stroke-width="2"/>
<g filter="url(#filter0_f_25_771)">
<rect x="61" y="258" width="116" height="99" rx="26" fill="#0029FF"/>
</g>
<rect x="240" y="301" width="155" height="56" rx="20" fill="black"/>
<path d="M263.4 316.2H264.9V326H263.4V322.1C262.707 322.433 261.92 322.6 261.04 322.6C259.813 322.6 258.847 322.26 258.14 321.58C257.447 320.9 257.1 319.94 257.1 318.7V316.2H258.6V318.7C258.6 319.5 258.793 320.12 259.18 320.56C259.567 320.987 260.22 321.2 261.14 321.2C261.873 321.2 262.627 321.033 263.4 320.7V316.2ZM275.811 316.2H277.311V326H275.811V324.5C275.397 325.02 274.877 325.433 274.251 325.74C273.624 326.047 272.944 326.2 272.211 326.2C271.317 326.2 270.484 325.98 269.711 325.54C268.937 325.087 268.324 324.473 267.871 323.7C267.417 322.913 267.191 322.047 267.191 321.1C267.191 320.153 267.417 319.293 267.871 318.52C268.324 317.733 268.937 317.12 269.711 316.68C270.484 316.227 271.317 316 272.211 316C272.944 316 273.624 316.153 274.251 316.46C274.877 316.767 275.397 317.18 275.811 317.7V316.2ZM272.331 324.8C272.984 324.8 273.584 324.64 274.131 324.32C274.677 323.987 275.111 323.54 275.431 322.98C275.751 322.42 275.911 321.793 275.911 321.1C275.911 320.407 275.751 319.78 275.431 319.22C275.111 318.66 274.677 318.22 274.131 317.9C273.584 317.567 272.984 317.4 272.331 317.4C271.677 317.4 271.077 317.567 270.531 317.9C269.984 318.22 269.551 318.66 269.231 319.22C268.911 319.78 268.751 320.407 268.751 321.1C268.751 321.793 268.911 322.42 269.231 322.98C269.551 323.54 269.984 323.987 270.531 324.32C271.077 324.64 271.677 324.8 272.331 324.8ZM284.633 326.2C283.726 326.2 282.886 325.98 282.113 325.54C281.353 325.087 280.746 324.473 280.293 323.7C279.839 322.913 279.613 322.047 279.613 321.1C279.613 320.153 279.839 319.293 280.293 318.52C280.746 317.733 281.353 317.12 282.113 316.68C282.886 316.227 283.726 316 284.633 316C285.699 316 286.659 316.293 287.513 316.88C288.379 317.467 288.986 318.273 289.333 319.3H287.733C287.439 318.7 287.013 318.233 286.453 317.9C285.893 317.567 285.286 317.4 284.633 317.4C284.006 317.4 283.426 317.567 282.893 317.9C282.359 318.22 281.939 318.66 281.633 319.22C281.326 319.78 281.173 320.407 281.173 321.1C281.173 321.793 281.326 322.42 281.633 322.98C281.939 323.54 282.359 323.987 282.893 324.32C283.426 324.64 284.006 324.8 284.633 324.8C285.286 324.8 285.893 324.633 286.453 324.3C287.013 323.967 287.439 323.5 287.733 322.9H289.333C288.986 323.927 288.379 324.733 287.513 325.32C286.659 325.907 285.699 326.2 284.633 326.2ZM299.346 316.2H300.846V326H299.346V324.5C298.932 325.02 298.412 325.433 297.786 325.74C297.159 326.047 296.479 326.2 295.746 326.2C294.852 326.2 294.019 325.98 293.246 325.54C292.472 325.087 291.859 324.473 291.406 323.7C290.952 322.913 290.726 322.047 290.726 321.1C290.726 320.153 290.952 319.293 291.406 318.52C291.859 317.733 292.472 317.12 293.246 316.68C294.019 316.227 294.852 316 295.746 316C296.479 316 297.159 316.153 297.786 316.46C298.412 316.767 298.932 317.18 299.346 317.7V316.2ZM295.866 324.8C296.519 324.8 297.119 324.64 297.666 324.32C298.212 323.987 298.646 323.54 298.966 322.98C299.286 322.42 299.446 321.793 299.446 321.1C299.446 320.407 299.286 319.78 298.966 319.22C298.646 318.66 298.212 318.22 297.666 317.9C297.119 317.567 296.519 317.4 295.866 317.4C295.212 317.4 294.612 317.567 294.066 317.9C293.519 318.22 293.086 318.66 292.766 319.22C292.446 319.78 292.286 320.407 292.286 321.1C292.286 321.793 292.446 322.42 292.766 322.98C293.086 323.54 293.519 323.987 294.066 324.32C294.612 324.64 295.212 324.8 295.866 324.8ZM304.448 328.66H303.048L304.148 324.06H305.948L304.448 328.66ZM320.455 320.78C320.989 320.967 321.402 321.273 321.695 321.7C321.989 322.127 322.135 322.627 322.135 323.2C322.135 324.027 321.822 324.7 321.195 325.22C320.569 325.74 319.722 326 318.655 326H314.355V316.2H318.355C319.369 316.2 320.169 316.44 320.755 316.92C321.342 317.4 321.635 318.027 321.635 318.8C321.635 319.2 321.522 319.58 321.295 319.94C321.082 320.3 320.802 320.58 320.455 320.78ZM315.855 317.6V320.22H318.295C318.869 320.22 319.309 320.1 319.615 319.86C319.922 319.607 320.075 319.287 320.075 318.9C320.075 318.527 319.922 318.22 319.615 317.98C319.322 317.727 318.902 317.6 318.355 317.6H315.855ZM318.655 324.6C319.255 324.6 319.722 324.467 320.055 324.2C320.402 323.933 320.575 323.567 320.575 323.1C320.575 322.62 320.402 322.247 320.055 321.98C319.709 321.713 319.222 321.58 318.595 321.58H315.855V324.6H318.655ZM329.534 316C330.427 316 331.26 316.227 332.034 316.68C332.807 317.12 333.42 317.733 333.874 318.52C334.327 319.293 334.554 320.153 334.554 321.1C334.554 322.047 334.327 322.913 333.874 323.7C333.42 324.473 332.807 325.087 332.034 325.54C331.26 325.98 330.427 326.2 329.534 326.2C328.8 326.2 328.12 326.047 327.494 325.74C326.867 325.433 326.347 325.02 325.934 324.5V330H324.434V316.2H325.934V317.7C326.347 317.18 326.867 316.767 327.494 316.46C328.12 316.153 328.8 316 329.534 316ZM329.434 324.8C330.087 324.8 330.68 324.64 331.214 324.32C331.76 323.987 332.194 323.54 332.514 322.98C332.834 322.42 332.994 321.793 332.994 321.1C332.994 320.407 332.834 319.78 332.514 319.22C332.194 318.66 331.76 318.22 331.214 317.9C330.68 317.567 330.087 317.4 329.434 317.4C328.78 317.4 328.174 317.567 327.614 317.9C327.067 318.22 326.634 318.66 326.314 319.22C325.994 319.78 325.834 320.407 325.834 321.1C325.834 321.793 325.994 322.42 326.314 322.98C326.634 323.54 327.067 323.987 327.614 324.32C328.174 324.64 328.78 324.8 329.434 324.8ZM341.075 316C341.969 316 342.782 316.207 343.515 316.62C344.262 317.02 344.849 317.593 345.275 318.34C345.702 319.073 345.915 319.913 345.915 320.86C345.915 321.18 345.902 321.427 345.875 321.6H337.735C337.829 322.573 338.169 323.353 338.755 323.94C339.355 324.513 340.129 324.8 341.075 324.8C342.462 324.8 343.462 324.233 344.075 323.1H345.675C345.275 324.1 344.682 324.867 343.895 325.4C343.109 325.933 342.169 326.2 341.075 326.2C340.155 326.2 339.315 325.98 338.555 325.54C337.809 325.087 337.222 324.473 336.795 323.7C336.369 322.927 336.155 322.06 336.155 321.1C336.155 320.14 336.369 319.273 336.795 318.5C337.222 317.727 337.809 317.12 338.555 316.68C339.315 316.227 340.155 316 341.075 316ZM341.075 317.4C340.195 317.4 339.462 317.653 338.875 318.16C338.302 318.667 337.942 319.36 337.795 320.24H344.335C344.242 319.387 343.889 318.7 343.275 318.18C342.675 317.66 341.942 317.4 341.075 317.4ZM358.725 316.2L359.525 326H358.025L357.585 318.92L354.085 326H353.365L349.845 318.86L349.385 326H347.925L348.725 316.2H350.005L353.745 323.82L357.485 316.2H358.725ZM369.624 316.18V326H368.124V322.34H366.344L363.324 326H361.524L364.624 322.28C363.838 322.133 363.198 321.787 362.704 321.24C362.224 320.693 361.984 320.033 361.984 319.26C361.984 318.673 362.124 318.147 362.404 317.68C362.698 317.213 363.098 316.847 363.604 316.58C364.124 316.313 364.698 316.18 365.324 316.18H369.624ZM368.124 320.94V317.58H365.424C364.864 317.58 364.411 317.733 364.064 318.04C363.718 318.333 363.544 318.74 363.544 319.26C363.544 319.78 363.718 320.193 364.064 320.5C364.411 320.793 364.864 320.94 365.424 320.94H368.124ZM263.6 340.78C264.133 340.967 264.547 341.273 264.84 341.7C265.133 342.127 265.28 342.627 265.28 343.2C265.28 344.027 264.967 344.7 264.34 345.22C263.713 345.74 262.867 346 261.8 346H257.5V336.2H261.5C262.513 336.2 263.313 336.44 263.9 336.92C264.487 337.4 264.78 338.027 264.78 338.8C264.78 339.2 264.667 339.58 264.44 339.94C264.227 340.3 263.947 340.58 263.6 340.78ZM259 337.6V340.22H261.44C262.013 340.22 262.453 340.1 262.76 339.86C263.067 339.607 263.22 339.287 263.22 338.9C263.22 338.527 263.067 338.22 262.76 337.98C262.467 337.727 262.047 337.6 261.5 337.6H259ZM261.8 344.6C262.4 344.6 262.867 344.467 263.2 344.2C263.547 343.933 263.72 343.567 263.72 343.1C263.72 342.62 263.547 342.247 263.2 341.98C262.853 341.713 262.367 341.58 261.74 341.58H259V344.6H261.8ZM276.284 341.02L281.264 346H279.224L274.684 341.4V346H273.184V336.2H274.684V340.74L279.004 336.2H280.924L276.284 341.02ZM286.783 346.2C285.85 346.2 284.99 345.98 284.203 345.54C283.43 345.087 282.81 344.473 282.343 343.7C281.89 342.913 281.663 342.047 281.663 341.1C281.663 340.153 281.89 339.293 282.343 338.52C282.81 337.733 283.43 337.12 284.203 336.68C284.99 336.227 285.85 336 286.783 336C287.717 336 288.57 336.227 289.343 336.68C290.13 337.12 290.75 337.733 291.203 338.52C291.67 339.293 291.903 340.153 291.903 341.1C291.903 342.047 291.67 342.913 291.203 343.7C290.75 344.473 290.13 345.087 289.343 345.54C288.57 345.98 287.717 346.2 286.783 346.2ZM286.783 344.8C287.437 344.8 288.03 344.64 288.563 344.32C289.11 343.987 289.543 343.54 289.863 342.98C290.183 342.42 290.343 341.793 290.343 341.1C290.343 340.407 290.183 339.78 289.863 339.22C289.543 338.66 289.11 338.22 288.563 337.9C288.03 337.567 287.437 337.4 286.783 337.4C286.13 337.4 285.53 337.567 284.983 337.9C284.45 338.22 284.023 338.66 283.703 339.22C283.383 339.78 283.223 340.407 283.223 341.1C283.223 341.793 283.383 342.42 283.703 342.98C284.023 343.54 284.45 343.987 284.983 344.32C285.53 344.64 286.13 344.8 286.783 344.8ZM300.299 340.78C300.833 340.967 301.246 341.273 301.539 341.7C301.833 342.127 301.979 342.627 301.979 343.2C301.979 344.027 301.666 344.7 301.039 345.22C300.413 345.74 299.566 346 298.499 346H294.199V336.2H298.199C299.213 336.2 300.013 336.44 300.599 336.92C301.186 337.4 301.479 338.027 301.479 338.8C301.479 339.2 301.366 339.58 301.139 339.94C300.926 340.3 300.646 340.58 300.299 340.78ZM295.699 337.6V340.22H298.139C298.713 340.22 299.153 340.1 299.459 339.86C299.766 339.607 299.919 339.287 299.919 338.9C299.919 338.527 299.766 338.22 299.459 337.98C299.166 337.727 298.746 337.6 298.199 337.6H295.699ZM298.499 344.6C299.099 344.6 299.566 344.467 299.899 344.2C300.246 343.933 300.419 343.567 300.419 343.1C300.419 342.62 300.246 342.247 299.899 341.98C299.553 341.713 299.066 341.58 298.439 341.58H295.699V344.6H298.499ZM308.697 346.2C307.764 346.2 306.904 345.98 306.117 345.54C305.344 345.087 304.724 344.473 304.257 343.7C303.804 342.913 303.577 342.047 303.577 341.1C303.577 340.153 303.804 339.293 304.257 338.52C304.724 337.733 305.344 337.12 306.117 336.68C306.904 336.227 307.764 336 308.697 336C309.631 336 310.484 336.227 311.257 336.68C312.044 337.12 312.664 337.733 313.117 338.52C313.584 339.293 313.817 340.153 313.817 341.1C313.817 342.047 313.584 342.913 313.117 343.7C312.664 344.473 312.044 345.087 311.257 345.54C310.484 345.98 309.631 346.2 308.697 346.2ZM308.697 344.8C309.351 344.8 309.944 344.64 310.477 344.32C311.024 343.987 311.457 343.54 311.777 342.98C312.097 342.42 312.257 341.793 312.257 341.1C312.257 340.407 312.097 339.78 311.777 339.22C311.457 338.66 311.024 338.22 310.477 337.9C309.944 337.567 309.351 337.4 308.697 337.4C308.044 337.4 307.444 337.567 306.897 337.9C306.364 338.22 305.937 338.66 305.617 339.22C305.297 339.78 305.137 340.407 305.137 341.1C305.137 341.793 305.297 342.42 305.617 342.98C305.937 343.54 306.364 343.987 306.897 344.32C307.444 344.64 308.044 344.8 308.697 344.8ZM321.213 336C322.107 336 322.94 336.227 323.713 336.68C324.487 337.12 325.1 337.733 325.553 338.52C326.007 339.293 326.233 340.153 326.233 341.1C326.233 342.047 326.007 342.913 325.553 343.7C325.1 344.473 324.487 345.087 323.713 345.54C322.94 345.98 322.107 346.2 321.213 346.2C320.48 346.2 319.8 346.047 319.173 345.74C318.547 345.433 318.027 345.02 317.613 344.5V350H316.113V336.2H317.613V337.7C318.027 337.18 318.547 336.767 319.173 336.46C319.8 336.153 320.48 336 321.213 336ZM321.113 344.8C321.767 344.8 322.36 344.64 322.893 344.32C323.44 343.987 323.873 343.54 324.193 342.98C324.513 342.42 324.673 341.793 324.673 341.1C324.673 340.407 324.513 339.78 324.193 339.22C323.873 338.66 323.44 338.22 322.893 337.9C322.36 337.567 321.767 337.4 321.113 337.4C320.46 337.4 319.853 337.567 319.293 337.9C318.747 338.22 318.313 338.66 317.993 339.22C317.673 339.78 317.513 340.407 317.513 341.1C317.513 341.793 317.673 342.42 317.993 342.98C318.313 343.54 318.747 343.987 319.293 344.32C319.853 344.64 320.46 344.8 321.113 344.8ZM331.635 341.02L336.615 346H334.575L330.035 341.4V346H328.535V336.2H330.035V340.74L334.355 336.2H336.275L331.635 341.02ZM339.723 343.58L345.623 336.2H346.823V346H345.323V338.62L339.423 346H338.223V336.2H339.723V343.58ZM356.824 340.3V336.2H358.324V346H356.824V341.7H351.324V346H349.824V336.2H351.324V340.3H356.824ZM362.828 346H361.328V336.2H367.528V337.6H362.828V346ZM373.243 336C374.137 336 374.95 336.207 375.683 336.62C376.43 337.02 377.017 337.593 377.443 338.34C377.87 339.073 378.083 339.913 378.083 340.86C378.083 341.18 378.07 341.427 378.043 341.6H369.903C369.997 342.573 370.337 343.353 370.923 343.94C371.523 344.513 372.297 344.8 373.243 344.8C374.63 344.8 375.63 344.233 376.243 343.1H377.843C377.443 344.1 376.85 344.867 376.063 345.4C375.277 345.933 374.337 346.2 373.243 346.2C372.323 346.2 371.483 345.98 370.723 345.54C369.977 345.087 369.39 344.473 368.963 343.7C368.537 342.927 368.323 342.06 368.323 341.1C368.323 340.14 368.537 339.273 368.963 338.5C369.39 337.727 369.977 337.12 370.723 336.68C371.483 336.227 372.323 336 373.243 336ZM373.243 337.4C372.363 337.4 371.63 337.653 371.043 338.16C370.47 338.667 370.11 339.36 369.963 340.24H376.503C376.41 339.387 376.057 338.7 375.443 338.18C374.843 337.66 374.11 337.4 373.243 337.4Z" fill="white"/>
<path d="M72.2 115L81.3 99.15H72.95L63.8 115H60.75L69.9 99.15H60.75V96.4H65.85L74.5 81.5H77.55L68.9 96.4H77.3L85.9 81.5H89L80.35 96.4H89.9V99.15H84.4L75.25 115H72.2ZM119.57 87.85C120.57 86.05 119.77 84.3 117.77 84.3H98.1699V81.5H116.32C121.37 81.5 123.97 85.95 121.47 90.35L117.82 96.65C121.37 97.65 123.52 100.6 123.52 104.8V106.65C123.52 111.8 120.22 115.1 115.12 115.1H98.1699V112.3H117.17C119.27 112.3 120.52 110.95 120.52 108.95V102.45C120.52 100.45 119.27 99.15 117.17 99.15H100.02V96.3H114.72L119.57 87.85Z" fill="#0029FF"/>
<path d="M371.168 186.232H395.296V208.968H371.168V244H346.576V208.968H271.176V192.728L351.912 81.6H371.168V186.232ZM346.576 125.216L302.728 186.232H346.576V125.216Z" fill="#0029FF"/>
<defs>
<filter id="filter0_f_25_771" x="0" y="197" width="238" height="221" filterUnits="userSpaceOnUse" color-interpolation-filters="sRGB">
<feFlood flood-opacity="0" result="BackgroundImageFix"/>
<feBlend mode="normal" in="SourceGraphic" in2="BackgroundImageFix" result="shape"/>
<feGaussianBlur stdDeviation="0" result="effect1_foregroundBlur_25_771"/>
</filter>
</defs>
</svg>
