<svg width="279" height="340" viewBox="0 0 279 340" fill="none" xmlns="http://www.w3.org/2000/svg">
<path d="M10.944 164V145.988C10.944 134.892 12.844 125.772 16.644 118.628C20.444 111.484 25.84 105.708 32.832 101.3C39.976 96.74 48.564 92.94 58.596 89.9L72.504 85.568C78.736 83.592 84.056 81.16 88.464 78.272C93.024 75.384 96.52 71.812 98.952 67.556C101.384 63.148 102.6 58.056 102.6 52.28V51.368C102.6 42.4 99.56 35.408 93.48 30.392C87.4 25.224 79.42 22.64 69.54 22.64C59.356 22.64 51.072 25.376 44.688 30.848C38.456 36.32 35.34 44.376 35.34 55.016V58.664H11.628V55.244C11.628 43.692 14.136 33.964 19.152 26.06C24.168 18.004 31.084 11.848 39.9 7.59199C48.716 3.33599 58.596 1.20799 69.54 1.20799C80.484 1.20799 90.212 3.25999 98.724 7.36399C107.388 11.468 114.152 17.244 119.016 24.692C124.032 32.14 126.54 40.88 126.54 50.912V52.964C126.54 63.3 124.488 71.888 120.384 78.728C116.28 85.568 110.58 91.192 103.284 95.6C96.14 100.008 87.856 103.732 78.432 106.772L64.98 110.876C57.836 113.004 52.06 115.36 47.652 117.944C43.396 120.376 40.204 123.34 38.076 126.836C36.1 130.332 35.112 134.816 35.112 140.288V142.568H125.172V164H10.944ZM200.562 167.192C182.018 167.192 167.198 161.948 156.102 151.46C145.158 140.82 139.686 124.86 139.686 103.58V64.82C139.686 43.996 145.158 28.188 156.102 17.396C167.198 6.60399 182.018 1.20799 200.562 1.20799C219.258 1.20799 234.078 6.60399 245.022 17.396C256.118 28.188 261.666 43.996 261.666 64.82V103.58C261.666 124.86 256.118 140.82 245.022 151.46C234.078 161.948 219.258 167.192 200.562 167.192ZM200.562 145.76C213.178 145.76 222.526 142.188 228.606 135.044C234.686 127.748 237.726 117.564 237.726 104.492V63.452C237.726 50.38 234.458 40.348 227.922 33.356C221.386 26.212 212.266 22.64 200.562 22.64C188.706 22.64 179.586 26.288 173.202 33.584C166.818 40.728 163.626 50.684 163.626 63.452V104.492C163.626 117.868 166.666 128.128 172.746 135.272C178.978 142.264 188.25 145.76 200.562 145.76ZM87.324 334V301.396H6.612V273.58L67.716 174.4H111.264V280.192H138.168V301.396H111.264V334H87.324ZM29.868 280.192H87.324V189.448H83.676L29.868 277V280.192ZM202.893 337.192C191.037 337.192 180.853 335.216 172.341 331.264C163.829 327.16 157.293 321.46 152.733 314.164C148.173 306.716 145.893 298.052 145.893 288.172H170.289C170.289 296.076 172.873 302.688 178.041 308.008C183.361 313.176 191.645 315.76 202.893 315.76C214.293 315.76 223.033 312.72 229.113 306.64C235.193 300.56 238.233 292.276 238.233 281.788V262.636H234.585C232.001 266.284 227.821 269.78 222.045 273.124C216.269 276.468 207.909 278.14 196.965 278.14C187.693 278.14 179.105 276.088 171.201 271.984C163.297 267.88 156.913 262.028 152.049 254.428C147.337 246.676 144.981 237.48 144.981 226.84V224.104C144.981 213.464 147.413 204.192 152.277 196.288C157.293 188.384 164.209 182.228 173.025 177.82C181.993 173.412 192.253 171.208 203.805 171.208C215.509 171.208 225.693 173.488 234.357 178.048C243.173 182.456 250.013 188.688 254.877 196.744C259.741 204.648 262.173 213.996 262.173 224.788V279.964C262.173 292.428 259.665 302.916 254.649 311.428C249.785 319.94 242.869 326.4 233.901 330.808C225.085 335.064 214.749 337.192 202.893 337.192ZM203.577 258.76C210.569 258.76 216.649 257.392 221.817 254.656C226.985 251.92 231.013 248.196 233.901 243.484C236.789 238.62 238.233 232.92 238.233 226.384V224.56C238.233 214.68 235.041 206.928 228.657 201.304C222.425 195.528 214.065 192.64 203.577 192.64C193.089 192.64 184.653 195.528 178.269 201.304C172.037 206.928 168.921 214.68 168.921 224.56V226.384C168.921 232.92 170.289 238.62 173.025 243.484C175.913 248.196 179.941 251.92 185.109 254.656C190.429 257.392 196.585 258.76 203.577 258.76Z" fill="white"/>
</svg>
