<svg width="426" height="367" viewBox="0 0 426 367" fill="none" xmlns="http://www.w3.org/2000/svg">
<rect x="30" width="396" height="337" rx="38" fill="white"/>
<g filter="url(#filter0_f_60_19)">
<rect x="177" y="306" width="116" height="99" rx="26" transform="rotate(180 177 306)" fill="#0029FF"/>
</g>
<rect x="240" y="250" width="155" height="56" rx="20" fill="black"/>
<path d="M263.4 265.2H264.9V275H263.4V271.1C262.707 271.433 261.92 271.6 261.04 271.6C259.813 271.6 258.847 271.26 258.14 270.58C257.447 269.9 257.1 268.94 257.1 267.7V265.2H258.6V267.7C258.6 268.5 258.793 269.12 259.18 269.56C259.567 269.987 260.22 270.2 261.14 270.2C261.873 270.2 262.627 270.033 263.4 269.7V265.2ZM275.811 265.2H277.311V275H275.811V273.5C275.397 274.02 274.877 274.433 274.251 274.74C273.624 275.047 272.944 275.2 272.211 275.2C271.317 275.2 270.484 274.98 269.711 274.54C268.937 274.087 268.324 273.473 267.871 272.7C267.417 271.913 267.191 271.047 267.191 270.1C267.191 269.153 267.417 268.293 267.871 267.52C268.324 266.733 268.937 266.12 269.711 265.68C270.484 265.227 271.317 265 272.211 265C272.944 265 273.624 265.153 274.251 265.46C274.877 265.767 275.397 266.18 275.811 266.7V265.2ZM272.331 273.8C272.984 273.8 273.584 273.64 274.131 273.32C274.677 272.987 275.111 272.54 275.431 271.98C275.751 271.42 275.911 270.793 275.911 270.1C275.911 269.407 275.751 268.78 275.431 268.22C275.111 267.66 274.677 267.22 274.131 266.9C273.584 266.567 272.984 266.4 272.331 266.4C271.677 266.4 271.077 266.567 270.531 266.9C269.984 267.22 269.551 267.66 269.231 268.22C268.911 268.78 268.751 269.407 268.751 270.1C268.751 270.793 268.911 271.42 269.231 271.98C269.551 272.54 269.984 272.987 270.531 273.32C271.077 273.64 271.677 273.8 272.331 273.8ZM284.633 275.2C283.726 275.2 282.886 274.98 282.113 274.54C281.353 274.087 280.746 273.473 280.293 272.7C279.839 271.913 279.613 271.047 279.613 270.1C279.613 269.153 279.839 268.293 280.293 267.52C280.746 266.733 281.353 266.12 282.113 265.68C282.886 265.227 283.726 265 284.633 265C285.699 265 286.659 265.293 287.513 265.88C288.379 266.467 288.986 267.273 289.333 268.3H287.733C287.439 267.7 287.013 267.233 286.453 266.9C285.893 266.567 285.286 266.4 284.633 266.4C284.006 266.4 283.426 266.567 282.893 266.9C282.359 267.22 281.939 267.66 281.633 268.22C281.326 268.78 281.173 269.407 281.173 270.1C281.173 270.793 281.326 271.42 281.633 271.98C281.939 272.54 282.359 272.987 282.893 273.32C283.426 273.64 284.006 273.8 284.633 273.8C285.286 273.8 285.893 273.633 286.453 273.3C287.013 272.967 287.439 272.5 287.733 271.9H289.333C288.986 272.927 288.379 273.733 287.513 274.32C286.659 274.907 285.699 275.2 284.633 275.2ZM292.026 277.66H290.626L291.726 273.06H293.526L292.026 277.66ZM308.034 269.78C308.567 269.967 308.98 270.273 309.274 270.7C309.567 271.127 309.714 271.627 309.714 272.2C309.714 273.027 309.4 273.7 308.774 274.22C308.147 274.74 307.3 275 306.234 275H301.934V265.2H305.934C306.947 265.2 307.747 265.44 308.334 265.92C308.92 266.4 309.214 267.027 309.214 267.8C309.214 268.2 309.1 268.58 308.874 268.94C308.66 269.3 308.38 269.58 308.034 269.78ZM303.434 266.6V269.22H305.874C306.447 269.22 306.887 269.1 307.194 268.86C307.5 268.607 307.654 268.287 307.654 267.9C307.654 267.527 307.5 267.22 307.194 266.98C306.9 266.727 306.48 266.6 305.934 266.6H303.434ZM306.234 273.6C306.834 273.6 307.3 273.467 307.634 273.2C307.98 272.933 308.154 272.567 308.154 272.1C308.154 271.62 307.98 271.247 307.634 270.98C307.287 270.713 306.8 270.58 306.174 270.58H303.434V273.6H306.234ZM317.112 265C318.005 265 318.838 265.227 319.612 265.68C320.385 266.12 320.998 266.733 321.452 267.52C321.905 268.293 322.132 269.153 322.132 270.1C322.132 271.047 321.905 271.913 321.452 272.7C320.998 273.473 320.385 274.087 319.612 274.54C318.838 274.98 318.005 275.2 317.112 275.2C316.378 275.2 315.698 275.047 315.072 274.74C314.445 274.433 313.925 274.02 313.512 273.5V279H312.012V265.2H313.512V266.7C313.925 266.18 314.445 265.767 315.072 265.46C315.698 265.153 316.378 265 317.112 265ZM317.012 273.8C317.665 273.8 318.258 273.64 318.792 273.32C319.338 272.987 319.772 272.54 320.092 271.98C320.412 271.42 320.572 270.793 320.572 270.1C320.572 269.407 320.412 268.78 320.092 268.22C319.772 267.66 319.338 267.22 318.792 266.9C318.258 266.567 317.665 266.4 317.012 266.4C316.358 266.4 315.752 266.567 315.192 266.9C314.645 267.22 314.212 267.66 313.892 268.22C313.572 268.78 313.412 269.407 313.412 270.1C313.412 270.793 313.572 271.42 313.892 271.98C314.212 272.54 314.645 272.987 315.192 273.32C315.752 273.64 316.358 273.8 317.012 273.8ZM328.654 265C329.547 265 330.36 265.207 331.094 265.62C331.84 266.02 332.427 266.593 332.854 267.34C333.28 268.073 333.494 268.913 333.494 269.86C333.494 270.18 333.48 270.427 333.454 270.6H325.314C325.407 271.573 325.747 272.353 326.334 272.94C326.934 273.513 327.707 273.8 328.654 273.8C330.04 273.8 331.04 273.233 331.654 272.1H333.254C332.854 273.1 332.26 273.867 331.474 274.4C330.687 274.933 329.747 275.2 328.654 275.2C327.734 275.2 326.894 274.98 326.134 274.54C325.387 274.087 324.8 273.473 324.374 272.7C323.947 271.927 323.734 271.06 323.734 270.1C323.734 269.14 323.947 268.273 324.374 267.5C324.8 266.727 325.387 266.12 326.134 265.68C326.894 265.227 327.734 265 328.654 265ZM328.654 266.4C327.774 266.4 327.04 266.653 326.454 267.16C325.88 267.667 325.52 268.36 325.374 269.24H331.914C331.82 268.387 331.467 267.7 330.854 267.18C330.254 266.66 329.52 266.4 328.654 266.4ZM346.303 265.2L347.103 275H345.603L345.163 267.92L341.663 275H340.943L337.423 267.86L336.963 275H335.503L336.303 265.2H337.583L341.323 272.82L345.063 265.2H346.303ZM357.202 265.18V275H355.702V271.34H353.922L350.902 275H349.102L352.202 271.28C351.416 271.133 350.776 270.787 350.282 270.24C349.802 269.693 349.562 269.033 349.562 268.26C349.562 267.673 349.702 267.147 349.982 266.68C350.276 266.213 350.676 265.847 351.182 265.58C351.702 265.313 352.276 265.18 352.902 265.18H357.202ZM355.702 269.94V266.58H353.002C352.442 266.58 351.989 266.733 351.642 267.04C351.296 267.333 351.122 267.74 351.122 268.26C351.122 268.78 351.296 269.193 351.642 269.5C351.989 269.793 352.442 269.94 353.002 269.94H355.702ZM263.6 289.78C264.133 289.967 264.547 290.273 264.84 290.7C265.133 291.127 265.28 291.627 265.28 292.2C265.28 293.027 264.967 293.7 264.34 294.22C263.713 294.74 262.867 295 261.8 295H257.5V285.2H261.5C262.513 285.2 263.313 285.44 263.9 285.92C264.487 286.4 264.78 287.027 264.78 287.8C264.78 288.2 264.667 288.58 264.44 288.94C264.227 289.3 263.947 289.58 263.6 289.78ZM259 286.6V289.22H261.44C262.013 289.22 262.453 289.1 262.76 288.86C263.067 288.607 263.22 288.287 263.22 287.9C263.22 287.527 263.067 287.22 262.76 286.98C262.467 286.727 262.047 286.6 261.5 286.6H259ZM261.8 293.6C262.4 293.6 262.867 293.467 263.2 293.2C263.547 292.933 263.72 292.567 263.72 292.1C263.72 291.62 263.547 291.247 263.2 290.98C262.853 290.713 262.367 290.58 261.74 290.58H259V293.6H261.8ZM276.284 290.02L281.264 295H279.224L274.684 290.4V295H273.184V285.2H274.684V289.74L279.004 285.2H280.924L276.284 290.02ZM286.783 295.2C285.85 295.2 284.99 294.98 284.203 294.54C283.43 294.087 282.81 293.473 282.343 292.7C281.89 291.913 281.663 291.047 281.663 290.1C281.663 289.153 281.89 288.293 282.343 287.52C282.81 286.733 283.43 286.12 284.203 285.68C284.99 285.227 285.85 285 286.783 285C287.717 285 288.57 285.227 289.343 285.68C290.13 286.12 290.75 286.733 291.203 287.52C291.67 288.293 291.903 289.153 291.903 290.1C291.903 291.047 291.67 291.913 291.203 292.7C290.75 293.473 290.13 294.087 289.343 294.54C288.57 294.98 287.717 295.2 286.783 295.2ZM286.783 293.8C287.437 293.8 288.03 293.64 288.563 293.32C289.11 292.987 289.543 292.54 289.863 291.98C290.183 291.42 290.343 290.793 290.343 290.1C290.343 289.407 290.183 288.78 289.863 288.22C289.543 287.66 289.11 287.22 288.563 286.9C288.03 286.567 287.437 286.4 286.783 286.4C286.13 286.4 285.53 286.567 284.983 286.9C284.45 287.22 284.023 287.66 283.703 288.22C283.383 288.78 283.223 289.407 283.223 290.1C283.223 290.793 283.383 291.42 283.703 291.98C284.023 292.54 284.45 292.987 284.983 293.32C285.53 293.64 286.13 293.8 286.783 293.8ZM300.299 289.78C300.833 289.967 301.246 290.273 301.539 290.7C301.833 291.127 301.979 291.627 301.979 292.2C301.979 293.027 301.666 293.7 301.039 294.22C300.413 294.74 299.566 295 298.499 295H294.199V285.2H298.199C299.213 285.2 300.013 285.44 300.599 285.92C301.186 286.4 301.479 287.027 301.479 287.8C301.479 288.2 301.366 288.58 301.139 288.94C300.926 289.3 300.646 289.58 300.299 289.78ZM295.699 286.6V289.22H298.139C298.713 289.22 299.153 289.1 299.459 288.86C299.766 288.607 299.919 288.287 299.919 287.9C299.919 287.527 299.766 287.22 299.459 286.98C299.166 286.727 298.746 286.6 298.199 286.6H295.699ZM298.499 293.6C299.099 293.6 299.566 293.467 299.899 293.2C300.246 292.933 300.419 292.567 300.419 292.1C300.419 291.62 300.246 291.247 299.899 290.98C299.553 290.713 299.066 290.58 298.439 290.58H295.699V293.6H298.499ZM308.697 295.2C307.764 295.2 306.904 294.98 306.117 294.54C305.344 294.087 304.724 293.473 304.257 292.7C303.804 291.913 303.577 291.047 303.577 290.1C303.577 289.153 303.804 288.293 304.257 287.52C304.724 286.733 305.344 286.12 306.117 285.68C306.904 285.227 307.764 285 308.697 285C309.631 285 310.484 285.227 311.257 285.68C312.044 286.12 312.664 286.733 313.117 287.52C313.584 288.293 313.817 289.153 313.817 290.1C313.817 291.047 313.584 291.913 313.117 292.7C312.664 293.473 312.044 294.087 311.257 294.54C310.484 294.98 309.631 295.2 308.697 295.2ZM308.697 293.8C309.351 293.8 309.944 293.64 310.477 293.32C311.024 292.987 311.457 292.54 311.777 291.98C312.097 291.42 312.257 290.793 312.257 290.1C312.257 289.407 312.097 288.78 311.777 288.22C311.457 287.66 311.024 287.22 310.477 286.9C309.944 286.567 309.351 286.4 308.697 286.4C308.044 286.4 307.444 286.567 306.897 286.9C306.364 287.22 305.937 287.66 305.617 288.22C305.297 288.78 305.137 289.407 305.137 290.1C305.137 290.793 305.297 291.42 305.617 291.98C305.937 292.54 306.364 292.987 306.897 293.32C307.444 293.64 308.044 293.8 308.697 293.8ZM321.213 285C322.107 285 322.94 285.227 323.713 285.68C324.487 286.12 325.1 286.733 325.553 287.52C326.007 288.293 326.233 289.153 326.233 290.1C326.233 291.047 326.007 291.913 325.553 292.7C325.1 293.473 324.487 294.087 323.713 294.54C322.94 294.98 322.107 295.2 321.213 295.2C320.48 295.2 319.8 295.047 319.173 294.74C318.547 294.433 318.027 294.02 317.613 293.5V299H316.113V285.2H317.613V286.7C318.027 286.18 318.547 285.767 319.173 285.46C319.8 285.153 320.48 285 321.213 285ZM321.113 293.8C321.767 293.8 322.36 293.64 322.893 293.32C323.44 292.987 323.873 292.54 324.193 291.98C324.513 291.42 324.673 290.793 324.673 290.1C324.673 289.407 324.513 288.78 324.193 288.22C323.873 287.66 323.44 287.22 322.893 286.9C322.36 286.567 321.767 286.4 321.113 286.4C320.46 286.4 319.853 286.567 319.293 286.9C318.747 287.22 318.313 287.66 317.993 288.22C317.673 288.78 317.513 289.407 317.513 290.1C317.513 290.793 317.673 291.42 317.993 291.98C318.313 292.54 318.747 292.987 319.293 293.32C319.853 293.64 320.46 293.8 321.113 293.8ZM331.635 290.02L336.615 295H334.575L330.035 290.4V295H328.535V285.2H330.035V289.74L334.355 285.2H336.275L331.635 290.02ZM339.723 292.58L345.623 285.2H346.823V295H345.323V287.62L339.423 295H338.223V285.2H339.723V292.58ZM356.824 289.3V285.2H358.324V295H356.824V290.7H351.324V295H349.824V285.2H351.324V289.3H356.824ZM362.828 295H361.328V285.2H367.528V286.6H362.828V295ZM373.243 285C374.137 285 374.95 285.207 375.683 285.62C376.43 286.02 377.017 286.593 377.443 287.34C377.87 288.073 378.083 288.913 378.083 289.86C378.083 290.18 378.07 290.427 378.043 290.6H369.903C369.997 291.573 370.337 292.353 370.923 292.94C371.523 293.513 372.297 293.8 373.243 293.8C374.63 293.8 375.63 293.233 376.243 292.1H377.843C377.443 293.1 376.85 293.867 376.063 294.4C375.277 294.933 374.337 295.2 373.243 295.2C372.323 295.2 371.483 294.98 370.723 294.54C369.977 294.087 369.39 293.473 368.963 292.7C368.537 291.927 368.323 291.06 368.323 290.1C368.323 289.14 368.537 288.273 368.963 287.5C369.39 286.727 369.977 286.12 370.723 285.68C371.483 285.227 372.323 285 373.243 285ZM373.243 286.4C372.363 286.4 371.63 286.653 371.043 287.16C370.47 287.667 370.11 288.36 369.963 289.24H376.503C376.41 288.387 376.057 287.7 375.443 287.18C374.843 286.66 374.11 286.4 373.243 286.4Z" fill="white"/>
<path d="M334.64 47.392L375.936 28.6H395.656V191H370.136V55.976L334.64 72.216V47.392Z" fill="#0029FF"/>
<path d="M72.2 64L81.3 48.15H72.95L63.8 64H60.75L69.9 48.15H60.75V45.4H65.85L74.5 30.5H77.55L68.9 45.4H77.3L85.9 30.5H89L80.35 45.4H89.9V48.15H84.4L75.25 64H72.2ZM97.2199 64V61.15H111.72V34.9C111.72 32.85 109.97 32.1 108.22 33.1L97.1699 39.4V36.25L105.72 31.35C110.27 28.75 114.72 31.35 114.72 36.35V61.15H122.77V64H97.2199Z" fill="#0029FF"/>
<defs>
<filter id="filter0_f_60_19" x="0" y="146" width="238" height="221" filterUnits="userSpaceOnUse" color-interpolation-filters="sRGB">
<feFlood flood-opacity="0" result="BackgroundImageFix"/>
<feBlend mode="normal" in="SourceGraphic" in2="BackgroundImageFix" result="shape"/>
<feGaussianBlur stdDeviation="0" result="effect1_foregroundBlur_60_19"/>
</filter>
</defs>
</svg>
