<svg width="279" height="340" viewBox="0 0 279 340" fill="none" xmlns="http://www.w3.org/2000/svg">
<path d="M10.944 164V145.988C10.944 134.892 12.844 125.772 16.644 118.628C20.444 111.484 25.84 105.708 32.832 101.3C39.976 96.74 48.564 92.94 58.596 89.9L72.504 85.568C78.736 83.592 84.056 81.16 88.464 78.272C93.024 75.384 96.52 71.812 98.952 67.556C101.384 63.148 102.6 58.056 102.6 52.28V51.368C102.6 42.4 99.56 35.408 93.48 30.392C87.4 25.224 79.42 22.64 69.54 22.64C59.356 22.64 51.072 25.376 44.688 30.848C38.456 36.32 35.34 44.376 35.34 55.016V58.664H11.628V55.244C11.628 43.692 14.136 33.964 19.152 26.06C24.168 18.004 31.084 11.848 39.9 7.59199C48.716 3.33599 58.596 1.20799 69.54 1.20799C80.484 1.20799 90.212 3.25999 98.724 7.36399C107.388 11.468 114.152 17.244 119.016 24.692C124.032 32.14 126.54 40.88 126.54 50.912V52.964C126.54 63.3 124.488 71.888 120.384 78.728C116.28 85.568 110.58 91.192 103.284 95.6C96.14 100.008 87.856 103.732 78.432 106.772L64.98 110.876C57.836 113.004 52.06 115.36 47.652 117.944C43.396 120.376 40.204 123.34 38.076 126.836C36.1 130.332 35.112 134.816 35.112 140.288V142.568H125.172V164H10.944ZM200.562 167.192C182.018 167.192 167.198 161.948 156.102 151.46C145.158 140.82 139.686 124.86 139.686 103.58V64.82C139.686 43.996 145.158 28.188 156.102 17.396C167.198 6.60399 182.018 1.20799 200.562 1.20799C219.258 1.20799 234.078 6.60399 245.022 17.396C256.118 28.188 261.666 43.996 261.666 64.82V103.58C261.666 124.86 256.118 140.82 245.022 151.46C234.078 161.948 219.258 167.192 200.562 167.192ZM200.562 145.76C213.178 145.76 222.526 142.188 228.606 135.044C234.686 127.748 237.726 117.564 237.726 104.492V63.452C237.726 50.38 234.458 40.348 227.922 33.356C221.386 26.212 212.266 22.64 200.562 22.64C188.706 22.64 179.586 26.288 173.202 33.584C166.818 40.728 163.626 50.684 163.626 63.452V104.492C163.626 117.868 166.666 128.128 172.746 135.272C178.978 142.264 188.25 145.76 200.562 145.76ZM68.856 337.192C56.848 337.192 46.436 334.988 37.62 330.58C28.804 326.172 21.964 319.94 17.1 311.884C12.388 303.828 10.032 294.48 10.032 283.84V281.332H34.428V283.612C34.428 293.34 37.392 301.168 43.32 307.096C49.4 312.872 57.836 315.76 68.628 315.76C79.724 315.76 88.312 312.72 94.392 306.64C100.472 300.56 103.512 292.352 103.512 282.016V279.964C103.512 270.084 100.472 262.18 94.392 256.252C88.464 250.324 80.864 247.36 71.592 247.36C66.424 247.36 62.092 248.196 58.596 249.868C55.252 251.388 52.516 253.288 50.388 255.568C48.412 257.848 46.74 260.052 45.372 262.18H15.048V174.4H121.98V196.06H38.988V243.028H42.636C44.156 240.444 46.284 238.012 49.02 235.732C51.908 233.3 55.632 231.324 60.192 229.804C64.752 228.284 70.224 227.524 76.608 227.524C86.032 227.524 94.544 229.576 102.144 233.68C109.896 237.632 116.052 243.56 120.612 251.464C125.172 259.216 127.452 268.64 127.452 279.736V282.244C127.452 293.34 125.096 302.992 120.384 311.2C115.672 319.408 108.908 325.792 100.092 330.352C91.428 334.912 81.016 337.192 68.856 337.192ZM200.784 337.192C182.24 337.192 167.42 331.948 156.324 321.46C145.38 310.82 139.908 294.86 139.908 273.58V234.82C139.908 213.996 145.38 198.188 156.324 187.396C167.42 176.604 182.24 171.208 200.784 171.208C219.48 171.208 234.3 176.604 245.244 187.396C256.34 198.188 261.888 213.996 261.888 234.82V273.58C261.888 294.86 256.34 310.82 245.244 321.46C234.3 331.948 219.48 337.192 200.784 337.192ZM200.784 315.76C213.4 315.76 222.748 312.188 228.828 305.044C234.908 297.748 237.948 287.564 237.948 274.492V233.452C237.948 220.38 234.68 210.348 228.144 203.356C221.608 196.212 212.488 192.64 200.784 192.64C188.928 192.64 179.808 196.288 173.424 203.584C167.04 210.728 163.848 220.684 163.848 233.452V274.492C163.848 287.868 166.888 298.128 172.968 305.272C179.2 312.264 188.472 315.76 200.784 315.76Z" fill="white"/>
</svg>
