<svg width="259" height="56" viewBox="0 0 259 56" fill="none" xmlns="http://www.w3.org/2000/svg">
<path d="M21.3221 56C17.4739 56 13.9202 55.038 10.6611 53.114C7.40188 51.1491 4.81024 48.4883 2.88614 45.1316C0.962048 41.7339 0 37.9678 0 33.8333C0 29.6988 0.962048 25.9327 2.88614 22.5351C4.81024 19.1374 7.40188 16.4766 10.6611 14.5526C13.9202 12.6287 17.4739 11.6667 21.3221 11.6667C25.9556 11.6667 30.0002 12.9971 33.4557 15.6579C36.9505 18.3187 39.4636 21.9211 40.995 26.4649H34.2214C33.0041 23.845 31.2567 21.7778 28.9792 20.2632C26.741 18.7076 24.1886 17.9298 21.3221 17.9298C18.6127 17.9298 16.1388 18.6462 13.9006 20.0789C11.6624 21.4708 9.89535 23.3743 8.59953 25.7895C7.30371 28.2047 6.6558 30.886 6.6558 33.8333C6.6558 36.7807 7.30371 39.462 8.59953 41.8772C9.89535 44.2924 11.6624 46.1959 13.9006 47.5877C16.1388 48.9795 18.6127 49.6754 21.3221 49.6754C24.2672 49.6754 26.8588 48.9181 29.097 47.4035C31.3745 45.848 33.1219 43.7807 34.3392 41.2018H41.1128C39.5814 45.7456 37.0683 49.348 33.5735 52.0088C30.0787 54.6696 25.9949 56 21.3221 56Z" fill="white"/>
<path d="M55.139 36.2895V49H72.5737V55.3246H48.6599V12.3421H71.9847V18.6053H55.139V29.9649H71.3957V36.2895H55.139Z" fill="white"/>
<path d="M87.8681 43.2281L113.019 12.3421H117.26V55.3246H110.781V24.5L85.6888 55.3246H81.389V12.3421H87.8681V43.2281ZM99.8839 8.96491C96.9781 8.96491 94.6614 8.12573 92.9336 6.44737C91.2058 4.76901 90.2634 2.61988 90.1064 0H95.2307C95.3878 1.43275 95.8786 2.53801 96.7033 3.31579C97.5671 4.09356 98.6273 4.48245 99.8839 4.48245C101.18 4.48245 102.24 4.11403 103.065 3.37719C103.928 2.59941 104.439 1.47368 104.596 0H109.661C109.504 2.61988 108.562 4.76901 106.834 6.44737C105.106 8.12573 102.79 8.96491 99.8839 8.96491Z" fill="white"/>
<path d="M165.08 12.3421H171.559V55.3246H165.08V38.0702C163.863 38.6433 162.41 39.114 160.721 39.4825C159.072 39.8509 157.364 40.0351 155.597 40.0351C151.277 40.0351 147.9 38.7251 145.466 36.1053C143.071 33.4444 141.873 29.6988 141.873 24.8684V12.3421H148.352V24.5614C148.352 27.4678 149.039 29.7193 150.413 31.3158C151.788 32.9123 153.83 33.7105 156.539 33.7105C158.149 33.7105 159.622 33.5672 160.957 33.2807C162.292 32.9532 163.666 32.4415 165.08 31.7456V12.3421Z" fill="white"/>
<path d="M216.445 55.3246H209.495L205.725 45.0088H188.349L184.58 55.3246H177.747L194.18 12.3421H200.012L216.445 55.3246ZM203.546 38.6842L197.067 21.0614L190.588 38.6842H203.546Z" fill="white"/>
<path d="M239.209 56C235.361 56 231.807 55.038 228.548 53.114C225.289 51.1491 222.697 48.4883 220.773 45.1316C218.849 41.7339 217.887 37.9678 217.887 33.8333C217.887 29.6988 218.849 25.9327 220.773 22.5351C222.697 19.1374 225.289 16.4766 228.548 14.5526C231.807 12.6287 235.361 11.6667 239.209 11.6667C243.843 11.6667 247.887 12.9971 251.343 15.6579C254.838 18.3187 257.351 21.9211 258.882 26.4649H252.109C250.891 23.845 249.144 21.7778 246.866 20.2632C244.628 18.7076 242.076 17.9298 239.209 17.9298C236.5 17.9298 234.026 18.6462 231.788 20.0789C229.55 21.4708 227.783 23.3743 226.487 25.7895C225.191 28.2047 224.543 30.886 224.543 33.8333C224.543 36.7807 225.191 39.462 226.487 41.8772C227.783 44.2924 229.55 46.1959 231.788 47.5877C234.026 48.9795 236.5 49.6754 239.209 49.6754C242.154 49.6754 244.746 48.9181 246.984 47.4035C249.262 45.848 251.009 43.7807 252.226 41.2018H259C257.469 45.7456 254.955 49.348 251.461 52.0088C247.966 54.6696 243.882 56 239.209 56Z" fill="white"/>
<path d="M129.184 28.7717L134.698 11.9687H123.669L129.184 28.7717Z" fill="white"/>
</svg>
