<svg width="258" height="104" viewBox="0 0 258 104" fill="none" xmlns="http://www.w3.org/2000/svg">
<path fill-rule="evenodd" clip-rule="evenodd" d="M30.6117 0.0572398C27.0899 0.428446 24.6062 2.30706 23.5684 5.38465C23.138 6.66055 22.9935 7.72918 22.9383 10.0427C22.8578 13.4207 23.1541 16.0897 23.8302 18.075C24.2611 19.3405 25.308 21.3711 26.1645 22.6027C26.5894 23.2136 28.0391 25.1299 29.3863 26.8609C33.7038 32.4091 34.231 33.2264 34.6828 35.0739C35.0147 36.4312 35.1192 39.8317 34.8783 41.4408C34.6646 42.8681 34.3452 43.4604 33.5995 43.8111C32.704 44.2322 31.4642 44.0479 30.8423 43.4013C30.0804 42.6088 29.9702 41.6703 29.9702 35.9693V31.7208H26.2583H22.5464L22.5492 37.3907C22.5507 40.5093 22.592 43.3731 22.6409 43.755C22.8547 45.4245 23.4073 46.9593 24.2112 48.1169C25.3505 49.7574 27.5173 50.9178 30.0618 51.2503C30.9975 51.3725 33.8627 51.3682 34.8736 51.243C39.2033 50.7072 41.9352 47.8842 42.7469 43.107C43.0186 41.509 43.113 39.1845 43.0013 36.851C42.8411 33.5059 42.4555 31.7571 41.4108 29.638C40.6807 28.1572 39.6324 26.6474 36.5366 22.6182C32.367 17.1915 31.7489 16.2887 31.2072 14.8352C30.8318 13.8276 30.6904 12.9875 30.6369 11.4439C30.5804 9.81617 30.7113 8.37948 30.9702 7.78852C31.2952 7.04638 32.1601 6.64981 33.1779 6.77608C34.0531 6.88466 34.5379 7.27049 34.8025 8.06918C34.9346 8.46798 34.9605 9.1119 34.9893 12.7209L35.0228 16.9097H38.6371H42.2515L42.251 12.0265C42.2504 6.8318 42.204 6.09948 41.7891 4.73666C41.4557 3.64137 40.9975 2.86018 40.2392 2.09434C39.2425 1.08764 38.0989 0.535735 36.2916 0.189337C35.4116 0.0206745 31.7638 -0.0642122 30.6117 0.0572398ZM0 25.5649V50.6978H3.75773H7.51545V39.6356V28.5735H10.0817H12.648V39.6356V50.6978H16.3598H20.0718V25.5649V0.432149H16.3598H12.648V10.476V20.5199H10.0817H7.51545V10.476V0.432149H3.75773H0V25.5649ZM45.4593 25.5649V50.6978H54.1663H62.8732V46.9023V43.107H57.9239H52.9748V35.794V28.4809H56.7325H60.4902V24.6856V20.8901H56.7325H52.9748V14.2714V7.65263H57.7407H62.5066V4.04239V0.432149H53.9829H45.4593V25.5649ZM76.071 0.535828C76.071 0.592943 75.2266 7.5183 74.1944 15.9256C73.1622 24.333 71.8018 35.4398 71.1711 40.6076C70.5405 45.7754 69.9998 50.1597 69.9694 50.3506L69.9142 50.6978H73.3593H76.8043L76.8088 50.4895C76.8114 50.3749 77.0295 48.2609 77.2934 45.7916L77.7731 41.3019L80.5722 41.2774L83.3713 41.253L83.5819 43.2677C83.6976 44.3758 83.9215 46.4904 84.0791 47.9669L84.3659 50.6515L88.0547 50.6756C90.0835 50.6889 91.7435 50.6676 91.7435 50.628C91.7435 50.5886 90.8189 43.4961 89.6888 34.8669C88.5587 26.2379 87.0843 14.96 86.4123 9.80497L85.1904 0.432334L80.6307 0.432241C77.3253 0.432149 76.071 0.46066 76.071 0.535828ZM92.8433 25.5649V50.6978H96.6469H100.45V39.4361V28.1743L101.939 28.2319C103.749 28.3019 104.24 28.4279 104.696 28.9377C104.875 29.1375 105.073 29.4602 105.137 29.6547C105.226 29.9257 105.266 32.1902 105.311 39.3579C105.373 49.4158 105.37 49.3606 105.853 50.3177L106.045 50.6978H109.847C112.945 50.6978 113.648 50.6751 113.648 50.5748C113.648 50.5072 113.541 50.1867 113.411 49.8626C112.877 48.5358 112.892 48.8572 112.829 37.6453C112.765 26.1601 112.813 26.9789 112.135 25.7501C111.677 24.9208 110.665 24.0139 109.81 23.6681L109.502 23.543L109.949 23.3142C110.597 22.982 111.62 21.8982 112.019 21.1198C112.203 20.7624 112.448 20.1167 112.565 19.685L112.777 18.8999V12.5125V6.12522L112.562 5.26015C112.081 3.3333 111.092 1.99881 109.615 1.28426C107.924 0.465567 107.528 0.432149 99.5134 0.432149H92.8433V25.5649ZM114.106 4.04239V7.65263H117.268H120.43V29.1752V50.6978H124.143H127.854V29.1752V7.65263H131.016H134.178V4.04239V0.432149H124.143H114.106V4.04239ZM144.004 9.61973C143.384 14.6729 142.014 25.8681 140.958 34.498C139.904 43.1278 139.02 50.3031 138.995 50.4431L138.949 50.6978H142.374H145.8L145.857 50.258C145.888 50.0163 146.098 48.0479 146.325 45.8841C146.55 43.7203 146.759 41.7937 146.789 41.6028L146.843 41.2555H149.63C151.163 41.2555 152.417 41.2868 152.417 41.325C152.417 41.3633 152.645 43.4773 152.921 46.023C153.198 48.5687 153.425 50.6618 153.426 50.6746C153.426 50.6874 155.097 50.6978 157.139 50.6978H160.853L160.805 50.4895C160.764 50.3077 159.265 38.9144 155.307 8.70237C154.726 4.26474 154.25 0.5885 154.25 0.533051C154.25 0.461586 152.92 0.432149 149.691 0.432149H145.131L144.004 9.61973ZM162.132 25.5649V50.6978H165.523H168.914L168.937 36.3063L168.961 21.9147L172.535 36.3054L176.109 50.6963L179.157 50.697L182.204 50.6978V25.5649V0.432149H178.812H175.422V13.9166C175.422 21.3329 175.402 27.3814 175.379 27.3573C175.335 27.3136 172.829 16.8913 170.338 6.40292C169.6 3.29719 168.976 0.683199 168.949 0.594147C168.906 0.443628 168.662 0.432149 165.517 0.432149H162.132V25.5649ZM185.32 25.565V50.7077L191.942 50.6728C197.813 50.642 198.642 50.6198 199.251 50.4778C202.767 49.6589 204.593 47.462 205.227 43.2921C205.321 42.6665 205.346 38.9758 205.346 25.2872C205.346 9.01007 205.337 8.01605 205.178 7.0972C204.822 5.03271 204.179 3.64008 203.06 2.50924C202.191 1.63038 201.308 1.14494 199.846 0.741981L198.93 0.489265L192.126 0.455847L185.32 0.422336V25.565ZM103.803 7.41444C104.41 7.60134 104.877 8.06372 105.093 8.68997C105.249 9.14226 105.262 9.55484 105.262 14.04V18.8999L105.044 19.4553C104.773 20.1419 104.212 20.7157 103.607 20.9238C103.278 21.0373 102.826 21.0753 101.808 21.0753H100.45V14.1187V7.16209L101.894 7.21634C102.79 7.25004 103.515 7.3252 103.803 7.41444ZM196.261 7.49664C196.845 7.76657 197.135 8.15278 197.388 8.99489C197.548 9.52281 197.556 10.3329 197.556 25.3798V41.2093L197.335 41.7648C197.208 42.0868 196.958 42.4812 196.739 42.7033C196.202 43.2505 195.682 43.3847 194.102 43.3847H192.836V25.2734V7.16209L194.297 7.21338C195.601 7.25902 195.814 7.28974 196.261 7.49664ZM81.2457 21.677C81.6238 25.19 82.0701 29.3452 82.2376 30.9108L82.5418 33.7574H80.5437C79.4448 33.7574 78.5457 33.7373 78.5457 33.7127C78.5457 33.6881 78.7301 31.9281 78.9555 29.8016C79.4832 24.8244 80.4683 15.3948 80.4776 15.2308C80.4992 14.8506 80.6194 15.8586 81.2457 21.677ZM149.95 18.5441C150.861 26.9199 151.592 33.6797 151.592 33.7167C151.592 33.7391 150.684 33.7574 149.575 33.7574H147.558L147.607 33.4103C147.656 33.0781 148.736 22.8154 149.268 17.6306C149.407 16.2705 149.536 15.1732 149.556 15.1919C149.574 15.2107 149.752 16.7192 149.95 18.5441ZM49.898 51.8998C47.51 52.2392 45.596 53.1945 44.4206 54.6337C43.488 55.7756 42.9204 57.0912 42.5639 58.9365C42.4215 59.6739 42.3949 60.2497 42.3992 62.5004C42.4045 65.3361 42.5084 66.758 42.8143 68.185C43.2973 70.4379 44.3503 72.6948 45.9498 74.9048C46.2078 75.2612 47.5329 76.9904 48.8948 78.7474C52.7462 83.7164 53.2512 84.4525 53.8059 85.9053C54.2767 87.1383 54.356 87.68 54.4119 90.0401C54.4841 93.0905 54.2967 94.3499 53.6486 95.1712C53.3042 95.6075 52.8728 95.8068 52.1692 95.8548C50.7515 95.9514 49.822 95.1699 49.5802 93.6784C49.5322 93.3829 49.4928 90.9855 49.4925 88.3506L49.492 83.5602H45.7343H41.9766L41.9773 89.0912C41.9779 94.7758 42.0169 95.6059 42.3471 96.9738C42.5833 97.9523 43.386 99.642 43.9182 100.281C45.0453 101.634 46.5245 102.474 48.5463 102.91C49.7095 103.16 52.7996 103.266 54.1093 103.099C57.5417 102.662 59.768 101.137 61.1565 98.2705C62.2762 95.9587 62.6653 92.8699 62.4261 88.1886C62.201 83.7833 61.3585 81.5993 58.3015 77.4968C57.922 76.9877 56.7002 75.3839 55.5861 73.9329C52.0848 69.3726 51.6493 68.7579 51.0287 67.4992C50.3572 66.1373 50.1516 65.1803 50.0742 63.0559C49.9859 60.6306 50.2686 59.4016 51.032 58.8913C51.7492 58.4119 53.1382 58.4947 53.701 59.0502C54.3974 59.7379 54.4412 60.0805 54.4412 64.8318V68.7489H58.1158H61.7904L61.7465 63.6807C61.6999 58.2922 61.6679 57.8627 61.2117 56.5058C60.5622 54.5736 59.2811 53.168 57.5659 52.5061C56.258 52.0014 55.4334 51.8874 52.8373 51.8526C51.5267 51.8351 50.2041 51.8563 49.898 51.8998ZM82.7742 51.9141C80.4974 52.1547 78.7328 52.9811 77.3817 54.4397C76.5008 55.3906 75.9718 56.3066 75.5192 57.6646C74.7884 59.8575 74.8408 58.3903 74.8078 77.5431C74.7872 89.5202 74.8084 94.8892 74.8789 95.5156C75.2862 99.1328 77.2095 101.925 79.9205 102.834C80.4092 102.998 80.7911 103.041 82.0473 103.071C83.8253 103.114 84.1663 103.045 85.4412 102.381C86.8883 101.628 88.5105 99.8425 89.257 98.1815L89.5206 97.5951L89.6636 98.0989C89.7899 98.5432 90.505 101.247 90.7454 102.19L90.8341 102.537H92.9844H95.1347V87.263V71.9889H89.8188H84.503V75.8306V79.6723H86.1986H87.8941V86.3276C87.8941 92.7157 87.8868 93.0069 87.7113 93.5807C87.2694 95.0257 85.8253 95.7944 84.3587 95.3655C83.6235 95.1503 83.1365 94.6404 82.841 93.7756L82.6242 93.1412V77.1265V61.1119L82.8297 60.6027C83.2216 59.6314 83.9286 59.1274 84.9049 59.1237C86.219 59.1186 86.9656 59.7332 87.2413 61.0471C87.3066 61.3579 87.3443 62.7564 87.3443 64.8655V68.1935H91.0561H94.7681L94.7671 64.6064C94.7655 59.1657 94.5207 57.5233 93.4002 55.4356C92.7621 54.2471 91.4159 53.0706 90.0972 52.5491C88.4969 51.9163 85.3427 51.6428 82.7742 51.9141ZM134.866 51.908C130.528 52.4983 128.043 55.0624 127.49 59.5195C127.368 60.5046 127.369 64.893 127.493 66.0448C127.856 69.4547 128.763 71.83 130.781 74.6565C131.169 75.2004 132.475 76.916 133.683 78.4688C137.299 83.1178 137.929 84.0023 138.54 85.2846C139.231 86.7336 139.402 87.824 139.399 90.7343C139.395 93.6172 139.188 94.6833 138.503 95.3456C137.641 96.1802 135.777 95.9943 135.105 95.0063C134.509 94.1333 134.508 94.1182 134.475 88.5821L134.444 83.5602H130.691H126.938L126.939 88.9524C126.939 95.3937 127.002 96.1666 127.677 98.0395C128.69 100.853 131.033 102.598 134.39 103.042C135.742 103.221 138.232 103.224 139.45 103.05C143.858 102.417 146.424 99.6294 147.25 94.576C147.442 93.4053 147.528 88.6193 147.385 87.1372C147.035 83.5084 146.036 81.1448 143.317 77.5071C142.856 76.8905 141.482 75.0887 140.264 73.503C136.958 69.2025 136.248 68.1617 135.743 66.8826C135.177 65.4529 135.141 65.2072 135.141 62.7319C135.14 60.1449 135.233 59.6327 135.797 59.079C136.515 58.3753 138.014 58.3921 138.761 59.1121C139.382 59.7103 139.402 59.8818 139.402 64.6001V68.7489H143.068H146.735L146.733 64.1435C146.732 61.6106 146.69 59.1425 146.639 58.6588C146.249 54.9043 144.493 52.8258 141.082 52.0817C140.329 51.9172 139.799 51.8799 137.844 51.8529C136.559 51.8351 135.218 51.8599 134.866 51.908ZM156.679 51.9444C152.906 52.5489 150.683 54.7411 149.731 58.7969C149.536 59.6299 149.536 59.6479 149.506 76.8026C149.479 92.4598 149.49 94.0723 149.629 95.0851C149.894 97.0017 150.542 98.8152 151.369 99.953C151.825 100.58 152.87 101.546 153.487 101.908C155.018 102.809 156.798 103.185 159.533 103.185C161.873 103.185 163.42 102.903 164.77 102.231C167.118 101.062 168.549 98.7828 169.108 95.3252C169.266 94.3422 169.281 93.6821 169.281 87.4713V80.6905H165.619H161.956L161.93 87.1935C161.903 93.5654 161.899 93.7063 161.71 94.1716C161.262 95.2707 160.63 95.7128 159.503 95.7159C158.656 95.7183 158.104 95.4526 157.688 94.8412C157.112 93.9978 157.137 94.8091 157.137 77.1728C157.137 61.8467 157.144 61.0867 157.306 60.5606C157.508 59.8986 157.982 59.3739 158.514 59.2248C158.715 59.1687 159.17 59.1224 159.526 59.1222C160.366 59.1214 161.047 59.4438 161.426 60.0214C161.909 60.7577 161.946 61.208 161.947 66.4579L161.949 71.2483H165.615H169.281L169.279 65.7173C169.277 59.8838 169.237 59.1469 168.827 57.5479C168.341 55.6469 167.12 53.9438 165.581 53.0213C164.813 52.5607 163.427 52.1166 162.243 51.9522C160.983 51.7772 157.751 51.7726 156.679 51.9444ZM203.008 51.873C198.709 52.3381 196.102 54.6899 195.13 58.9818C194.706 60.8567 194.715 60.4832 194.715 77.4043C194.715 92.5236 194.724 93.4784 194.883 94.4834C195.412 97.8119 196.502 99.9732 198.361 101.386C200.162 102.753 202.22 103.251 205.681 103.159C208.844 103.074 210.482 102.569 212.14 101.166C213.739 99.8141 214.723 97.7674 215.221 94.7611L215.428 93.5114V77.4043C215.428 62.4581 215.416 61.2244 215.266 60.2905C214.63 56.3253 213.302 54.1385 210.753 52.8525C209.8 52.3714 208.712 52.0704 207.319 51.9023C206.594 51.8148 203.727 51.7953 203.008 51.873ZM225.464 51.9396C222.975 52.3268 221.363 53.1656 220.015 54.7734C219.065 55.9071 218.431 57.353 217.973 59.4286L217.725 60.5565L217.693 76.7099C217.672 88.0969 217.692 93.1639 217.764 93.8818C217.949 95.7272 218.31 97.0753 219.003 98.5102C219.529 99.5964 220.069 100.31 220.947 101.08C222.635 102.56 224.764 103.187 228.087 103.183C231.75 103.179 233.919 102.446 235.647 100.625C237.174 99.018 238 96.7624 238.301 93.3782C238.363 92.6733 238.385 86.9535 238.366 76.6174L238.335 60.9267L238.134 59.816C237.666 57.2389 236.904 55.5328 235.64 54.2362C234.582 53.1507 233.055 52.3888 231.231 52.0357C230.18 51.8321 226.543 51.7715 225.464 51.9396ZM0 77.4043V102.537L5.79698 102.536C8.98537 102.535 12.0889 102.493 12.6938 102.442C16.7422 102.104 18.9769 100.038 19.8149 95.8593L20.026 94.8074V77.2654C20.026 60.5048 20.0183 59.682 19.8541 58.7976C19.1413 54.9575 17.2774 53.0188 13.7129 52.4104C13.0424 52.2959 11.7617 52.2715 6.44945 52.2715H0V77.4043ZM22.9129 77.4043V102.537H31.6657H40.4184V98.6954V94.8537H35.4234H30.4285V87.587V80.3202H34.1861H37.9439V76.5248V72.7295H34.1861H30.4285V66.1106V59.492H35.2402H40.0519V55.8817V52.2715H31.4824H22.9129V77.4043ZM64.523 77.4043V102.537H68.3264H72.13V77.4043V52.2715H68.3264H64.523V77.4043ZM97.7008 77.4043V102.537H101.092H104.483L104.506 88.1816L104.529 73.8263L108.096 88.1816L111.662 102.537H114.718H117.773V77.4043V52.2715H114.331H110.889L110.942 65.7635C110.978 74.8802 110.964 79.1955 110.901 79.0705C110.815 78.8979 109.157 72.0189 105.864 58.1738C105.105 54.9795 104.483 52.3446 104.483 52.3187C104.483 52.2927 102.957 52.2715 101.092 52.2715H97.7008V77.4043ZM171.756 77.4043V102.537H175.513H179.271V91.4749V80.4128H181.791H184.312V91.4749V102.537H188.07H191.827V77.4043V52.2715H188.07H184.312V62.3153V72.3591H181.791H179.271V62.3153V52.2715H175.513H171.756V77.4043ZM241.228 77.4043V102.537H249.614H258V98.6491V94.7611H253.371H248.743V73.5163V52.2715H244.985H241.228V77.4043ZM10.7691 59.2177C11.2857 59.3705 11.8681 60.008 12.0527 60.6229C12.1335 60.8919 12.2376 61.5909 12.2841 62.1764C12.3994 63.6289 12.3969 90.8134 12.2813 92.1321C12.1358 93.7934 11.7973 94.4858 10.9177 94.9221C10.433 95.1626 10.3174 95.1795 8.95897 95.209L7.51545 95.2403V77.1215V59.0028L8.95897 59.0561C9.75286 59.0853 10.5674 59.1581 10.7691 59.2177ZM205.955 59.2291C206.404 59.3651 206.998 59.8746 207.217 60.3118C207.701 61.2837 207.683 60.6104 207.683 77.37C207.683 88.0599 207.652 93.0434 207.584 93.4156C207.356 94.6629 206.812 95.3755 205.88 95.6492C204.695 95.9974 203.423 95.4837 202.897 94.4434C202.395 93.4529 202.423 94.3628 202.39 78.2374C202.371 69.0313 202.394 62.9253 202.449 62.2658C202.567 60.8687 202.782 60.2801 203.373 59.7427C203.619 59.5199 203.957 59.2933 204.125 59.2391C204.542 59.1042 205.524 59.0988 205.955 59.2291ZM229.221 59.379C229.688 59.6145 230.159 60.1934 230.367 60.7855C230.679 61.6833 230.698 62.7016 230.669 78.0985L230.642 93.3263L230.429 93.9232C230.199 94.566 229.872 95.0849 229.533 95.3432C229.416 95.4322 229.053 95.5755 228.727 95.662C227.309 96.0377 226.021 95.2939 225.575 93.8413C225.429 93.3622 225.418 92.2101 225.418 77.3117V61.2971L225.636 60.7416C225.902 60.0641 226.559 59.3769 227.078 59.2316C227.671 59.0657 228.747 59.1398 229.221 59.379Z" fill="white"/>
</svg>
