<svg width="101" height="22" viewBox="0 0 101 22" fill="none" xmlns="http://www.w3.org/2000/svg">
<path d="M8.3148 22C6.81416 22 5.42836 21.6221 4.1574 20.8662C2.88645 20.0943 1.87581 19.049 1.12548 17.7303C0.375161 16.3955 0 14.9159 0 13.2917C0 11.6674 0.375161 10.1879 1.12548 8.85307C1.87581 7.51827 2.88645 6.47295 4.1574 5.7171C5.42836 4.96126 6.81416 4.58333 8.3148 4.58333C10.1217 4.58333 11.6989 5.10599 13.0464 6.15132C14.4093 7.19664 15.3893 8.61184 15.9865 10.3969H13.345C12.8703 9.36769 12.1889 8.55556 11.3008 7.96053C10.428 7.34941 9.43263 7.04386 8.3148 7.04386C7.25822 7.04386 6.29352 7.32529 5.4207 7.88816C4.54787 8.43494 3.8588 9.18275 3.35348 10.1316C2.84816 11.0804 2.5955 12.1338 2.5955 13.2917C2.5955 14.4496 2.84816 15.5029 3.35348 16.4518C3.8588 17.4006 4.54787 18.1484 5.4207 18.6952C6.29352 19.242 7.25822 19.5154 8.3148 19.5154C9.46325 19.5154 10.4739 19.2178 11.3467 18.6228C12.2349 18.0117 12.9163 17.1996 13.391 16.1864H16.0324C15.4352 17.9715 14.4552 19.3867 13.0924 20.432C11.7295 21.4773 10.137 22 8.3148 22Z" fill="black"/>
<path d="M21.5021 14.2566V19.25H28.3009V21.7346H18.9755V4.84868H28.0712V7.30921H21.5021V11.7719H27.8416V14.2566H21.5021Z" fill="black"/>
<path d="M34.2652 16.9825L44.073 4.84868H45.7267V21.7346H43.2001V9.625L33.4153 21.7346H31.7386V4.84868H34.2652V16.9825ZM38.9509 3.52193C37.8177 3.52193 36.9143 3.19225 36.2405 2.53289C35.5668 1.87354 35.1993 1.02924 35.138 0H37.1363C37.1976 0.562865 37.389 0.997075 37.7105 1.30263C38.0474 1.60819 38.4609 1.76096 38.9509 1.76096C39.4562 1.76096 39.8696 1.61623 40.1912 1.32675C40.5281 1.0212 40.7271 0.578947 40.7884 0H42.7637C42.7025 1.02924 42.335 1.87354 41.6612 2.53289C40.9875 3.19225 40.084 3.52193 38.9509 3.52193Z" fill="black"/>
<path d="M64.3748 4.84868H66.9014V21.7346H64.3748V14.9561C63.9001 15.1813 63.3335 15.3662 62.675 15.511C62.0319 15.6557 61.3658 15.7281 60.6767 15.7281C58.9923 15.7281 57.6754 15.2135 56.7261 14.1842C55.792 13.1389 55.3249 11.6674 55.3249 9.76974V4.84868H57.8515V9.64912C57.8515 10.7909 58.1195 11.6754 58.6555 12.3026C59.1914 12.9298 59.9877 13.2434 61.0442 13.2434C61.6721 13.2434 62.2463 13.1871 62.7669 13.0746C63.2876 12.9459 63.8235 12.7449 64.3748 12.4715V4.84868Z" fill="black"/>
<path d="M84.4052 21.7346H81.6949L80.2248 17.682H73.449L71.979 21.7346H69.3145L75.7229 4.84868H77.9968L84.4052 21.7346ZM79.375 15.1974L76.8484 8.27412L74.3218 15.1974H79.375Z" fill="black"/>
<path d="M93.2824 22C91.7817 22 90.396 21.6221 89.125 20.8662C87.854 20.0943 86.8434 19.049 86.0931 17.7303C85.3428 16.3955 84.9676 14.9159 84.9676 13.2917C84.9676 11.6674 85.3428 10.1879 86.0931 8.85307C86.8434 7.51827 87.854 6.47295 89.125 5.7171C90.396 4.96126 91.7817 4.58333 93.2824 4.58333C95.0893 4.58333 96.6665 5.10599 98.014 6.15132C99.3769 7.19664 100.357 8.61184 100.954 10.3969H98.3126C97.8379 9.36769 97.1565 8.55556 96.2684 7.96053C95.3955 7.34941 94.4002 7.04386 93.2824 7.04386C92.2258 7.04386 91.2611 7.32529 90.3883 7.88816C89.5155 8.43494 88.8264 9.18275 88.3211 10.1316C87.8158 11.0804 87.5631 12.1338 87.5631 13.2917C87.5631 14.4496 87.8158 15.5029 88.3211 16.4518C88.8264 17.4006 89.5155 18.1484 90.3883 18.6952C91.2611 19.242 92.2258 19.5154 93.2824 19.5154C94.4308 19.5154 95.4415 19.2178 96.3143 18.6228C97.2025 18.0117 97.8839 17.1996 98.3586 16.1864H101C100.403 17.9715 99.4228 19.3867 98.06 20.432C96.6971 21.4773 95.1046 22 93.2824 22Z" fill="black"/>
<path d="M50.3767 11.3032L52.5272 4.70199H48.2263L50.3767 11.3032Z" fill="black"/>
</svg>
