<svg width="28" height="28" viewBox="0 0 28 28" fill="none" xmlns="http://www.w3.org/2000/svg">
<path d="M12.6667 1.33333C12.6667 0.596954 13.2636 0 14 0C14.7364 0 15.3333 0.596954 15.3333 1.33333V26.6667C15.3333 27.403 14.7364 28 14 28C13.2636 28 12.6667 27.403 12.6667 26.6667V1.33333Z" fill="black"/>
<path d="M1.33333 15.3333C0.596954 15.3333 3.21882e-08 14.7364 0 14C-3.21882e-08 13.2636 0.596954 12.6667 1.33333 12.6667L26.6667 12.6667C27.403 12.6667 28 13.2636 28 14C28 14.7364 27.403 15.3333 26.6667 15.3333L1.33333 15.3333Z" fill="black"/>
</svg>
