<svg width="191" height="31" viewBox="0 0 191 31" fill="none" xmlns="http://www.w3.org/2000/svg">
<path d="M6.808 24.32C5.63467 24.32 4.57867 24.1067 3.64 23.68C2.72267 23.2533 1.99733 22.6667 1.464 21.92C0.930667 21.1733 0.642667 20.32 0.6 19.36H3C3.064 20.1707 3.43733 20.832 4.12 21.344C4.80267 21.8347 5.72 22.08 6.872 22.08C7.832 22.08 8.62133 21.8773 9.24 21.472C9.88 21.0667 10.2 20.4907 10.2 19.744C10.2 19.168 10.0293 18.7093 9.688 18.368C9.34667 18.0053 8.92 17.7387 8.408 17.568C7.91733 17.3973 7.21333 17.2053 6.296 16.992C5.144 16.736 4.22667 16.48 3.544 16.224C2.86133 15.9467 2.27467 15.5093 1.784 14.912C1.29333 14.3147 1.048 13.504 1.048 12.48C1.048 11.648 1.304 10.8907 1.816 10.208C2.328 9.52533 3.01067 8.992 3.864 8.608C4.73867 8.20267 5.688 8 6.712 8C7.71467 8 8.632 8.21333 9.464 8.64C10.3173 9.06667 11 9.64267 11.512 10.368C12.024 11.0933 12.2907 11.904 12.312 12.8H9.912C9.86933 12.0747 9.53867 11.4667 8.92 10.976C8.30133 10.4853 7.52267 10.24 6.584 10.24C5.73067 10.24 5.00533 10.4427 4.408 10.848C3.832 11.2533 3.544 11.7973 3.544 12.48C3.544 12.992 3.704 13.408 4.024 13.728C4.36533 14.048 4.77067 14.2933 5.24 14.464C5.73067 14.6347 6.41333 14.8267 7.288 15.04C8.44 15.296 9.368 15.5733 10.072 15.872C10.7973 16.1493 11.416 16.5973 11.928 17.216C12.44 17.8347 12.696 18.6773 12.696 19.744C12.696 21.1093 12.1307 22.2187 11 23.072C9.86933 23.904 8.472 24.32 6.808 24.32ZM23.6208 8C25.0501 8 26.3514 8.33067 27.5248 8.992C28.7194 9.632 29.6581 10.5493 30.3408 11.744C31.0234 12.9173 31.3647 14.2613 31.3647 15.776C31.3647 16.288 31.3434 16.6827 31.3008 16.96H18.2768C18.4261 18.5173 18.9701 19.7653 19.9088 20.704C20.8688 21.6213 22.1061 22.08 23.6208 22.08C25.8394 22.08 27.4394 21.1733 28.4208 19.36H30.9808C30.3408 20.96 29.3914 22.1867 28.1328 23.04C26.8741 23.8933 25.3701 24.32 23.6208 24.32C22.1488 24.32 20.8048 23.968 19.5888 23.264C18.3941 22.5387 17.4554 21.5573 16.7728 20.32C16.0901 19.0827 15.7488 17.696 15.7488 16.16C15.7488 14.624 16.0901 13.2373 16.7728 12C17.4554 10.7627 18.3941 9.792 19.5888 9.088C20.8048 8.36267 22.1488 8 23.6208 8ZM23.6208 10.24C22.2128 10.24 21.0394 10.6453 20.1008 11.456C19.1834 12.2667 18.6074 13.376 18.3728 14.784H28.8368C28.6874 13.4187 28.1221 12.32 27.1408 11.488C26.1808 10.656 25.0074 10.24 23.6208 10.24ZM40.884 20.192L46.1 8.32H48.66L38.74 30.4H36.18L39.54 22.88L32.66 8.32H35.348L40.884 20.192ZM58.2808 24.32C56.8301 24.32 55.4861 23.968 54.2488 23.264C53.0328 22.5387 52.0621 21.5573 51.3368 20.32C50.6114 19.0613 50.2488 17.6747 50.2488 16.16C50.2488 14.6453 50.6114 13.2693 51.3368 12.032C52.0621 10.7733 53.0328 9.792 54.2488 9.088C55.4861 8.36267 56.8301 8 58.2808 8C59.9874 8 61.5234 8.46933 62.8888 9.408C64.2754 10.3467 65.2461 11.6373 65.8008 13.28H63.2408C62.7714 12.32 62.0888 11.5733 61.1928 11.04C60.2968 10.5067 59.3261 10.24 58.2808 10.24C57.2781 10.24 56.3501 10.5067 55.4968 11.04C54.6434 11.552 53.9714 12.256 53.4808 13.152C52.9901 14.048 52.7448 15.0507 52.7448 16.16C52.7448 17.2693 52.9901 18.272 53.4808 19.168C53.9714 20.064 54.6434 20.7787 55.4968 21.312C56.3501 21.824 57.2781 22.08 58.2808 22.08C59.3261 22.08 60.2968 21.8133 61.1928 21.28C62.0888 20.7467 62.7714 20 63.2408 19.04H65.8008C65.2461 20.6827 64.2754 21.9733 62.8888 22.912C61.5234 23.8507 59.9874 24.32 58.2808 24.32ZM76.67 8C77.9287 8 79.038 8.30933 79.998 8.928C80.9793 9.52533 81.7367 10.3467 82.27 11.392C82.8033 12.4373 83.07 13.6 83.07 14.88V24H80.67V14.88C80.67 13.4933 80.286 12.3733 79.518 11.52C78.75 10.6667 77.694 10.24 76.35 10.24C75.4967 10.24 74.718 10.4427 74.014 10.848C73.31 11.232 72.7447 11.776 72.318 12.48C71.9127 13.184 71.71 13.984 71.71 14.88V24H69.31V0.959999H71.71V10.4C72.35 9.61067 73.086 9.01333 73.918 8.608C74.7713 8.20267 75.6887 8 76.67 8ZM100.385 8.32H102.785V24H100.385V21.6C99.7232 22.432 98.8912 23.0933 97.8885 23.584C96.8858 24.0747 95.7978 24.32 94.6245 24.32C93.1952 24.32 91.8618 23.968 90.6245 23.264C89.3872 22.5387 88.4058 21.5573 87.6805 20.32C86.9552 19.0613 86.5925 17.6747 86.5925 16.16C86.5925 14.6453 86.9552 13.2693 87.6805 12.032C88.4058 10.7733 89.3872 9.792 90.6245 9.088C91.8618 8.36267 93.1952 8 94.6245 8C95.7978 8 96.8858 8.24533 97.8885 8.736C98.8912 9.22667 99.7232 9.888 100.385 10.72V8.32ZM94.8165 22.08C95.8618 22.08 96.8218 21.824 97.6965 21.312C98.5712 20.7787 99.2645 20.064 99.7765 19.168C100.289 18.272 100.545 17.2693 100.545 16.16C100.545 15.0507 100.289 14.048 99.7765 13.152C99.2645 12.256 98.5712 11.552 97.6965 11.04C96.8218 10.5067 95.8618 10.24 94.8165 10.24C93.7712 10.24 92.8112 10.5067 91.9365 11.04C91.0618 11.552 90.3685 12.256 89.8565 13.152C89.3445 14.048 89.0885 15.0507 89.0885 16.16C89.0885 17.2693 89.3445 18.272 89.8565 19.168C90.3685 20.064 91.0618 20.7787 91.9365 21.312C92.8112 21.824 93.7712 22.08 94.8165 22.08ZM112.996 24.32C111.822 24.32 110.766 24.1067 109.828 23.68C108.91 23.2533 108.185 22.6667 107.652 21.92C107.118 21.1733 106.83 20.32 106.788 19.36H109.188C109.252 20.1707 109.625 20.832 110.308 21.344C110.99 21.8347 111.908 22.08 113.06 22.08C114.02 22.08 114.809 21.8773 115.428 21.472C116.068 21.0667 116.388 20.4907 116.388 19.744C116.388 19.168 116.217 18.7093 115.876 18.368C115.534 18.0053 115.108 17.7387 114.595 17.568C114.105 17.3973 113.401 17.2053 112.484 16.992C111.332 16.736 110.414 16.48 109.732 16.224C109.049 15.9467 108.462 15.5093 107.972 14.912C107.481 14.3147 107.236 13.504 107.236 12.48C107.236 11.648 107.492 10.8907 108.004 10.208C108.516 9.52533 109.198 8.992 110.052 8.608C110.926 8.20267 111.876 8 112.9 8C113.902 8 114.82 8.21333 115.652 8.64C116.505 9.06667 117.188 9.64267 117.7 10.368C118.212 11.0933 118.478 11.904 118.5 12.8H116.1C116.057 12.0747 115.726 11.4667 115.108 10.976C114.489 10.4853 113.71 10.24 112.772 10.24C111.918 10.24 111.193 10.4427 110.596 10.848C110.02 11.2533 109.732 11.7973 109.732 12.48C109.732 12.992 109.892 13.408 110.212 13.728C110.553 14.048 110.958 14.2933 111.428 14.464C111.918 14.6347 112.601 14.8267 113.476 15.04C114.628 15.296 115.556 15.5733 116.26 15.872C116.985 16.1493 117.604 16.5973 118.116 17.216C118.628 17.8347 118.884 18.6773 118.884 19.744C118.884 21.1093 118.318 22.2187 117.188 23.072C116.057 23.904 114.66 24.32 112.996 24.32ZM125.904 24H123.056V20.896H125.904V24ZM137.625 24.32C136.174 24.32 134.83 23.968 133.593 23.264C132.377 22.5387 131.406 21.5573 130.681 20.32C129.955 19.0613 129.593 17.6747 129.593 16.16C129.593 14.6453 129.955 13.2693 130.681 12.032C131.406 10.7733 132.377 9.792 133.593 9.088C134.83 8.36267 136.174 8 137.625 8C139.331 8 140.867 8.46933 142.233 9.408C143.619 10.3467 144.59 11.6373 145.145 13.28H142.585C142.115 12.32 141.433 11.5733 140.537 11.04C139.641 10.5067 138.67 10.24 137.625 10.24C136.622 10.24 135.694 10.5067 134.841 11.04C133.987 11.552 133.315 12.256 132.825 13.152C132.334 14.048 132.089 15.0507 132.089 16.16C132.089 17.2693 132.334 18.272 132.825 19.168C133.315 20.064 133.987 20.7787 134.841 21.312C135.694 21.824 136.622 22.08 137.625 22.08C138.67 22.08 139.641 21.8133 140.537 21.28C141.433 20.7467 142.115 20 142.585 19.04H145.145C144.59 20.6827 143.619 21.9733 142.233 22.912C140.867 23.8507 139.331 24.32 137.625 24.32ZM155.566 24.32C154.072 24.32 152.696 23.968 151.438 23.264C150.2 22.5387 149.208 21.5573 148.462 20.32C147.736 19.0613 147.374 17.6747 147.374 16.16C147.374 14.6453 147.736 13.2693 148.462 12.032C149.208 10.7733 150.2 9.792 151.438 9.088C152.696 8.36267 154.072 8 155.566 8C157.059 8 158.424 8.36267 159.662 9.088C160.92 9.792 161.912 10.7733 162.638 12.032C163.384 13.2693 163.758 14.6453 163.758 16.16C163.758 17.6747 163.384 19.0613 162.638 20.32C161.912 21.5573 160.92 22.5387 159.662 23.264C158.424 23.968 157.059 24.32 155.566 24.32ZM155.566 22.08C156.611 22.08 157.56 21.824 158.414 21.312C159.288 20.7787 159.982 20.064 160.494 19.168C161.006 18.272 161.262 17.2693 161.262 16.16C161.262 15.0507 161.006 14.048 160.494 13.152C159.982 12.256 159.288 11.552 158.414 11.04C157.56 10.5067 156.611 10.24 155.566 10.24C154.52 10.24 153.56 10.5067 152.686 11.04C151.832 11.552 151.15 12.256 150.638 13.152C150.126 14.048 149.87 15.0507 149.87 16.16C149.87 17.2693 150.126 18.272 150.638 19.168C151.15 20.064 151.832 20.7787 152.686 21.312C153.56 21.824 154.52 22.08 155.566 22.08ZM184.711 8C185.863 8 186.887 8.29867 187.783 8.896C188.679 9.472 189.373 10.272 189.863 11.296C190.375 12.2987 190.631 13.44 190.631 14.72V24H188.231V14.72C188.231 13.4187 187.879 12.352 187.175 11.52C186.493 10.6667 185.565 10.24 184.391 10.24C183.645 10.24 182.951 10.4427 182.311 10.848C181.693 11.232 181.191 11.7653 180.807 12.448C180.423 13.1307 180.231 13.888 180.231 14.72V24H177.831V14.72C177.831 13.4187 177.479 12.352 176.775 11.52C176.093 10.6667 175.165 10.24 173.991 10.24C173.245 10.24 172.551 10.4427 171.911 10.848C171.293 11.232 170.791 11.7653 170.407 12.448C170.023 13.1307 169.831 13.888 169.831 14.72V24H167.431V8.32H169.831V10.4C170.386 9.61067 171.047 9.01333 171.815 8.608C172.583 8.20267 173.415 8 174.311 8C175.399 8 176.402 8.29867 177.319 8.896C178.258 9.472 178.962 10.24 179.431 11.2C179.986 10.176 180.722 9.38667 181.639 8.832C182.557 8.27733 183.581 8 184.711 8Z" fill="white"/>
</svg>
